<?xml version="1.0" standalone="no"?>
<!DOCTYPE svg PUBLIC "-//W3C//DTD SVG 1.1//EN" "http://www.w3.org/Graphics/SVG/1.1/DTD/svg11.dtd" >
<svg>
<metadata>
Created by FontForge 20090914 at Wed Mar 14 15:44:39 2018
 By www-data
URW Software, Copyright 1994 by URW
</metadata>
<defs>
<font id="EurostileT-Regu" horiz-adv-x="1024" >
  <font-face 
    font-family="EurostileT"
    font-weight="400"
    font-stretch="normal"
    units-per-em="2048"
    panose-1="2 11 5 4 2 2 2 5 2 4"
    ascent="1581"
    descent="-467"
    x-height="956"
    cap-height="1365"
    bbox="-378 -513 2299 1784"
    underline-thickness="129"
    underline-position="-138"
    unicode-range="U+0020-U+FB04"
  />
<missing-glyph horiz-adv-x="512" 
d="M51 0v1365h410v-1365h-410zM410 51v1263h-308v-1263h308z" />
    <glyph glyph-name=".notdef" horiz-adv-x="512" 
d="M51 0v1365h410v-1365h-410zM410 51v1263h-308v-1263h308z" />
    <glyph glyph-name="space" unicode=" " horiz-adv-x="512" 
 />
    <glyph glyph-name="exclam" unicode="!" horiz-adv-x="491" 
d="M328 186v-186h-160v186h160zM328 1365l-20 -988h-131l-17 988h168z" />
    <glyph glyph-name="quotedbl" unicode="&#x22;" horiz-adv-x="639" 
d="M211 819h-99l-19 546h138zM527 819h-99l-20 546h138z" />
    <glyph glyph-name="numbersign" unicode="#" horiz-adv-x="1256" 
d="M1101 531l-16 -98h-236l-68 -433h-109l69 433h-304l-68 -433h-108l69 433h-236l15 98h236l49 308h-236l16 98h236l67 428h108l-68 -428h303l68 428h109l-68 -428h234l-16 -98h-234l-48 -308h236zM805 839h-303l-49 -308h303z" />
    <glyph glyph-name="dollar" unicode="$" horiz-adv-x="1256" 
d="M687 1233l-0.00390625 -473.995c154.667 0 267 -12.667 337 -38c76 -27.333 126.667 -80 152 -158c16 -48.667 24 -110.667 24 -186c0 -95.333 -15 -170.666 -45 -225.999c-36.667 -69.333 -104.334 -114 -203.001 -134
c-33.333 -6.66699 -121.666 -12.334 -264.999 -17.001v-154h-115v154h-78c-78.667 -0.666992 -137.334 1.66602 -176.001 6.99902s-75 16.333 -109 33c-46 22 -80.667 52.667 -104 92s-38.333 92 -45 158c-3.33301 35.333 -5 80.333 -5 135h151v-25
c0.666992 -92 9.33398 -155 26.001 -189c14 -30 36.167 -51 66.5 -63s77.833 -18.667 142.5 -20c68.667 -2 112.334 -3.33301 131.001 -4v505c-155.333 0 -262 9.66699 -320 29c-72 23.333 -121.333 64.666 -148 123.999c-23.333 52 -35 124.333 -35 217
c0 125.333 25 214 75 266c54.667 56.667 152.334 89 293.001 97c35.333 2 80.333 3 135 3v127h115v-127c28.667 -0.666992 47.667 -1 57 -1c106.667 -0.666992 178.334 -5.33398 215.001 -14.001c95.333 -22 158 -75.333 188 -160c14.667 -40.667 22 -93.667 22 -159
c0 -10 -0.333008 -26 -1 -48h-148c-0.666992 17.333 -1 28.666 -1 33.999c-1.33301 67.333 -8.66602 115 -21.999 143c-18 35.333 -55 57.333 -111 66c-38.667 5.33301 -105 7.66602 -199 6.99902zM571.996 1235c-124.667 -1.33301 -204.668 -6.33496 -240.001 -15.002
c-48 -11.333 -80.333 -37 -97 -77c-13.333 -31.333 -20 -75.666 -20 -132.999c0 -88 14.667 -150.333 44 -187c26 -31.333 70.667 -50.666 134 -57.999c22.667 -2.66699 82.334 -4.66699 179.001 -6v476zM686.995 124.003c23.333 -0.666992 41.001 -1.00098 53.001 -1.00098
c114.667 0 196 17.667 244 53c46.667 34.667 70 106.334 70 215.001c0 66 -10.333 117.667 -31 155c-22 38.667 -67.333 62.667 -136 72c-28.667 4 -95.334 7 -200.001 9v-503z" />
    <glyph glyph-name="percent" unicode="%" horiz-adv-x="1610" 
d="M335 1370c88.667 0 147.334 -4.33203 176.001 -12.999c60 -18.667 97 -65 111 -139c5.33301 -28 8 -85.333 8 -172c0 -114.667 -2.33301 -185.334 -7 -212.001c-14 -74 -51.667 -121.333 -113 -142c-31.333 -10 -85.333 -15 -162 -15
c-84.667 0 -141.334 3.33301 -170.001 10c-68 16.667 -111.333 64 -130 142c-9.33301 38.667 -14 102.667 -14 192c0 104.667 6.33301 177 19 217c20.667 66 62 106.667 124 122c25.333 6.66699 78 10 158 10zM333 1295c-66.667 0 -110.668 -3 -132.001 -9s-37 -16 -47 -30
s-17.667 -36.667 -23 -68c-5.33301 -34.667 -8 -83.667 -8 -147c0 -145.333 13.667 -231.666 41 -258.999c18 -18 75.333 -27 172 -27c13.333 0.666992 30 0.666992 50 0c70 -1.33301 114.667 14.334 134 47.001c13.333 17.333 20.333 53.666 21 108.999v116
c-0.666992 98 -2.16699 157.833 -4.5 179.5s-10.166 40.167 -23.499 55.5c-14.667 17.333 -41 27.666 -79 30.999c-23.333 1.33301 -57 2 -101 2zM1315 1365l-927 -1365h-93l921 1365h99zM1276 688.001c88.667 0 147.333 -4.33203 176 -12.999c60 -18.667 97 -65 111 -139
c5.33301 -28 8 -85.333 8 -172c0 -114.667 -2.33301 -185.334 -7 -212.001c-14 -74 -51.667 -121.333 -113 -142c-31.333 -10 -85.333 -15 -162 -15c-85.333 0 -142 3.33301 -170 10c-68 16 -111.333 63.333 -130 142c-9.33301 38.667 -14 102.667 -14 192
c0 104.667 6.33301 177 19 217c20.667 66 62 106.667 124 122c25.333 6.66699 78 10 158 10zM1274 613.002c-66.667 0 -110.668 -3 -132.001 -9s-37 -16 -47 -30s-17.667 -36.667 -23 -68c-5.33301 -34.667 -8 -83.667 -8 -147c0 -145.333 13.667 -231.666 41 -258.999
c18 -18 75.333 -27 172 -27c13.333 0.666992 30 0.666992 50 0c70 -1.33301 114.667 14.334 134 47.001c13.333 17.333 20.333 53.666 21 108.999v116c-0.666992 98 -2.16699 157.833 -4.5 179.5s-10.166 40.167 -23.499 55.5c-14.667 17.333 -41 27.666 -79 30.999
c-23.333 1.33301 -57 2 -101 2z" />
    <glyph glyph-name="ampersand" unicode="&#x26;" horiz-adv-x="1434" 
d="M1054 603l152.001 -0.00292969c1.33301 -55.333 2 -89.666 2 -102.999c0 -73.333 -5.33301 -138.666 -16 -195.999l239 -197l-84 -107l-202 167c-27.333 -58 -64.333 -100 -111 -126c-51.333 -27.333 -106 -43.333 -164 -48c-54 -4.66699 -119 -7 -195 -7
c-153.333 0 -259.333 6.66699 -318 20c-59.333 14 -106 36.333 -140 67s-59.333 73.334 -76 128.001c-16 53.333 -24 127.333 -24 222c0 108.667 14 187.334 42 236.001c30.667 54 79 89 145 105c12.667 3.33301 32.334 7.66602 59.001 12.999c8 2 19 4.33301 33 7
c-45.333 38 -76 70 -92 96c-21.333 34 -32 81.333 -32 142c0 131.333 28.667 219 86 263c42 32 96.667 51.667 164 59c53.333 6 109.666 9 168.999 9c80 0 143.5 -5.66699 190.5 -17s85.167 -30 114.5 -56c53.333 -48 80 -129.667 80 -245
c0 -20.667 -0.666992 -50.334 -2 -89.001h-151c-0.666992 26 -1 42.667 -1 50c0 58 -2.33301 99.167 -7 123.5s-13.667 43.5 -27 57.5c-26.667 28.667 -93.334 43 -200.001 43c-67.333 0 -117 -3 -149 -9s-57.333 -17 -76 -33c-24.667 -21.333 -37 -62.333 -37 -123
c0 -57.333 10.667 -100.666 32 -129.999c12.667 -18 40 -44.333 82 -79l514 -428c2 32.667 3 60.667 3 84s-1 57 -3 101zM492.001 700.997c-69.333 -16 -118.667 -31.334 -148 -46.001c-29.333 -15.333 -49.333 -45.666 -60 -90.999c-8 -36 -12 -84.333 -12 -145
c0 -138.667 23.333 -225.667 70 -261c30 -22 80.667 -34 152 -36c52 -1.33301 107.333 -2 166 -2c113.333 0 191 5.66699 233 17c70 18 114 59.667 132 125z" />
    <glyph glyph-name="quotesingle" unicode="'" horiz-adv-x="323" 
d="M211 819h-99l-19 546h138z" />
    <glyph glyph-name="parenleft" unicode="(" horiz-adv-x="567" 
d="M465 -286l-0.00292969 -130c-22.667 -0.666992 -39.667 -1 -51 -1c-138.667 0 -230 54 -274 162c-20 48.667 -31.667 121.667 -35 219c-1.33301 29.333 -2 200.666 -2 513.999c0 348.667 2.33301 545.667 7 591c7.33301 70 21 125.5 41 166.5s49 73.167 87 96.5
c44.667 27.333 103.334 41 176.001 41c11.333 0 28.333 -0.333008 51 -1v-130c-66 -0.666992 -112.667 -9.66699 -140 -27c-29.333 -20 -47.666 -64.333 -54.999 -133c-5.33301 -53.333 -8 -165.666 -8 -336.999l1 -267l-1 -267c0 -212 6 -343.333 18 -394
c10.667 -46 35.667 -76 75 -90c22.667 -8.66699 59.334 -13 110.001 -13z" />
    <glyph glyph-name="parenright" unicode=")" horiz-adv-x="567" 
d="M102 1242l0.00292969 129.999c22.667 0.666992 39.667 1 51 1c138.667 0 230 -54 274 -162c20 -48.667 31.667 -121.667 35 -219c1.33301 -29.333 2 -200.666 2 -513.999c0 -348.667 -2.33301 -545.667 -7 -591c-7.33301 -70 -21 -125.5 -41 -166.5
s-49 -73.167 -87 -96.5c-44.667 -27.333 -103.334 -41 -176.001 -41c-11.333 0 -28.333 0.333008 -51 1v130c66 0.666992 112.667 9.66699 140 27c29.333 20 47.666 64.333 54.999 133c5.33301 52.667 8 165 8 337l-1 267l1 160v107c0 212 -6 343.333 -18 394
c-10.667 46 -35.667 76 -75 90c-22.667 8.66699 -59.334 13 -110.001 13z" />
    <glyph glyph-name="asterisk" unicode="*" horiz-adv-x="1256" 
d="M993 1074l-281 -105l167 -238l-80 -60l-169 247l-183 -247l-80 60l175 238l-279 105l35 100l280 -100v291h101v-291l278 100z" />
    <glyph glyph-name="plus" unicode="+" horiz-adv-x="1256" 
d="M558 210v408h-403v129h403v409h140v-409h403v-129h-403v-408h-140z" />
    <glyph glyph-name="comma" unicode="," horiz-adv-x="415" 
d="M291 185v-199c0 -64.667 -7.33301 -109 -22 -133c-22.667 -36 -62 -54 -118 -54c-10.667 0 -24.667 0.666992 -42 2v76c31.333 2 53.333 7.66699 66 17c16 12.667 24 35 24 67c0 8.66699 -0.666992 21.667 -2 39h-68v185h162z" />
    <glyph glyph-name="hyphen" unicode="-" horiz-adv-x="425" 
d="M3 565h422v-133h-425z" />
    <glyph glyph-name="period" unicode="." horiz-adv-x="408" 
d="M285 186v-186h-162v186h162z" />
    <glyph glyph-name="slash" unicode="/" horiz-adv-x="1323" 
d="M1179 1365l-1200 -1775h-115l1201 1775h114z" />
    <glyph glyph-name="zero" unicode="0" horiz-adv-x="1256" 
d="M641 1379c146 0 247.998 -9.33301 305.998 -28c123.333 -39.333 193 -139.666 209 -300.999c4.66699 -48 7 -170.333 7 -367c0 -197.333 -2.33301 -320 -7 -368c-16 -160.667 -85.667 -261 -209 -301c-57.333 -18.667 -163.666 -28 -318.999 -28
s-261.666 9.33301 -318.999 28c-123.333 40 -193 140.333 -209 301c-4.66699 48 -7 187.667 -7 419c0 161.333 2.33301 266.666 7 315.999c8.66699 83.333 29.667 149 63 197s82 82.667 146 104c42.667 14 97.667 22.333 165 25c46 2 101.667 3 167 3zM619.998 1246
c-118 0 -202 -7.66699 -252 -23c-56.667 -17.333 -93.667 -62.333 -111 -135c-12 -50.667 -18 -185.667 -18 -405c0 -152 2.33301 -259 7 -321c4.66699 -67.333 16.334 -117.833 35.001 -151.5s47.667 -56.5 87 -68.5c49.333 -15.333 136 -23 260 -23
s210.667 7.66699 260 23c56.667 17.333 93.667 62.333 111 135c12 50.667 18 187.667 18 411c0 147.333 -2.33301 252.333 -7 315c-6 80 -21.667 136.667 -47 170c-30 38.667 -84.667 61 -164 67c-52.667 4 -112.334 6 -179.001 6z" />
    <glyph glyph-name="one" unicode="1" horiz-adv-x="1256" 
d="M809 1365v-1365h-153v1250l-349 -387l-97 92l378 410h221z" />
    <glyph glyph-name="two" unicode="2" horiz-adv-x="1256" 
d="M1094 130l-0.00488281 -129.998h-983v257c0 72 6.16699 128.833 18.5 170.5s33.5 76.167 63.5 103.5c42 38 104 65.667 186 83c23.333 5.33301 95.333 14.666 216 27.999c116.667 13.333 194 25.666 232 36.999c30.667 10 53.834 22.167 69.501 36.5
s27.834 35.166 36.501 62.499c12.667 40 19 103.667 19 191c0 112 -16.667 185.333 -50 220c-38 38.667 -125.333 58 -262 58c-177.333 0 -285.333 -15.667 -324 -47c-36.667 -28.667 -55 -92.334 -55 -191.001c0 -13.333 0.666992 -49.666 2 -108.999h-150
c1.33301 82 3.33301 138.667 6 170c7.33301 76.667 24.333 136.334 51 179.001s66.334 72.667 119.001 90c80.667 26.667 196 40 346 40c185.333 0 310.666 -31.667 375.999 -95c40.667 -40 66.334 -97 77.001 -171c6.66699 -48 10 -102.667 10 -164
c0 -106 -10.333 -184.667 -31 -236c-30 -74.667 -87 -126.667 -171 -156c-55.333 -19.333 -145.666 -35.333 -270.999 -48c-105.333 -10.667 -170.333 -19 -195 -25c-43.333 -9.33301 -75.666 -21.5 -96.999 -36.5s-37.333 -36.5 -48 -64.5
c-13.333 -39.333 -20.333 -108.333 -21 -207v-46h830z" />
    <glyph glyph-name="three" unicode="3" horiz-adv-x="1256" 
d="M500 632l0.00195312 131.997c24 -0.666992 39.333 -1 46 -1c96.667 0 171 1.66699 223 5c62.667 4.66699 106.334 19.334 131.001 44.001c30 30 45 87 45 171c0 81.333 -8.33301 143 -25 185c-8.66699 22.667 -22.834 39.5 -42.501 50.5s-49.834 18.5 -90.501 22.5
c-34.667 4 -96 6 -184 6c-88.667 0 -152.667 -3 -192 -9s-69 -17.667 -89 -35c-32 -26.667 -48 -90 -48 -190v-67h-146c0.666992 96.667 3.83398 163.5 9.50098 200.5s18.5 71.833 38.5 104.5c37.333 62 105.333 101 204 117c46 7.33301 122.667 11 230 11
c134.667 0 229 -7 283 -21c95.333 -25.333 156.333 -76 183 -152c14.667 -43.333 22 -100.666 22 -171.999c0 -125.333 -17.667 -209.666 -53 -252.999c-22 -27.333 -51.333 -47 -88 -59c-19.333 -6.66699 -49 -12.334 -89 -17.001v-7c89.333 -12 150 -32.333 182 -61
c49.333 -44.667 74 -129.667 74 -255c0 -150 -28.667 -252.333 -86 -307c-40 -37.333 -93 -61.333 -159 -72c-72 -11.333 -154.333 -17 -247 -17c-160 0 -273.333 10.333 -340 31c-116.667 36.667 -178.334 129 -185.001 277c-0.666992 8 -1.33398 58 -2.00098 150h150v-82
c-0.666992 -113.333 20.666 -183.666 63.999 -210.999c28.667 -18 75.334 -28 140.001 -30c80 -2 146 -3 198 -3c148 0 239 19.667 273 59c27.333 31.333 41 106 41 224c0 85.333 -15.667 144.333 -47 177c-25.333 26.667 -60 43 -104 49c-36 4.66699 -80 6.66699 -132 6
l-130 -1h-58z" />
    <glyph glyph-name="four" unicode="4" horiz-adv-x="1256" 
d="M972 1365v-920h204v-130h-204v-315h-153v315h-765v181l681 869h237zM819 445v821h-3l-634 -821h637z" />
    <glyph glyph-name="five" unicode="5" horiz-adv-x="1256" 
d="M1077 1365l-0.00292969 -130h-766l-7 -414h3c32 45.333 71.333 74.666 118 87.999c58.667 16.667 141.334 25 248.001 25c175.333 0 297 -33 365 -99c51.333 -50.667 81.333 -121.334 90 -212.001c3.33301 -38 5 -82 5 -132c0 -128 -8 -220.667 -24 -278
c-27.333 -99.333 -84.333 -163.666 -171 -192.999c-68.667 -22.667 -168 -34 -298 -34c-145.333 0 -248.666 9.66699 -309.999 29c-122 38.667 -187 124.334 -195 257.001c-1.33301 18.667 -2 58 -2 118h145c0.666992 -86 8.33398 -147 23.001 -183
c19.333 -45.333 74.666 -73.333 165.999 -84c26.667 -3.33301 75.334 -5 146.001 -5c181.333 0 291 24 329 72c22 28.667 34 82.667 36 162c1.33301 50.667 2 99.667 2 147c0 124.667 -20 206 -60 244c-30.667 29.333 -78 47 -142 53c-40 4 -85 6 -135 6
c-107.333 0 -181.666 -4.66699 -222.999 -14c-52.667 -12 -88.334 -35.333 -107.001 -70c-6 -10.667 -11.333 -25.667 -16 -45h-139v692h919z" />
    <glyph glyph-name="six" unicode="6" horiz-adv-x="1256" 
d="M1082 1020l-150.001 -0.000976562c1.33301 22 2 39.333 2 52c0 60.667 -13.667 103.667 -41 129c-21.333 20 -52 32.667 -92 38c-39.333 5.33301 -85 8 -137 8c-139.333 0 -233 -6.33301 -281 -19c-50.667 -13.333 -84 -39.666 -100 -78.999
c-14.667 -35.333 -22 -86.333 -22 -153v-278h3c34 47.333 71.667 78.333 113 93c55.333 19.333 149.333 29 282 29c136.667 0 234 -12.333 292 -37c68 -29.333 114 -79.666 138 -150.999c19.333 -56 29 -128.667 29 -218c0 -168.667 -28.333 -285.334 -85 -350.001
c-42.667 -49.333 -103.667 -78.666 -183 -87.999c-62 -6.66699 -136.333 -10 -223 -10c-105.333 0 -184.333 4.33301 -237 13s-98 25 -136 49c-70 43.333 -114.667 100.666 -134 171.999c-10.667 41.333 -16.667 123.333 -18 246l-3 248c4 205.333 6 311 6 317
c2.66699 75.333 13.834 134.333 33.501 177s52.167 78.334 97.5 107.001c67.333 42.667 182.333 64 345 64c152.667 0 260.667 -10 324 -30c118.667 -36.667 178 -129.334 178 -278.001c0 -12.667 -0.333008 -29.667 -1 -51zM605.999 707.999
c-152 0 -251.999 -18.334 -299.999 -55.001c-23.333 -18 -38.333 -44.333 -45 -79c-6 -30.667 -9 -69 -9 -115c0 -80.667 4.5 -143.167 13.5 -187.5s23.833 -76.166 44.5 -95.499c29.333 -27.333 77.666 -44.333 144.999 -51c51.333 -4.66699 107 -7 167 -7
c90 0 156.667 3.5 200 10.5s75 19.5 95 37.5c36.667 32.667 55 113 55 241c0 134.667 -16 217.667 -48 249c-36 34.667 -142 52 -318 52z" />
    <glyph glyph-name="seven" unicode="7" horiz-adv-x="1256" 
d="M1093 1365v-196l-661 -1169h-183l716 1235h-867v130h995z" />
    <glyph glyph-name="eight" unicode="8" horiz-adv-x="1256" 
d="M889 709l-0.00195312 -3c76 -15.333 128.667 -35 158 -59c34 -27.333 55.333 -64.333 64 -111c8 -41.333 12 -88 12 -140c0 -109.333 -9 -188 -27 -236c-29.333 -78.667 -94.333 -129.334 -195 -152.001c-63.333 -14.667 -151.666 -22 -264.999 -22
c-118 0 -209.667 5 -275 15s-115 26.333 -149 49c-53.333 36 -86 93 -98 171c-6.66699 46 -10 97.333 -10 154c0 118 14.333 197.333 43 238c26 36 67.333 62.333 124 79c14 4 37 9.33301 69 16v3c-75.333 16 -126 36.333 -152 61c-44 40 -66 124.667 -66 254
c0 137.333 26.667 228.666 80 273.999c46.667 40.667 113.334 64.334 200.001 71.001c66 5.33301 138 8 216 8c148 0 249 -7.33301 303 -22c86 -24 141.333 -76 166 -156c14 -45.333 21 -104.666 21 -177.999c0 -112 -15.333 -188.333 -46 -229
c-29.333 -38 -87 -66.333 -173 -85zM611.998 1247c-97.333 0 -167.001 -3 -209.001 -9s-72.667 -17.333 -92 -34c-22 -18 -35 -47.667 -39 -89c-2.66699 -31.333 -4 -70 -4 -116c0 -81.333 11.333 -137 34 -167c24 -31.333 71 -50.333 141 -57
c42.667 -4 118.334 -6 227.001 -6c128.667 0 210.667 17.333 246 52c24 23.333 38 58 42 104c2.66699 26.667 4 57 4 91c0 102 -17 166.333 -51 193c-18 14 -49.167 23.833 -93.5 29.5s-112.833 8.5 -205.5 8.5zM595.997 639c-88.667 0 -152.501 -3.16699 -191.501 -9.5
s-71.5 -18.833 -97.5 -37.5c-31.333 -22.667 -49 -56.667 -53 -102c-2.66699 -27.333 -4 -64.666 -4 -111.999c0 -90 7.66699 -149.667 23 -179c13.333 -24.667 32.833 -42.834 58.5 -54.501s62.834 -19.167 111.501 -22.5c36 -2.66699 106.667 -4 212 -4
c140.667 0 231 18 271 54c34 31.333 51 109.333 51 234c0 97.333 -22 161 -66 191c-30.667 20.667 -73 32.667 -127 36c-55.333 4 -118 6 -188 6z" />
    <glyph glyph-name="nine" unicode="9" horiz-adv-x="1256" 
d="M103 348l145.002 -0.00488281c-1.33301 -20.667 -2 -36 -2 -46c0 -72.667 18.333 -122 55 -148c30 -20.667 77 -32 141 -34c54 -1.33301 108.333 -2 163 -2c124.667 0 212.334 9.33301 263.001 28c46.667 16.667 76 58.334 88 125.001c6 34.667 9 93 9 175v205h-3
c-28 -42 -55.333 -69.333 -82 -82c-57.333 -26.667 -167.666 -40 -330.999 -40c-152.667 0 -261.334 23 -326.001 69c-52 36.667 -84.333 89.334 -97 158.001c-9.33301 50 -14 106.667 -14 170c0 126.667 11.333 218.334 34 275.001c19.333 47.333 47.166 84 83.499 110
s86.166 44.333 149.499 55c53.333 8.66699 134 13 242 13c143.333 0 247 -12.667 311 -38c98 -39.333 156 -115.333 174 -228c12 -74 18 -243.333 18 -508c0 -142.667 -3.66699 -246 -11 -310c-8.66699 -76.667 -26.5 -136.167 -53.5 -178.5s-67.167 -74.166 -120.5 -95.499
c-42.667 -16.667 -97.334 -27 -164.001 -31c-44.667 -2.66699 -98 -4 -160 -4c-148.667 0 -250.667 6.66699 -306 20c-139.333 34.667 -209 127.334 -209 278.001c0 14.667 1 36 3 64zM583.002 1247c-81.333 0 -142.169 -3.66602 -182.502 -10.999s-70.166 -20 -89.499 -38
c-35.333 -33.333 -53 -112.666 -53 -237.999c0 -129.333 17.333 -211.333 52 -246c26.667 -26.667 71.667 -42.667 135 -48c36.667 -2.66699 78 -4 124 -4c132.667 0 223.334 6.33301 272.001 19c46 11.333 77.667 29.666 95 54.999c20 28 30 88.333 30 181
c0 100 -5.66699 167 -17 201c-14.667 45.333 -40.667 77.666 -78 96.999c-42 21.333 -138 32 -288 32z" />
    <glyph glyph-name="colon" unicode=":" horiz-adv-x="408" 
d="M285 186v-186h-162v186h162zM285 956v-186h-162v186h162z" />
    <glyph glyph-name="semicolon" unicode=";" horiz-adv-x="373" 
d="M250 185v-199c0 -64.667 -7.33301 -109 -22 -133c-22.667 -36 -62 -54 -118 -54c-10.667 0 -24.667 0.666992 -42 2v76c31.333 2 53.333 7.66699 66 17c16 12.667 24 35 24 67c0 8.66699 -0.666992 21.667 -2 39h-68v185h162zM240 956v-186h-162v186h162z" />
    <glyph glyph-name="less" unicode="&#x3c;" 
d="M955 1163v-140l-737 -334l737 -335v-139l-887 413v122z" />
    <glyph glyph-name="equal" unicode="=" horiz-adv-x="1256" 
d="M155 918h946v-129h-946v129zM155 576h946v-129h-946v129z" />
    <glyph glyph-name="greater" unicode="&#x3e;" 
d="M69 215v140l737 334l-737 334v139l887 -413v-122z" />
    <glyph glyph-name="question" unicode="?" horiz-adv-x="1064" 
d="M546 186v-186h-159v186h159zM546 394l-151.001 -0.000976562c1.33301 68.667 4.66602 114.667 9.99902 138c12 58.667 35.667 100.334 71 125.001c27.333 18.667 99 49.667 215 93c41.333 15.333 70.333 32.666 87 51.999c26.667 29.333 40 96 40 200
c0 106 -16.333 173.667 -49 203c-30 27.333 -104 41 -222 41c-132 0 -214.333 -15.667 -247 -47c-31.333 -30 -47 -95.667 -47 -197c0 -10.667 0.333008 -32 1 -64h-145c0.666992 22.667 1 37.667 1 45c0.666992 103.333 8.66699 177 24 221
c29.333 84.667 95 137.334 197 158.001c54 11.333 131.333 17 232 17c103.333 0 179.333 -9.33301 228 -28c83.333 -32.667 135.333 -90.667 156 -174c9.33301 -36.667 14 -91 14 -163c0 -106 -9 -182.667 -27 -230c-26.667 -69.333 -74.667 -119 -144 -149
c-7.33301 -3.33301 -42.666 -16.333 -105.999 -39c-75.333 -28 -118 -56.333 -128 -85c-5.33301 -18 -8.66602 -57 -9.99902 -117z" />
    <glyph glyph-name="at" unicode="@" horiz-adv-x="1287" 
d="M837 969l100.004 0.00195312v-471c2 -52 4 -83 6 -93c6.66699 -34 32.667 -51 78 -51c31.333 0 52.666 10.333 63.999 31c23.333 42 35 151.667 35 329c0 126 -8.66699 217.667 -26 275c-20.667 66.667 -73 106 -157 118c-61.333 8.66699 -151.666 13 -270.999 13
c-150.667 0 -256.667 -6.33301 -318 -19c-65.333 -13.333 -108.333 -41 -129 -83c-33.333 -69.333 -50 -196.333 -50 -381c0 -150 9 -263 27 -339c18 -77.333 56.667 -128 116 -152c52 -20.667 135.333 -33 250 -37c49.333 -2 97.666 -3 144.999 -3
c122 0 205 7.33301 249 22c19.333 6 37 21.667 53 47l68 -49c-24 -42 -58.333 -69.667 -103 -83c-50.667 -14.667 -144.334 -22 -281.001 -22c-206.667 0 -352.334 20.333 -437.001 61c-73.333 35.333 -120.666 98.333 -141.999 189c-21.333 87.333 -32 199.333 -32 336
c0 177.333 13 307.666 39 390.999c24 74.667 63.333 125.667 118 153c76.667 38 223 57 439 57c156 0 267.333 -10.333 334 -31c67.333 -22 113.666 -57 138.999 -105c36.667 -70 55 -178.667 55 -326c0 -161.333 -11.333 -281.333 -34 -360
c-14.667 -52 -41 -85.333 -79 -100c-19.333 -7.33301 -42 -11 -68 -11c-96.667 0 -152.667 36.667 -168 110h-3c-14 -34.667 -36.333 -61.334 -67 -80.001c-39.333 -24 -98.666 -36 -177.999 -36c-106.667 0 -178.667 31 -216 93c-29.333 49.333 -44 132.666 -44 249.999
c0 89.333 6 158 18 206c16.667 64 52 107 106 129c35.333 14.667 82.666 22 141.999 22c66 0 118.667 -9 158 -27c25.333 -11.333 45.666 -33.666 60.999 -66.999h3v94zM640.004 886.002c-43.333 0 -78.665 -4.66602 -105.998 -13.999
c-38.667 -12.667 -62.334 -50 -71.001 -112c-5.33301 -35.333 -8 -81 -8 -137c0 -118.667 14.667 -195.667 44 -231c21.333 -26 66.666 -39 135.999 -39c65.333 0 111.333 8.33301 138 25c35.333 22 54.666 65.667 57.999 131c3.33301 54.667 5 111 5 169
c0 83.333 -16 139.666 -48 168.999c-27.333 26 -76.666 39 -147.999 39z" />
    <glyph glyph-name="A" unicode="A" horiz-adv-x="1246" 
d="M969 289h-691l-105 -289h-163l500 1365h216l510 -1365h-161zM924 412l-303 828l-299 -828h602z" />
    <glyph glyph-name="B" unicode="B" horiz-adv-x="1263" 
d="M130 0l-0.000976562 1365h603c80.667 0 136.667 -2 168 -6c90 -11.333 154.333 -49.666 193 -114.999c30 -50 45 -131 45 -243c0 -103.333 -22 -177.666 -66 -222.999c-23.333 -23.333 -59.666 -44 -108.999 -62v-3c56 -14 98 -31 126 -51
c60.667 -44 91 -136.333 91 -277c0 -171.333 -43.667 -283 -131 -335c-57.333 -33.333 -141.333 -50 -252 -50h-668zM282.999 764.998l404.999 0.000976562c106.667 0 179.334 10.667 218.001 32c36 20 59.333 51.667 70 95c6.66699 26 10 65.333 10 118
c0 63.333 -6.66699 109.666 -20 138.999c-20.667 45.333 -60.667 72 -120 80c-22 2.66699 -60.667 4 -116 4h-447v-468zM282.998 131.999l327 0.000976562c117.333 0.666992 187.333 1.66699 210 3c104.667 5.33301 167.667 36 189 92c12.667 34.667 19 81.667 19 141
c0 71.333 -6.33301 125.666 -19 162.999c-18.667 54 -65.667 86.667 -141 98c-20 2.66699 -82.667 4 -188 4h-397v-501z" />
    <glyph glyph-name="C" unicode="C" horiz-adv-x="1222" 
d="M1025 456l153.008 -0.000976562v-67c0.666992 -119.333 -13 -205.333 -41 -258c-38 -71.333 -110 -115.666 -216 -132.999c-48.667 -8 -165 -12 -349 -12c-110.667 0 -196.334 9.66699 -257.001 29c-103.333 32 -172 106.333 -206 223c-22 76.667 -33 223 -33 439
c0 183.333 1.66699 295.333 5 336c6.66699 91.333 29.834 164.166 69.501 218.499s98.5 93.5 176.5 117.5c66 20 199 30 399 30c109.333 0 187.666 -7.33301 234.999 -22c105.333 -33.333 167.666 -107.666 186.999 -222.999c5.33301 -28.667 9.66602 -90.667 12.999 -186
h-153c0 22.667 -0.333008 36.667 -1 42c-0.666992 63.333 -6 111.833 -16 145.5s-26.667 58.5 -50 74.5c-34.667 24.667 -109.334 37 -224.001 37c-128 0 -226.667 -4.33301 -296 -13c-44.667 -5.33301 -79.834 -17.833 -105.501 -37.5s-44.834 -49.167 -57.501 -88.5
c-14 -42 -21 -109 -21 -201c0 -165.333 2 -311.333 6 -438c5.33301 -162 33.666 -262.667 84.999 -302c34.667 -26.667 90.667 -41.667 168 -45c39.333 -2 81.333 -3 126 -3c108 0 189.167 4.33301 243.5 13s92.166 23 113.499 43c32 30.667 48 95.667 48 195
c0 21.333 -0.666992 50 -2 86z" />
    <glyph glyph-name="D" unicode="D" horiz-adv-x="1337" 
d="M130 0v1365h631c86 0 160.333 -7.66699 223 -23c91.333 -22 161 -78.333 209 -169c36 -66.667 57.667 -157.334 65 -272.001c2.66699 -36 4 -87 4 -153c0 -165.333 -3.66699 -280.666 -11 -345.999c-19.333 -174.667 -84 -290.334 -194 -347.001
c-42.667 -22 -108 -38.667 -196 -50c-24 -3.33301 -44.333 -5 -61 -5h-670zM283 132.001l445.001 -0.000976562c154 0 254.667 28.667 302 86c39.333 47.333 63.666 125 72.999 233c4 46.667 6 114.334 6 203.001c0 159.333 -4.33301 271.666 -13 336.999
c-14.667 114.667 -65 187.334 -151 218.001c-46 16 -108 24 -186 24h-476v-1101z" />
    <glyph glyph-name="E" unicode="E" horiz-adv-x="1020" 
d="M228 1233v-463h694v-130h-694v-508h724v-132h-877v1365h877v-132h-724z" />
    <glyph glyph-name="F" unicode="F" horiz-adv-x="1001" 
d="M283 1233v-475h666v-130h-666v-628h-153v1365h837v-132h-684z" />
    <glyph glyph-name="G" unicode="G" horiz-adv-x="1267" 
d="M617 679h584.997c2.66699 -36 4 -77.333 4 -124c0 -106.667 -1.33301 -183 -4 -229c-4.66699 -81.333 -21.5 -146.666 -50.5 -195.999s-71.833 -85.333 -128.5 -108c-60 -24 -185.333 -36 -376 -36c-133.333 0 -231.833 7.16699 -295.5 21.5
s-117.167 41.166 -160.5 80.499c-66.667 60.667 -103.667 152.334 -111 275.001c-3.33301 49.333 -4.66602 112.333 -3.99902 189c0 12 -0.333008 61.667 -1 149v55c0 102.667 3 180.667 9 234c20 186.667 86.667 303.334 200 350.001c49.333 20 113 32 191 36
c46.667 2 108.667 3 186 3c110.667 0 188.5 -1.83301 233.5 -5.5s84.167 -11.167 117.5 -22.5c115.333 -38.667 178 -123.334 188 -254.001c1.33301 -24 2 -66.667 2 -128h-151c-0.666992 60 -2.66699 102.167 -6 126.5s-10.666 47.833 -21.999 70.5
c-20 40 -69 64.333 -147 73c-50 5.33301 -138.333 8 -265 8c-112.667 0 -195 -7.66699 -247 -23c-61.333 -18.667 -101 -69.334 -119 -152.001c-9.33301 -42 -15 -170 -17 -384c0.666992 -168.667 2 -267.667 4 -297c3.33301 -75.333 15.833 -132.5 37.5 -171.5
s55.167 -64.833 100.5 -77.5c56.667 -16 167.334 -24 332.001 -24c92 0 161.333 5.16699 208 15.5s79.667 27.5 99 51.5c29.333 37.333 44 129 44 275c0 19.333 -0.666992 48.333 -2 87h-434v132z" />
    <glyph glyph-name="H" unicode="H" horiz-adv-x="1365" 
d="M1236 1365v-1365h-153v633h-800v-633h-153v1365h153v-602h800v602h153z" />
    <glyph glyph-name="I" unicode="I" horiz-adv-x="416" 
d="M283 1365v-1365h-153v1365h153z" />
    <glyph glyph-name="J" unicode="J" horiz-adv-x="1028" 
d="M898 1365v-962.997c0 -78.667 -4.16699 -138.834 -12.5 -180.501s-22.833 -77.5 -43.5 -107.5c-35.333 -50 -84.333 -84.333 -147 -103c-52.667 -16.667 -124 -25 -214 -25c-170 0 -287.333 29.333 -352 88c-36 32.667 -58.333 75 -67 127c-6 38.667 -9 84.667 -9 138
c0 61.333 1 114 3 158h151v-25v-105c0 -58.667 2.5 -101.334 7.5 -128.001s14.167 -48.334 27.5 -65.001c21.333 -26.667 54 -42.667 98 -48c38.667 -4.66699 85 -7 139 -7c92.667 0 155 10.333 187 31c44 27.333 69 80.333 75 159c2.66699 36 4 75.333 4 118v938h153z" />
    <glyph glyph-name="K" unicode="K" horiz-adv-x="1234" 
d="M283 1365v-596h135l560 596h199l-624 -661l700 -704h-211l-624 632h-135v-632h-153v1365h153z" />
    <glyph glyph-name="L" unicode="L" horiz-adv-x="993" 
d="M283 1365v-1222h703v-143h-856v1365h153z" />
    <glyph glyph-name="M" unicode="M" horiz-adv-x="1757" 
d="M1628 1365v-1365h-153v1092v82l1 41l1 41h-4c-15.333 -41.333 -32 -83.666 -50 -126.999l-466 -1129h-154l-467 1116l-27 63l-12 32l-12 31h-4l1 -37l1 -38v-75v-1092h-153v1365h267l364 -883l58 -143l29 -71l28 -71h4l28 71l29 71l58 142l363 884h270z" />
    <glyph glyph-name="N" unicode="N" horiz-adv-x="1426" 
d="M1296 1365v-1365h-252l-573 929l-94 153l-46 76l-46 76h-4l1 -51l1 -52v-102v-1029h-153v1365h251l500 -814l260 -427h4l-1 51l-1 52v102v1036h153z" />
    <glyph glyph-name="O" unicode="O" horiz-adv-x="1256" 
d="M644 1379c94.667 0 167.834 -3.16602 219.501 -9.49902s97.167 -17.833 136.5 -34.5c112 -48 179 -156.667 201 -326c6 -46.667 9 -130.334 9 -251.001c0 -217.333 -3.66699 -353.333 -11 -408c-11.333 -88 -31 -155.667 -59 -203s-69.667 -84.333 -125 -111
c-57.333 -27.333 -130 -43 -218 -47c-46.667 -2 -102.667 -3 -168 -3c-113.333 0 -195.5 3.33301 -246.5 10s-97.833 20 -140.5 40c-89.333 42.667 -146 120.667 -170 234c-16 73.333 -24.333 182 -25 326v190c0 100 3 174.333 9 223c11.333 88 33.166 158 65.499 210
s77.5 90.667 135.5 116c50.667 21.333 116 34.333 196 39c52 3.33301 115.667 5 191 5zM611 1247c-86 0 -148.5 -2 -187.5 -6s-72.167 -11.667 -99.5 -23c-52.667 -22.667 -88 -71 -106 -145c-12 -50 -18 -107.333 -18 -172v-218c0 -170.667 1.66699 -272 5 -304
c6.66699 -68 19.167 -119.833 37.5 -155.5s45.5 -61.167 81.5 -76.5c32.667 -14 78.667 -22.667 138 -26c44 -2 99.667 -3 167 -3c142 0 233.333 6 274 18c38.667 11.333 68.5 29 89.5 53s36.833 58.333 47.5 103c12 49.333 18 106.666 18 171.999l-1 219
c0 170 -1.66699 271 -5 303c-6.66699 69.333 -19 121.333 -37 156s-45.333 60 -82 76c-33.333 14.667 -80.333 23.334 -141 26.001c-44.667 2 -105 3 -181 3z" />
    <glyph glyph-name="P" unicode="P" horiz-adv-x="1207" 
d="M130 0v1365h572c64 0 109.667 -0.666992 137 -2c67.333 -4.66699 120.666 -16.667 159.999 -36s71.333 -49.666 96 -90.999c38.667 -64.667 58 -161.334 58 -290.001c0 -115.333 -15.333 -202 -46 -260c-38 -72 -98 -117.667 -180 -137
c-27.333 -6.66699 -110.666 -11 -249.999 -13h-394v-536h-153zM283 668h364.998c120.667 0 202.334 8 245.001 24c48.667 18 80.667 55.333 96 112c7.33301 27.333 11 68.333 11 123c0 98 -6.66699 167.333 -20 208c-15.333 47.333 -50.666 77 -105.999 89
c-21.333 4.66699 -80.333 7.66699 -177 9h-414v-565z" />
    <glyph glyph-name="Q" unicode="Q" horiz-adv-x="1342" 
d="M1322 167l-63.998 -105l-121 79c-42 -59.333 -101.333 -101.666 -178 -126.999c-48 -15.333 -116.667 -24 -206 -26c-44 -1.33301 -87.333 -2 -130 -2c-109.333 0 -189.333 3.33301 -240 10s-97.334 20 -140.001 40c-45.333 21.333 -81.5 50.333 -108.5 87
s-47.5 84.667 -61.5 144c-13.333 54.667 -21 122 -23 202c-1.33301 46.667 -2 140.667 -2 282c0 124.667 3 210.667 9 258c22 168.667 89 277.334 201 326.001c50 21.333 114.333 34.333 193 39c51.333 3.33301 110.666 5 177.999 5c102.667 0 180.667 -3.16699 234 -9.5
s99.333 -17.833 138 -34.5c112 -48.667 179 -157.334 201 -326.001c6 -46.667 9 -131.334 9 -254.001c0 -230.667 -3.66699 -373 -11 -427c-3.33301 -21.333 -8 -45 -14 -71zM606.002 489l71 105l373 -247c6 48 9 87.333 9 118l-1 218c0 170.667 -1.66699 271.667 -5 303
c-6.66699 68 -19.167 119.833 -37.5 155.5s-45.5 61.167 -81.5 76.5c-32.667 14 -78.334 22.667 -137.001 26c-44.667 2 -100.667 3 -168 3c-93.333 0 -160.666 -2 -201.999 -6s-75.333 -11.667 -102 -23c-52.667 -22.667 -88 -71 -106 -145c-12 -50 -18 -107.333 -18 -172
v-218c0 -170.667 1.66699 -272 5 -304c6.66699 -68.667 19.167 -120.667 37.5 -156s45.5 -60.666 81.5 -75.999c32.667 -14 77.667 -22.667 135 -26c42 -2 94.333 -3 157 -3c100 0 171.333 2 214 6s77 12 103 24c31.333 13.333 58.333 37.666 81 72.999z" />
    <glyph glyph-name="R" unicode="R" horiz-adv-x="1276" 
d="M130 0l0.000976562 1365h650c121.333 0 212.666 -20 273.999 -60c53.333 -34.667 89.333 -87 108 -157c12 -43.333 18 -101.666 18 -174.999c0 -148.667 -26.667 -247.334 -80 -296.001c-32.667 -30 -84.667 -50.667 -156 -62v-3c65.333 -4 117.333 -26.667 156 -68
c31.333 -34.667 50 -77.334 56 -128.001c3.33301 -25.333 5 -48 5 -68v-348h-153v313c0 44.667 -4 81.667 -12 111c-28 90.667 -110.333 133 -247 127h-466v-551h-153zM283.001 683.001h446.001c99.333 0 171.666 13.667 216.999 41c54.667 33.333 82 99.333 82 198
c0 58 -1.66699 106.667 -5 146c-8 82.667 -46 133 -114 151c-36.667 9.33301 -79 14 -127 14h-499v-550z" />
    <glyph glyph-name="S" unicode="S" horiz-adv-x="1146" 
d="M1066 995l-153.002 0.00488281c0 85.333 -9.66699 144 -29 176c-21.333 34 -60 56.333 -116 67c-32.667 6 -85.667 9 -159 9c-112 0 -186.333 -3.33301 -223 -10c-41.333 -6.66699 -73 -17.667 -95 -33s-38.667 -38 -50 -68c-12 -32 -18 -73.667 -18 -125
c0 -66.667 8.66699 -118 26 -154c20 -42.667 68 -69 144 -79c21.333 -2.66699 91.333 -6.66699 210 -12c126.667 -5.33301 214 -12.666 262 -21.999c50.667 -10 90.834 -25.5 120.501 -46.5s53.834 -51.167 72.501 -90.5c22 -46.667 33 -120.334 33 -221.001
c0 -144.667 -23.333 -243.334 -70 -296.001s-116 -83.667 -208 -93c-69.333 -7.33301 -158 -11 -266 -11c-140 0 -234.667 7.66699 -284 23c-112.667 35.333 -177.334 121.666 -194.001 258.999c-4 29.333 -6.66699 80.666 -8 153.999h153v-34
c0.666992 -70.667 6.5 -123.334 17.5 -158.001s30.5 -61.334 58.5 -80.001c25.333 -17.333 65 -27 119 -29c50 -2 108.667 -3 176 -3c99.333 0 170.833 4.5 214.5 13.5s76.5 25.833 98.5 50.5c26.667 30.667 40 104 40 220c0 58 -6.66699 101.667 -20 131
c-20 42 -64.333 67.333 -133 76c-19.333 2.66699 -92.333 7.66699 -219 15c-118.667 6 -191 10.667 -217 14c-99.333 13.333 -172.333 50.333 -219 111c-40 52 -60 132.667 -60 242c0 154 33.667 257 101 309c52.667 40 122.334 63.667 209.001 71
c58.667 5.33301 124 8 196 8c144.667 0 246 -9.33301 304 -28c100.667 -32.667 160 -104.667 178 -216c5.33301 -31.333 8 -78 8 -140z" />
    <glyph glyph-name="T" unicode="T" horiz-adv-x="1054" 
d="M605 1221v-1221h-153v1222h-445v143h1040v-144h-442z" />
    <glyph glyph-name="U" unicode="U" horiz-adv-x="1342" 
d="M1059 1365l153.001 0.000976562v-956c0 -114.667 -12.333 -197.667 -37 -249c-36.667 -76 -103.334 -127 -200.001 -153c-54 -14 -152 -21 -294 -21c-101.333 0 -175.833 2.33301 -223.5 7s-89.167 13.667 -124.5 27c-79.333 29.333 -134 75.333 -164 138
c-25.333 53.333 -38 137 -38 251v956h153v-956c0 -101.333 9.66699 -168 29 -200c24 -40.667 69.667 -67.334 137 -80.001c38 -7.33301 106 -11 204 -11c146.667 0 245.667 8.66699 297 26c48.667 16.667 80.667 55.667 96 117c8 32.667 12 82 12 148v956z" />
    <glyph glyph-name="V" unicode="V" horiz-adv-x="1171" 
d="M1016 1365h165l-483 -1365h-220l-488 1365h164l364 -1031c36.667 -109.333 59.667 -179.333 69 -210h4c18.667 64 41 133.333 67 208z" />
    <glyph glyph-name="W" unicode="W" horiz-adv-x="2045" 
d="M2041 1365l-430 -1365h-234l-287 983l-71 246h-3l-17 -62l-18 -62l-37 -124l-292 -981h-230l-419 1365h158l294 -981l79 -266h3l19 67l19 66l39 132l290 982h228l288 -983l39 -131l18 -67l19 -66h3l20 67l20 67l41 134l300 979h161z" />
    <glyph glyph-name="X" unicode="X" horiz-adv-x="1190" 
d="M1167 1365l-436 -659l469 -706h-182l-316 478l-97 150h-4l-101 -153l-321 -475h-189l488 706l-449 659h186l303 -455l83 -128h4l81 126l299 457h182z" />
    <glyph glyph-name="Y" unicode="Y" horiz-adv-x="1151" 
d="M1162 1365l-516 -795v-570h-153v570l-503 795h179l293 -461l111 -178h3l55 89l56 89l292 461h183z" />
    <glyph glyph-name="Z" unicode="Z" horiz-adv-x="1161" 
d="M1095 1365v-132l-859 -1098v-3h877v-132h-1065v135l857 1095v3h-832v132h1022z" />
    <glyph glyph-name="bracketleft" unicode="[" horiz-adv-x="567" 
d="M113 1365h349v-116h-197v-1542h197v-117h-349v1775z" />
    <glyph glyph-name="backslash" unicode="\" horiz-adv-x="1323" 
d="M-136 1365h115l1200 -1775h-114z" />
    <glyph glyph-name="bracketright" unicode="]" horiz-adv-x="567" 
d="M454 -410h-349v116h197v1542h-197v117h349v-1775z" />
    <glyph glyph-name="asciicircum" unicode="^" 
d="M207 752h-152l365 617h184l365 -617h-153l-306 506z" />
    <glyph glyph-name="underscore" unicode="_" 
d="M0 -137h1024v-129h-1024v129z" />
    <glyph glyph-name="grave" unicode="`" 
d="M358 1351l271 -205l-49 -74l-294 181z" />
    <glyph glyph-name="a" unicode="a" horiz-adv-x="1043" 
d="M269 688h-139.001c1.33301 86 13.333 147.333 36 184c25.333 40 71.333 67.333 138 82c50 10.667 118.333 16 205 16c119.333 0 206 -12 260 -36c76.667 -34.667 120.334 -101 131.001 -199c4.66699 -42 7 -76.667 7 -104v-631h-139l11 103l-3 1
c-22.667 -33.333 -48.667 -58 -78 -74c-53.333 -29.333 -135.333 -44 -246 -44c-76 0 -136.333 5.66699 -181 17s-82 30.333 -112 57c-46.667 42 -70 113.333 -70 214c0 57.333 7.83301 108.5 23.5 153.5s37.167 77.167 64.5 96.5c52.667 38.667 145.667 58 279 58
c104 0 184.667 -11.333 242 -34c28 -11.333 50.333 -33 67 -65l3 1v116c0 84.667 -8.66699 147 -26 187c-14 31.333 -43.667 52.333 -89 63c-34 8 -78.333 12 -133 12c-108 0 -178.667 -12.333 -212 -37c-26.667 -19.333 -40 -54 -40 -104c0 -8 0.333008 -19 1 -33z
M499.999 470c-119.333 0 -196 -14.333 -230 -43c-23.333 -20 -35 -65 -35 -135c0 -77.333 15.667 -127.333 47 -150c34 -24.667 99.667 -37 197 -37c126.667 0 212 18.333 256 55c26.667 22.667 40 63 40 121c0 69.333 -14.667 116.333 -44 141c-38 32 -115 48 -231 48z" />
    <glyph glyph-name="b" unicode="b" horiz-adv-x="1046" 
d="M123 0v1365h139v-531l3 -3c16 46.667 44 79.334 84 98.001c58.667 27.333 135.667 41 231 41c120 0 207.333 -25.667 262 -77c44 -42 72.667 -99.333 86 -172c14 -75.333 21 -160.333 21 -255c0 -106 -8.33301 -190.167 -25 -252.5s-44.334 -112.166 -83.001 -149.499
c-54 -52 -147 -78 -279 -78c-81.333 0 -147.666 11.333 -198.999 34c-43.333 20 -78 53 -104 99l-4 -1l7 -118h-139zM541 850.998c-92 0 -156.669 -14.665 -194.002 -43.998c-35.333 -29.333 -58 -72.333 -68 -129c-8.66699 -48.667 -13 -103.667 -13 -165
c0 -104 3.83301 -180.333 11.5 -229s21.834 -86.334 42.501 -113.001c34 -44 106 -66 216 -66c99.333 0 164.666 15 195.999 45c33.333 32.667 54 83.667 62 153c6 52 9 107.667 9 167c0 93.333 -4.16699 163.666 -12.5 210.999s-23.166 84 -44.499 110
c-33.333 40 -101.666 60 -204.999 60z" />
    <glyph glyph-name="c" unicode="c" horiz-adv-x="993" 
d="M780 345l140 -0.000976562c0.666992 -20.667 1 -36.667 1 -48c0 -115.333 -30.667 -196.666 -92 -243.999c-30.667 -23.333 -71.334 -40.333 -122.001 -51s-117 -16 -199 -16c-162 0 -271.667 32.333 -329 97c-38 43.333 -62 103.666 -72 180.999
c-8 65.333 -12 138 -12 218c0 94 4.66699 167.333 14 220s25.333 97.334 48 134.001c55.333 89.333 169.666 134 342.999 134c136 0 233.333 -17 292 -51c62 -36 98 -98.667 108 -188c2 -21.333 3.33301 -50.333 4 -87h-140v24c0 66 -15 112.333 -45 139
c-17.333 16 -43.833 27.333 -79.5 34s-86.5 10 -152.5 10c-109.333 0 -178 -23.667 -206 -71c-27.333 -46.667 -41 -152.667 -41 -318c0 -172 25 -279 75 -321c28.667 -24 103.334 -36 224.001 -36c71.333 0 125 7 161 21c34.667 13.333 57.334 39.333 68.001 78
c8.66699 29.333 12.667 76.333 12 141z" />
    <glyph glyph-name="d" unicode="d" horiz-adv-x="1044" 
d="M922 1365l-0.000976562 -1365h-139l7 124l-4 1c-21.333 -44.667 -52.666 -77.334 -93.999 -98.001c-54 -27.333 -125 -41 -213 -41c-137.333 0 -234.333 32 -291 96c-40.667 44.667 -66 105.334 -76 182.001c-9.33301 67.333 -14 143 -14 227
c0 104.667 7.66699 187.167 23 247.5s41 109.833 77 148.5c52 55.333 142 83 270 83c100.667 0 180 -15.333 238 -46c34 -18 58.667 -47.667 74 -89l3 2v528h139zM503.999 851c-96.667 0 -162.001 -16.667 -196.001 -50c-42.667 -42 -64 -144 -64 -306
c0 -164.667 17 -271 51 -319c32.667 -47.333 103.334 -71 212.001 -71c117.333 0 193.333 25.333 228 76c31.333 46.667 47 155 47 325c0 144.667 -22 240 -66 286c-38 39.333 -108.667 59 -212 59z" />
    <glyph glyph-name="e" unicode="e" horiz-adv-x="1029" 
d="M788 289h143.002c0.666992 -18 1 -32 1 -42c0 -88.667 -24.667 -152 -74 -190c-32 -25.333 -74.833 -43.5 -128.5 -54.5s-125.167 -16.5 -214.5 -16.5c-168 0 -280.667 32.333 -338 97c-37.333 43.333 -61 106.333 -71 189c-7.33301 62.667 -11 130.667 -11 204
c0 100 5 178.5 15 235.5s27.333 103.167 52 138.5c35.333 52.667 88 86.667 158 102c57.333 12 121.333 18 192 18c130.667 0 223 -13.667 277 -41c82.667 -42 128.667 -140 138 -294c2 -34.667 3.33301 -95.667 4 -183h-688c0 -117.333 9.33301 -201.333 28 -252
c17.333 -46.667 59.666 -76 126.999 -88c29.333 -5.33301 68.666 -8 117.999 -8c92.667 0 158.667 6 198 18c42 13.333 66 45.333 72 96c1.33301 13.333 2 37 2 71zM788.002 561c-2 100.667 -9 167.998 -21 201.998c-15.333 42.667 -49.333 70.667 -102 84
c-30 7.33301 -76.333 11 -139 11c-84 0 -144.667 -7.33301 -182 -22c-54 -21.333 -86 -77.666 -96 -168.999c-2.66699 -25.333 -3.66699 -60.666 -3 -105.999h543z" />
    <glyph glyph-name="f" unicode="f" horiz-adv-x="550" 
d="M160 0v840h-146v116h146v142c0 86.667 15 149.667 45 189c46 61.333 127.667 92 245 92c31.333 0 67 -2.33301 107 -7v-116c-46.667 4.66699 -83 7 -109 7c-64 0 -107 -17.667 -129 -53c-13.333 -21.333 -20 -54.333 -20 -99v-155h258v-116h-258v-840h-139z" />
    <glyph glyph-name="g" unicode="g" horiz-adv-x="1044" 
d="M922 956l0.00292969 -1018c0 -107.333 -15.333 -185 -46 -233c-28.667 -45.333 -72.334 -78.5 -131.001 -99.5s-136.334 -31.5 -233.001 -31.5c-104.667 0 -184 10.333 -238 31c-76 30 -121 88.667 -135 176c-3.33301 24 -5.33301 59.333 -6 106h135
c1.33301 -69.333 10.666 -116 27.999 -140c18.667 -24.667 53.667 -40.667 105 -48c28 -4 68.667 -6 122 -6c73.333 0 129 8 167 24c49.333 21.333 78.333 64 87 128c4 28.667 6 55.667 6 81v192l-3 1c-11.333 -27.333 -23.5 -47.833 -36.5 -61.5
s-32.167 -25.834 -57.5 -36.501c-54 -23.333 -124.667 -35 -212 -35c-126.667 0 -219.667 28.667 -279 86c-46.667 45.333 -75 102.333 -85 171c-9.33301 62.667 -14 134.334 -14 215.001c0 152 10.333 256.667 31 314c30.667 85.333 86 142.333 166 171
c50 18 115 27 195 27c90 0 161.333 -15.667 214 -47c34.667 -21.333 63 -53.666 85 -96.999l3 1l-7 129h139zM505.003 850.999c-102.667 0 -171.667 -20 -207 -60c-28 -31.333 -44.667 -79 -50 -143c-4 -48 -6 -99.333 -6 -154c0 -124.667 7 -211.667 21 -261
c11.333 -40 29 -68.667 53 -86c37.333 -28 101.333 -42 192 -42c107.333 0 179.333 24.667 216 74c24.667 33.333 40 78.333 46 135c6 56 9 117.333 9 184c0 98.667 -5.66699 168.667 -17 210c-18 64 -54 105.333 -108 124c-37.333 12.667 -87 19 -149 19z" />
    <glyph glyph-name="h" unicode="h" horiz-adv-x="1053" 
d="M262 1365l0.00195312 -527.001l3 -2c16.667 42.667 43 73.334 79 92.001c52 28 125.333 42 220 42c102.667 0 178.334 -12.667 227.001 -38c73.333 -37.333 115.666 -106.333 126.999 -207c2.66699 -24 4 -62 4 -114v-611h-139v611c0 53.333 -1.33301 90 -4 110
s-9.33398 38.667 -20.001 56c-18 31.333 -45.333 52.333 -82 63c-26.667 7.33301 -64.667 11 -114 11c-84.667 0 -149.334 -10.333 -194.001 -31c-64 -29.333 -98.667 -94.333 -104 -195c-2 -46.667 -3 -75.667 -3 -87v-538h-139v1365h139z" />
    <glyph glyph-name="i" unicode="i" horiz-adv-x="385" 
d="M262 1365v-157h-139v157h139zM262 956v-956h-139v956h139z" />
    <glyph glyph-name="j" unicode="j" horiz-adv-x="380" 
d="M253 1365v-157h-139v157h139zM253 956l0.000976562 -1044c-0.666992 -60 -2 -100.333 -4 -121c-6 -50.667 -25.5 -89.5 -58.5 -116.5s-77.167 -40.5 -132.5 -40.5c-20 0 -42.667 2.33301 -68 7v99c14 -2 25.333 -3 34 -3c39.333 0 64.666 16.667 75.999 50
c9.33301 25.333 14 67 14 125v1044h139z" />
    <glyph glyph-name="k" unicode="k" horiz-adv-x="880" 
d="M262 1365v-793h64l338 384h176l-409 -440l483 -516h-189l-406 461h-57v-461h-139v1365h139z" />
    <glyph glyph-name="l" unicode="l" horiz-adv-x="385" 
d="M262 1365v-1365h-139v1365h139z" />
    <glyph glyph-name="m" unicode="m" horiz-adv-x="1690" 
d="M123 956h139.005l-3 -144l3 -3c25.333 51.333 55.333 87.333 90 108c57.333 35.333 131.666 53 222.999 53c161.333 0 259.666 -53.667 294.999 -161h3c28.667 51.333 63 88.333 103 111c59.333 33.333 135 50 227 50c148 0 245.667 -39.333 293 -118
c29.333 -48.667 44 -124.334 44 -227.001v-625h-139v638c0 62.667 -7.66699 109.667 -23 141c-23.333 48 -85.333 72 -186 72c-146 0 -235 -37 -267 -111c-16 -36.667 -24 -99 -24 -187v-553h-139v625c-2.66699 64 -4.83398 102.333 -6.50098 115
s-5.83398 25.334 -12.501 38.001c-24.667 48.667 -89.334 73 -194.001 73c-126.667 0 -210 -36.333 -250 -109c-24.667 -44.667 -37 -111 -37 -199v-543h-139v956z" />
    <glyph glyph-name="n" unicode="n" horiz-adv-x="1055" 
d="M123 956h140l-4 -130l4 -3c15.333 35.333 33 61.333 53 78c54.667 46 143 69 265 69c159.333 0 263.333 -41 312 -123c22 -36 33 -111 33 -225v-622h-139v610c0 82 -7.33301 137.667 -22 167c-24.667 49.333 -91.667 74 -201 74c-80.667 0 -141 -10.667 -181 -32
c-60.667 -32 -96.667 -84.333 -108 -157c-4.66699 -27.333 -7 -56.333 -7 -87v-575h-145v956z" />
    <glyph glyph-name="o" unicode="o" horiz-adv-x="1036" 
d="M526 970c82 0 146.666 -5.16602 193.999 -15.499s85.666 -27.833 114.999 -52.5c48.667 -40 79 -100.667 91 -182c10 -71.333 15 -152.333 15 -243c0 -151.333 -12 -258.333 -36 -321c-18 -46.667 -43 -82.334 -75 -107.001s-75.667 -42 -131 -52
c-40.667 -7.33301 -101 -11 -181 -11c-86.667 0 -153.667 5 -201 15s-85.666 27.667 -114.999 53c-48.667 40.667 -79 101.334 -91 182.001c-10 69.333 -15 147.666 -15 234.999c0 157.333 12 267 36 329c33.333 87.333 102 140.333 206 159
c40.667 7.33301 103.334 11 188.001 11zM513.999 851.001c-109.333 0 -178.999 -12.667 -208.999 -38s-48 -70 -54 -134c-6 -58 -9 -121.333 -9 -190c0 -134 6.66699 -224 20 -270c12.667 -44 33 -73.333 61 -88c34.667 -17.333 99.667 -26 195 -26
c112.667 0 184 12.667 214 38s48 70 54 134c6 58 9 125.333 9 202c0 126 -6.66699 212 -20 258c-12.667 44 -33 73.333 -61 88c-34.667 17.333 -101.334 26 -200.001 26z" />
    <glyph glyph-name="p" unicode="p" horiz-adv-x="1044" 
d="M123 956l139 0.00195312l-7 -121l4 -3c26 49.333 60.333 83.333 103 102c55.333 24 126 36 212 36c134.667 0 229.334 -31.667 284.001 -95c58.667 -68 88 -205.333 88 -412c0 -98 -7.16699 -176.833 -21.5 -236.5s-37.833 -108.834 -70.5 -147.501
c-52 -62 -143.667 -93 -275 -93c-82.667 0 -150.667 10 -204 30c-44.667 17.333 -81.334 49.666 -110.001 96.999h-3v-523h-139v1366zM529 851.002c-106.667 0 -176.666 -21.001 -209.999 -63.001c-36.667 -46 -55 -152 -55 -318c0 -157.333 23.333 -261 70 -311
c34 -36 104.333 -54 211 -54c99.333 0 164.666 19.333 195.999 58c39.333 48.667 59 149.334 59 302.001c0 167.333 -18.333 275.333 -55 324c-31.333 41.333 -103.333 62 -216 62z" />
    <glyph glyph-name="q" unicode="q" horiz-adv-x="1043" 
d="M921 956l0.00195312 -1366h-139v526l-3 3c-21.333 -44 -50.333 -74.667 -87 -92c-58 -27.333 -134.333 -41 -229 -41c-124 0 -212.667 28 -266 84c-50 52.667 -80.333 126.667 -91 222c-6.66699 59.333 -10 122.333 -10 189c0 146.667 14.333 253 43 319
c49.333 113.333 160.333 170 333 170c91.333 0 164.666 -13.333 219.999 -40c35.333 -16.667 66.666 -48.334 93.999 -95.001l3 3l-7 118h139zM498.002 851.001c-98 0 -164.332 -19.999 -198.999 -59.999c-20 -24 -34.5 -61.5 -43.5 -112.5s-13.5 -122.833 -13.5 -215.5
c0 -88.667 4.83301 -155.834 14.5 -201.501s26.167 -80.834 49.5 -105.501c33.333 -34 98.666 -51 195.999 -51c108 0 179.667 21 215 63c40.667 48.667 61 144.334 61 287.001c0 181.333 -20.667 295 -62 341c-33.333 36.667 -106 55 -218 55z" />
    <glyph glyph-name="r" unicode="r" horiz-adv-x="815" 
d="M137 956h138.999l-14 -110l3 -3c30.667 50 63.667 83.333 99 100c48.667 23.333 107.334 35 176.001 35c87.333 0 153.333 -21.667 198 -65c43.333 -42 65 -109.667 65 -203c0 -16 -0.333008 -39.333 -1 -70h-138c0.666992 32 1 57.667 1 77c0 44 -8 76 -24 96
c-24 30.667 -68.667 46 -134 46c-104.667 0 -173 -33 -205 -99c-17.333 -36 -26 -98.333 -26 -187v-573h-139v956z" />
    <glyph glyph-name="s" unicode="s" horiz-adv-x="969" 
d="M864 706l-140 0.000976562c-1.33301 51.333 -8.33301 87.333 -21 108c-14 21.333 -44.667 34.666 -92 39.999c-24.667 2.66699 -68.667 4 -132 4c-67.333 0 -116 -2.16699 -146 -6.5s-53.333 -12.833 -70 -25.5c-22.667 -16.667 -34 -53.334 -34 -110.001
c0 -54 5.66699 -92 17 -114c12.667 -24.667 42.334 -39.667 89.001 -45c11.333 -1.33301 61.333 -4.33301 150 -9c122 -5.33301 195.333 -10 220 -14c76 -12.667 128.333 -48.667 157 -108c20 -41.333 30 -94 30 -158c0 -100 -25.333 -171.667 -76 -215
c-36 -30 -84 -48.667 -144 -56c-56.667 -7.33301 -121.334 -11 -194.001 -11c-86.667 0 -153.334 4.83301 -200.001 14.5s-86.667 26.5 -120 50.5c-52.667 39.333 -79 104.666 -79 195.999c0 15.333 0.333008 34.333 1 57h145c-2 -21.333 -3 -38.333 -3 -51
c0 -28 5 -54 15 -78s23 -41 39 -51c28 -17.333 94 -26 198 -26c118.667 0 195.667 13 231 39c29.333 21.333 44 65.333 44 132c0 58 -9 98.333 -27 121c-16 20.667 -53 31.334 -111 32.001c-176 2 -298.667 11.667 -368 29c-64 15.333 -107.667 48.333 -131 99
c-16 33.333 -24 84 -24 152c0 102.667 22.667 171.334 68 206.001c38.667 28.667 90.667 46.334 156 53.001c54.667 6 112.334 9 173.001 9c80 0 143.5 -4.5 190.5 -13.5s85.833 -23.833 116.5 -44.5c48 -32.667 72 -93.334 72 -182.001v-24z" />
    <glyph glyph-name="t" unicode="t" horiz-adv-x="667" 
d="M630 956v-116.001h-369v-585c0 -44 4.66699 -77 14 -99s25.666 -36.667 48.999 -44c16.667 -4.66699 41.667 -7 75 -7c60.667 0 99 14 115 42c15.333 26.667 23 74.667 23 144c0 12.667 -0.666992 28.667 -2 48h131c0.666992 -32 1 -57 1 -75
c0 -82.667 -16.667 -146.667 -50 -192c-42.667 -57.333 -117 -86 -223 -86c-91.333 0 -157.666 14.667 -198.999 44c-42 30.667 -65.667 79.334 -71 146.001c-1.33301 14.667 -2 41 -2 79v585h-132v116h132v230h139v-230h369z" />
    <glyph glyph-name="u" unicode="u" horiz-adv-x="1039" 
d="M903 956v-956h-139l10 125l-3 3c-48.667 -94.667 -155.334 -142 -320.001 -142c-152 0 -251 48 -297 144c-20.667 43.333 -31 106.666 -31 189.999v636h139v-636c0 -68 8 -116.333 24 -145c16 -30 43.333 -50 82 -60c24 -6.66699 59.667 -10 107 -10
c90.667 0 155.334 13 194.001 39c47.333 30.667 77 83.334 89 158.001c4 28 6 63.333 6 106v548h139z" />
    <glyph glyph-name="v" unicode="v" horiz-adv-x="824" 
d="M831 956l-320 -956h-201l-317 956h144l169 -520l53 -163l25 -82l26 -82h4l24 81l24 82l51 162l162 522h156z" />
    <glyph glyph-name="w" unicode="w" horiz-adv-x="1373" 
d="M1367 956l-268 -956h-208l-128 531l-39 162l-18 81l-19 81h-3l-19 -81l-19 -81l-39 -162l-129 -531h-212l-259 956h147l135 -529l42 -166l20 -83l20 -83h4l19 83l20 83l40 165l131 530h204l130 -531l40 -165l19 -82l19 -83h3l21 83l20 83l42 166l134 529h150z" />
    <glyph glyph-name="x" unicode="x" horiz-adv-x="827" 
d="M797 956l-310 -450l347 -506h-167l-253 386l-254 -386h-167l347 500l-311 456h168l217 -349l216 349h167z" />
    <glyph glyph-name="y" unicode="y" horiz-adv-x="796" 
d="M802 956l-271 -1011c-30.667 -114.667 -62.334 -200 -95.001 -256c-29.333 -49.333 -75 -83.666 -137 -102.999c-31.333 -10 -62.333 -15 -93 -15c-17.333 0 -39.666 2.33301 -66.999 7v116c19.333 -2 35.333 -3 48 -3c40.667 0 74.667 13.333 102 40
c30.667 30 65 119.667 103 269h-53l-346 956h149l147 -426l74 -212l36 -107l37 -106h4l26 106l25 107l54 212l108 426h149z" />
    <glyph glyph-name="z" unicode="z" horiz-adv-x="826" 
d="M92 956h689v-136l-570 -704h570v-116h-737v133l572 707h-524v116z" />
    <glyph glyph-name="braceleft" unicode="{" horiz-adv-x="783" 
d="M299 477c44.667 -20.667 76.999 -48.9971 96.999 -84.9971c18.667 -36.667 28 -87.334 28 -152.001v-342c0 -60 7 -102 21 -126c26.667 -47.333 78.667 -71 156 -71h12v-111h-90c-46.667 0 -88.334 9 -125.001 27c-38 18.667 -64.667 45.667 -80 81
c-20 48.667 -30 114.334 -30 197.001v338c0.666992 61.333 -11 107.666 -35 138.999c-18 22.667 -45.333 39 -82 49v113c36 9.33301 63.333 25.666 82 48.999c24 31.333 35.667 77.666 35 138.999v338c0 100 13.667 172.667 41 218c20 34 55 58.667 105 74
c28.667 8.66699 58.334 13 89.001 13h90v-111c-56.667 2 -100.667 -7.66699 -132 -29c-26.667 -17.333 -42.667 -41.666 -48 -72.999c-6.66699 -20.667 -9.66699 -52.334 -9 -95.001v-342c0 -72 -11.333 -126.333 -34 -163c-19.333 -30 -49.666 -55 -90.999 -75z" />
    <glyph glyph-name="bar" unicode="|" 
d="M442 1365h140v-1706h-140v1706z" />
    <glyph glyph-name="braceright" unicode="}" horiz-adv-x="783" 
d="M484 478c-44 20.667 -76.001 49 -96.001 85c-18.667 36.667 -28 87.334 -28 152.001v342c0 60 -7 102 -21 126c-26.667 47.333 -78.667 71 -156 71h-12v111h90c46 0 87.333 -9 124 -27c38.667 -18.667 65.334 -45.667 80.001 -81c20 -50.667 30 -116.334 30 -197.001
v-338c-0.666992 -61.333 11 -107.666 35 -138.999c18.667 -22.667 46.334 -39 83.001 -49v-113c-36.667 -10.667 -64.334 -27 -83.001 -49c-24 -30.667 -35.667 -77 -35 -139v-338c0.666992 -97.333 -13 -170 -41 -218c-19.333 -34 -54 -58.667 -104 -74
c-28.667 -8.66699 -58.334 -13 -89.001 -13h-90v111c26 0 51.333 2.66699 76 8s43.334 12.333 56.001 21c26 17.333 42 41.666 48 72.999c6.66699 19.333 9.66699 51 9 95v342c0 72.667 11.333 127 34 163c19.333 30 49.333 55 90 75z" />
    <glyph glyph-name="asciitilde" unicode="~" horiz-adv-x="1365" 
d="M275 1196l-84.0029 54c27.333 54.667 52.333 97 75 127c54 70 121.667 105 203 105c52 0 129 -24 231 -72c68.667 -32.667 114.334 -52 137.001 -58s44 -9 64 -9c48 0 88.333 16.667 121 50c20 20.667 42.333 51.667 67 93l86 -51c-36 -71.333 -72.667 -123 -110 -155
c-54 -47.333 -114.667 -71 -182 -71c-23.333 0 -52.666 5.66699 -87.999 17c-37.333 11.333 -103.333 39 -198 83c-56.667 26 -103.667 39 -141 39c-65.333 0 -125.666 -50.667 -180.999 -152z" />
    <glyph glyph-name="nbspace" unicode="&#xa0;" horiz-adv-x="512" 
 />
    <glyph glyph-name="exclamdown" unicode="&#xa1;" horiz-adv-x="491" 
d="M162 770v186h160v-186h-160zM162 -410l20 989h131l17 -989h-168z" />
    <glyph glyph-name="cent" unicode="&#xa2;" horiz-adv-x="1256" 
d="M663 1005l-0.000976562 -750c94.667 1.33301 157.334 23 188.001 65c14.667 20.667 23.334 55.667 26.001 105c0 0.666992 0.333008 24.667 1 72h140c-1.33301 -62 -4 -109 -8 -141c-24 -148.667 -139.667 -221 -347 -217v-146h-117v146
c-96.667 2 -171.334 19 -224.001 51c-59.333 36 -99 101 -119 195c-13.333 60.667 -20 148.667 -20 264c0 143.333 15 245.666 45 306.999c52.667 106.667 158.667 160.667 318 162v133h117v-133c224 -3.33301 336 -96.666 336 -279.999c0 -10 -0.333008 -24 -1 -42h-140
c0 46 -1 77.333 -3 94c-10.667 74 -74.667 112.333 -192 115zM545.999 1008c-70 -5.33301 -119.001 -19.668 -147.001 -43.001c-29.333 -23.333 -49 -64.333 -59 -123c-7.33301 -40.667 -11 -98.334 -11 -173.001c0 -137.333 8.66699 -234.666 26 -291.999
c19.333 -63.333 55.333 -100.666 108 -111.999c16.667 -3.33301 44.334 -6 83.001 -8v751z" />
    <glyph glyph-name="sterling" unicode="&#xa3;" horiz-adv-x="1256" 
d="M805 664v-129.999h-388v-64v-57c0.666992 -24 1 -43.333 1 -58c0 -76.667 -15 -134.334 -45 -173.001c-14 -18.667 -37 -39.334 -69 -62.001v-3l885 10v-127h-1060v117c66.667 14.667 107.667 56 123 124c7.33301 22 11.333 82 12 180v113h-169v130h169v208
c0 7.33301 -0.333008 26.333 -1 57c-0.666992 20.667 -1 39.334 -1 56.001c0 139.333 26.333 238.333 79 297c38.667 42.667 92 69.667 160 81c62 10.667 131.333 16 208 16c128 0 219.667 -10.333 275 -31c120.667 -44.667 181 -148 181 -310
c0 -17.333 -0.666992 -44.333 -2 -81h-148v34c-0.666992 70.667 -4.66699 119 -12 145c-14.667 52 -53 85.333 -115 100c-33.333 7.33301 -86.666 11 -159.999 11c-108.667 0 -183.667 -8.33301 -225 -25c-37.333 -15.333 -61.333 -43.333 -72 -84
c-6.66699 -25.333 -11.334 -92 -14.001 -200v-274h388z" />
    <glyph glyph-name="currency" unicode="&#xa4;" horiz-adv-x="1365" 
d="M119 250l189.999 193.001c-69.333 90.667 -104 188 -104 292c0 100 34.667 196.333 104 289l-195 193l80 80l193 -193c95.333 71.333 194 107 296 107c102.667 0 200.334 -35.333 293.001 -106l194 191l79 -79l-192 -191c70 -94.667 105 -192.334 105 -293.001
c0 -100 -34.333 -196.667 -103 -290l193 -193l-79 -80l-193 193c-91.333 -70 -189.333 -105 -294 -105c-99.333 0 -198 35 -296 105l-192 -193zM678.999 1085c-93.333 0 -174.333 -34.667 -243 -104c-67.333 -68 -101 -150.333 -101 -247s34 -179 102 -247
c68 -68.667 150 -103 246 -103s178.333 34.333 247 103c67.333 68 101 150 101 246c0 99.333 -33.667 182.333 -101 249c-70 68.667 -153.667 103 -251 103z" />
    <glyph glyph-name="yen" unicode="&#xa5;" horiz-adv-x="1256" 
d="M920 934h186v-130h-265l-125 -201h390v-130h-409v-473h-153v473h-394v130h375l-121 201h-254v130h178l-259 431h179l376 -638h3l376 638h184z" />
    <glyph glyph-name="brokenbar" unicode="&#xa6;" 
d="M442 1365h140v-679h-140v679zM442 314h140v-655h-140v655z" />
    <glyph glyph-name="section" unicode="&#xa7;" horiz-adv-x="1256" 
d="M1071 1017l-134.001 -0.000976562c-0.666992 65.333 -2.66699 107.666 -6 126.999c-7.33301 46.667 -35.333 76.667 -84 90c-45.333 12.667 -118.333 19 -219 19c-108 0 -179 -6.66699 -213 -20c-28 -11.333 -47 -32 -57 -62c-8 -24 -12 -60.333 -12 -109
c0 -69.333 10 -114.666 30 -135.999c15.333 -15.333 37.666 -27.666 66.999 -36.999c19.333 -6.66699 47.666 -15.334 84.999 -26.001l306 -91c74 -21.333 122 -37 144 -47c56.667 -24.667 93 -63 109 -115c8.66699 -27.333 13 -62.333 13 -105
c0 -77.333 -10.667 -138 -32 -182c-13.333 -28.667 -31 -50.334 -53 -65.001c-10.667 -6.66699 -26.334 -14.334 -47.001 -23.001c48.667 -23.333 81 -47.666 97 -72.999c25.333 -42 38 -107.667 38 -197c0 -164 -41 -268 -123 -312
c-41.333 -22 -100.666 -35.667 -177.999 -41c-41.333 -3.33301 -95 -5 -161 -5c-169.333 0 -281.333 12.667 -336 38c-76.667 34.667 -122.667 99.667 -138 195c-4 28 -6 76.667 -6 146h138c0 -63.333 1.66699 -105.666 5 -126.999c7.33301 -42 27 -70.667 59 -86
c42.667 -20.667 121.334 -31 236.001 -31c129.333 0 214.333 4 255 12c72.667 14 109 81.333 109 202c0 69.333 -12.333 115.333 -37 138c-20.667 18.667 -69.667 38.334 -147 59.001l-421 111c-53.333 14 -91.333 28 -114 42c-60 37.333 -90 119.333 -90 246
c0 96.667 19 163 57 199c22 21.333 55 37.333 99 48c-42 26.667 -69.667 59 -83 97c-13.333 36 -20 84.333 -20 145c0 130.667 21.667 218.334 65 263.001c48.667 50 160.334 75 335.001 75c182.667 0 300.334 -14.667 353.001 -44c58 -32.667 92.667 -90 104 -172
c4.66699 -28.667 7 -77.334 7 -146.001zM438.999 385.999l307.998 -86.001c40.667 -11.333 73.667 -17 99 -17c52 0 87.667 22.667 107 68c12.667 30.667 19 77.667 19 141c0 44.667 -16.333 78 -49 100c-21.333 14.667 -61 30.667 -119 48l-295 87
c-44 13.333 -76.333 20 -97 20c-47.333 0 -80.666 -18 -99.999 -54c-15.333 -28 -23 -75 -23 -141c0 -51.333 10.667 -88.666 32 -111.999c14.667 -15.333 33.334 -27 56.001 -35z" />
    <glyph glyph-name="dieresis" unicode="&#xa8;" 
d="M411 1256v-135h-161v135h161zM774 1256v-135h-161v135h161z" />
    <glyph glyph-name="copyright" unicode="&#xa9;" horiz-adv-x="1526" 
d="M773 1379c124 0 241.665 -34.335 352.998 -103.002c112 -68.667 197.333 -161 256 -277c50.667 -100 76 -205.667 76 -317c0 -92 -17.667 -180.667 -53 -266s-85.333 -160.666 -150 -225.999c-65.333 -65.333 -140.666 -115.666 -225.999 -150.999
s-173.666 -53 -264.999 -53c-92 0 -180.667 17.667 -266 53s-160.333 85.333 -225 150c-65.333 65.333 -115.833 140.833 -151.5 226.5s-53.5 174.167 -53.5 265.5c0 131.333 34 253.333 102 366c67.333 110 160.333 195.333 279 256c98.667 50.667 206.667 76 324 76z
M756.998 1302c-77.333 0 -153.333 -15.8301 -228 -47.4971s-140.334 -75.834 -197.001 -132.501c-57.333 -58 -101.666 -125.167 -132.999 -201.5s-47 -155.5 -47 -237.5c0 -172 60 -318.333 180 -439s264 -181 432 -181s311.667 60.333 431 181
c119.333 121.333 179 267 179 437c0 83.333 -15.667 163.666 -47 240.999s-75.333 143.666 -132 198.999c-122 120.667 -268 181 -438 181zM986.998 569.001l103 -0.00488281c-0.666992 -18 -1 -30 -1 -36c0.666992 -57.333 -3 -99.666 -11 -126.999
s-23 -49.666 -45 -66.999c-30.667 -25.333 -72.334 -39.666 -125.001 -42.999c-39.333 -2.66699 -91.666 -4 -156.999 -4c-79.333 0 -136.333 5.33301 -171 16c-80.667 25.333 -126 93.333 -136 204c-4.66699 52.667 -7 110.334 -7 173.001c0 122.667 2.66699 199.667 8 231
c10 60 42.333 104.667 97 134c33.333 18 80 29 140 33c29.333 2 75.333 3 138 3c82 0 140.333 -9.33301 175 -28c46 -24 72.333 -66.333 79 -127c2 -19.333 4 -52.666 6 -99.999h-103v30c-0.666992 62.667 -12.334 102 -35.001 118c-19.333 12.667 -61.333 19 -126 19
c-74.667 0 -131.667 -2.33301 -171 -7c-46.667 -5.33301 -76.667 -27.666 -90 -66.999c-7.33301 -22.667 -11 -59 -11 -109c0 -184.667 5 -300 15 -346c6.66699 -30 18.334 -51 35.001 -63c22.667 -17.333 77.667 -26 165 -26c114.667 0 182.667 10 204 30
c16.667 15.333 25 50 25 104c0 13.333 -0.333008 31.666 -1 54.999z" />
    <glyph glyph-name="ordfeminine" unicode="&#xaa;" horiz-adv-x="837" 
d="M274 1202l-98.001 0.00195312c0.666992 54.667 8.33398 92.667 23.001 114c26.667 38 97.667 57 213 57c71.333 0 123.666 -7 156.999 -21c48.667 -20.667 76.334 -59.334 83.001 -116.001c2.66699 -24 4 -43.667 4 -59v-358h-98l5 45
c-25.333 -22 -48.666 -36 -69.999 -42c-26.667 -7.33301 -66.334 -11 -119.001 -11c-83.333 0 -142.333 14.333 -177 43c-30 24 -45 65.667 -45 125c0 71.333 18.667 119.333 56 144c33.333 22 89.333 33 168 33c49.333 0 91 -3.66699 125 -11
c17.333 -4 36.666 -14 57.999 -30v45c0 45.333 -5 78.666 -15 99.999c-12 26 -54 39 -126 39c-63.333 0 -104.666 -6.33301 -123.999 -19c-14 -10 -21 -27.667 -21 -53c0 -6.66699 0.333008 -15 1 -25zM407.999 1080c-72 0 -117.666 -7.33301 -136.999 -22
c-12 -10 -18 -33.667 -18 -71c0 -40 8.33301 -65.333 25 -76c19.333 -13.333 58 -20 116 -20c73.333 0 122.666 9.66699 147.999 29c14 11.333 21 31.666 21 60.999c0 36.667 -8 61.334 -24 74.001c-21.333 16.667 -65 25 -131 25z" />
    <glyph glyph-name="guillemotleft" unicode="&#xab;" horiz-adv-x="915" 
d="M348 1047l105 -64l-215 -458l238 -459l-99 -66l-275 525zM684 1047l105 -64l-215 -458l238 -459l-99 -66l-275 525z" />
    <glyph glyph-name="logicalnot" unicode="&#xac;" 
d="M815 0v416h-747v131h887v-547h-140z" />
    <glyph glyph-name="sfthyphen" unicode="&#xad;" horiz-adv-x="425" 
d="M3 565h422v-133h-425z" />
    <glyph glyph-name="registered" unicode="&#xae;" horiz-adv-x="1526" 
d="M773 1379c124 0 241.665 -34.335 352.998 -103.002c112 -68.667 197.333 -161 256 -277c50.667 -100 76 -205.667 76 -317c0 -92 -17.667 -180.667 -53 -266s-85.333 -160.666 -150 -225.999c-65.333 -65.333 -140.666 -115.666 -225.999 -150.999
s-173.666 -53 -264.999 -53c-92 0 -180.667 17.667 -266 53s-160.333 85.333 -225 150c-65.333 65.333 -115.833 140.833 -151.5 226.5s-53.5 174.167 -53.5 265.5c0 131.333 34 253.333 102 366c67.333 110 160.333 195.333 279 256c98.667 50.667 206.667 76 324 76z
M756.998 1302c-77.333 0 -153.333 -15.8301 -228 -47.4971s-140.334 -75.834 -197.001 -132.501c-57.333 -58 -101.666 -125.167 -132.999 -201.5s-47 -155.5 -47 -237.5c0 -172 60 -318.333 180 -439s264 -181 432 -181s311.667 60.333 431 181
c119.333 121.333 179 267 179 437c0 83.333 -15.667 163.666 -47 240.999s-75.333 143.666 -132 198.999c-122 120.667 -268 181 -438 181zM451.998 300.001v779h384c72 0 126 -11.667 162 -35c50.667 -32 76 -96 76 -192c0 -63.333 -8.66699 -111.333 -26 -144
c-14 -25.333 -41 -44.333 -81 -57c64 -20 96 -70 96 -150v-201h-102v182c0 48.667 -11.667 82.667 -35 102c-24.667 17.333 -60.667 25.333 -108 24h-264v-308h-102zM553.998 696.001h252c55.333 0 96 7.33301 122 22c29.333 16.667 44 52 44 106c0 70 -6.66699 114 -20 132
c-16.667 23.333 -55 35 -115 35h-283v-295z" />
    <glyph glyph-name="overscore" unicode="&#xaf;" 
d="M0 1762h1024v-126h-1024v126z" />
    <glyph glyph-name="degree" unicode="&#xb0;" horiz-adv-x="748" 
d="M379 1381c81.333 0 149.998 -30.9971 205.998 -92.9971c47.333 -52 71 -113 71 -183c0 -80.667 -30.667 -148.334 -92 -203.001c-53.333 -48.667 -116.666 -73 -189.999 -73c-79.333 0 -146.666 28.333 -201.999 85c-52.667 53.333 -79 117.666 -79 192.999
c0 79.333 30.667 146.666 92 201.999c53.333 48 118 72 194 72zM371.998 1297c-56.667 0 -104.666 -21.334 -143.999 -64.001c-33.333 -36 -50 -78.667 -50 -128c0 -51.333 18.333 -95.666 55 -132.999c38.667 -39.333 85.667 -59 141 -59
c59.333 0 108.666 21.667 147.999 65c32.667 36 49 78.667 49 128c0 55.333 -21.333 102.333 -64 141c-36.667 33.333 -81.667 50 -135 50z" />
    <glyph glyph-name="plusminus" unicode="&#xb1;" horiz-adv-x="1256" 
d="M148 896h404v354h151v-354h405v-143h-405v-350h-151v350h-404v143zM148 267h960v-143h-960v143z" />
    <glyph glyph-name="twosuperior" unicode="&#xb2;" horiz-adv-x="826" 
d="M713 636v-90.001h-633v158c0 44 4.16699 78.667 12.5 104s22.166 46.333 41.499 63c28 23.333 68 40 120 50c18.667 3.33301 64.334 9 137.001 17c104.667 11.333 166.667 25 186 41c22 18.667 33 67 33 145c0 64 -10 105.333 -30 124c-22 22 -75 33 -159 33
c-111.333 0 -178.333 -8.66699 -201 -26c-21.333 -16 -32 -51.333 -32 -106c0 -8 0.333008 -32 1 -72h-108c1.33301 53.333 2.66602 89.333 3.99902 108c8.66699 88.667 46 143.334 112 164.001c50.667 16 124 24 220 24c119.333 0 200 -19.333 242 -58
c38 -34.667 57 -101.667 57 -201c0 -64 -6.66699 -112 -20 -144c-19.333 -45.333 -56.666 -77 -111.999 -95c-35.333 -12 -93 -21.667 -173 -29c-88 -8 -145.667 -18.333 -173 -31c-23.333 -11.333 -38 -35.333 -44 -72c-2.66699 -10.667 -4 -39.667 -4 -87v-20h523z" />
    <glyph glyph-name="threesuperior" unicode="&#xb3;" horiz-adv-x="825" 
d="M325 919l0.00390625 92.002c18 -0.666992 29.667 -1 35 -1c61.333 0 108 1 140 3c53.333 3.33301 85.333 20 96 50c6 15.333 9 39 9 71c0 46 -4.66699 80.667 -14 104c-9.33301 22 -35.666 35.333 -78.999 40c-22.667 2 -61.334 3 -116.001 3c-66.667 0 -113 -3 -139 -9
c-30.667 -7.33301 -49.334 -27 -56.001 -59c-2.66699 -12 -4.33398 -48.333 -5.00098 -109h-105v39c0 51.333 5 91.166 15 119.499s26.667 51.166 50 68.499c31.333 22 73.333 34.667 126 38c35.333 2.66699 75.333 4 120 4c85.333 0 145 -4.33301 179 -13
c62 -15.333 101.667 -46.333 119 -93c10 -26.667 15 -61.667 15 -105c0 -75.333 -11.667 -126.333 -35 -153c-18 -20.667 -45.333 -34.667 -82 -42c38 -6.66699 66 -17.667 84 -33c33.333 -28 50 -79.667 50 -155c0 -90.667 -18.667 -153 -56 -187
c-22.667 -19.333 -53.834 -33.166 -93.501 -41.499s-95.167 -12.5 -166.5 -12.5c-102 0 -174.333 6.33301 -217 19c-76.667 22.667 -117.334 79 -122.001 169c0 2.66699 -0.333008 34.667 -1 96h108v-56c0 -63.333 12.667 -102.333 38 -117
c12 -7.33301 32.833 -12.333 62.5 -15s79.834 -4 150.501 -4c89.333 0 143.666 10.667 162.999 32c16 18 24 60.667 24 128c0 48.667 -9.33301 81.667 -28 99c-21.333 21.333 -69 31.666 -143 30.999l-82 -1h-44z" />
    <glyph glyph-name="acute" unicode="&#xb4;" 
d="M666 1351l72 -98l-295 -181l-48 74z" />
    <glyph glyph-name="mu" unicode="&#xb5;" 
d="M100 -342l-0.000976562 1325h140v-559c0 -80 6.66699 -138.333 20 -175c22.667 -65.333 64.334 -112 125.001 -140c38 -18 78 -27 120 -27c85.333 0 154 33.333 206 100c28.667 36.667 48.667 77 60 121c9.33301 34.667 14 81.334 14 140.001v540h140v-983h-140v180
c-26 -58.667 -54.333 -102.334 -85 -131.001c-54 -50 -120.333 -75 -199 -75c-73.333 0 -136.333 21.667 -189 65c-23.333 18.667 -47.333 47.667 -72 87v-468h-140z" />
    <glyph glyph-name="paragraph" unicode="&#xb6;" horiz-adv-x="1256" 
d="M1088 -410h-137.001v1647h-163v-1647h-137v945h-80c-63.333 1.33301 -111.333 2.66602 -144 3.99902c-56 2 -98.667 7.33301 -128 16s-58.333 24.667 -87 48c-55.333 44.667 -89.666 103.667 -102.999 177c-9.33301 50 -14 104 -14 162c0 130 19.333 227.333 58 292
c38 62.667 94 102.334 168 119.001c35.333 8 110.333 12 225 12h542v-1775z" />
    <glyph glyph-name="middot" unicode="&#xb7;" horiz-adv-x="408" 
d="M285 568v-186h-162v186h162z" />
    <glyph glyph-name="cedilla" unicode="&#xb8;" 
d="M524 -100l97 -54l-139 -195l-79 42z" />
    <glyph glyph-name="onesuperior" unicode="&#xb9;" horiz-adv-x="825" 
d="M534 1365v-819h-110v727l-213 -220l-71 63l245 249h149z" />
    <glyph glyph-name="ordmasculine" unicode="&#xba;" horiz-adv-x="837" 
d="M424 1386c94.667 0 159.334 -13.335 194.001 -40.002c31.333 -24 50.666 -60.333 57.999 -109c6.66699 -40.667 10 -87 10 -139c0 -87.333 -7.66699 -149.666 -23 -186.999c-22 -51.333 -66 -82.333 -132 -93c-26 -4.66699 -63.333 -7 -112 -7
c-98.667 0 -165 13.333 -199 40c-31.333 24 -51 60.333 -59 109c-6 39.333 -9 84.333 -9 135c0 90.667 7.66699 154.334 23 191.001c21.333 51.333 65 82.333 131 93c26 4.66699 65.333 7 118 7zM417 1292c-62 0 -100.999 -6.33301 -116.999 -19
c-22 -18 -33 -76.333 -33 -175c0 -98 11 -156 33 -174c16 -12.667 55.667 -19 119 -19s102.666 6.33301 117.999 19c22.667 18 34 74.667 34 170c0 56.667 -2.5 98.167 -7.5 124.5s-13.833 44.5 -26.5 54.5c-16 12.667 -56 19 -120 19z" />
    <glyph glyph-name="guillemotright" unicode="&#xbb;" horiz-adv-x="915" 
d="M566 1047l246 -522l-275 -525l-99 66l238 459l-215 458zM230 1047l246 -522l-275 -525l-99 66l238 459l-215 458z" />
    <glyph glyph-name="onequarter" unicode="&#xbc;" horiz-adv-x="1924" 
d="M534 1365v-819h-110v727l-213 -220l-71 63l245 249h149zM1477 1365l-926 -1365h-104l922 1365h108zM1735 819v-543h129v-90h-129v-186h-110v186h-482v116l433 517h159zM1625 276v461l-380 -461h380z" />
    <glyph glyph-name="onehalf" unicode="&#xbd;" horiz-adv-x="1924" 
d="M534 1365v-819h-110v727l-213 -220l-71 63l245 249h149zM1477 1365l-926 -1365h-104l922 1365h108zM1812 90v-90.002h-633v158c0 44 4.16699 78.667 12.5 104s22.166 46.333 41.499 63c28 23.333 68 40 120 50c18.667 3.33301 64.334 9 137.001 17
c104.667 11.333 166.667 25 186 41c22 18.667 33 67 33 145c0 64 -10 105.333 -30 124c-22 22 -75 33 -159 33c-111.333 0 -178.333 -8.66699 -201 -26c-21.333 -16 -32 -51.333 -32 -106c0 -18 0.333008 -42 1 -72h-108c1.33301 53.333 2.66602 89.333 3.99902 108
c8.66699 88.667 46 143.334 112 164.001c50.667 16 124 24 220 24c119.333 0 200 -19.333 242 -58c38 -35.333 57 -102.666 57 -201.999c0 -64 -6.66699 -111.667 -20 -143c-19.333 -45.333 -56.666 -77 -111.999 -95c-36 -12 -93.667 -21.667 -173 -29
c-87.333 -8 -145 -18.333 -173 -31c-23.333 -11.333 -38 -35.333 -44 -72c-2.66699 -11.333 -4 -40.333 -4 -87v-20h523z" />
    <glyph glyph-name="threequarters" unicode="&#xbe;" horiz-adv-x="1924" 
d="M325 919l0.00390625 92.002c18 -0.666992 29.667 -1 35 -1c61.333 0 108 1 140 3c53.333 3.33301 85.333 20 96 50c6 15.333 9 39 9 71c0 46 -4.66699 80.667 -14 104c-9.33301 22 -35.666 35.333 -78.999 40c-22.667 2 -61.334 3 -116.001 3c-66.667 0 -113 -3 -139 -9
c-30.667 -7.33301 -49.334 -27 -56.001 -59c-2.66699 -12 -4.33398 -48.333 -5.00098 -109h-105v39c0 51.333 5 91.166 15 119.499s26.667 51.166 50 68.499c31.333 22 73.333 34.667 126 38c35.333 2.66699 75.333 4 120 4c85.333 0 145 -4.33301 179 -13
c62 -15.333 101.667 -46.333 119 -93c10 -26.667 15 -61.667 15 -105c0 -75.333 -11.667 -126.333 -35 -153c-18.667 -21.333 -46 -35.333 -82 -42c37.333 -6 65.333 -17 84 -33c33.333 -28 50 -79.667 50 -155c0 -90.667 -18.667 -153 -56 -187
c-22.667 -19.333 -53.834 -33.166 -93.501 -41.499s-95.167 -12.5 -166.5 -12.5c-102 0 -174.333 6.33301 -217 19c-76.667 22.667 -117.334 79 -122.001 169c0 2.66699 -0.333008 34.667 -1 96h108v-56c0 -63.333 12.667 -102.333 38 -117
c12 -7.33301 32.833 -12.333 62.5 -15s79.834 -4 150.501 -4c89.333 0 143.666 10.667 162.999 32c16 18 24 60.667 24 128c0 48.667 -9.33301 81.667 -28 99c-21.333 21.333 -69 31.666 -143 30.999l-82 -1h-44zM1545 1365l-927 -1365h-103l921 1365h109zM1734 819.002
v-543h129v-90h-129v-186h-110v186h-482v116l433 517h159zM1624 276.002v461l-380 -461h380z" />
    <glyph glyph-name="questiondown" unicode="&#xbf;" horiz-adv-x="1064" 
d="M517 770v186h159v-186h-159zM517 562h150.999c-1.33301 -68.667 -4.33301 -114.667 -9 -138c-12.667 -58.667 -36.667 -100.334 -72 -125.001c-28 -18.667 -99.667 -49.667 -215 -93c-41.333 -15.333 -70.333 -32.666 -87 -51.999c-26.667 -29.333 -40 -96 -40 -200
c0 -106.667 16.333 -174.667 49 -204c30 -27.333 104 -41 222 -41c132 0 214.333 15.667 247 47c31.333 30 47 98.333 47 205v57h144v-45c-1.33301 -104 -9.66602 -177.667 -24.999 -221c-29.333 -85.333 -95 -138.333 -197 -159c-53.333 -11.333 -130.666 -17 -231.999 -17
c-103.333 0 -179.333 9.33301 -228 28c-83.333 32.667 -135.333 91 -156 175c-9.33301 36 -14 90.333 -14 163c0 106 9 182.667 27 230c27.333 69.333 75.333 119 144 149c7.33301 3.33301 42.666 16.333 105.999 39c76 28.667 119 57 129 85c4.66699 18 7.66699 57 9 117z
" />
    <glyph glyph-name="Agrave" unicode="&#xc0;" horiz-adv-x="1246" 
d="M969 289h-691l-105 -289h-163l500 1365h216l510 -1365h-161zM924 412l-303 828l-299 -828h602zM422 1741l298 -186l-50 -79l-308 154z" />
    <glyph glyph-name="Aacute" unicode="&#xc1;" horiz-adv-x="1246" 
d="M969 289h-691l-105 -289h-163l500 1365h216l510 -1365h-161zM924 412l-303 828l-299 -828h602zM823 1741l61 -111l-308 -154l-50 79z" />
    <glyph glyph-name="Acircumflex" unicode="&#xc2;" horiz-adv-x="1246" 
d="M969 289h-691l-105 -289h-163l500 1365h216l510 -1365h-161zM924 412l-303 828l-299 -828h602zM627 1735l313 -182l-42 -77l-271 124l-283 -124l-38 77z" />
    <glyph glyph-name="Atilde" unicode="&#xc3;" horiz-adv-x="1246" 
d="M969 289h-691l-105 -289h-163l500 1365h216l510 -1365h-161zM924 412l-303 828l-299 -828h602zM868 1698l77.999 -50.999c-56 -90.667 -118.667 -136 -188 -136c-30 0 -76.333 13.667 -139 41c-55.333 24 -95.666 36 -120.999 36c-22.667 0 -41 -7.66699 -55 -23
c-8 -9.33301 -18.667 -26 -32 -50l-83 46c19.333 35.333 36.333 61.666 51 78.999c33.333 38 74 57 122 57c27.333 0 72.666 -13.333 135.999 -40c60.667 -26 102 -39 124 -39c36.667 0 72.334 26.667 107.001 80z" />
    <glyph glyph-name="Adieresis" unicode="&#xc4;" horiz-adv-x="1246" 
d="M969 289h-691l-105 -289h-163l500 1365h216l510 -1365h-161zM924 412l-303 828l-299 -828h602zM522 1660v-135h-161v135h161zM885 1660v-135h-161v135h161z" />
    <glyph glyph-name="Aring" unicode="&#xc5;" horiz-adv-x="1246" 
d="M969 289h-691l-105 -289h-163l500 1365h216l510 -1365h-161zM924 412l-303 828l-299 -828h602zM626 1775c44.667 0 82.667 -17.333 114 -52c26.667 -30 40 -65 40 -105c0 -46.667 -17.333 -85.667 -52 -117c-30 -26.667 -65 -40 -105 -40
c-46.667 0 -85.667 17.333 -117 52c-26.667 30 -40 65.333 -40 106c0 45.333 17.333 84 52 116c29.333 26.667 65.333 40 108 40zM622 1707c-25.333 0 -47.001 -9.66602 -65.001 -28.999c-15.333 -17.333 -23 -37.333 -23 -60c0 -26.667 9.66699 -48.667 29 -66
c17.333 -15.333 37.333 -23 60 -23c26.667 0 48.667 9.66699 66 29c15.333 17.333 23 37.666 23 60.999c0 25.333 -9.66699 47 -29 65c-17.333 15.333 -37.666 23 -60.999 23z" />
    <glyph glyph-name="AE" unicode="&#xc6;" horiz-adv-x="1901" 
d="M1119 1233v-466h682v-130h-682v-505h714v-132h-867v287h-637l-156 -287h-182l759 1365h1083v-132h-714zM966 419v814h-124l-441 -814h565z" />
    <glyph glyph-name="Ccedilla" unicode="&#xc7;" horiz-adv-x="1222" 
d="M1025 456l153.008 -0.000976562v-67c0.666992 -119.333 -13 -205.333 -41 -258c-38 -71.333 -110 -115.666 -216 -132.999c-48.667 -8 -165 -12 -349 -12c-110.667 0 -196.334 9.66699 -257.001 29c-103.333 32 -172 106.333 -206 223c-22 76.667 -33 223 -33 439
c0 183.333 1.66699 295.333 5 336c6.66699 91.333 29.834 164.166 69.501 218.499s98.5 93.5 176.5 117.5c66 20 199 30 399 30c109.333 0 187.666 -7.33301 234.999 -22c105.333 -33.333 167.666 -107.666 186.999 -222.999c5.33301 -28.667 9.66602 -90.667 12.999 -186
h-153c0 22.667 -0.333008 36.667 -1 42c-0.666992 63.333 -6 111.833 -16 145.5s-26.667 58.5 -50 74.5c-34.667 24.667 -109.334 37 -224.001 37c-128 0 -226.667 -4.33301 -296 -13c-44.667 -5.33301 -79.834 -17.833 -105.501 -37.5s-44.834 -49.167 -57.501 -88.5
c-14 -42 -21 -109 -21 -201c0 -165.333 2 -311.333 6 -438c5.33301 -162 33.666 -262.667 84.999 -302c34.667 -26.667 90.667 -41.667 168 -45c39.333 -2 81.333 -3 126 -3c108 0 189.167 4.33301 243.5 13s92.166 23 113.499 43c32 30.667 48 95.667 48 195
c0 21.333 -0.666992 50 -2 86zM641.008 -100.001l112 -63l-160 -224l-91 49z" />
    <glyph glyph-name="Egrave" unicode="&#xc8;" horiz-adv-x="1020" 
d="M228 1233v-463h694v-130h-694v-508h724v-132h-877v1365h877v-132h-724zM364 1741l298 -186l-50 -79l-308 154z" />
    <glyph glyph-name="Eacute" unicode="&#xc9;" horiz-adv-x="1020" 
d="M228 1233v-463h694v-130h-694v-508h724v-132h-877v1365h877v-132h-724zM696 1741l61 -111l-308 -154l-50 79z" />
    <glyph glyph-name="Ecircumflex" unicode="&#xca;" horiz-adv-x="1020" 
d="M228 1233v-463h694v-130h-694v-508h724v-132h-877v1365h877v-132h-724zM527 1735l313 -182l-42 -77l-271 124l-283 -124l-38 77z" />
    <glyph glyph-name="Edieresis" unicode="&#xcb;" horiz-adv-x="1020" 
d="M228 1233v-463h694v-130h-694v-508h724v-132h-877v1365h877v-132h-724zM423 1660v-135h-161v135h161zM786 1660v-135h-161v135h161z" />
    <glyph glyph-name="Igrave" unicode="&#xcc;" horiz-adv-x="416" 
d="M282 1365v-1365h-153v1365h153zM7 1741l298 -186l-50 -79l-308 154z" />
    <glyph glyph-name="Iacute" unicode="&#xcd;" horiz-adv-x="416" 
d="M283 1365v-1365h-153v1365h153zM408 1741l61 -111l-308 -154l-50 79z" />
    <glyph glyph-name="Icircumflex" unicode="&#xce;" horiz-adv-x="416" 
d="M283 1365v-1365h-153v1365h153zM212 1735l286 -182l-43 -77l-243 124l-256 -124l-38 77z" />
    <glyph glyph-name="Idieresis" unicode="&#xcf;" horiz-adv-x="416" 
d="M283 1365v-1365h-153v1365h153zM175 1660v-135h-154v135h154zM395 1660v-135h-154v135h154z" />
    <glyph glyph-name="Eth" unicode="&#xd0;" horiz-adv-x="1337" 
d="M130 640h-130.002v116h130v609h630c86.667 0 161.334 -7.66699 224.001 -23c91.333 -22 161 -78.333 209 -169c36 -67.333 57.667 -158 65 -272c2.66699 -36 4 -87 4 -153c0 -165.333 -3.66699 -280.666 -11 -345.999c-19.333 -174.667 -84.333 -290.334 -195 -347.001
c-42 -22 -107.333 -38.667 -196 -50c-23.333 -3.33301 -43.666 -5 -60.999 -5h-669v640zM282.998 640l0.000976562 -508h444c154.667 0 255.667 28.667 303 86c39.333 47.333 63.666 125 72.999 233c4 46 6 113.667 6 203c0 159.333 -4.33301 271.666 -13 336.999
c-15.333 114.667 -66 187.334 -152 218.001c-46 16 -107.667 24 -185 24h-476v-477h435v-116h-435z" />
    <glyph glyph-name="Ntilde" unicode="&#xd1;" horiz-adv-x="1426" 
d="M1296 1365v-1365h-252l-573 929l-94 153l-46 76l-46 76h-4l1 -51l1 -52v-102v-1029h-153v1365h251l500 -814l260 -427h4l-1 51l-1 52v102v1036h153zM958 1698l77.999 -50.999c-56 -90.667 -118.667 -136 -188 -136c-30 0 -76.333 13.667 -139 41
c-55.333 24 -95.666 36 -120.999 36c-22.667 0 -41 -7.66699 -55 -23c-8 -9.33301 -18.667 -26 -32 -50l-83 46c19.333 35.333 36.333 61.666 51 78.999c33.333 38 74 57 122 57c27.333 0 72.666 -13.333 135.999 -40c60.667 -26 102 -39 124 -39
c36.667 0 72.334 26.667 107.001 80z" />
    <glyph glyph-name="Ograve" unicode="&#xd2;" horiz-adv-x="1256" 
d="M644 1379c94.667 0 167.834 -3.16602 219.501 -9.49902s97.167 -17.833 136.5 -34.5c112 -48 179 -156.667 201 -326c6 -46.667 9 -130.334 9 -251.001c0 -217.333 -3.66699 -353.333 -11 -408c-11.333 -88 -31 -155.667 -59 -203s-69.667 -84.333 -125 -111
c-57.333 -27.333 -130 -43 -218 -47c-46.667 -2 -102.667 -3 -168 -3c-113.333 0 -195.5 3.33301 -246.5 10s-97.833 20 -140.5 40c-89.333 42.667 -146 120.667 -170 234c-16 73.333 -24.333 182 -25 326v190c0 100 3 174.333 9 223c11.333 88 33.166 158 65.499 210
s77.5 90.667 135.5 116c50.667 21.333 116 34.333 196 39c52 3.33301 115.667 5 191 5zM611 1247c-86 0 -148.5 -2 -187.5 -6s-72.167 -11.667 -99.5 -23c-52.667 -22.667 -88 -71 -106 -145c-12 -50 -18 -107.333 -18 -172v-218c0 -170.667 1.66699 -272 5 -304
c6.66699 -68 19.167 -119.833 37.5 -155.5s45.5 -61.167 81.5 -76.5c32.667 -14 78.667 -22.667 138 -26c44 -2 99.667 -3 167 -3c142 0 233.333 6 274 18c38.667 11.333 68.5 29 89.5 53s36.833 58.333 47.5 103c12 49.333 18 106.666 18 171.999l-1 219
c0 170 -1.66699 271 -5 303c-6.66699 69.333 -19 121.333 -37 156s-45.333 60 -82 76c-33.333 14.667 -80.333 23.334 -141 26.001c-44.667 2 -105 3 -181 3zM469 1741l298 -186l-50 -79l-308 154z" />
    <glyph glyph-name="Oacute" unicode="&#xd3;" horiz-adv-x="1256" 
d="M644 1379c94.667 0 167.834 -3.16602 219.501 -9.49902s97.167 -17.833 136.5 -34.5c112 -48 179 -156.667 201 -326c6 -46.667 9 -130.334 9 -251.001c0 -217.333 -3.66699 -353.333 -11 -408c-11.333 -88 -31 -155.667 -59 -203s-69.667 -84.333 -125 -111
c-57.333 -27.333 -130 -43 -218 -47c-46.667 -2 -102.667 -3 -168 -3c-113.333 0 -195.5 3.33301 -246.5 10s-97.833 20 -140.5 40c-89.333 42.667 -146 120.667 -170 234c-16 73.333 -24.333 182 -25 326v190c0 100 3 174.333 9 223c11.333 88 33.166 158 65.499 210
s77.5 90.667 135.5 116c50.667 21.333 116 34.333 196 39c52 3.33301 115.667 5 191 5zM611 1247c-86 0 -148.5 -2 -187.5 -6s-72.167 -11.667 -99.5 -23c-52.667 -22.667 -88 -71 -106 -145c-12 -50 -18 -107.333 -18 -172v-218c0 -170.667 1.66699 -272 5 -304
c6.66699 -68 19.167 -119.833 37.5 -155.5s45.5 -61.167 81.5 -76.5c32.667 -14 78.667 -22.667 138 -26c44 -2 99.667 -3 167 -3c142 0 233.333 6 274 18c38.667 11.333 68.5 29 89.5 53s36.833 58.333 47.5 103c12 49.333 18 106.666 18 171.999l-1 219
c0 170 -1.66699 271 -5 303c-6.66699 69.333 -19 121.333 -37 156s-45.333 60 -82 76c-33.333 14.667 -80.333 23.334 -141 26.001c-44.667 2 -105 3 -181 3zM801 1741l61 -111l-308 -154l-50 79z" />
    <glyph glyph-name="Ocircumflex" unicode="&#xd4;" horiz-adv-x="1256" 
d="M644 1379c94.667 0 167.834 -3.16602 219.501 -9.49902s97.167 -17.833 136.5 -34.5c112 -48 179 -156.667 201 -326c6 -46.667 9 -130.334 9 -251.001c0 -217.333 -3.66699 -353.333 -11 -408c-11.333 -88 -31 -155.667 -59 -203s-69.667 -84.333 -125 -111
c-57.333 -27.333 -130 -43 -218 -47c-46.667 -2 -102.667 -3 -168 -3c-113.333 0 -195.5 3.33301 -246.5 10s-97.833 20 -140.5 40c-89.333 42.667 -146 120.667 -170 234c-16 73.333 -24.333 182 -25 326v190c0 100 3 174.333 9 223c11.333 88 33.166 158 65.499 210
s77.5 90.667 135.5 116c50.667 21.333 116 34.333 196 39c52 3.33301 115.667 5 191 5zM611 1247c-86 0 -148.5 -2 -187.5 -6s-72.167 -11.667 -99.5 -23c-52.667 -22.667 -88 -71 -106 -145c-12 -50 -18 -107.333 -18 -172v-218c0 -170.667 1.66699 -272 5 -304
c6.66699 -68 19.167 -119.833 37.5 -155.5s45.5 -61.167 81.5 -76.5c32.667 -14 78.667 -22.667 138 -26c44 -2 99.667 -3 167 -3c142 0 233.333 6 274 18c38.667 11.333 68.5 29 89.5 53s36.833 58.333 47.5 103c12 49.333 18 106.666 18 171.999l-1 219
c0 170 -1.66699 271 -5 303c-6.66699 69.333 -19 121.333 -37 156s-45.333 60 -82 76c-33.333 14.667 -80.333 23.334 -141 26.001c-44.667 2 -105 3 -181 3zM632 1735l313 -182l-42 -77l-271 124l-283 -124l-38 77z" />
    <glyph glyph-name="Otilde" unicode="&#xd5;" horiz-adv-x="1256" 
d="M644 1379c94.667 0 167.834 -3.16602 219.501 -9.49902s97.167 -17.833 136.5 -34.5c112 -48 179 -156.667 201 -326c6 -46.667 9 -130.334 9 -251.001c0 -217.333 -3.66699 -353.333 -11 -408c-11.333 -88 -31 -155.667 -59 -203s-69.667 -84.333 -125 -111
c-57.333 -27.333 -130 -43 -218 -47c-46.667 -2 -102.667 -3 -168 -3c-113.333 0 -195.5 3.33301 -246.5 10s-97.833 20 -140.5 40c-89.333 42.667 -146 120.667 -170 234c-16 73.333 -24.333 182 -25 326v190c0 100 3 174.333 9 223c11.333 88 33.166 158 65.499 210
s77.5 90.667 135.5 116c50.667 21.333 116 34.333 196 39c52 3.33301 115.667 5 191 5zM611 1247c-86 0 -148.5 -2 -187.5 -6s-72.167 -11.667 -99.5 -23c-52.667 -22.667 -88 -71 -106 -145c-12 -50 -18 -107.333 -18 -172v-218c0 -170.667 1.66699 -272 5 -304
c6.66699 -68 19.167 -119.833 37.5 -155.5s45.5 -61.167 81.5 -76.5c32.667 -14 78.667 -22.667 138 -26c44 -2 99.667 -3 167 -3c142 0 233.333 6 274 18c38.667 11.333 68.5 29 89.5 53s36.833 58.333 47.5 103c12 49.333 18 106.666 18 171.999l-1 219
c0 170 -1.66699 271 -5 303c-6.66699 69.333 -19 121.333 -37 156s-45.333 60 -82 76c-33.333 14.667 -80.333 23.334 -141 26.001c-44.667 2 -105 3 -181 3zM880 1698l77.999 -50.999c-56 -90.667 -118.667 -136 -188 -136c-30 0 -76.333 13.667 -139 41
c-55.333 24 -95.666 36 -120.999 36c-22.667 0 -41 -7.66699 -55 -23c-8 -9.33301 -18.667 -26 -32 -50l-83 46c19.333 35.333 36.333 61.666 51 78.999c33.333 38 74 57 122 57c27.333 0 72.666 -13.333 135.999 -40c60.667 -26 102 -39 124 -39
c36.667 0 72.334 26.667 107.001 80z" />
    <glyph glyph-name="Odieresis" unicode="&#xd6;" horiz-adv-x="1256" 
d="M644 1379c94.667 0 167.834 -3.16602 219.501 -9.49902s97.167 -17.833 136.5 -34.5c112 -48 179 -156.667 201 -326c6 -46.667 9 -130.334 9 -251.001c0 -217.333 -3.66699 -353.333 -11 -408c-11.333 -88 -31 -155.667 -59 -203s-69.667 -84.333 -125 -111
c-57.333 -27.333 -130 -43 -218 -47c-46.667 -2 -102.667 -3 -168 -3c-113.333 0 -195.5 3.33301 -246.5 10s-97.833 20 -140.5 40c-89.333 42.667 -146 120.667 -170 234c-16 73.333 -24.333 182 -25 326v190c0 100 3 174.333 9 223c11.333 88 33.166 158 65.499 210
s77.5 90.667 135.5 116c50.667 21.333 116 34.333 196 39c52 3.33301 115.667 5 191 5zM611 1247c-86 0 -148.5 -2 -187.5 -6s-72.167 -11.667 -99.5 -23c-52.667 -22.667 -88 -71 -106 -145c-12 -50 -18 -107.333 -18 -172v-218c0 -170.667 1.66699 -272 5 -304
c6.66699 -68 19.167 -119.833 37.5 -155.5s45.5 -61.167 81.5 -76.5c32.667 -14 78.667 -22.667 138 -26c44 -2 99.667 -3 167 -3c142 0 233.333 6 274 18c38.667 11.333 68.5 29 89.5 53s36.833 58.333 47.5 103c12 49.333 18 106.666 18 171.999l-1 219
c0 170 -1.66699 271 -5 303c-6.66699 69.333 -19 121.333 -37 156s-45.333 60 -82 76c-33.333 14.667 -80.333 23.334 -141 26.001c-44.667 2 -105 3 -181 3zM528 1660v-135h-161v135h161zM891 1660v-135h-161v135h161z" />
    <glyph glyph-name="multiply" unicode="&#xd7;" horiz-adv-x="1256" 
d="M533 683l-339 338l95 96l339 -339l339 339l95 -96l-339 -338l339 -339l-95 -95l-339 338l-339 -338l-95 95z" />
    <glyph glyph-name="Oslash" unicode="&#xd8;" horiz-adv-x="1289" 
d="M20 7l0.000976562 152l76 73c-12.667 41.333 -21 80.333 -25 117c-6 51.333 -9 175 -9 371c0 134.667 2 223 6 265c18.667 184 86.667 300.667 204 350c50 21.333 116.333 34.333 199 39c56 3.33301 122.667 5 200 5c155.333 0 258.333 -7.66699 309 -23
c66 -20.667 119 -58.667 159 -114l129 125v-152l-79 -77c12 -38.667 20.333 -75 25 -109c8 -56 12 -150.333 12 -283c0 -148.667 -1.33301 -254 -4 -316c-4 -98 -16.5 -174.667 -37.5 -230s-54.167 -100.333 -99.5 -135c-48.667 -36 -115 -59 -199 -69
c-57.333 -6.66699 -130 -10 -218 -10c-118.667 0 -204.334 2.83301 -257.001 8.5s-99 17.167 -139 34.5c-48.667 20 -91 53.333 -127 100zM256.001 235c17.333 -33.333 33.667 -55.666 49 -66.999c38 -26 85 -41.333 141 -46c33.333 -2.66699 118.333 -4 255 -4
c136 0 228.667 16.667 278 50c60 40 90 128 90 264l-1 114c0 36.667 0.333008 83.667 1 141c0.666992 56.667 1 97.667 1 123c0 75.333 -2.66699 143.666 -8 204.999zM1031 1138c-16.667 31.333 -33 51.998 -49 61.998c-40.667 26 -91.334 40.333 -152.001 43
c-63.333 2.66699 -139.666 4 -228.999 4c-111.333 0 -188.333 -6.33301 -231 -19c-45.333 -13.333 -79 -35.666 -101 -66.999s-37.333 -78.666 -46 -141.999c-5.33301 -36.667 -8 -101 -8 -193c0 -234.667 3 -391 9 -469z" />
    <glyph glyph-name="Ugrave" unicode="&#xd9;" horiz-adv-x="1342" 
d="M1059 1365l153.001 0.000976562v-956c0 -114.667 -12.333 -197.667 -37 -249c-36.667 -76 -103.334 -127 -200.001 -153c-54 -14 -152 -21 -294 -21c-101.333 0 -175.833 2.33301 -223.5 7s-89.167 13.667 -124.5 27c-79.333 29.333 -134 75.333 -164 138
c-25.333 53.333 -38 137 -38 251v956h153v-956c0 -101.333 9.66699 -168 29 -200c24 -40.667 69.667 -67.334 137 -80.001c38 -7.33301 106 -11 204 -11c146.667 0 245.667 8.66699 297 26c48.667 16.667 80.667 55.667 96 117c8 32.667 12 82 12 148v956zM511.001 1741
l298 -186l-50 -79l-308 154z" />
    <glyph glyph-name="Uacute" unicode="&#xda;" horiz-adv-x="1342" 
d="M1059 1365l153.001 0.000976562v-956c0 -114.667 -12.333 -197.667 -37 -249c-36.667 -76 -103.334 -127 -200.001 -153c-54 -14 -152 -21 -294 -21c-101.333 0 -175.833 2.33301 -223.5 7s-89.167 13.667 -124.5 27c-79.333 29.333 -134 75.333 -164 138
c-25.333 53.333 -38 137 -38 251v956h153v-956c0 -101.333 9.66699 -168 29 -200c24 -40.667 69.667 -67.334 137 -80.001c38 -7.33301 106 -11 204 -11c146.667 0 245.667 8.66699 297 26c48.667 16.667 80.667 55.667 96 117c8 32.667 12 82 12 148v956zM844.001 1741
l61 -111l-308 -154l-50 79z" />
    <glyph glyph-name="Ucircumflex" unicode="&#xdb;" horiz-adv-x="1342" 
d="M1059 1365l153.001 0.000976562v-956c0 -114.667 -12.333 -197.667 -37 -249c-36.667 -76 -103.334 -127 -200.001 -153c-54 -14 -152 -21 -294 -21c-101.333 0 -175.833 2.33301 -223.5 7s-89.167 13.667 -124.5 27c-79.333 29.333 -134 75.333 -164 138
c-25.333 53.333 -38 137 -38 251v956h153v-956c0 -101.333 9.66699 -168 29 -200c24 -40.667 69.667 -67.334 137 -80.001c38 -7.33301 106 -11 204 -11c146.667 0 245.667 8.66699 297 26c48.667 16.667 80.667 55.667 96 117c8 32.667 12 82 12 148v956zM675.001 1735
l313 -182l-42 -77l-271 124l-283 -124l-38 77z" />
    <glyph glyph-name="Udieresis" unicode="&#xdc;" horiz-adv-x="1342" 
d="M1059 1365l153.001 0.000976562v-956c0 -114.667 -12.333 -197.667 -37 -249c-36.667 -76 -103.334 -127 -200.001 -153c-54 -14 -152 -21 -294 -21c-101.333 0 -175.833 2.33301 -223.5 7s-89.167 13.667 -124.5 27c-79.333 29.333 -134 75.333 -164 138
c-25.333 53.333 -38 137 -38 251v956h153v-956c0 -101.333 9.66699 -168 29 -200c24 -40.667 69.667 -67.334 137 -80.001c38 -7.33301 106 -11 204 -11c146.667 0 245.667 8.66699 297 26c48.667 16.667 80.667 55.667 96 117c8 32.667 12 82 12 148v956zM570.001 1660
v-135h-161v135h161zM933.001 1660v-135h-161v135h161z" />
    <glyph glyph-name="Yacute" unicode="&#xdd;" horiz-adv-x="1151" 
d="M1162 1365l-516 -795v-570h-153v570l-503 795h179l293 -461l111 -178h3l55 89l56 89l292 461h183zM776 1741l61 -111l-308 -154l-50 79z" />
    <glyph glyph-name="Thorn" unicode="&#xde;" horiz-adv-x="1207" 
d="M130 0v1365h153v-191h419c64 0 109.667 -0.666992 137 -2c67.333 -4.66699 120.666 -16.667 159.999 -36s71.333 -49.666 96 -90.999c38.667 -64.667 58 -161.334 58 -290.001c0 -116 -15.333 -202.667 -46 -260c-38 -72.667 -98 -118.667 -180 -138
c-27.333 -6.66699 -110.666 -11 -249.999 -13h-394v-344h-153zM283 476l364.998 -0.000976562c120.667 0 202.334 8 245.001 24c49.333 18 81.333 55.333 96 112c7.33301 27.333 11 68.333 11 123c0 98.667 -6.66699 168.334 -20 209.001
c-15.333 47.333 -50.666 77 -105.999 89c-21.333 4.66699 -80.333 7.66699 -177 9h-414v-566z" />
    <glyph glyph-name="germandbls" unicode="&#xdf;" horiz-adv-x="1074" 
d="M130 0l0.000976562 1055c0 94.667 12.667 164.334 38 209.001c27.333 47.333 76 79.666 146 96.999c46.667 12 109.334 18 188.001 18c136 0 231.667 -20 287 -60c28.667 -20.667 51.167 -50.167 67.5 -88.5s24.5 -80.5 24.5 -126.5
c0 -118.667 -59.333 -192.334 -178 -221.001v-2c80 -16 139 -44 177 -84c31.333 -32 52.666 -79.667 63.999 -143c8.66699 -48.667 13 -114.667 13 -198c0 -96.667 -5.83301 -173.834 -17.5 -231.501s-31.167 -105.167 -58.5 -142.5
c-22 -29.333 -54.667 -52.666 -98 -69.999s-91.666 -26 -144.999 -26c-120.667 0 -201 37 -241 111c-21.333 40.667 -32 97.334 -32 170.001v25h138l1 -28c1.33301 -54 11 -92.333 29 -115c22.667 -29.333 58.667 -44 108 -44c61.333 0 103.666 17.667 126.999 53
c23.333 34 36.333 81 39 141c2.66699 54 4 109.333 4 166c0 105.333 -9 181 -27 227c-24.667 62 -66.667 101 -126 117c-26.667 7.33301 -66 11 -118 11h-89h-33v121c94 0.666992 157.333 2 190 4c61.333 4 100 27 116 69c7.33301 18.667 11 43.667 11 75
c0 67.333 -14 112.333 -42 135c-22.667 18.667 -52.667 29.334 -90 32.001c-30.667 2.66699 -68.334 4 -113.001 4c-60 0 -102.667 -4.33301 -128 -13c-62 -22 -93 -81.667 -93 -179v-1068h-139z" />
    <glyph glyph-name="agrave" unicode="&#xe0;" horiz-adv-x="1043" 
d="M269 688h-139.001c1.33301 86 13.333 147.333 36 184c25.333 40 71.333 67.333 138 82c50 10.667 118.333 16 205 16c119.333 0 206 -12 260 -36c76.667 -34.667 120.334 -101 131.001 -199c4.66699 -42 7 -76.667 7 -104v-631h-139l11 103l-3 1
c-22.667 -33.333 -48.667 -58 -78 -74c-53.333 -29.333 -135.333 -44 -246 -44c-76 0 -136.333 5.66699 -181 17s-82 30.333 -112 57c-46.667 42 -70 113.333 -70 214c0 57.333 7.83301 108.5 23.5 153.5s37.167 77.167 64.5 96.5c52.667 38.667 145.667 58 279 58
c104 0 184.667 -11.333 242 -34c28 -11.333 50.333 -33 67 -65l3 1v116c0 84.667 -8.66699 147 -26 187c-14 31.333 -43.667 52.333 -89 63c-34 8 -78.333 12 -133 12c-108 0 -178.667 -12.333 -212 -37c-26.667 -19.333 -40 -54 -40 -104c0 -8 0.333008 -19 1 -33z
M499.999 470c-119.333 0 -196 -14.333 -230 -43c-23.333 -20 -35 -65 -35 -135c0 -77.333 15.667 -127.333 47 -150c34 -24.667 99.667 -37 197 -37c126.667 0 212 18.333 256 55c26.667 22.667 40 63 40 121c0 69.333 -14.667 116.333 -44 141c-38 32 -115 48 -231 48z
M367.999 1351l271 -205l-49 -74l-294 181z" />
    <glyph glyph-name="aacute" unicode="&#xe1;" horiz-adv-x="1043" 
d="M269 688h-139.001c1.33301 86 13.333 147.333 36 184c25.333 40 71.333 67.333 138 82c50 10.667 118.333 16 205 16c119.333 0 206 -12 260 -36c76.667 -34.667 120.334 -101 131.001 -199c4.66699 -42 7 -76.667 7 -104v-631h-139l11 103l-3 1
c-22.667 -33.333 -48.667 -58 -78 -74c-53.333 -29.333 -135.333 -44 -246 -44c-76 0 -136.333 5.66699 -181 17s-82 30.333 -112 57c-46.667 42 -70 113.333 -70 214c0 57.333 7.83301 108.5 23.5 153.5s37.167 77.167 64.5 96.5c52.667 38.667 145.667 58 279 58
c104 0 184.667 -11.333 242 -34c28 -11.333 50.333 -33 67 -65l3 1v116c0 84.667 -8.66699 147 -26 187c-14 31.333 -43.667 52.333 -89 63c-34 8 -78.333 12 -133 12c-108 0 -178.667 -12.333 -212 -37c-26.667 -19.333 -40 -54 -40 -104c0 -8 0.333008 -19 1 -33z
M499.999 470c-119.333 0 -196 -14.333 -230 -43c-23.333 -20 -35 -65 -35 -135c0 -77.333 15.667 -127.333 47 -150c34 -24.667 99.667 -37 197 -37c126.667 0 212 18.333 256 55c26.667 22.667 40 63 40 121c0 69.333 -14.667 116.333 -44 141c-38 32 -115 48 -231 48z
M675.999 1351l72 -98l-295 -181l-48 74z" />
    <glyph glyph-name="acircumflex" unicode="&#xe2;" horiz-adv-x="1043" 
d="M269 688h-139.001c1.33301 86 13.333 147.333 36 184c25.333 40 71.333 67.333 138 82c50 10.667 118.333 16 205 16c119.333 0 206 -12 260 -36c76.667 -34.667 120.334 -101 131.001 -199c4.66699 -42 7 -76.667 7 -104v-631h-139l11 103l-3 1
c-22.667 -33.333 -48.667 -58 -78 -74c-53.333 -29.333 -135.333 -44 -246 -44c-76 0 -136.333 5.66699 -181 17s-82 30.333 -112 57c-46.667 42 -70 113.333 -70 214c0 57.333 7.83301 108.5 23.5 153.5s37.167 77.167 64.5 96.5c52.667 38.667 145.667 58 279 58
c104 0 184.667 -11.333 242 -34c28 -11.333 50.333 -33 67 -65l3 1v116c0 84.667 -8.66699 147 -26 187c-14 31.333 -43.667 52.333 -89 63c-34 8 -78.333 12 -133 12c-108 0 -178.667 -12.333 -212 -37c-26.667 -19.333 -40 -54 -40 -104c0 -8 0.333008 -19 1 -33z
M499.999 470c-119.333 0 -196 -14.333 -230 -43c-23.333 -20 -35 -65 -35 -135c0 -77.333 15.667 -127.333 47 -150c34 -24.667 99.667 -37 197 -37c126.667 0 212 18.333 256 55c26.667 22.667 40 63 40 121c0 69.333 -14.667 116.333 -44 141c-38 32 -115 48 -231 48z
M508.999 1353l262 -209l-56 -71l-206 152l-206 -152l-57 71z" />
    <glyph glyph-name="atilde" unicode="&#xe3;" horiz-adv-x="1043" 
d="M269 688h-139.001c1.33301 86 13.333 147.333 36 184c25.333 40 71.333 67.333 138 82c50 10.667 118.333 16 205 16c119.333 0 206 -12 260 -36c76.667 -34.667 120.334 -101 131.001 -199c4.66699 -42 7 -76.667 7 -104v-631h-139l11 103l-3 1
c-22.667 -33.333 -48.667 -58 -78 -74c-53.333 -29.333 -135.333 -44 -246 -44c-76 0 -136.333 5.66699 -181 17s-82 30.333 -112 57c-46.667 42 -70 113.333 -70 214c0 57.333 7.83301 108.5 23.5 153.5s37.167 77.167 64.5 96.5c52.667 38.667 145.667 58 279 58
c104 0 184.667 -11.333 242 -34c28 -11.333 50.333 -33 67 -65l3 1v116c0 84.667 -8.66699 147 -26 187c-14 31.333 -43.667 52.333 -89 63c-34 8 -78.333 12 -133 12c-108 0 -178.667 -12.333 -212 -37c-26.667 -19.333 -40 -54 -40 -104c0 -8 0.333008 -19 1 -33z
M499.999 470c-119.333 0 -196 -14.333 -230 -43c-23.333 -20 -35 -65 -35 -135c0 -77.333 15.667 -127.333 47 -150c34 -24.667 99.667 -37 197 -37c126.667 0 212 18.333 256 55c26.667 22.667 40 63 40 121c0 69.333 -14.667 116.333 -44 141c-38 32 -115 48 -231 48z
M717.999 1276l80 -50.001c-47.333 -84 -100 -126 -158 -126c-31.333 0 -73.666 13 -126.999 39c-52 24.667 -88 37 -108 37c-20.667 0 -37.334 -7.66699 -50.001 -23c-8 -9.33301 -18 -25.666 -30 -48.999l-80 51c19.333 32.667 36 56.667 50 72
c31.333 34.667 68.666 52 111.999 52c28 0 69.667 -12.667 125 -38c58 -26.667 94.333 -40 109 -40c26.667 0 52.334 25 77.001 75z" />
    <glyph glyph-name="adieresis" unicode="&#xe4;" horiz-adv-x="1043" 
d="M269 688h-139.001c1.33301 86 13.333 147.333 36 184c25.333 40 71.333 67.333 138 82c50 10.667 118.333 16 205 16c119.333 0 206 -12 260 -36c76.667 -34.667 120.334 -101 131.001 -199c4.66699 -42 7 -76.667 7 -104v-631h-139l11 103l-3 1
c-22.667 -33.333 -48.667 -58 -78 -74c-53.333 -29.333 -135.333 -44 -246 -44c-76 0 -136.333 5.66699 -181 17s-82 30.333 -112 57c-46.667 42 -70 113.333 -70 214c0 57.333 7.83301 108.5 23.5 153.5s37.167 77.167 64.5 96.5c52.667 38.667 145.667 58 279 58
c104 0 184.667 -11.333 242 -34c28 -11.333 50.333 -33 67 -65l3 1v116c0 84.667 -8.66699 147 -26 187c-14 31.333 -43.667 52.333 -89 63c-34 8 -78.333 12 -133 12c-108 0 -178.667 -12.333 -212 -37c-26.667 -19.333 -40 -54 -40 -104c0 -8 0.333008 -19 1 -33z
M499.999 470c-119.333 0 -196 -14.333 -230 -43c-23.333 -20 -35 -65 -35 -135c0 -77.333 15.667 -127.333 47 -150c34 -24.667 99.667 -37 197 -37c126.667 0 212 18.333 256 55c26.667 22.667 40 63 40 121c0 69.333 -14.667 116.333 -44 141c-38 32 -115 48 -231 48z
M406.999 1256v-135h-161v135h161zM769.999 1256v-135h-161v135h161z" />
    <glyph glyph-name="aring" unicode="&#xe5;" horiz-adv-x="1043" 
d="M269 688h-139.001c1.33301 86 13.333 147.333 36 184c25.333 40 71.333 67.333 138 82c50 10.667 118.333 16 205 16c119.333 0 206 -12 260 -36c76.667 -34.667 120.334 -101 131.001 -199c4.66699 -42 7 -76.667 7 -104v-631h-139l11 103l-3 1
c-22.667 -33.333 -48.667 -58 -78 -74c-53.333 -29.333 -135.333 -44 -246 -44c-76 0 -136.333 5.66699 -181 17s-82 30.333 -112 57c-46.667 42 -70 113.333 -70 214c0 57.333 7.83301 108.5 23.5 153.5s37.167 77.167 64.5 96.5c52.667 38.667 145.667 58 279 58
c104 0 184.667 -11.333 242 -34c28 -11.333 50.333 -33 67 -65l3 1v116c0 84.667 -8.66699 147 -26 187c-14 31.333 -43.667 52.333 -89 63c-34 8 -78.333 12 -133 12c-108 0 -178.667 -12.333 -212 -37c-26.667 -19.333 -40 -54 -40 -104c0 -8 0.333008 -19 1 -33z
M499.999 470c-119.333 0 -196 -14.333 -230 -43c-23.333 -20 -35 -65 -35 -135c0 -77.333 15.667 -127.333 47 -150c34 -24.667 99.667 -37 197 -37c126.667 0 212 18.333 256 55c26.667 22.667 40 63 40 121c0 69.333 -14.667 116.333 -44 141c-38 32 -115 48 -231 48z
M510.999 1365c44.667 0 82.667 -17.333 114 -52c26.667 -30 40 -65 40 -105c0 -46.667 -17.333 -85.667 -52 -117c-30 -26.667 -65 -40 -105 -40c-46.667 0 -85.667 17.333 -117 52c-26.667 30 -40 65.333 -40 106c0 45.333 17.333 84 52 116
c29.333 26.667 65.333 40 108 40zM506.999 1297c-25.333 0 -47.001 -9.66602 -65.001 -28.999c-15.333 -17.333 -23 -37.333 -23 -60c0 -26.667 9.66699 -48.667 29 -66c17.333 -15.333 37.333 -23 60 -23c26.667 0 48.667 9.66699 66 29c15.333 17.333 23 37.666 23 60.999
c0 25.333 -9.66699 47 -29 65c-17.333 15.333 -37.666 23 -60.999 23z" />
    <glyph glyph-name="ae" unicode="&#xe6;" horiz-adv-x="1697" 
d="M1599 463l-680.997 0.00488281v-40c0.666992 -102 9.33398 -177 26.001 -225c8 -24 20.5 -42.333 37.5 -55s42.167 -22.334 75.5 -29.001c34 -6 83 -9 147 -9c85.333 0 145 6 179 18c40 14 63.333 48.667 70 104c1.33301 12 2.66602 32.667 3.99902 62h142v-25
c0 -108 -31 -181.333 -93 -220c-34 -20.667 -75.5 -35.5 -124.5 -44.5s-113.5 -13.5 -193.5 -13.5c-84.667 0 -148.334 6.33301 -191.001 19c-62 18.667 -106.333 48.667 -133 90c-8 12 -16.333 29.333 -25 52h-3c-18.667 -48.667 -47.334 -84.667 -86.001 -108
c-58.667 -35.333 -147.667 -53 -267 -53c-150 0 -255.667 26 -317 78c-51.333 43.333 -77 115.666 -77 216.999c0 142 52 230 156 264c52 16.667 130.333 25 235 25c80 0 145.333 -7.66699 196 -23c29.333 -8.66699 52 -20.667 68 -36c7.33301 -7.33301 17 -20 29 -38h3v162
c0 73.333 -9.33301 125.666 -28 156.999c-17.333 29.333 -47.666 49 -90.999 59c-32 7.33301 -77.667 11 -137 11c-110.667 0 -180 -11 -208 -33c-26.667 -20.667 -40 -58.334 -40 -113.001v-18h-148c6 79.333 18 135.333 36 168c37.333 69.333 142.333 104 315 104
c146 0 245.667 -11.333 299 -34c32.667 -13.333 58.334 -43 77.001 -89h3c21.333 37.333 47.666 64 78.999 80c55.333 28.667 141.666 43 258.999 43c113.333 0 196.666 -12 249.999 -36c68 -30 113 -85.333 135 -166c12.667 -44.667 20 -146.334 22 -305.001zM1457 579.005
c-0.666992 52 -1.99902 87.667 -3.99902 107c-7.33301 76 -37.333 123.667 -90 143c-40 14.667 -98.667 22 -176 22c-74.667 0 -132.334 -8.33301 -173.001 -25c-54 -22 -84.667 -74.333 -92 -157c-2 -15.333 -3.66699 -45.333 -5 -90h540zM475.004 451.005
c-88 0 -149.666 -10.333 -184.999 -31c-36.667 -22 -55 -66.333 -55 -133c0 -75.333 20 -125 60 -149c37.333 -22 107.666 -33 210.999 -33c109.333 0 184 16.333 224 49c31.333 26 47 68 47 126c0 61.333 -16.667 104.333 -50 129c-37.333 28 -121.333 42 -252 42z" />
    <glyph glyph-name="ccedilla" unicode="&#xe7;" horiz-adv-x="993" 
d="M780 345l140 -0.000976562c0.666992 -20.667 1 -36.667 1 -48c0 -115.333 -30.667 -196.666 -92 -243.999c-30.667 -23.333 -71.334 -40.333 -122.001 -51s-117 -16 -199 -16c-162 0 -271.667 32.333 -329 97c-38 43.333 -62 103.666 -72 180.999
c-8 65.333 -12 138 -12 218c0 94 4.66699 167.333 14 220s25.333 97.334 48 134.001c55.333 89.333 169.666 134 342.999 134c136 0 233.333 -17 292 -51c62 -36 98 -98.667 108 -188c2 -21.333 3.33301 -50.333 4 -87h-140v24c0 66 -15 112.333 -45 139
c-17.333 16 -43.833 27.333 -79.5 34s-86.5 10 -152.5 10c-109.333 0 -178 -23.667 -206 -71c-27.333 -46.667 -41 -152.667 -41 -318c0 -172 25 -279 75 -321c28.667 -24 103.334 -36 224.001 -36c71.333 0 125 7 161 21c34.667 13.333 57.334 39.333 68.001 78
c8.66699 29.333 12.667 76.333 12 141zM506 -100.001l97 -54l-139 -195l-79 42z" />
    <glyph glyph-name="egrave" unicode="&#xe8;" horiz-adv-x="1029" 
d="M788 289h143.002c0.666992 -18 1 -32 1 -42c0 -88.667 -24.667 -152 -74 -190c-32 -25.333 -74.833 -43.5 -128.5 -54.5s-125.167 -16.5 -214.5 -16.5c-168 0 -280.667 32.333 -338 97c-37.333 43.333 -61 106.333 -71 189c-7.33301 62.667 -11 130.667 -11 204
c0 100 5 178.5 15 235.5s27.333 103.167 52 138.5c35.333 52.667 88 86.667 158 102c57.333 12 121.333 18 192 18c130.667 0 223 -13.667 277 -41c82.667 -42 128.667 -140 138 -294c2 -34.667 3.33301 -95.667 4 -183h-688c0 -117.333 9.33301 -201.333 28 -252
c17.333 -46.667 59.666 -76 126.999 -88c29.333 -5.33301 68.666 -8 117.999 -8c92.667 0 158.667 6 198 18c42 13.333 66 45.333 72 96c1.33301 13.333 2 37 2 71zM788.002 561c-2 100.667 -9 167.998 -21 201.998c-15.333 42.667 -49.333 70.667 -102 84
c-30 7.33301 -76.333 11 -139 11c-84 0 -144.667 -7.33301 -182 -22c-54 -21.333 -86 -77.666 -96 -168.999c-2.66699 -25.333 -3.66699 -60.666 -3 -105.999h543zM374.002 1351l271 -205l-49 -74l-294 181z" />
    <glyph glyph-name="eacute" unicode="&#xe9;" horiz-adv-x="1029" 
d="M788 289h143.002c0.666992 -18 1 -32 1 -42c0 -88.667 -24.667 -152 -74 -190c-32 -25.333 -74.833 -43.5 -128.5 -54.5s-125.167 -16.5 -214.5 -16.5c-168 0 -280.667 32.333 -338 97c-37.333 43.333 -61 106.333 -71 189c-7.33301 62.667 -11 130.667 -11 204
c0 100 5 178.5 15 235.5s27.333 103.167 52 138.5c35.333 52.667 88 86.667 158 102c57.333 12 121.333 18 192 18c130.667 0 223 -13.667 277 -41c82.667 -42 128.667 -140 138 -294c2 -34.667 3.33301 -95.667 4 -183h-688c0 -117.333 9.33301 -201.333 28 -252
c17.333 -46.667 59.666 -76 126.999 -88c29.333 -5.33301 68.666 -8 117.999 -8c92.667 0 158.667 6 198 18c42 13.333 66 45.333 72 96c1.33301 13.333 2 37 2 71zM788.002 561c-2 100.667 -9 167.998 -21 201.998c-15.333 42.667 -49.333 70.667 -102 84
c-30 7.33301 -76.333 11 -139 11c-84 0 -144.667 -7.33301 -182 -22c-54 -21.333 -86 -77.666 -96 -168.999c-2.66699 -25.333 -3.66699 -60.666 -3 -105.999h543zM682.002 1351l72 -98l-295 -181l-48 74z" />
    <glyph glyph-name="ecircumflex" unicode="&#xea;" horiz-adv-x="1029" 
d="M788 289h143.002c0.666992 -18 1 -32 1 -42c0 -88.667 -24.667 -152 -74 -190c-32 -25.333 -74.833 -43.5 -128.5 -54.5s-125.167 -16.5 -214.5 -16.5c-168 0 -280.667 32.333 -338 97c-37.333 43.333 -61 106.333 -71 189c-7.33301 62.667 -11 130.667 -11 204
c0 100 5 178.5 15 235.5s27.333 103.167 52 138.5c35.333 52.667 88 86.667 158 102c57.333 12 121.333 18 192 18c130.667 0 223 -13.667 277 -41c82.667 -42 128.667 -140 138 -294c2 -34.667 3.33301 -95.667 4 -183h-688c0 -117.333 9.33301 -201.333 28 -252
c17.333 -46.667 59.666 -76 126.999 -88c29.333 -5.33301 68.666 -8 117.999 -8c92.667 0 158.667 6 198 18c42 13.333 66 45.333 72 96c1.33301 13.333 2 37 2 71zM788.002 561c-2 100.667 -9 167.998 -21 201.998c-15.333 42.667 -49.333 70.667 -102 84
c-30 7.33301 -76.333 11 -139 11c-84 0 -144.667 -7.33301 -182 -22c-54 -21.333 -86 -77.666 -96 -168.999c-2.66699 -25.333 -3.66699 -60.666 -3 -105.999h543zM528.002 1353l262 -209l-56 -71l-206 152l-206 -152l-57 71z" />
    <glyph glyph-name="edieresis" unicode="&#xeb;" horiz-adv-x="1029" 
d="M788 289h143.002c0.666992 -18 1 -32 1 -42c0 -88.667 -24.667 -152 -74 -190c-32 -25.333 -74.833 -43.5 -128.5 -54.5s-125.167 -16.5 -214.5 -16.5c-168 0 -280.667 32.333 -338 97c-37.333 43.333 -61 106.333 -71 189c-7.33301 62.667 -11 130.667 -11 204
c0 100 5 178.5 15 235.5s27.333 103.167 52 138.5c35.333 52.667 88 86.667 158 102c57.333 12 121.333 18 192 18c130.667 0 223 -13.667 277 -41c82.667 -42 128.667 -140 138 -294c2 -34.667 3.33301 -95.667 4 -183h-688c0 -117.333 9.33301 -201.333 28 -252
c17.333 -46.667 59.666 -76 126.999 -88c29.333 -5.33301 68.666 -8 117.999 -8c92.667 0 158.667 6 198 18c42 13.333 66 45.333 72 96c1.33301 13.333 2 37 2 71zM788.002 561c-2 100.667 -9 167.998 -21 201.998c-15.333 42.667 -49.333 70.667 -102 84
c-30 7.33301 -76.333 11 -139 11c-84 0 -144.667 -7.33301 -182 -22c-54 -21.333 -86 -77.666 -96 -168.999c-2.66699 -25.333 -3.66699 -60.666 -3 -105.999h543zM427.002 1256v-135h-161v135h161zM790.002 1256v-135h-161v135h161z" />
    <glyph glyph-name="igrave" unicode="&#xec;" horiz-adv-x="385" 
d="M262 956v-956h-139v956h139zM25 1351l271 -205l-49 -74l-294 181z" />
    <glyph glyph-name="iacute" unicode="&#xed;" horiz-adv-x="385" 
d="M262 956v-956h-139v956h139zM360 1351l72 -98l-295 -181l-48 74z" />
    <glyph glyph-name="icircumflex" unicode="&#xee;" horiz-adv-x="385" 
d="M262 956v-956h-139v956h139zM192 1353l236 -209l-57 -71l-179 152l-178 -152l-57 71z" />
    <glyph glyph-name="idieresis" unicode="&#xef;" horiz-adv-x="385" 
d="M262 956v-956h-139v956h139zM145 1256v-135h-161v135h161zM402 1256v-135h-161v135h161z" />
    <glyph glyph-name="eth" unicode="&#xf0;" horiz-adv-x="1036" 
d="M531 1147l-195.002 -108.001l-46 83l187 104l-96 139h139l57 -83l179 98l46 -83l-170 -94l211 -307c38 -55.333 62 -99.333 72 -132c17.333 -53.333 26 -145 26 -275c0 -160 -12 -271 -36 -333c-18 -46.667 -43 -82.334 -75 -107.001s-75.667 -42 -131 -52
c-40.667 -7.33301 -101 -11 -181 -11c-86.667 0 -153.667 5 -201 15s-85.666 27.667 -114.999 53c-49.333 40.667 -79.666 101.334 -90.999 182.001c-10 71.333 -15 152 -15 242c0 152 12 259.333 36 322c18 46.667 43 82.334 75 107.001s75.667 42 131 52
c40 7.33301 95 11 165 11c56 0 107 -2 153 -6zM513.998 850.999c-109.333 0 -178.999 -12.667 -208.999 -38s-48 -70 -54 -134c-6 -58 -9 -121.333 -9 -190c0 -134 6.66699 -224 20 -270c12.667 -44 33 -73.333 61 -88c34.667 -17.333 99.667 -26 195 -26
c112.667 0 184 12.667 214 38s48 70 54 134c6 58 9 125.333 9 202c0 126 -6.66699 212 -20 258c-12.667 44 -33 73.333 -61 88c-34.667 17.333 -101.334 26 -200.001 26z" />
    <glyph glyph-name="ntilde" unicode="&#xf1;" horiz-adv-x="1055" 
d="M123 956h140l-4 -130l4 -3c15.333 35.333 33 61.333 53 78c54.667 46 143 69 265 69c159.333 0 263.333 -41 312 -123c22 -36 33 -111 33 -225v-622h-139v610c0 82 -7.33301 137.667 -22 167c-24.667 49.333 -91.667 74 -201 74c-80.667 0 -141 -10.667 -181 -32
c-60.667 -32 -96.667 -84.333 -108 -157c-4.66699 -27.333 -7 -56.333 -7 -87v-575h-145v956zM738 1276l80 -50.001c-47.333 -84 -100 -126 -158 -126c-31.333 0 -73.666 13 -126.999 39c-52 24.667 -88 37 -108 37c-20.667 0 -37.334 -7.66699 -50.001 -23
c-8 -9.33301 -18 -25.666 -30 -48.999l-80 51c19.333 32.667 36 56.667 50 72c31.333 34.667 68.666 52 111.999 52c28 0 69.667 -12.667 125 -38c58 -26.667 94.333 -40 109 -40c26.667 0 52.334 25 77.001 75z" />
    <glyph glyph-name="ograve" unicode="&#xf2;" horiz-adv-x="1036" 
d="M526 970c82 0 146.666 -5.16602 193.999 -15.499s85.666 -27.833 114.999 -52.5c48.667 -40 79 -100.667 91 -182c10 -71.333 15 -152.333 15 -243c0 -151.333 -12 -258.333 -36 -321c-18 -46.667 -43 -82.334 -75 -107.001s-75.667 -42 -131 -52
c-40.667 -7.33301 -101 -11 -181 -11c-86.667 0 -153.667 5 -201 15s-85.666 27.667 -114.999 53c-48.667 40.667 -79 101.334 -91 182.001c-10 69.333 -15 147.666 -15 234.999c0 157.333 12 267 36 329c33.333 87.333 102 140.333 206 159
c40.667 7.33301 103.334 11 188.001 11zM513.999 851.001c-109.333 0 -178.999 -12.667 -208.999 -38s-48 -70 -54 -134c-6 -58 -9 -121.333 -9 -190c0 -134 6.66699 -224 20 -270c12.667 -44 33 -73.333 61 -88c34.667 -17.333 99.667 -26 195 -26
c112.667 0 184 12.667 214 38s48 70 54 134c6 58 9 125.333 9 202c0 126 -6.66699 212 -20 258c-12.667 44 -33 73.333 -61 88c-34.667 17.333 -101.334 26 -200.001 26zM378 1351l271 -205l-49 -74l-294 181z" />
    <glyph glyph-name="oacute" unicode="&#xf3;" horiz-adv-x="1036" 
d="M526 970c82 0 146.666 -5.16602 193.999 -15.499s85.666 -27.833 114.999 -52.5c48.667 -40 79 -100.667 91 -182c10 -71.333 15 -152.333 15 -243c0 -151.333 -12 -258.333 -36 -321c-18 -46.667 -43 -82.334 -75 -107.001s-75.667 -42 -131 -52
c-40.667 -7.33301 -101 -11 -181 -11c-86.667 0 -153.667 5 -201 15s-85.666 27.667 -114.999 53c-48.667 40.667 -79 101.334 -91 182.001c-10 69.333 -15 147.666 -15 234.999c0 157.333 12 267 36 329c33.333 87.333 102 140.333 206 159
c40.667 7.33301 103.334 11 188.001 11zM513.999 851.001c-109.333 0 -178.999 -12.667 -208.999 -38s-48 -70 -54 -134c-6 -58 -9 -121.333 -9 -190c0 -134 6.66699 -224 20 -270c12.667 -44 33 -73.333 61 -88c34.667 -17.333 99.667 -26 195 -26
c112.667 0 184 12.667 214 38s48 70 54 134c6 58 9 125.333 9 202c0 126 -6.66699 212 -20 258c-12.667 44 -33 73.333 -61 88c-34.667 17.333 -101.334 26 -200.001 26zM673 1351l72 -98l-295 -181l-48 74z" />
    <glyph glyph-name="ocircumflex" unicode="&#xf4;" horiz-adv-x="1036" 
d="M526 970c82 0 146.666 -5.16602 193.999 -15.499s85.666 -27.833 114.999 -52.5c48.667 -40 79 -100.667 91 -182c10 -71.333 15 -152.333 15 -243c0 -151.333 -12 -258.333 -36 -321c-18 -46.667 -43 -82.334 -75 -107.001s-75.667 -42 -131 -52
c-40.667 -7.33301 -101 -11 -181 -11c-86.667 0 -153.667 5 -201 15s-85.666 27.667 -114.999 53c-48.667 40.667 -79 101.334 -91 182.001c-10 69.333 -15 147.666 -15 234.999c0 157.333 12 267 36 329c33.333 87.333 102 140.333 206 159
c40.667 7.33301 103.334 11 188.001 11zM513.999 851.001c-109.333 0 -178.999 -12.667 -208.999 -38s-48 -70 -54 -134c-6 -58 -9 -121.333 -9 -190c0 -134 6.66699 -224 20 -270c12.667 -44 33 -73.333 61 -88c34.667 -17.333 99.667 -26 195 -26
c112.667 0 184 12.667 214 38s48 70 54 134c6 58 9 125.333 9 202c0 126 -6.66699 212 -20 258c-12.667 44 -33 73.333 -61 88c-34.667 17.333 -101.334 26 -200.001 26zM519 1353l262 -209l-56 -71l-206 152l-206 -152l-57 71z" />
    <glyph glyph-name="otilde" unicode="&#xf5;" horiz-adv-x="1036" 
d="M526 970c82 0 146.666 -5.16602 193.999 -15.499s85.666 -27.833 114.999 -52.5c48.667 -40 79 -100.667 91 -182c10 -71.333 15 -152.333 15 -243c0 -151.333 -12 -258.333 -36 -321c-18 -46.667 -43 -82.334 -75 -107.001s-75.667 -42 -131 -52
c-40.667 -7.33301 -101 -11 -181 -11c-86.667 0 -153.667 5 -201 15s-85.666 27.667 -114.999 53c-48.667 40.667 -79 101.334 -91 182.001c-10 69.333 -15 147.666 -15 234.999c0 157.333 12 267 36 329c33.333 87.333 102 140.333 206 159
c40.667 7.33301 103.334 11 188.001 11zM513.999 851.001c-109.333 0 -178.999 -12.667 -208.999 -38s-48 -70 -54 -134c-6 -58 -9 -121.333 -9 -190c0 -134 6.66699 -224 20 -270c12.667 -44 33 -73.333 61 -88c34.667 -17.333 99.667 -26 195 -26
c112.667 0 184 12.667 214 38s48 70 54 134c6 58 9 125.333 9 202c0 126 -6.66699 212 -20 258c-12.667 44 -33 73.333 -61 88c-34.667 17.333 -101.334 26 -200.001 26zM735 1276l80 -50.001c-47.333 -84 -100 -126 -158 -126c-31.333 0 -73.666 13 -126.999 39
c-52 24.667 -88 37 -108 37c-20.667 0 -37.334 -7.66699 -50.001 -23c-8 -9.33301 -18 -25.666 -30 -48.999l-80 51c19.333 32.667 36 56.667 50 72c31.333 34.667 68.666 52 111.999 52c28 0 69.667 -12.667 125 -38c58 -26.667 94.333 -40 109 -40
c26.667 0 52.334 25 77.001 75z" />
    <glyph glyph-name="odieresis" unicode="&#xf6;" horiz-adv-x="1036" 
d="M526 970c82 0 146.666 -5.16602 193.999 -15.499s85.666 -27.833 114.999 -52.5c48.667 -40 79 -100.667 91 -182c10 -71.333 15 -152.333 15 -243c0 -151.333 -12 -258.333 -36 -321c-18 -46.667 -43 -82.334 -75 -107.001s-75.667 -42 -131 -52
c-40.667 -7.33301 -101 -11 -181 -11c-86.667 0 -153.667 5 -201 15s-85.666 27.667 -114.999 53c-48.667 40.667 -79 101.334 -91 182.001c-10 69.333 -15 147.666 -15 234.999c0 157.333 12 267 36 329c33.333 87.333 102 140.333 206 159
c40.667 7.33301 103.334 11 188.001 11zM513.999 851.001c-109.333 0 -178.999 -12.667 -208.999 -38s-48 -70 -54 -134c-6 -58 -9 -121.333 -9 -190c0 -134 6.66699 -224 20 -270c12.667 -44 33 -73.333 61 -88c34.667 -17.333 99.667 -26 195 -26
c112.667 0 184 12.667 214 38s48 70 54 134c6 58 9 125.333 9 202c0 126 -6.66699 212 -20 258c-12.667 44 -33 73.333 -61 88c-34.667 17.333 -101.334 26 -200.001 26zM418 1256v-135h-161v135h161zM781 1256v-135h-161v135h161z" />
    <glyph glyph-name="divide" unicode="&#xf7;" horiz-adv-x="1256" 
d="M630 1109c26.667 0 49 -10.334 67 -31.001c16 -17.333 24 -37.666 24 -60.999c0 -27.333 -10.333 -50.333 -31 -69c-17.333 -16 -37.666 -24 -60.999 -24c-27.333 0 -50.333 10.333 -69 31c-16 17.333 -24 38 -24 62c0 26 10 48.667 30 68c17.333 16 38.666 24 63.999 24
zM630 441.999c26.667 0 49 -10.334 67 -31.001c16 -17.333 24 -37.666 24 -60.999c0 -27.333 -10.333 -50.333 -31 -69c-17.333 -16 -37.666 -24 -60.999 -24c-27.333 0 -50.333 10.333 -69 31c-16 17.333 -24 38 -24 62c0 26 10 48.667 30 68
c17.333 16 38.666 24 63.999 24zM155 746.998h946v-129h-946v129z" />
    <glyph glyph-name="oslash" unicode="&#xf8;" horiz-adv-x="1036" 
d="M59 -33l0.00195312 128.997l69 66c-10 30.667 -17.333 59.667 -22 87c-7.33301 47.333 -11 124.333 -11 231c0 150 12.333 256.667 37 320c18 46.667 42.833 82.334 74.5 107.001s75.167 42 130.5 52c40.667 7.33301 100 11 178 11c136.667 0 231 -14 283 -42
c24.667 -13.333 47 -32.666 67 -57.999l112 108v-128l-68 -66c21.333 -63.333 32 -160.666 32 -291.999c0 -111.333 -6.5 -199 -19.5 -263s-34.5 -114.667 -64.5 -152c-32 -40 -78.333 -65.667 -139 -77c-48.667 -9.33301 -106.334 -14 -173.001 -14
c-132.667 0 -227 11 -283 33c-32.667 13.333 -61.334 33.333 -86.001 60zM278.002 177.997c19.333 -32.667 47.001 -54 83.001 -64c22.667 -6 67.667 -9 135 -9c97.333 0 161.666 5.66699 192.999 17c50.667 18 82.667 69.333 96 154c6.66699 44.667 10 112 10 202
c0 62.667 -2.66699 125.667 -8 189zM763.003 771.997c-11.333 20.667 -21.667 35.167 -31 43.5s-23.333 15.5 -42 21.5c-30 9.33301 -80 14 -150 14c-127.333 0 -206 -13 -236 -39c-29.333 -24.667 -47.333 -69 -54 -133c-6 -56.667 -9 -122 -9 -196
c0 -79.333 3 -147.333 9 -204z" />
    <glyph glyph-name="ugrave" unicode="&#xf9;" horiz-adv-x="1039" 
d="M903 956v-956h-139l10 125l-3 3c-48.667 -94.667 -155.334 -142 -320.001 -142c-152 0 -251 48 -297 144c-20.667 43.333 -31 106.666 -31 189.999v636h139v-636c0 -68 8 -116.333 24 -145c16 -30 43.333 -50 82 -60c24 -6.66699 59.667 -10 107 -10
c90.667 0 155.334 13 194.001 39c47.333 30.667 77 83.334 89 158.001c4 28 6 63.333 6 106v548h139zM366 1351l271 -205l-49 -74l-294 181z" />
    <glyph glyph-name="uacute" unicode="&#xfa;" horiz-adv-x="1039" 
d="M903 956v-956h-139l10 125l-3 3c-48.667 -94.667 -155.334 -142 -320.001 -142c-152 0 -251 48 -297 144c-20.667 43.333 -31 106.666 -31 189.999v636h139v-636c0 -68 8 -116.333 24 -145c16 -30 43.333 -50 82 -60c24 -6.66699 59.667 -10 107 -10
c90.667 0 155.334 13 194.001 39c47.333 30.667 77 83.334 89 158.001c4 28 6 63.333 6 106v548h139zM674 1351l72 -98l-295 -181l-48 74z" />
    <glyph glyph-name="ucircumflex" unicode="&#xfb;" horiz-adv-x="1039" 
d="M903 956v-956h-139l10 125l-3 3c-48.667 -94.667 -155.334 -142 -320.001 -142c-152 0 -251 48 -297 144c-20.667 43.333 -31 106.666 -31 189.999v636h139v-636c0 -68 8 -116.333 24 -145c16 -30 43.333 -50 82 -60c24 -6.66699 59.667 -10 107 -10
c90.667 0 155.334 13 194.001 39c47.333 30.667 77 83.334 89 158.001c4 28 6 63.333 6 106v548h139zM520 1353l262 -209l-56 -71l-206 152l-206 -152l-57 71z" />
    <glyph glyph-name="udieresis" unicode="&#xfc;" horiz-adv-x="1039" 
d="M903 956v-956h-139l10 125l-3 3c-48.667 -94.667 -155.334 -142 -320.001 -142c-152 0 -251 48 -297 144c-20.667 43.333 -31 106.666 -31 189.999v636h139v-636c0 -68 8 -116.333 24 -145c16 -30 43.333 -50 82 -60c24 -6.66699 59.667 -10 107 -10
c90.667 0 155.334 13 194.001 39c47.333 30.667 77 83.334 89 158.001c4 28 6 63.333 6 106v548h139zM419 1256v-135h-161v135h161zM782 1256v-135h-161v135h161z" />
    <glyph glyph-name="yacute" unicode="&#xfd;" horiz-adv-x="796" 
d="M802 956l-271 -1011c-30.667 -114.667 -62.334 -200 -95.001 -256c-29.333 -49.333 -75 -83.666 -137 -102.999c-31.333 -10 -62.333 -15 -93 -15c-17.333 0 -39.666 2.33301 -66.999 7v116c19.333 -2 35.333 -3 48 -3c40.667 0 74.667 13.333 102 40
c30.667 30 65 119.667 103 269h-53l-346 956h149l147 -426l74 -212l36 -107l37 -106h4l26 106l25 107l54 212l108 426h149zM579 1351l72 -98l-295 -181l-48 74z" />
    <glyph glyph-name="thorn" unicode="&#xfe;" horiz-adv-x="1044" 
d="M123 1365l139.001 0.00195312v-530l4 -3c25.333 49.333 58.666 83.333 99.999 102c54.667 24 124 36 208 36c134.667 0 229.334 -31.667 284.001 -95c58.667 -68 88 -205.333 88 -412c0 -98 -7.16699 -176.833 -21.5 -236.5s-37.833 -108.834 -70.5 -147.501
c-52 -62 -143.667 -93 -275 -93c-82.667 0 -150.667 10 -204 30c-44.667 17.333 -81.334 49.666 -110.001 96.999h-3v-524h-139v1776zM529.001 851.002c-106.667 0 -176.666 -21.001 -209.999 -63.001c-36.667 -46 -55 -152 -55 -318c0 -157.333 23.333 -261 70 -311
c34 -36 104.333 -54 211 -54c99.333 0 164.666 19.333 195.999 58c39.333 48.667 59 149.334 59 302.001c0 167.333 -18.333 275.333 -55 324c-31.333 41.333 -103.333 62 -216 62z" />
    <glyph glyph-name="ydieresis" unicode="&#xff;" horiz-adv-x="796" 
d="M802 956l-271 -1011c-30.667 -114.667 -62.334 -200 -95.001 -256c-29.333 -49.333 -75 -83.666 -137 -102.999c-31.333 -10 -62.333 -15 -93 -15c-17.333 0 -39.666 2.33301 -66.999 7v116c19.333 -2 35.333 -3 48 -3c40.667 0 74.667 13.333 102 40
c30.667 30 65 119.667 103 269h-53l-346 956h149l147 -426l74 -212l36 -107l37 -106h4l26 106l25 107l54 212l108 426h149zM297 1256v-135h-161v135h161zM660 1256v-135h-161v135h161z" />
    <glyph glyph-name="Amacron" unicode="&#x100;" horiz-adv-x="1246" 
d="M969 289h-691l-105 -289h-163l500 1365h216l510 -1365h-161zM924 412l-303 828l-299 -828h602zM365 1657h517v-115h-517v115z" />
    <glyph glyph-name="amacron" unicode="&#x101;" horiz-adv-x="1043" 
d="M269 688h-139.001c1.33301 86 13.333 147.333 36 184c25.333 40 71.333 67.333 138 82c50 10.667 118.333 16 205 16c119.333 0 206 -12 260 -36c76.667 -34.667 120.334 -101 131.001 -199c4.66699 -42 7 -76.667 7 -104v-631h-139l11 103l-3 1
c-22.667 -33.333 -48.667 -58 -78 -74c-53.333 -29.333 -135.333 -44 -246 -44c-76 0 -136.333 5.66699 -181 17s-82 30.333 -112 57c-46.667 42 -70 113.333 -70 214c0 57.333 7.83301 108.5 23.5 153.5s37.167 77.167 64.5 96.5c52.667 38.667 145.667 58 279 58
c104 0 184.667 -11.333 242 -34c28 -11.333 50.333 -33 67 -65l3 1v116c0 84.667 -8.66699 147 -26 187c-14 31.333 -43.667 52.333 -89 63c-34 8 -78.333 12 -133 12c-108 0 -178.667 -12.333 -212 -37c-26.667 -19.333 -40 -54 -40 -104c0 -8 0.333008 -19 1 -33z
M499.999 470c-119.333 0 -196 -14.333 -230 -43c-23.333 -20 -35 -65 -35 -135c0 -77.333 15.667 -127.333 47 -150c34 -24.667 99.667 -37 197 -37c126.667 0 212 18.333 256 55c26.667 22.667 40 63 40 121c0 69.333 -14.667 116.333 -44 141c-38 32 -115 48 -231 48z
M262.999 1246h503v-114h-503v114z" />
    <glyph glyph-name="Abreve" unicode="&#x102;" horiz-adv-x="1246" 
d="M969 289h-691l-105 -289h-163l500 1365h216l510 -1365h-161zM924 412l-303 828l-299 -828h602zM330 1731h97c8 -35.333 24 -64.333 48 -87c42.667 -39.333 92 -59 148 -59s105 19.667 147 59c24.667 22.667 40.667 51.667 48 87h97c-8 -56.667 -27.667 -104 -59 -142
c-60 -72 -137.667 -108 -233 -108c-102.667 0 -183.667 40 -243 120c-25.333 34.667 -42 78 -50 130z" />
    <glyph glyph-name="abreve" unicode="&#x103;" horiz-adv-x="1043" 
d="M269 688h-139.001c1.33301 86 13.333 147.333 36 184c25.333 40 71.333 67.333 138 82c50 10.667 118.333 16 205 16c119.333 0 206 -12 260 -36c76.667 -34.667 120.334 -101 131.001 -199c4.66699 -42 7 -76.667 7 -104v-631h-139l11 103l-3 1
c-22.667 -33.333 -48.667 -58 -78 -74c-53.333 -29.333 -135.333 -44 -246 -44c-76 0 -136.333 5.66699 -181 17s-82 30.333 -112 57c-46.667 42 -70 113.333 -70 214c0 57.333 7.83301 108.5 23.5 153.5s37.167 77.167 64.5 96.5c52.667 38.667 145.667 58 279 58
c104 0 184.667 -11.333 242 -34c28 -11.333 50.333 -33 67 -65l3 1v116c0 84.667 -8.66699 147 -26 187c-14 31.333 -43.667 52.333 -89 63c-34 8 -78.333 12 -133 12c-108 0 -178.667 -12.333 -212 -37c-26.667 -19.333 -40 -54 -40 -104c0 -8 0.333008 -19 1 -33z
M499.999 470c-119.333 0 -196 -14.333 -230 -43c-23.333 -20 -35 -65 -35 -135c0 -77.333 15.667 -127.333 47 -150c34 -24.667 99.667 -37 197 -37c126.667 0 212 18.333 256 55c26.667 22.667 40 63 40 121c0 69.333 -14.667 116.333 -44 141c-38 32 -115 48 -231 48z
M242.999 1328l96.999 0.00195312c7.33301 -35.333 21.333 -64.333 42 -87c34.667 -39.333 76.667 -59 126 -59c50 0 92.333 19.667 127 59c20 22.667 33.667 51.667 41 87h98c-9.33301 -58.667 -28 -106.334 -56 -143.001c-29.333 -38.667 -66.666 -67.334 -111.999 -86.001
c-32 -14 -64.667 -21 -98 -21c-52.667 0 -101.667 16 -147 48c-64 44.667 -103.333 112 -118 202z" />
    <glyph glyph-name="Aogonek" unicode="&#x104;" horiz-adv-x="1246" 
d="M969 289h-691.002l-105 -289h-163l500 1365h216l510 -1365c-39.333 -26 -67 -45.667 -83 -59c-42 -36.667 -63 -72 -63 -106c0 -30.667 13 -55.667 39 -75c18 -13.333 44 -20 78 -20c25.333 0 50 5 74 15v-90c-34 -11.333 -65.333 -17 -94 -17
c-33.333 0 -63.666 4.66699 -90.999 14c-31.333 11.333 -56.666 29.333 -75.999 54c-22.667 28 -34 59.667 -34 95c0 71.333 46.667 134.333 140 189h-51zM923.998 412l-303 828l-299 -828h602z" />
    <glyph glyph-name="aogonek" unicode="&#x105;" horiz-adv-x="1043" 
d="M269 688h-139.001c1.33301 86 13.333 147.333 36 184c25.333 40 71.333 67.333 138 82c50 10.667 118.333 16 205 16c119.333 0 206 -12 260 -36c76.667 -34.667 120.334 -101 131.001 -199c4.66699 -42 7 -76.667 7 -104v-631c-98 -59.333 -147 -114.333 -147 -165
c0 -30.667 13 -55.667 39 -75c18 -13.333 44 -20 78 -20c24.667 0 49 5 73 15v-90c-33.333 -11.333 -64.333 -17 -93 -17c-32 0 -61 4.66699 -87 14c-30 10.667 -54.333 28.667 -73 54c-21.333 28 -32 59.333 -32 94c0 80 46.333 143.333 139 190h-36l11 103l-3 1
c-22.667 -33.333 -48.667 -58 -78 -74c-53.333 -29.333 -135.333 -44 -246 -44c-76 0 -136.333 5.66699 -181 17s-82 30.333 -112 57c-46.667 42 -70 113.333 -70 214c0 57.333 7.83301 108.5 23.5 153.5s37.167 77.167 64.5 96.5c52.667 38.667 145.667 58 279 58
c104 0 184.667 -11.333 242 -34c28 -11.333 50.333 -33 67 -65l3 1v116c0 84.667 -8.66699 147 -26 187c-14 31.333 -43.667 52.333 -89 63c-34 8 -78.333 12 -133 12c-108 0 -178.667 -12.333 -212 -37c-26.667 -19.333 -40 -54 -40 -104c0 -8 0.333008 -19 1 -33z
M499.999 470c-119.333 0 -196 -14.333 -230 -43c-23.333 -20 -35 -65 -35 -135c0 -77.333 15.667 -127.333 47 -150c34 -24.667 99.667 -37 197 -37c126.667 0 212 18.333 256 55c26.667 22.667 40 63 40 121c0 69.333 -14.667 116.333 -44 141c-38 32 -115 48 -231 48z" />
    <glyph glyph-name="Cacute" unicode="&#x106;" horiz-adv-x="1222" 
d="M1025 456l153.008 -0.000976562v-67c0.666992 -119.333 -13 -205.333 -41 -258c-38 -71.333 -110 -115.666 -216 -132.999c-48.667 -8 -165 -12 -349 -12c-110.667 0 -196.334 9.66699 -257.001 29c-103.333 32 -172 106.333 -206 223c-22 76.667 -33 223 -33 439
c0 183.333 1.66699 295.333 5 336c6.66699 91.333 29.834 164.166 69.501 218.499s98.5 93.5 176.5 117.5c66 20 199 30 399 30c109.333 0 187.666 -7.33301 234.999 -22c105.333 -33.333 167.666 -107.666 186.999 -222.999c5.33301 -28.667 9.66602 -90.667 12.999 -186
h-153c0 22.667 -0.333008 36.667 -1 42c-0.666992 63.333 -6 111.833 -16 145.5s-26.667 58.5 -50 74.5c-34.667 24.667 -109.334 37 -224.001 37c-128 0 -226.667 -4.33301 -296 -13c-44.667 -5.33301 -79.834 -17.833 -105.501 -37.5s-44.834 -49.167 -57.501 -88.5
c-14 -42 -21 -109 -21 -201c0 -165.333 2 -311.333 6 -438c5.33301 -162 33.666 -262.667 84.999 -302c34.667 -26.667 90.667 -41.667 168 -45c39.333 -2 81.333 -3 126 -3c108 0 189.167 4.33301 243.5 13s92.166 23 113.499 43c32 30.667 48 95.667 48 195
c0 21.333 -0.666992 50 -2 86zM825.008 1741l61 -111l-308 -154l-50 79z" />
    <glyph glyph-name="cacute" unicode="&#x107;" horiz-adv-x="993" 
d="M780 345l140 -0.000976562c0.666992 -20.667 1 -36.667 1 -48c0 -115.333 -30.667 -196.666 -92 -243.999c-30.667 -23.333 -71.334 -40.333 -122.001 -51s-117 -16 -199 -16c-162 0 -271.667 32.333 -329 97c-38 43.333 -62 103.666 -72 180.999
c-8 65.333 -12 138 -12 218c0 94 4.66699 167.333 14 220s25.333 97.334 48 134.001c55.333 89.333 169.666 134 342.999 134c136 0 233.333 -17 292 -51c62 -36 98 -98.667 108 -188c2 -21.333 3.33301 -50.333 4 -87h-140v24c0 66 -15 112.333 -45 139
c-17.333 16 -43.833 27.333 -79.5 34s-86.5 10 -152.5 10c-109.333 0 -178 -23.667 -206 -71c-27.333 -46.667 -41 -152.667 -41 -318c0 -172 25 -279 75 -321c28.667 -24 103.334 -36 224.001 -36c71.333 0 125 7 161 21c34.667 13.333 57.334 39.333 68.001 78
c8.66699 29.333 12.667 76.333 12 141zM664 1351l72 -98l-295 -181l-48 74z" />
    <glyph glyph-name="Ccircumflex" unicode="&#x108;" horiz-adv-x="1222" 
d="M1025 456l153.008 -0.000976562v-67c0.666992 -119.333 -13 -205.333 -41 -258c-38 -71.333 -110 -115.666 -216 -132.999c-48.667 -8 -165 -12 -349 -12c-110.667 0 -196.334 9.66699 -257.001 29c-103.333 32 -172 106.333 -206 223c-22 76.667 -33 223 -33 439
c0 183.333 1.66699 295.333 5 336c6.66699 91.333 29.834 164.166 69.501 218.499s98.5 93.5 176.5 117.5c66 20 199 30 399 30c109.333 0 187.666 -7.33301 234.999 -22c105.333 -33.333 167.666 -107.666 186.999 -222.999c5.33301 -28.667 9.66602 -90.667 12.999 -186
h-153c0 22.667 -0.333008 36.667 -1 42c-0.666992 63.333 -6 111.833 -16 145.5s-26.667 58.5 -50 74.5c-34.667 24.667 -109.334 37 -224.001 37c-128 0 -226.667 -4.33301 -296 -13c-44.667 -5.33301 -79.834 -17.833 -105.501 -37.5s-44.834 -49.167 -57.501 -88.5
c-14 -42 -21 -109 -21 -201c0 -165.333 2 -311.333 6 -438c5.33301 -162 33.666 -262.667 84.999 -302c34.667 -26.667 90.667 -41.667 168 -45c39.333 -2 81.333 -3 126 -3c108 0 189.167 4.33301 243.5 13s92.166 23 113.499 43c32 30.667 48 95.667 48 195
c0 21.333 -0.666992 50 -2 86zM642.008 1735l314 -182l-43 -77l-271 124l-282 -124l-38 77z" />
    <glyph glyph-name="Cdot" unicode="&#x10a;" horiz-adv-x="1222" 
d="M1025 456l153.008 -0.000976562v-67c0.666992 -119.333 -13 -205.333 -41 -258c-38 -71.333 -110 -115.666 -216 -132.999c-48.667 -8 -165 -12 -349 -12c-110.667 0 -196.334 9.66699 -257.001 29c-103.333 32 -172 106.333 -206 223c-22 76.667 -33 223 -33 439
c0 183.333 1.66699 295.333 5 336c6.66699 91.333 29.834 164.166 69.501 218.499s98.5 93.5 176.5 117.5c66 20 199 30 399 30c109.333 0 187.666 -7.33301 234.999 -22c105.333 -33.333 167.666 -107.666 186.999 -222.999c5.33301 -28.667 9.66602 -90.667 12.999 -186
h-153c0 22.667 -0.333008 36.667 -1 42c-0.666992 63.333 -6 111.833 -16 145.5s-26.667 58.5 -50 74.5c-34.667 24.667 -109.334 37 -224.001 37c-128 0 -226.667 -4.33301 -296 -13c-44.667 -5.33301 -79.834 -17.833 -105.501 -37.5s-44.834 -49.167 -57.501 -88.5
c-14 -42 -21 -109 -21 -201c0 -165.333 2 -311.333 6 -438c5.33301 -162 33.666 -262.667 84.999 -302c34.667 -26.667 90.667 -41.667 168 -45c39.333 -2 81.333 -3 126 -3c108 0 189.167 4.33301 243.5 13s92.166 23 113.499 43c32 30.667 48 95.667 48 195
c0 21.333 -0.666992 50 -2 86zM720.008 1660v-135h-161v135h161z" />
    <glyph glyph-name="cdot" unicode="&#x10b;" horiz-adv-x="993" 
d="M780 345l140 -0.000976562c0.666992 -20.667 1 -36.667 1 -48c0 -115.333 -30.667 -196.666 -92 -243.999c-30.667 -23.333 -71.334 -40.333 -122.001 -51s-117 -16 -199 -16c-162 0 -271.667 32.333 -329 97c-38 43.333 -62 103.666 -72 180.999
c-8 65.333 -12 138 -12 218c0 94 4.66699 167.333 14 220s25.333 97.334 48 134.001c55.333 89.333 169.666 134 342.999 134c136 0 233.333 -17 292 -51c62 -36 98 -98.667 108 -188c2 -21.333 3.33301 -50.333 4 -87h-140v24c0 66 -15 112.333 -45 139
c-17.333 16 -43.833 27.333 -79.5 34s-86.5 10 -152.5 10c-109.333 0 -178 -23.667 -206 -71c-27.333 -46.667 -41 -152.667 -41 -318c0 -172 25 -279 75 -321c28.667 -24 103.334 -36 224.001 -36c71.333 0 125 7 161 21c34.667 13.333 57.334 39.333 68.001 78
c8.66699 29.333 12.667 76.333 12 141zM591 1256v-135h-161v135h161z" />
    <glyph glyph-name="Ccaron" unicode="&#x10c;" horiz-adv-x="1222" 
d="M1025 456l153.008 -0.000976562v-67c0.666992 -119.333 -13 -205.333 -41 -258c-38 -71.333 -110 -115.666 -216 -132.999c-48.667 -8 -165 -12 -349 -12c-110.667 0 -196.334 9.66699 -257.001 29c-103.333 32 -172 106.333 -206 223c-22 76.667 -33 223 -33 439
c0 183.333 1.66699 295.333 5 336c6.66699 91.333 29.834 164.166 69.501 218.499s98.5 93.5 176.5 117.5c66 20 199 30 399 30c109.333 0 187.666 -7.33301 234.999 -22c105.333 -33.333 167.666 -107.666 186.999 -222.999c5.33301 -28.667 9.66602 -90.667 12.999 -186
h-153c0 22.667 -0.333008 36.667 -1 42c-0.666992 63.333 -6 111.833 -16 145.5s-26.667 58.5 -50 74.5c-34.667 24.667 -109.334 37 -224.001 37c-128 0 -226.667 -4.33301 -296 -13c-44.667 -5.33301 -79.834 -17.833 -105.501 -37.5s-44.834 -49.167 -57.501 -88.5
c-14 -42 -21 -109 -21 -201c0 -165.333 2 -311.333 6 -438c5.33301 -162 33.666 -262.667 84.999 -302c34.667 -26.667 90.667 -41.667 168 -45c39.333 -2 81.333 -3 126 -3c108 0 189.167 4.33301 243.5 13s92.166 23 113.499 43c32 30.667 48 95.667 48 195
c0 21.333 -0.666992 50 -2 86zM643.008 1476l-321 182l38 77l283 -124l271 124l42 -77z" />
    <glyph glyph-name="ccaron" unicode="&#x10d;" horiz-adv-x="993" 
d="M780 345l140 -0.000976562c0.666992 -20.667 1 -36.667 1 -48c0 -115.333 -30.667 -196.666 -92 -243.999c-30.667 -23.333 -71.334 -40.333 -122.001 -51s-117 -16 -199 -16c-162 0 -271.667 32.333 -329 97c-38 43.333 -62 103.666 -72 180.999
c-8 65.333 -12 138 -12 218c0 94 4.66699 167.333 14 220s25.333 97.334 48 134.001c55.333 89.333 169.666 134 342.999 134c136 0 233.333 -17 292 -51c62 -36 98 -98.667 108 -188c2 -21.333 3.33301 -50.333 4 -87h-140v24c0 66 -15 112.333 -45 139
c-17.333 16 -43.833 27.333 -79.5 34s-86.5 10 -152.5 10c-109.333 0 -178 -23.667 -206 -71c-27.333 -46.667 -41 -152.667 -41 -318c0 -172 25 -279 75 -321c28.667 -24 103.334 -36 224.001 -36c71.333 0 125 7 161 21c34.667 13.333 57.334 39.333 68.001 78
c8.66699 29.333 12.667 76.333 12 141zM510 1073l-263 209l57 71l206 -152l206 152l56 -71z" />
    <glyph glyph-name="Dcaron" unicode="&#x10e;" horiz-adv-x="1337" 
d="M130 0v1365h631c86 0 160.333 -7.66699 223 -23c91.333 -22 161 -78.333 209 -169c36 -66.667 57.667 -157.334 65 -272.001c2.66699 -36 4 -87 4 -153c0 -165.333 -3.66699 -280.666 -11 -345.999c-19.333 -174.667 -84 -290.334 -194 -347.001
c-42.667 -22 -108 -38.667 -196 -50c-24 -3.33301 -44.333 -5 -61 -5h-670zM283 132.001l445.001 -0.000976562c154 0 254.667 28.667 302 86c39.333 47.333 63.666 125 72.999 233c4 46.667 6 114.334 6 203.001c0 159.333 -4.33301 271.666 -13 336.999
c-14.667 114.667 -65 187.334 -151 218.001c-46 16 -108 24 -186 24h-476v-1101zM625.001 1476l-321 182l38 77l283 -124l271 124l42 -77z" />
    <glyph glyph-name="dcaron" unicode="&#x10f;" horiz-adv-x="1143" 
d="M922 1365l-0.000976562 -1365h-139l7 124l-4 1c-21.333 -44.667 -52.666 -77.334 -93.999 -98.001c-54 -27.333 -125 -41 -213 -41c-137.333 0 -234.333 32 -291 96c-40.667 44.667 -66 105.334 -76 182.001c-9.33301 67.333 -14 143 -14 227
c0 104.667 7.66699 187.167 23 247.5s41 109.833 77 148.5c52 55.333 142 83 270 83c100.667 0 180 -15.333 238 -46c34 -18 58.667 -47.667 74 -89l3 2v528h139zM503.999 851c-96.667 0 -162.001 -16.667 -196.001 -50c-42.667 -42 -64 -144 -64 -306
c0 -164.667 17 -271 51 -319c32.667 -47.333 103.334 -71 212.001 -71c117.333 0 193.333 25.333 228 76c31.333 46.667 47 155 47 325c0 144.667 -22 240 -66 286c-38 39.333 -108.667 59 -212 59zM1143 1365l0.000976562 -119c0 -48.667 -5.66699 -81.667 -17 -99
c-18 -27.333 -47.667 -41 -89 -41c-8.66699 0 -20.334 0.666992 -35.001 2v54c33.333 1.33301 54 11 62 29c4.66699 10.667 6.66699 28.667 6 54h-53v120h126z" />
    <glyph glyph-name="Dslash" unicode="&#x110;" horiz-adv-x="1337" 
d="M130 640h-130.002v116h130v609h630c86.667 0 161.334 -7.66699 224.001 -23c91.333 -22 161 -78.333 209 -169c36 -67.333 57.667 -158 65 -272c2.66699 -36 4 -87 4 -153c0 -165.333 -3.66699 -280.666 -11 -345.999c-19.333 -174.667 -84.333 -290.334 -195 -347.001
c-42 -22 -107.333 -38.667 -196 -50c-23.333 -3.33301 -43.666 -5 -60.999 -5h-669v640zM282.998 640l0.000976562 -508h444c154.667 0 255.667 28.667 303 86c39.333 47.333 63.666 125 72.999 233c4 46 6 113.667 6 203c0 159.333 -4.33301 271.666 -13 336.999
c-15.333 114.667 -66 187.334 -152 218.001c-46 16 -107.667 24 -185 24h-476v-477h435v-116h-435z" />
    <glyph glyph-name="dmacron" unicode="&#x111;" horiz-adv-x="1044" 
d="M922 1188h120.999v-96h-121v-1092h-139l7 124l-4 1c-21.333 -44.667 -52.666 -77.334 -93.999 -98.001c-54 -27.333 -125.333 -41 -214 -41c-136.667 0 -233.667 32 -291 96c-40.667 44.667 -66 105.334 -76 182.001c-9.33301 67.333 -14 143 -14 227
c0 104.667 7.66699 187.167 23 247.5s41 109.833 77 148.5c52 55.333 142.333 83 271 83c100.667 0 180 -15.333 238 -46c34 -18 58.667 -47.667 74 -89l3 2v255h-339v96h339v177h139v-177zM502.999 851c-96.667 0 -162 -16.667 -196 -50c-42.667 -42 -64 -144 -64 -306
c0 -164.667 17 -271 51 -319c32.667 -47.333 103.667 -71 213 -71c117.333 0 193.333 25.333 228 76c31.333 46.667 47 155 47 325c0 144.667 -22.333 240 -67 286c-37.333 39.333 -108 59 -212 59z" />
    <glyph glyph-name="Emacron" unicode="&#x112;" horiz-adv-x="1020" 
d="M228 1233v-463h694v-130h-694v-508h724v-132h-877v1365h877v-132h-724zM265 1657h517v-115h-517v115z" />
    <glyph glyph-name="emacron" unicode="&#x113;" horiz-adv-x="1029" 
d="M788 289h143.002c0.666992 -18 1 -32 1 -42c0 -88.667 -24.667 -152 -74 -190c-32 -25.333 -74.833 -43.5 -128.5 -54.5s-125.167 -16.5 -214.5 -16.5c-168 0 -280.667 32.333 -338 97c-37.333 43.333 -61 106.333 -71 189c-7.33301 62.667 -11 130.667 -11 204
c0 100 5 178.5 15 235.5s27.333 103.167 52 138.5c35.333 52.667 88 86.667 158 102c57.333 12 121.333 18 192 18c130.667 0 223 -13.667 277 -41c82.667 -42 128.667 -140 138 -294c2 -34.667 3.33301 -95.667 4 -183h-688c0 -117.333 9.33301 -201.333 28 -252
c17.333 -46.667 59.666 -76 126.999 -88c29.333 -5.33301 68.666 -8 117.999 -8c92.667 0 158.667 6 198 18c42 13.333 66 45.333 72 96c1.33301 13.333 2 37 2 71zM788.002 561c-2 100.667 -9 167.998 -21 201.998c-15.333 42.667 -49.333 70.667 -102 84
c-30 7.33301 -76.333 11 -139 11c-84 0 -144.667 -7.33301 -182 -22c-54 -21.333 -86 -77.666 -96 -168.999c-2.66699 -25.333 -3.66699 -60.666 -3 -105.999h543zM269.002 1246h503v-114h-503v114z" />
    <glyph glyph-name="Ebreve" unicode="&#x114;" horiz-adv-x="1020" 
d="M228 1233v-463h694v-130h-694v-508h724v-132h-877v1365h877v-132h-724zM231 1731h97c7.33301 -35.333 23.333 -64.333 48 -87c42.667 -39.333 92 -59 148 -59c55.333 0 104.333 19.667 147 59c24.667 22.667 40.667 51.667 48 87h97c-8 -56.667 -27.667 -104 -59 -142
c-60 -72 -137.667 -108 -233 -108c-102.667 0 -183.667 40 -243 120c-26 34.667 -42.667 78 -50 130z" />
    <glyph glyph-name="Edot" unicode="&#x116;" horiz-adv-x="1020" 
d="M228 1233v-463h694v-130h-694v-508h724v-132h-877v1365h877v-132h-724zM604 1660v-135h-161v135h161z" />
    <glyph glyph-name="edot" unicode="&#x117;" horiz-adv-x="1029" 
d="M788 289h143.002c0.666992 -18 1 -32 1 -42c0 -88.667 -24.667 -152 -74 -190c-32 -25.333 -74.833 -43.5 -128.5 -54.5s-125.167 -16.5 -214.5 -16.5c-168 0 -280.667 32.333 -338 97c-37.333 43.333 -61 106.333 -71 189c-7.33301 62.667 -11 130.667 -11 204
c0 100 5 178.5 15 235.5s27.333 103.167 52 138.5c35.333 52.667 88 86.667 158 102c57.333 12 121.333 18 192 18c130.667 0 223 -13.667 277 -41c82.667 -42 128.667 -140 138 -294c2 -34.667 3.33301 -95.667 4 -183h-688c0 -117.333 9.33301 -201.333 28 -252
c17.333 -46.667 59.666 -76 126.999 -88c29.333 -5.33301 68.666 -8 117.999 -8c92.667 0 158.667 6 198 18c42 13.333 66 45.333 72 96c1.33301 13.333 2 37 2 71zM788.002 561c-2 100.667 -9 167.998 -21 201.998c-15.333 42.667 -49.333 70.667 -102 84
c-30 7.33301 -76.333 11 -139 11c-84 0 -144.667 -7.33301 -182 -22c-54 -21.333 -86 -77.666 -96 -168.999c-2.66699 -25.333 -3.66699 -60.666 -3 -105.999h543zM602.002 1256v-135h-161v135h161z" />
    <glyph glyph-name="Eogonek" unicode="&#x118;" horiz-adv-x="1020" 
d="M228 1233l-0.000976562 -463h694v-130h-694v-508h724v-132c-98 -60 -147 -115 -147 -165c0 -30.667 13 -55.667 39 -75c18 -13.333 44 -20 78 -20c24.667 0 49 5 73 15v-90c-33.333 -11.333 -64.333 -17 -93 -17c-33.333 0 -63.666 4.66699 -90.999 14
c-31.333 11.333 -57 29.333 -77 54c-22 28 -33 59.333 -33 94c0 74 49 137.333 147 190h-773v1365h877v-132h-724z" />
    <glyph glyph-name="eogonek" unicode="&#x119;" horiz-adv-x="1029" 
d="M788 289l142.998 -0.000976562c0.666992 -13.333 1 -23.666 1 -30.999c0 -66 -10 -117.333 -30 -154c-14 -24.667 -46 -50.334 -96 -77.001c-122 -66 -183 -130 -183 -192c0 -30.667 13 -55.667 39 -75c18 -13.333 44 -20 78 -20c25.333 0 50 5 74 15v-90
c-34 -11.333 -65 -17 -93 -17c-32.667 0 -62 4.66699 -88 14c-30 10.667 -54.333 28.667 -73 54c-21.333 28 -32 59.667 -32 95c0 69.333 40.333 129 121 179c-65.333 -2.66699 -115.666 -4 -150.999 -4c-156 0 -263 32.667 -321 98
c-28.667 32.667 -49.5 79.834 -62.5 141.501s-19.5 145.167 -19.5 250.5c0 100 5 178.5 15 235.5s27.333 103.167 52 138.5c35.333 52.667 88 86.667 158 102c57.333 12 121.333 18 192 18c130.667 0 223 -13.667 277 -41c82.667 -42 128.667 -140 138 -294
c2.66699 -34.667 4 -95.667 4 -183h-688c0.666992 -117.333 10.334 -201.333 29.001 -252c16.667 -46.667 59 -76 127 -88c28.667 -5.33301 67.667 -8 117 -8c92.667 0 158.667 6 198 18c42.667 13.333 66.667 45.333 72 96c1.33301 13.333 2 37 2 71zM787.998 560.999
c-2 100.667 -8.99805 167.998 -20.998 201.998c-14.667 42.667 -48.334 70.667 -101.001 84c-30.667 7.33301 -77 11 -139 11c-84.667 0 -145.334 -7.33301 -182.001 -22c-54 -21.333 -86 -77.666 -96 -168.999c-2.66699 -25.333 -4 -60.666 -4 -105.999h543z" />
    <glyph glyph-name="Ecaron" unicode="&#x11a;" horiz-adv-x="1020" 
d="M228 1233v-463h694v-130h-694v-508h724v-132h-877v1365h877v-132h-724zM527 1476l-321 182l38 77l283 -124l271 124l42 -77z" />
    <glyph glyph-name="ecaron" unicode="&#x11b;" horiz-adv-x="1029" 
d="M788 289h143.002c0.666992 -18 1 -32 1 -42c0 -88.667 -24.667 -152 -74 -190c-32 -25.333 -74.833 -43.5 -128.5 -54.5s-125.167 -16.5 -214.5 -16.5c-168 0 -280.667 32.333 -338 97c-37.333 43.333 -61 106.333 -71 189c-7.33301 62.667 -11 130.667 -11 204
c0 100 5 178.5 15 235.5s27.333 103.167 52 138.5c35.333 52.667 88 86.667 158 102c57.333 12 121.333 18 192 18c130.667 0 223 -13.667 277 -41c82.667 -42 128.667 -140 138 -294c2 -34.667 3.33301 -95.667 4 -183h-688c0 -117.333 9.33301 -201.333 28 -252
c17.333 -46.667 59.666 -76 126.999 -88c29.333 -5.33301 68.666 -8 117.999 -8c92.667 0 158.667 6 198 18c42 13.333 66 45.333 72 96c1.33301 13.333 2 37 2 71zM788.002 561c-2 100.667 -9 167.998 -21 201.998c-15.333 42.667 -49.333 70.667 -102 84
c-30 7.33301 -76.333 11 -139 11c-84 0 -144.667 -7.33301 -182 -22c-54 -21.333 -86 -77.666 -96 -168.999c-2.66699 -25.333 -3.66699 -60.666 -3 -105.999h543zM528.002 1073l-263 209l57 71l206 -152l206 152l56 -71z" />
    <glyph glyph-name="Gcircumflex" unicode="&#x11c;" horiz-adv-x="1267" 
d="M617 679h584.997c2.66699 -36 4 -77.333 4 -124c0 -106.667 -1.33301 -183 -4 -229c-4.66699 -81.333 -21.5 -146.666 -50.5 -195.999s-71.833 -85.333 -128.5 -108c-60 -24 -185.333 -36 -376 -36c-133.333 0 -231.833 7.16699 -295.5 21.5
s-117.167 41.166 -160.5 80.499c-66.667 60.667 -103.667 152.334 -111 275.001c-3.33301 49.333 -4.66602 112.333 -3.99902 189c0 12 -0.333008 61.667 -1 149v55c0 102.667 3 180.667 9 234c20 186.667 86.667 303.334 200 350.001c49.333 20 113 32 191 36
c46.667 2 108.667 3 186 3c110.667 0 188.5 -1.83301 233.5 -5.5s84.167 -11.167 117.5 -22.5c115.333 -38.667 178 -123.334 188 -254.001c1.33301 -24 2 -66.667 2 -128h-151c-0.666992 60 -2.66699 102.167 -6 126.5s-10.666 47.833 -21.999 70.5
c-20 40 -69 64.333 -147 73c-50 5.33301 -138.333 8 -265 8c-112.667 0 -195 -7.66699 -247 -23c-61.333 -18.667 -101 -69.334 -119 -152.001c-9.33301 -42 -15 -170 -17 -384c0.666992 -168.667 2 -267.667 4 -297c3.33301 -75.333 15.833 -132.5 37.5 -171.5
s55.167 -64.833 100.5 -77.5c56.667 -16 167.334 -24 332.001 -24c92 0 161.333 5.16699 208 15.5s79.667 27.5 99 51.5c29.333 37.333 44 129 44 275c0 19.333 -0.666992 48.333 -2 87h-434v132zM637.997 1735l313 -182l-43 -77l-270 124l-283 -124l-38 77z" />
    <glyph glyph-name="gcircumflex" unicode="&#x11d;" horiz-adv-x="1044" 
d="M922 956l0.00292969 -1018c0 -107.333 -15.333 -185 -46 -233c-28.667 -45.333 -72.334 -78.5 -131.001 -99.5s-136.334 -31.5 -233.001 -31.5c-104.667 0 -184 10.333 -238 31c-76 30 -121 88.667 -135 176c-3.33301 24 -5.33301 59.333 -6 106h135
c1.33301 -69.333 10.666 -116 27.999 -140c18.667 -24.667 53.667 -40.667 105 -48c28 -4 68.667 -6 122 -6c73.333 0 129 8 167 24c49.333 21.333 78.333 64 87 128c4 28.667 6 55.667 6 81v192l-3 1c-11.333 -27.333 -23.5 -47.833 -36.5 -61.5
s-32.167 -25.834 -57.5 -36.501c-54 -23.333 -124.667 -35 -212 -35c-126.667 0 -219.667 28.667 -279 86c-46.667 45.333 -75 102.333 -85 171c-9.33301 62.667 -14 134.334 -14 215.001c0 152 10.333 256.667 31 314c30.667 85.333 86 142.333 166 171
c50 18 115 27 195 27c90 0 161.333 -15.667 214 -47c34.667 -21.333 63 -53.666 85 -96.999l3 1l-7 129h139zM505.003 850.999c-102.667 0 -171.667 -20 -207 -60c-28 -31.333 -44.667 -79 -50 -143c-4 -48 -6 -99.333 -6 -154c0 -124.667 7 -211.667 21 -261
c11.333 -40 29 -68.667 53 -86c37.333 -28 101.333 -42 192 -42c107.333 0 179.333 24.667 216 74c24.667 33.333 40 78.333 46 135c6 56 9 117.333 9 184c0 98.667 -5.66699 168.667 -17 210c-18 64 -54 105.333 -108 124c-37.333 12.667 -87 19 -149 19zM523.003 1353
l262 -209l-56 -71l-206 152l-206 -152l-57 71z" />
    <glyph glyph-name="Gbreve" unicode="&#x11e;" horiz-adv-x="1267" 
d="M617 679h584.997c2.66699 -36 4 -77.333 4 -124c0 -106.667 -1.33301 -183 -4 -229c-4.66699 -81.333 -21.5 -146.666 -50.5 -195.999s-71.833 -85.333 -128.5 -108c-60 -24 -185.333 -36 -376 -36c-133.333 0 -231.833 7.16699 -295.5 21.5
s-117.167 41.166 -160.5 80.499c-66.667 60.667 -103.667 152.334 -111 275.001c-3.33301 49.333 -4.66602 112.333 -3.99902 189c0 12 -0.333008 61.667 -1 149v55c0 102.667 3 180.667 9 234c20 186.667 86.667 303.334 200 350.001c49.333 20 113 32 191 36
c46.667 2 108.667 3 186 3c110.667 0 188.5 -1.83301 233.5 -5.5s84.167 -11.167 117.5 -22.5c115.333 -38.667 178 -123.334 188 -254.001c1.33301 -24 2 -66.667 2 -128h-151c-0.666992 60 -2.66699 102.167 -6 126.5s-10.666 47.833 -21.999 70.5
c-20 40 -69 64.333 -147 73c-50 5.33301 -138.333 8 -265 8c-112.667 0 -195 -7.66699 -247 -23c-61.333 -18.667 -101 -69.334 -119 -152.001c-9.33301 -42 -15 -170 -17 -384c0.666992 -168.667 2 -267.667 4 -297c3.33301 -75.333 15.833 -132.5 37.5 -171.5
s55.167 -64.833 100.5 -77.5c56.667 -16 167.334 -24 332.001 -24c92 0 161.333 5.16699 208 15.5s79.667 27.5 99 51.5c29.333 37.333 44 129 44 275c0 19.333 -0.666992 48.333 -2 87h-434v132zM367.997 1731h97c8 -35.333 24 -64.333 48 -87
c42.667 -39.333 92 -59 148 -59s105 19.667 147 59c24.667 22.667 40.667 51.667 48 87h97c-8 -56.667 -27.667 -104 -59 -142c-60 -72 -137.667 -108 -233 -108c-102.667 0 -183.667 40 -243 120c-25.333 34.667 -42 78 -50 130z" />
    <glyph glyph-name="gbreve" unicode="&#x11f;" horiz-adv-x="1044" 
d="M922 956l0.00292969 -1018c0 -107.333 -15.333 -185 -46 -233c-28.667 -45.333 -72.334 -78.5 -131.001 -99.5s-136.334 -31.5 -233.001 -31.5c-104.667 0 -184 10.333 -238 31c-76 30 -121 88.667 -135 176c-3.33301 24 -5.33301 59.333 -6 106h135
c1.33301 -69.333 10.666 -116 27.999 -140c18.667 -24.667 53.667 -40.667 105 -48c28 -4 68.667 -6 122 -6c73.333 0 129 8 167 24c49.333 21.333 78.333 64 87 128c4 28.667 6 55.667 6 81v192l-3 1c-11.333 -27.333 -23.5 -47.833 -36.5 -61.5
s-32.167 -25.834 -57.5 -36.501c-54 -23.333 -124.667 -35 -212 -35c-126.667 0 -219.667 28.667 -279 86c-46.667 45.333 -75 102.333 -85 171c-9.33301 62.667 -14 134.334 -14 215.001c0 152 10.333 256.667 31 314c30.667 85.333 86 142.333 166 171
c50 18 115 27 195 27c90 0 161.333 -15.667 214 -47c34.667 -21.333 63 -53.666 85 -96.999l3 1l-7 129h139zM505.003 850.999c-102.667 0 -171.667 -20 -207 -60c-28 -31.333 -44.667 -79 -50 -143c-4 -48 -6 -99.333 -6 -154c0 -124.667 7 -211.667 21 -261
c11.333 -40 29 -68.667 53 -86c37.333 -28 101.333 -42 192 -42c107.333 0 179.333 24.667 216 74c24.667 33.333 40 78.333 46 135c6 56 9 117.333 9 184c0 98.667 -5.66699 168.667 -17 210c-18 64 -54 105.333 -108 124c-37.333 12.667 -87 19 -149 19zM257.003 1328
l96.999 0.00195312c7.33301 -35.333 21.333 -64.333 42 -87c34.667 -39.333 76.667 -59 126 -59c50 0 92.333 19.667 127 59c20 22.667 33.667 51.667 41 87h98c-9.33301 -58.667 -28 -106.334 -56 -143.001c-29.333 -38.667 -66.666 -67.334 -111.999 -86.001
c-32 -14 -64.667 -21 -98 -21c-52.667 0 -101.667 16 -147 48c-64 44.667 -103.333 112 -118 202z" />
    <glyph glyph-name="Gdot" unicode="&#x120;" horiz-adv-x="1267" 
d="M617 679h584.997c2.66699 -36 4 -77.333 4 -124c0 -106.667 -1.33301 -183 -4 -229c-4.66699 -81.333 -21.5 -146.666 -50.5 -195.999s-71.833 -85.333 -128.5 -108c-60 -24 -185.333 -36 -376 -36c-133.333 0 -231.833 7.16699 -295.5 21.5
s-117.167 41.166 -160.5 80.499c-66.667 60.667 -103.667 152.334 -111 275.001c-3.33301 49.333 -4.66602 112.333 -3.99902 189c0 12 -0.333008 61.667 -1 149v55c0 102.667 3 180.667 9 234c20 186.667 86.667 303.334 200 350.001c49.333 20 113 32 191 36
c46.667 2 108.667 3 186 3c110.667 0 188.5 -1.83301 233.5 -5.5s84.167 -11.167 117.5 -22.5c115.333 -38.667 178 -123.334 188 -254.001c1.33301 -24 2 -66.667 2 -128h-151c-0.666992 60 -2.66699 102.167 -6 126.5s-10.666 47.833 -21.999 70.5
c-20 40 -69 64.333 -147 73c-50 5.33301 -138.333 8 -265 8c-112.667 0 -195 -7.66699 -247 -23c-61.333 -18.667 -101 -69.334 -119 -152.001c-9.33301 -42 -15 -170 -17 -384c0.666992 -168.667 2 -267.667 4 -297c3.33301 -75.333 15.833 -132.5 37.5 -171.5
s55.167 -64.833 100.5 -77.5c56.667 -16 167.334 -24 332.001 -24c92 0 161.333 5.16699 208 15.5s79.667 27.5 99 51.5c29.333 37.333 44 129 44 275c0 19.333 -0.666992 48.333 -2 87h-434v132zM741.997 1660v-135h-161v135h161z" />
    <glyph glyph-name="gdot" unicode="&#x121;" horiz-adv-x="1044" 
d="M922 956l0.00292969 -1018c0 -107.333 -15.333 -185 -46 -233c-28.667 -45.333 -72.334 -78.5 -131.001 -99.5s-136.334 -31.5 -233.001 -31.5c-104.667 0 -184 10.333 -238 31c-76 30 -121 88.667 -135 176c-3.33301 24 -5.33301 59.333 -6 106h135
c1.33301 -69.333 10.666 -116 27.999 -140c18.667 -24.667 53.667 -40.667 105 -48c28 -4 68.667 -6 122 -6c73.333 0 129 8 167 24c49.333 21.333 78.333 64 87 128c4 28.667 6 55.667 6 81v192l-3 1c-11.333 -27.333 -23.5 -47.833 -36.5 -61.5
s-32.167 -25.834 -57.5 -36.501c-54 -23.333 -124.667 -35 -212 -35c-126.667 0 -219.667 28.667 -279 86c-46.667 45.333 -75 102.333 -85 171c-9.33301 62.667 -14 134.334 -14 215.001c0 152 10.333 256.667 31 314c30.667 85.333 86 142.333 166 171
c50 18 115 27 195 27c90 0 161.333 -15.667 214 -47c34.667 -21.333 63 -53.666 85 -96.999l3 1l-7 129h139zM505.003 850.999c-102.667 0 -171.667 -20 -207 -60c-28 -31.333 -44.667 -79 -50 -143c-4 -48 -6 -99.333 -6 -154c0 -124.667 7 -211.667 21 -261
c11.333 -40 29 -68.667 53 -86c37.333 -28 101.333 -42 192 -42c107.333 0 179.333 24.667 216 74c24.667 33.333 40 78.333 46 135c6 56 9 117.333 9 184c0 98.667 -5.66699 168.667 -17 210c-18 64 -54 105.333 -108 124c-37.333 12.667 -87 19 -149 19zM603.003 1256
v-135h-161v135h161z" />
    <glyph glyph-name="Gcedilla" unicode="&#x122;" horiz-adv-x="1267" 
d="M617 679h584.997c2.66699 -36 4 -77.333 4 -124c0 -106.667 -1.33301 -183 -4 -229c-4.66699 -81.333 -21.5 -146.666 -50.5 -195.999s-71.833 -85.333 -128.5 -108c-60 -24 -185.333 -36 -376 -36c-133.333 0 -231.833 7.16699 -295.5 21.5
s-117.167 41.166 -160.5 80.499c-66.667 60.667 -103.667 152.334 -111 275.001c-3.33301 49.333 -4.66602 112.333 -3.99902 189c0 12 -0.333008 61.667 -1 149v55c0 102.667 3 180.667 9 234c20 186.667 86.667 303.334 200 350.001c49.333 20 113 32 191 36
c46.667 2 108.667 3 186 3c110.667 0 188.5 -1.83301 233.5 -5.5s84.167 -11.167 117.5 -22.5c115.333 -38.667 178 -123.334 188 -254.001c1.33301 -24 2 -66.667 2 -128h-151c-0.666992 60 -2.66699 102.167 -6 126.5s-10.666 47.833 -21.999 70.5
c-20 40 -69 64.333 -147 73c-50 5.33301 -138.333 8 -265 8c-112.667 0 -195 -7.66699 -247 -23c-61.333 -18.667 -101 -69.334 -119 -152.001c-9.33301 -42 -15 -170 -17 -384c0.666992 -168.667 2 -267.667 4 -297c3.33301 -75.333 15.833 -132.5 37.5 -171.5
s55.167 -64.833 100.5 -77.5c56.667 -16 167.334 -24 332.001 -24c92 0 161.333 5.16699 208 15.5s79.667 27.5 99 51.5c29.333 37.333 44 129 44 275c0 19.333 -0.666992 48.333 -2 87h-434v132zM715.997 -109l0.000976562 -137.998
c0 -56.667 -6.66699 -95.334 -20 -116.001c-20.667 -31.333 -55.334 -47 -104.001 -47c-9.33301 0 -22.666 0.666992 -39.999 2v63c39.333 1.33301 63.666 12.666 72.999 33.999c4.66699 12 7 33 7 63h-62v139h146z" />
    <glyph glyph-name="gcedilla" unicode="&#x123;" horiz-adv-x="1044" 
d="M922 956l0.00292969 -1018c0 -107.333 -15.333 -185 -46 -233c-28.667 -45.333 -72.334 -78.5 -131.001 -99.5s-136.334 -31.5 -233.001 -31.5c-104.667 0 -184 10.333 -238 31c-76 30 -121 88.667 -135 176c-3.33301 24 -5.33301 59.333 -6 106h135
c1.33301 -69.333 10.666 -116 27.999 -140c18.667 -24.667 53.667 -40.667 105 -48c28 -4 68.667 -6 122 -6c73.333 0 129 8 167 24c49.333 21.333 78.333 64 87 128c4 28.667 6 55.667 6 81v192l-3 1c-11.333 -27.333 -23.5 -47.833 -36.5 -61.5
s-32.167 -25.834 -57.5 -36.501c-54 -23.333 -124.667 -35 -212 -35c-126.667 0 -219.667 28.667 -279 86c-46.667 45.333 -75 102.333 -85 171c-9.33301 62.667 -14 134.334 -14 215.001c0 152 10.333 256.667 31 314c30.667 85.333 86 142.333 166 171
c50 18 115 27 195 27c90 0 161.333 -15.667 214 -47c34.667 -21.333 63 -53.666 85 -96.999l3 1l-7 129h139zM505.003 850.999c-102.667 0 -171.667 -20 -207 -60c-28 -31.333 -44.667 -79 -50 -143c-4 -48 -6 -99.333 -6 -154c0 -124.667 7 -211.667 21 -261
c11.333 -40 29 -68.667 53 -86c37.333 -28 101.333 -42 192 -42c107.333 0 179.333 24.667 216 74c24.667 33.333 40 78.333 46 135c6 56 9 117.333 9 184c0 98.667 -5.66699 168.667 -17 210c-18 64 -54 105.333 -108 124c-37.333 12.667 -87 19 -149 19zM445.003 1081
l0.000976562 131c0 52.667 6.33301 89 19 109c20 29.333 53.333 44 100 44c9.33301 0 21.666 -0.333008 36.999 -1v-60c-37.333 -1.33301 -60.333 -12 -69 -32c-4.66699 -11.333 -7 -31 -7 -59h59v-132h-139z" />
    <glyph glyph-name="Hcircumflex" unicode="&#x124;" horiz-adv-x="1365" 
d="M1236 1365v-1365h-153v633h-800v-633h-153v1365h153v-602h800v602h153zM687 1735l313 -182l-43 -77l-270 124l-283 -124l-38 77z" />
    <glyph glyph-name="Hbar" unicode="&#x126;" horiz-adv-x="1365" 
d="M1236 1105h108v-116h-108v-989h-153v633h-800v-633h-153v989h-108v116h108v260h153v-260h800v260h153v-260zM283 989v-226h800v226h-800z" />
    <glyph glyph-name="hbar" unicode="&#x127;" horiz-adv-x="1053" 
d="M262 1188l337.001 -0.000976562v-96h-337v-254l3 -2c16.667 42.667 43 73.334 79 92.001c52 28 125 42 219 42c102.667 0 178.667 -12.667 228 -38c73.333 -37.333 115.666 -106.333 126.999 -207c2.66699 -24 4 -62 4 -114v-611h-139v611c0 53.333 -1.33301 90 -4 110
s-9.33398 38.667 -20.001 56c-18 31.333 -45.333 52.333 -82 63c-27.333 7.33301 -65.666 11 -114.999 11c-84.667 0 -149 -10.333 -193 -31c-64 -29.333 -98.667 -94.333 -104 -195c-2 -46.667 -3 -75.667 -3 -87v-538h-139v1092h-123v96h123v177h139v-177z" />
    <glyph glyph-name="Imacron" unicode="&#x12a;" horiz-adv-x="416" 
d="M283 1365v-1365h-153v1365h153zM-23 1657h462v-115h-462v115z" />
    <glyph glyph-name="imacron" unicode="&#x12b;" horiz-adv-x="385" 
d="M262 956v-956h-139v956h139zM-18 1246h421v-114h-421v114z" />
    <glyph glyph-name="ibreve" unicode="&#x12d;" horiz-adv-x="385" 
d="M262 956v-956h-139v956h139zM-46 1328l97 0.000976562c10.667 -44.667 22.667 -77.334 36 -98.001c23.333 -34.667 59 -52 107 -52c46 0 80.333 18 103 54c14 22.667 26 54.667 36 96h97c-12 -70.667 -29.667 -123 -53 -157c-43.333 -62 -104.666 -93 -183.999 -93
c-132.667 0 -212.334 83.333 -239.001 250z" />
    <glyph glyph-name="Iogonek" unicode="&#x12e;" horiz-adv-x="416" 
d="M190 0h-60v1365h153v-1365c-34.667 -26 -57 -46 -67 -60c-27.333 -34.667 -41 -70 -41 -106c0 -63.333 34.667 -95 104 -95c24 0 48 5.33301 72 16v-90c-34.667 -11.333 -62 -17 -82 -17c-34.667 0 -65 4.66699 -91 14c-69.333 24 -104 74.667 -104 152
c0 78 38.667 140 116 186z" />
    <glyph glyph-name="iogonek" unicode="&#x12f;" horiz-adv-x="385" 
d="M188 0h-65.001v956h139v-956c-64.667 -59.333 -97 -116.666 -97 -171.999c0 -30 12.667 -53.667 38 -71c18 -12 39.333 -18 64 -18c22 0 45 5.33301 69 16v-90c-33.333 -11.333 -62.666 -17 -87.999 -17c-38 0 -71.667 8.66699 -101 26
c-51.333 31.333 -77 77.333 -77 138c0 55.333 21.667 104.666 65 147.999c16 16 33.667 29.333 53 40zM261.999 1365v-157h-139v157h139z" />
    <glyph glyph-name="Idot" unicode="&#x130;" horiz-adv-x="416" 
d="M283 1365v-1365h-153v1365h153zM289 1660v-135h-161v135h161z" />
    <glyph glyph-name="dotlessi" unicode="&#x131;" horiz-adv-x="385" 
d="M262 956v-956h-139v956h139z" />
    <glyph glyph-name="IJ" unicode="&#x132;" horiz-adv-x="1365" 
d="M283 1365v-1365h-153v1365h153zM1236 1365l0.00195312 -962.997c0 -78.667 -4 -138.834 -12 -180.501s-22.667 -77.834 -44 -108.501c-35.333 -49.333 -84.333 -83.666 -147 -102.999c-52.667 -16 -121.334 -24 -206.001 -24c-148.667 0 -250 29.333 -304 88
c-30.667 33.333 -49.334 75.666 -56.001 126.999c-5.33301 40 -8 87.333 -8 142c0 56.667 1 108 3 154h151v-25v-107c0 -98.667 9 -162.667 27 -192c15.333 -26 40.333 -42 75 -48c26 -4.66699 57 -7 93 -7c98 0 163.333 10.333 196 31c44 27.333 69 80.666 75 159.999
c2.66699 36 4 75.333 4 118v938h153z" />
    <glyph glyph-name="ij" unicode="&#x133;" horiz-adv-x="768" 
d="M262 1365v-157h-139v157h139zM262 956v-956h-139v956h139zM641 1365v-157h-139v157h139zM641 956l0.000976562 -1044c-0.666992 -60 -2 -100.333 -4 -121c-6 -50.667 -25.5 -89.5 -58.5 -116.5s-77.167 -40.5 -132.5 -40.5c-20 0 -42.667 2.33301 -68 7v99
c14 -2 25.333 -3 34 -3c39.333 0 64.666 16.667 75.999 50c9.33301 25.333 14 67 14 125v1044h139z" />
    <glyph glyph-name="Kcedilla" unicode="&#x136;" horiz-adv-x="1234" 
d="M283 1365v-596h135l560 596h199l-624 -661l700 -704h-211l-624 632h-135v-632h-153v1365h153zM700 -109l0.000976562 -137.998c0 -56.667 -6.66699 -95.334 -20 -116.001c-20.667 -31.333 -55.334 -47 -104.001 -47c-9.33301 0 -22.666 0.666992 -39.999 2v63
c39.333 1.33301 63.666 12.666 72.999 33.999c4.66699 12 7 33 7 63h-62v139h146z" />
    <glyph glyph-name="kcedilla" unicode="&#x137;" horiz-adv-x="880" 
d="M262 1365v-793h64l338 384h176l-409 -440l483 -516h-189l-406 461h-57v-461h-139v1365h139zM553 -96l0.000976562 -119c0 -48.667 -5.66699 -81.667 -17 -99c-18 -27.333 -48 -41 -90 -41c-8.66699 0 -20.334 0.666992 -35.001 2v54c34 1.33301 55 11 63 29
c4.66699 10.667 6.66699 28.667 6 54h-53v120h126z" />
    <glyph glyph-name="kgreenlandic" unicode="&#x138;" horiz-adv-x="880" 
d="M262 956v-384h64l338 384h176l-409 -440l483 -516h-189l-406 461h-57v-461h-139v956h139z" />
    <glyph glyph-name="Lacute" unicode="&#x139;" horiz-adv-x="993" 
d="M283 1365v-1222h703v-143h-856v1365h153zM438 1741l61 -111l-308 -154l-50 79z" />
    <glyph glyph-name="lacute" unicode="&#x13a;" horiz-adv-x="385" 
d="M262 1365v-1365h-139v1365h139zM360 1755l72 -98l-295 -181l-48 74z" />
    <glyph glyph-name="Lcedilla" unicode="&#x13b;" horiz-adv-x="993" 
d="M283 1365v-1222h703v-143h-856v1365h153zM647 -109l0.000976562 -137.998c0 -56.667 -6.66699 -95.334 -20 -116.001c-20.667 -31.333 -55.334 -47 -104.001 -47c-9.33301 0 -22.666 0.666992 -39.999 2v63c39.333 1.33301 63.666 12.666 72.999 33.999
c4.66699 12 7 33 7 63h-62v139h146z" />
    <glyph glyph-name="lcedilla" unicode="&#x13c;" horiz-adv-x="385" 
d="M262 1365v-1365h-139v1365h139zM256 -96l0.000976562 -119c0 -48.667 -5.66699 -81.667 -17 -99c-18 -27.333 -48 -41 -90 -41c-8.66699 0 -20.334 0.666992 -35.001 2v54c34 1.33301 55 11 63 29c4.66699 10.667 6.66699 28.667 6 54h-53v120h126z" />
    <glyph glyph-name="Lcaron" unicode="&#x13d;" horiz-adv-x="993" 
d="M283 1365v-1222h703v-143h-856v1365h153zM640 1365l0.000976562 -138c0 -56 -6.66699 -94.333 -20 -115c-20.667 -31.333 -55.334 -47 -104.001 -47c-10 0 -23.333 0.666992 -40 2v62c38.667 2 63 13.667 73 35c4.66699 11.333 7 32 7 62h-62v139h146z" />
    <glyph glyph-name="lcaron" unicode="&#x13e;" horiz-adv-x="484" 
d="M262 1365v-1365h-139v1365h139zM484 1365l0.000976562 -119c0 -48.667 -5.66699 -81.667 -17 -99c-18 -27.333 -48 -41 -90 -41c-8.66699 0 -20.334 0.666992 -35.001 2v54c34 1.33301 55 11 63 29c4.66699 10.667 6.66699 28.667 6 54h-53v120h126z" />
    <glyph glyph-name="Ldot" unicode="&#x13f;" horiz-adv-x="993" 
d="M283 1365v-1222h703v-143h-856v1365h153zM776 752v-199h-176v199h176z" />
    <glyph glyph-name="ldot" unicode="&#x140;" horiz-adv-x="560" 
d="M262 1365v-1365h-139v1365h139zM561 752v-199h-176v199h176z" />
    <glyph glyph-name="Lslash" unicode="&#x141;" horiz-adv-x="1016" 
d="M153 1365h153v-521l299 281v-149l-299 -281v-552h703v-143h-856v571l-142 -133v150l142 133v644z" />
    <glyph glyph-name="lslash" unicode="&#x142;" horiz-adv-x="404" 
d="M279 734v-734h-153v634l-119 -117v130l119 115v603h153v-502l118 112v-129z" />
    <glyph glyph-name="Nacute" unicode="&#x143;" horiz-adv-x="1426" 
d="M1296 1365v-1365h-252l-573 929l-94 153l-46 76l-46 76h-4l1 -51l1 -52v-102v-1029h-153v1365h251l500 -814l260 -427h4l-1 51l-1 52v102v1036h153zM927 1741l61 -111l-308 -154l-50 79z" />
    <glyph glyph-name="nacute" unicode="&#x144;" horiz-adv-x="1055" 
d="M123 956h140l-4 -130l4 -3c15.333 35.333 33 61.333 53 78c54.667 46 143 69 265 69c159.333 0 263.333 -41 312 -123c22 -36 33 -111 33 -225v-622h-139v610c0 82 -7.33301 137.667 -22 167c-24.667 49.333 -91.667 74 -201 74c-80.667 0 -141 -10.667 -181 -32
c-60.667 -32 -96.667 -84.333 -108 -157c-4.66699 -27.333 -7 -56.333 -7 -87v-575h-145v956zM682 1351l72 -98l-295 -181l-48 74z" />
    <glyph glyph-name="Ncedilla" unicode="&#x145;" horiz-adv-x="1426" 
d="M1296 1365v-1365h-252l-573 929l-94 153l-46 76l-46 76h-4l1 -51l1 -52v-102v-1029h-153v1365h251l500 -814l260 -427h4l-1 51l-1 52v102v1036h153zM754 -109l0.000976562 -137.998c0 -56.667 -6.66699 -95.334 -20 -116.001c-20.667 -31.333 -55.334 -47 -104.001 -47
c-9.33301 0 -22.666 0.666992 -39.999 2v63c39.333 1.33301 63.666 12.666 72.999 33.999c4.66699 12 7 33 7 63h-62v139h146z" />
    <glyph glyph-name="ncedilla" unicode="&#x146;" horiz-adv-x="1055" 
d="M123 956h140l-4 -130l4 -3c15.333 35.333 33 61.333 53 78c54.667 46 143 69 265 69c159.333 0 263.333 -41 312 -123c22 -36 33 -111 33 -225v-622h-139v610c0 82 -7.33301 137.667 -22 167c-24.667 49.333 -91.667 74 -201 74c-80.667 0 -141 -10.667 -181 -32
c-60.667 -32 -96.667 -84.333 -108 -157c-4.66699 -27.333 -7 -56.333 -7 -87v-575h-145v956zM592 -96l0.000976562 -119c0 -48.667 -5.66699 -81.667 -17 -99c-18 -27.333 -48 -41 -90 -41c-8.66699 0 -20.334 0.666992 -35.001 2v54c34 1.33301 55 11 63 29
c4.66699 10.667 6.66699 28.667 6 54h-53v120h126z" />
    <glyph glyph-name="Ncaron" unicode="&#x147;" horiz-adv-x="1426" 
d="M1296 1365v-1365h-252l-573 929l-94 153l-46 76l-46 76h-4l1 -51l1 -52v-102v-1029h-153v1365h251l500 -814l260 -427h4l-1 51l-1 52v102v1036h153zM731 1476l-321 182l38 77l283 -124l271 124l42 -77z" />
    <glyph glyph-name="ncaron" unicode="&#x148;" horiz-adv-x="1055" 
d="M123 956h140l-4 -130l4 -3c15.333 35.333 33 61.333 53 78c54.667 46 143 69 265 69c159.333 0 263.333 -41 312 -123c22 -36 33 -111 33 -225v-622h-139v610c0 82 -7.33301 137.667 -22 167c-24.667 49.333 -91.667 74 -201 74c-80.667 0 -141 -10.667 -181 -32
c-60.667 -32 -96.667 -84.333 -108 -157c-4.66699 -27.333 -7 -56.333 -7 -87v-575h-145v956zM528 1073l-263 209l57 71l206 -152l206 152l56 -71z" />
    <glyph glyph-name="napostrophe" unicode="&#x149;" horiz-adv-x="1242" 
d="M309 956h139l-3 -130l3 -3c16 35.333 34 61.333 54 78c54.667 46 143 69 265 69c159.333 0 263.333 -41 312 -123c22 -36 33 -111 33 -225v-622h-139v610c0 82 -7.33301 137.667 -22 167c-24.667 49.333 -91.667 74 -201 74c-80.667 0 -141 -10.667 -181 -32
c-60.667 -32 -97 -84.333 -109 -157c-4 -27.333 -6 -56.333 -6 -87v-575h-145v956zM280 1365v-200c0 -64.667 -7.33301 -108.667 -22 -132c-22.667 -36 -61.667 -54 -117 -54c-10 0 -24.333 0.666992 -43 2v77c31.333 1.33301 53.333 7 66 17c16 12 24 34 24 66
c0 8.66699 -0.666992 21.667 -2 39h-68v185h162z" />
    <glyph glyph-name="Eng" unicode="&#x14a;" horiz-adv-x="1365" 
d="M130 1352h153.004l-4 -130l4 -3c22.667 36 48.667 62.333 78 79c79.333 44.667 205.666 67 378.999 67c225.333 0 374 -39.667 446 -119c27.333 -30 43.333 -78 48 -144c1.33301 -20.667 2 -48.667 2 -84v-1052c-0.666992 -60 -2 -100.333 -4 -121
c-12.667 -104.667 -81 -157 -205 -157c-20.667 0 -43.334 2 -68.001 6v100c15.333 -2 26.666 -3 33.999 -3c39.333 0 64.666 16.667 75.999 50c9.33301 25.333 14 67 14 125v1040c0 40 -1 67.667 -3 83c-8 69.333 -46 114.333 -114 135c-50 15.333 -132.333 23 -247 23
c-112 0 -197.667 -10.333 -257 -31c-94 -32.667 -148.667 -85 -164 -157c-6.66699 -30 -10 -59.333 -10 -88v-985h-158v1366z" />
    <glyph glyph-name="eng" unicode="&#x14b;" horiz-adv-x="1055" 
d="M123 956l140.002 -0.000976562l-4 -130l4 -3c15.333 35.333 33 61.333 53 78c54.667 46 143 69 265 69c159.333 0 263.333 -41 312 -123c22 -36 33 -111 33 -225v-711c-0.666992 -59.333 -2 -99.333 -4 -120c-12.667 -104.667 -76.667 -157 -192 -157
c-18.667 0 -41.334 2 -68.001 6v100c13.333 -2 24.666 -3 33.999 -3c39.333 0 65 16.667 77 50c9.33301 24.667 14 66 14 124v699c0 82.667 -7.33301 138.334 -22 167.001c-24.667 49.333 -91.667 74 -201 74c-80.667 0 -141 -10.667 -181 -32
c-60.667 -32 -96.667 -84.333 -108 -157c-4.66699 -27.333 -7 -56.333 -7 -87v-575h-145v956z" />
    <glyph glyph-name="Omacron" unicode="&#x14c;" horiz-adv-x="1256" 
d="M644 1379c94.667 0 167.834 -3.16602 219.501 -9.49902s97.167 -17.833 136.5 -34.5c112 -48 179 -156.667 201 -326c6 -46.667 9 -130.334 9 -251.001c0 -217.333 -3.66699 -353.333 -11 -408c-11.333 -88 -31 -155.667 -59 -203s-69.667 -84.333 -125 -111
c-57.333 -27.333 -130 -43 -218 -47c-46.667 -2 -102.667 -3 -168 -3c-113.333 0 -195.5 3.33301 -246.5 10s-97.833 20 -140.5 40c-89.333 42.667 -146 120.667 -170 234c-16 73.333 -24.333 182 -25 326v190c0 100 3 174.333 9 223c11.333 88 33.166 158 65.499 210
s77.5 90.667 135.5 116c50.667 21.333 116 34.333 196 39c52 3.33301 115.667 5 191 5zM611 1247c-86 0 -148.5 -2 -187.5 -6s-72.167 -11.667 -99.5 -23c-52.667 -22.667 -88 -71 -106 -145c-12 -50 -18 -107.333 -18 -172v-218c0 -170.667 1.66699 -272 5 -304
c6.66699 -68 19.167 -119.833 37.5 -155.5s45.5 -61.167 81.5 -76.5c32.667 -14 78.667 -22.667 138 -26c44 -2 99.667 -3 167 -3c142 0 233.333 6 274 18c38.667 11.333 68.5 29 89.5 53s36.833 58.333 47.5 103c12 49.333 18 106.666 18 171.999l-1 219
c0 170 -1.66699 271 -5 303c-6.66699 69.333 -19 121.333 -37 156s-45.333 60 -82 76c-33.333 14.667 -80.333 23.334 -141 26.001c-44.667 2 -105 3 -181 3zM370 1657h517v-115h-517v115z" />
    <glyph glyph-name="omacron" unicode="&#x14d;" horiz-adv-x="1036" 
d="M526 970c82 0 146.666 -5.16602 193.999 -15.499s85.666 -27.833 114.999 -52.5c48.667 -40 79 -100.667 91 -182c10 -71.333 15 -152.333 15 -243c0 -151.333 -12 -258.333 -36 -321c-18 -46.667 -43 -82.334 -75 -107.001s-75.667 -42 -131 -52
c-40.667 -7.33301 -101 -11 -181 -11c-86.667 0 -153.667 5 -201 15s-85.666 27.667 -114.999 53c-48.667 40.667 -79 101.334 -91 182.001c-10 69.333 -15 147.666 -15 234.999c0 157.333 12 267 36 329c33.333 87.333 102 140.333 206 159
c40.667 7.33301 103.334 11 188.001 11zM513.999 851.001c-109.333 0 -178.999 -12.667 -208.999 -38s-48 -70 -54 -134c-6 -58 -9 -121.333 -9 -190c0 -134 6.66699 -224 20 -270c12.667 -44 33 -73.333 61 -88c34.667 -17.333 99.667 -26 195 -26
c112.667 0 184 12.667 214 38s48 70 54 134c6 58 9 125.333 9 202c0 126 -6.66699 212 -20 258c-12.667 44 -33 73.333 -61 88c-34.667 17.333 -101.334 26 -200.001 26zM267 1246h503v-114h-503v114z" />
    <glyph glyph-name="Odblacute" unicode="&#x150;" horiz-adv-x="1256" 
d="M644 1379c94.667 0 167.834 -3.16602 219.501 -9.49902s97.167 -17.833 136.5 -34.5c112 -48 179 -156.667 201 -326c6 -46.667 9 -130.334 9 -251.001c0 -217.333 -3.66699 -353.333 -11 -408c-11.333 -88 -31 -155.667 -59 -203s-69.667 -84.333 -125 -111
c-57.333 -27.333 -130 -43 -218 -47c-46.667 -2 -102.667 -3 -168 -3c-113.333 0 -195.5 3.33301 -246.5 10s-97.833 20 -140.5 40c-89.333 42.667 -146 120.667 -170 234c-16 73.333 -24.333 182 -25 326v190c0 100 3 174.333 9 223c11.333 88 33.166 158 65.499 210
s77.5 90.667 135.5 116c50.667 21.333 116 34.333 196 39c52 3.33301 115.667 5 191 5zM611 1247c-86 0 -148.5 -2 -187.5 -6s-72.167 -11.667 -99.5 -23c-52.667 -22.667 -88 -71 -106 -145c-12 -50 -18 -107.333 -18 -172v-218c0 -170.667 1.66699 -272 5 -304
c6.66699 -68 19.167 -119.833 37.5 -155.5s45.5 -61.167 81.5 -76.5c32.667 -14 78.667 -22.667 138 -26c44 -2 99.667 -3 167 -3c142 0 233.333 6 274 18c38.667 11.333 68.5 29 89.5 53s36.833 58.333 47.5 103c12 49.333 18 106.666 18 171.999l-1 219
c0 170 -1.66699 271 -5 303c-6.66699 69.333 -19 121.333 -37 156s-45.333 60 -82 76c-33.333 14.667 -80.333 23.334 -141 26.001c-44.667 2 -105 3 -181 3zM642 1741l69 -93l-280 -172l-46 71zM968 1741l68 -93l-279 -172l-46 71z" />
    <glyph glyph-name="odblacute" unicode="&#x151;" horiz-adv-x="1036" 
d="M526 970c82 0 146.666 -5.16602 193.999 -15.499s85.666 -27.833 114.999 -52.5c48.667 -40 79 -100.667 91 -182c10 -71.333 15 -152.333 15 -243c0 -151.333 -12 -258.333 -36 -321c-18 -46.667 -43 -82.334 -75 -107.001s-75.667 -42 -131 -52
c-40.667 -7.33301 -101 -11 -181 -11c-86.667 0 -153.667 5 -201 15s-85.666 27.667 -114.999 53c-48.667 40.667 -79 101.334 -91 182.001c-10 69.333 -15 147.666 -15 234.999c0 157.333 12 267 36 329c33.333 87.333 102 140.333 206 159
c40.667 7.33301 103.334 11 188.001 11zM513.999 851.001c-109.333 0 -178.999 -12.667 -208.999 -38s-48 -70 -54 -134c-6 -58 -9 -121.333 -9 -190c0 -134 6.66699 -224 20 -270c12.667 -44 33 -73.333 61 -88c34.667 -17.333 99.667 -26 195 -26
c112.667 0 184 12.667 214 38s48 70 54 134c6 58 9 125.333 9 202c0 126 -6.66699 212 -20 258c-12.667 44 -33 73.333 -61 88c-34.667 17.333 -101.334 26 -200.001 26zM544 1349l76 -84l-255 -196l-52 64zM812 1349l76 -84l-255 -196l-52 64z" />
    <glyph glyph-name="OE" unicode="&#x152;" horiz-adv-x="2020" 
d="M1232 1221l-0.000976562 -451.002h689v-130h-689v-503h719v-132h-867l4 132h-4c-25.333 -41.333 -61.666 -74.666 -108.999 -99.999c-46 -24 -92 -39 -138 -45c-38 -4 -91 -6 -159 -6c-184 0 -307.333 11 -370 33c-90.667 32 -154 91.333 -190 178
c-28 66 -42 170.333 -42 313c0 126.667 0.333008 244 1 352c0.666992 150.667 19.667 260.334 57 329.001c50.667 93.333 139.667 151.333 267 174c50 9.33301 124.667 14 224 14c128.667 0 219 -6.66699 271 -20c66 -17.333 116 -44.333 150 -81
c11.333 -12.667 24 -31.667 38 -57h4l-4 132h867v-132h-719zM565.999 1248c-75.333 0 -132.833 -5.00391 -172.5 -15.0039s-71.167 -27.667 -94.5 -53c-42.667 -45.333 -65 -149.666 -67 -312.999c-1.33301 -66 -2 -190.333 -2 -373c0 -91.333 6.5 -161.666 19.5 -210.999
s35.167 -86.666 66.5 -111.999c36 -28.667 91 -45 165 -49c48.667 -2.66699 104 -4 166 -4c86 0 150.167 2 192.5 6s78.166 11.333 107.499 22c53.333 20.667 89 61.667 107 123c12.667 45.333 19.334 109 20.001 191l1 214l4 229c0 94.667 -11 170.334 -33 227.001
c-12 32 -30.833 56.167 -56.5 72.5s-63.5 27.833 -113.5 34.5c-52 7.33301 -155.333 11 -310 11z" />
    <glyph glyph-name="oe" unicode="&#x153;" horiz-adv-x="1715" 
d="M1617 463l-676.001 -0.00195312c-0.666992 -20.667 -1 -36 -1 -46c0 -136.667 18.333 -224.667 55 -264c30 -32 100.667 -48 212 -48c98.667 0 165.334 8 200.001 24c35.333 15.333 56.666 48.333 63.999 99c2 15.333 3 35.666 3 60.999h143
c-0.666992 -52.667 -4.33398 -94 -11.001 -124c-9.33301 -44 -30.166 -80.5 -62.499 -109.5s-72.166 -47.167 -119.499 -54.5c-60 -10 -150 -15 -270 -15c-72 0 -133 11 -183 33c-46.667 20.667 -82 54.667 -106 102h-3c-21.333 -49.333 -50.666 -82.666 -87.999 -99.999
c-38.667 -17.333 -82.334 -27.666 -131.001 -30.999c-42.667 -2.66699 -87 -4 -133 -4c-86.667 0 -154.667 6 -204 18s-88.333 32.333 -117 61c-42 42 -68.333 100.667 -79 176c-10 69.333 -15 149.333 -15 240c0 130.667 8 225 24 283c14 50.667 34.167 90.167 60.5 118.5
s62.833 49.833 109.5 64.5c50 15.333 115.667 23 197 23c140.667 0 239 -12.333 295 -37c38.667 -16.667 65.667 -50.667 81 -102h3c18 40 44.333 70 79 90c30.667 18 66 30.667 106 38s93.667 11 161 11c86 0 153.5 -6.66699 202.5 -20s88.5 -35.666 118.5 -66.999
c43.333 -46.667 69.333 -110.667 78 -192c4.66699 -44 7 -93.667 7 -149v-79zM1474 578.998c-4 88.667 -11.333 148.667 -22 180c-13.333 39.333 -45.333 66 -96 80c-30 8 -74.333 12 -133 12c-92.667 0 -157.667 -8.33301 -195 -25c-60 -28 -90.333 -110.333 -91 -247h537z
M512.999 850.998c-109.333 0 -178.999 -12.666 -208.999 -37.999s-48 -70 -54 -134c-6 -58 -9 -121.333 -9 -190c0 -134 6.66699 -224 20 -270c12.667 -44 33 -73.333 61 -88c34.667 -17.333 99.667 -26 195 -26c112.667 0 184 12.667 214 38s48 70 54 134
c6 57.333 9 124.666 9 201.999c0 126 -6.66699 212 -20 258c-12.667 44 -33 73.333 -61 88c-34.667 17.333 -101.334 26 -200.001 26z" />
    <glyph glyph-name="Racute" unicode="&#x154;" horiz-adv-x="1276" 
d="M130 0l0.000976562 1365h650c121.333 0 212.666 -20 273.999 -60c53.333 -34.667 89.333 -87 108 -157c12 -43.333 18 -101.666 18 -174.999c0 -148.667 -26.667 -247.334 -80 -296.001c-32.667 -30 -84.667 -50.667 -156 -62v-3c65.333 -4 117.333 -26.667 156 -68
c31.333 -34.667 50 -77.334 56 -128.001c3.33301 -25.333 5 -48 5 -68v-348h-153v313c0 44.667 -4 81.667 -12 111c-28 90.667 -110.333 133 -247 127h-466v-551h-153zM283.001 683.001h446.001c99.333 0 171.666 13.667 216.999 41c54.667 33.333 82 99.333 82 198
c0 58 -1.66699 106.667 -5 146c-8 82.667 -46 133 -114 151c-36.667 9.33301 -79 14 -127 14h-499v-550zM811.002 1741l61 -111l-308 -154l-50 79z" />
    <glyph glyph-name="racute" unicode="&#x155;" horiz-adv-x="815" 
d="M137 956h138.999l-14 -110l3 -3c30.667 50 63.667 83.333 99 100c48.667 23.333 107.334 35 176.001 35c87.333 0 153.333 -21.667 198 -65c43.333 -42 65 -109.667 65 -203c0 -16 -0.333008 -39.333 -1 -70h-138c0.666992 32 1 57.667 1 77c0 44 -8 76 -24 96
c-24 30.667 -68.667 46 -134 46c-104.667 0 -173 -33 -205 -99c-17.333 -36 -26 -98.333 -26 -187v-573h-139v956zM602.999 1351l72 -98l-295 -181l-48 74z" />
    <glyph glyph-name="Rcedilla" unicode="&#x156;" horiz-adv-x="1276" 
d="M130 0l0.000976562 1365h650c121.333 0 212.666 -20 273.999 -60c53.333 -34.667 89.333 -87 108 -157c12 -43.333 18 -101.666 18 -174.999c0 -148.667 -26.667 -247.334 -80 -296.001c-32.667 -30 -84.667 -50.667 -156 -62v-3c65.333 -4 117.333 -26.667 156 -68
c31.333 -34.667 50 -77.334 56 -128.001c3.33301 -25.333 5 -48 5 -68v-348h-153v313c0 44.667 -4 81.667 -12 111c-28 90.667 -110.333 133 -247 127h-466v-551h-153zM283.001 683.001h446.001c99.333 0 171.666 13.667 216.999 41c54.667 33.333 82 99.333 82 198
c0 58 -1.66699 106.667 -5 146c-8 82.667 -46 133 -114 151c-36.667 9.33301 -79 14 -127 14h-499v-550zM707.002 -108.999l0.000976562 -137.998c0 -56.667 -6.66699 -95.334 -20 -116.001c-20.667 -31.333 -55.334 -47 -104.001 -47
c-9.33301 0 -22.666 0.666992 -39.999 2v63c39.333 1.33301 63.666 12.666 72.999 33.999c4.66699 12 7 33 7 63h-62v139h146z" />
    <glyph glyph-name="rcedilla" unicode="&#x157;" horiz-adv-x="815" 
d="M137 956h138.999l-14 -110l3 -3c30.667 50 63.667 83.333 99 100c48.667 23.333 107.334 35 176.001 35c87.333 0 153.333 -21.667 198 -65c43.333 -42 65 -109.667 65 -203c0 -16 -0.333008 -39.333 -1 -70h-138c0.666992 32 1 57.667 1 77c0 44 -8 76 -24 96
c-24 30.667 -68.667 46 -134 46c-104.667 0 -173 -33 -205 -99c-17.333 -36 -26 -98.333 -26 -187v-573h-139v956zM269.999 -96l0.000976562 -119c0 -48.667 -5.66699 -81.667 -17 -99c-18 -27.333 -48 -41 -90 -41c-8.66699 0 -20.334 0.666992 -35.001 2v54
c34 1.33301 55 11 63 29c4.66699 10.667 6.66699 28.667 6 54h-53v120h126z" />
    <glyph glyph-name="Rcaron" unicode="&#x158;" horiz-adv-x="1276" 
d="M130 0l0.000976562 1365h650c121.333 0 212.666 -20 273.999 -60c53.333 -34.667 89.333 -87 108 -157c12 -43.333 18 -101.666 18 -174.999c0 -148.667 -26.667 -247.334 -80 -296.001c-32.667 -30 -84.667 -50.667 -156 -62v-3c65.333 -4 117.333 -26.667 156 -68
c31.333 -34.667 50 -77.334 56 -128.001c3.33301 -25.333 5 -48 5 -68v-348h-153v313c0 44.667 -4 81.667 -12 111c-28 90.667 -110.333 133 -247 127h-466v-551h-153zM283.001 683.001h446.001c99.333 0 171.666 13.667 216.999 41c54.667 33.333 82 99.333 82 198
c0 58 -1.66699 106.667 -5 146c-8 82.667 -46 133 -114 151c-36.667 9.33301 -79 14 -127 14h-499v-550zM615.002 1476l-321 182l38 77l283 -124l271 124l42 -77z" />
    <glyph glyph-name="rcaron" unicode="&#x159;" horiz-adv-x="815" 
d="M137 956h138.999l-14 -110l3 -3c30.667 50 63.667 83.333 99 100c48.667 23.333 107.334 35 176.001 35c87.333 0 153.333 -21.667 198 -65c43.333 -42 65 -109.667 65 -203c0 -16 -0.333008 -39.333 -1 -70h-138c0.666992 32 1 57.667 1 77c0 44 -8 76 -24 96
c-24 30.667 -68.667 46 -134 46c-104.667 0 -173 -33 -205 -99c-17.333 -36 -26 -98.333 -26 -187v-573h-139v956zM448.999 1073l-263 209l57 71l206 -152l206 152l56 -71z" />
    <glyph glyph-name="Sacute" unicode="&#x15a;" horiz-adv-x="1146" 
d="M1066 995l-153.002 0.00488281c0 85.333 -9.66699 144 -29 176c-21.333 34 -60 56.333 -116 67c-32.667 6 -85.667 9 -159 9c-112 0 -186.333 -3.33301 -223 -10c-41.333 -6.66699 -73 -17.667 -95 -33s-38.667 -38 -50 -68c-12 -32 -18 -73.667 -18 -125
c0 -66.667 8.66699 -118 26 -154c20 -42.667 68 -69 144 -79c21.333 -2.66699 91.333 -6.66699 210 -12c126.667 -5.33301 214 -12.666 262 -21.999c50.667 -10 90.834 -25.5 120.501 -46.5s53.834 -51.167 72.501 -90.5c22 -46.667 33 -120.334 33 -221.001
c0 -144.667 -23.333 -243.334 -70 -296.001s-116 -83.667 -208 -93c-69.333 -7.33301 -158 -11 -266 -11c-140 0 -234.667 7.66699 -284 23c-112.667 35.333 -177.334 121.666 -194.001 258.999c-4 29.333 -6.66699 80.666 -8 153.999h153v-34
c0.666992 -70.667 6.5 -123.334 17.5 -158.001s30.5 -61.334 58.5 -80.001c25.333 -17.333 65 -27 119 -29c50 -2 108.667 -3 176 -3c99.333 0 170.833 4.5 214.5 13.5s76.5 25.833 98.5 50.5c26.667 30.667 40 104 40 220c0 58 -6.66699 101.667 -20 131
c-20 42 -64.333 67.333 -133 76c-19.333 2.66699 -92.333 7.66699 -219 15c-118.667 6 -191 10.667 -217 14c-99.333 13.333 -172.333 50.333 -219 111c-40 52 -60 132.667 -60 242c0 154 33.667 257 101 309c52.667 40 122.334 63.667 209.001 71
c58.667 5.33301 124 8 196 8c144.667 0 246 -9.33301 304 -28c100.667 -32.667 160 -104.667 178 -216c5.33301 -31.333 8 -78 8 -140zM759.998 1741l61 -111l-308 -154l-50 79z" />
    <glyph glyph-name="sacute" unicode="&#x15b;" horiz-adv-x="969" 
d="M864 706l-140 0.000976562c-1.33301 51.333 -8.33301 87.333 -21 108c-14 21.333 -44.667 34.666 -92 39.999c-24.667 2.66699 -68.667 4 -132 4c-67.333 0 -116 -2.16699 -146 -6.5s-53.333 -12.833 -70 -25.5c-22.667 -16.667 -34 -53.334 -34 -110.001
c0 -54 5.66699 -92 17 -114c12.667 -24.667 42.334 -39.667 89.001 -45c11.333 -1.33301 61.333 -4.33301 150 -9c122 -5.33301 195.333 -10 220 -14c76 -12.667 128.333 -48.667 157 -108c20 -41.333 30 -94 30 -158c0 -100 -25.333 -171.667 -76 -215
c-36 -30 -84 -48.667 -144 -56c-56.667 -7.33301 -121.334 -11 -194.001 -11c-86.667 0 -153.334 4.83301 -200.001 14.5s-86.667 26.5 -120 50.5c-52.667 39.333 -79 104.666 -79 195.999c0 15.333 0.333008 34.333 1 57h145c-2 -21.333 -3 -38.333 -3 -51
c0 -28 5 -54 15 -78s23 -41 39 -51c28 -17.333 94 -26 198 -26c118.667 0 195.667 13 231 39c29.333 21.333 44 65.333 44 132c0 58 -9 98.333 -27 121c-16 20.667 -53 31.334 -111 32.001c-176 2 -298.667 11.667 -368 29c-64 15.333 -107.667 48.333 -131 99
c-16 33.333 -24 84 -24 152c0 102.667 22.667 171.334 68 206.001c38.667 28.667 90.667 46.334 156 53.001c54.667 6 112.334 9 173.001 9c80 0 143.5 -4.5 190.5 -13.5s85.833 -23.833 116.5 -44.5c48 -32.667 72 -93.334 72 -182.001v-24zM639 1351l72 -98l-295 -181
l-48 74z" />
    <glyph glyph-name="Scircumflex" unicode="&#x15c;" horiz-adv-x="1146" 
d="M1066 995l-153.002 0.00488281c0 85.333 -9.66699 144 -29 176c-21.333 34 -60 56.333 -116 67c-32.667 6 -85.667 9 -159 9c-112 0 -186.333 -3.33301 -223 -10c-41.333 -6.66699 -73 -17.667 -95 -33s-38.667 -38 -50 -68c-12 -32 -18 -73.667 -18 -125
c0 -66.667 8.66699 -118 26 -154c20 -42.667 68 -69 144 -79c21.333 -2.66699 91.333 -6.66699 210 -12c126.667 -5.33301 214 -12.666 262 -21.999c50.667 -10 90.834 -25.5 120.501 -46.5s53.834 -51.167 72.501 -90.5c22 -46.667 33 -120.334 33 -221.001
c0 -144.667 -23.333 -243.334 -70 -296.001s-116 -83.667 -208 -93c-69.333 -7.33301 -158 -11 -266 -11c-140 0 -234.667 7.66699 -284 23c-112.667 35.333 -177.334 121.666 -194.001 258.999c-4 29.333 -6.66699 80.666 -8 153.999h153v-34
c0.666992 -70.667 6.5 -123.334 17.5 -158.001s30.5 -61.334 58.5 -80.001c25.333 -17.333 65 -27 119 -29c50 -2 108.667 -3 176 -3c99.333 0 170.833 4.5 214.5 13.5s76.5 25.833 98.5 50.5c26.667 30.667 40 104 40 220c0 58 -6.66699 101.667 -20 131
c-20 42 -64.333 67.333 -133 76c-19.333 2.66699 -92.333 7.66699 -219 15c-118.667 6 -191 10.667 -217 14c-99.333 13.333 -172.333 50.333 -219 111c-40 52 -60 132.667 -60 242c0 154 33.667 257 101 309c52.667 40 122.334 63.667 209.001 71
c58.667 5.33301 124 8 196 8c144.667 0 246 -9.33301 304 -28c100.667 -32.667 160 -104.667 178 -216c5.33301 -31.333 8 -78 8 -140zM583.998 1735l313 -182l-42 -77l-271 124l-283 -124l-38 77z" />
    <glyph glyph-name="scircumflex" unicode="&#x15d;" horiz-adv-x="969" 
d="M864 706l-140 0.000976562c-1.33301 51.333 -8.33301 87.333 -21 108c-14 21.333 -44.667 34.666 -92 39.999c-24.667 2.66699 -68.667 4 -132 4c-67.333 0 -116 -2.16699 -146 -6.5s-53.333 -12.833 -70 -25.5c-22.667 -16.667 -34 -53.334 -34 -110.001
c0 -54 5.66699 -92 17 -114c12.667 -24.667 42.334 -39.667 89.001 -45c11.333 -1.33301 61.333 -4.33301 150 -9c122 -5.33301 195.333 -10 220 -14c76 -12.667 128.333 -48.667 157 -108c20 -41.333 30 -94 30 -158c0 -100 -25.333 -171.667 -76 -215
c-36 -30 -84 -48.667 -144 -56c-56.667 -7.33301 -121.334 -11 -194.001 -11c-86.667 0 -153.334 4.83301 -200.001 14.5s-86.667 26.5 -120 50.5c-52.667 39.333 -79 104.666 -79 195.999c0 15.333 0.333008 34.333 1 57h145c-2 -21.333 -3 -38.333 -3 -51
c0 -28 5 -54 15 -78s23 -41 39 -51c28 -17.333 94 -26 198 -26c118.667 0 195.667 13 231 39c29.333 21.333 44 65.333 44 132c0 58 -9 98.333 -27 121c-16 20.667 -53 31.334 -111 32.001c-176 2 -298.667 11.667 -368 29c-64 15.333 -107.667 48.333 -131 99
c-16 33.333 -24 84 -24 152c0 102.667 22.667 171.334 68 206.001c38.667 28.667 90.667 46.334 156 53.001c54.667 6 112.334 9 173.001 9c80 0 143.5 -4.5 190.5 -13.5s85.833 -23.833 116.5 -44.5c48 -32.667 72 -93.334 72 -182.001v-24zM485 1353l263 -209l-57 -71
l-206 152l-206 -152l-56 71z" />
    <glyph glyph-name="Scedilla" unicode="&#x15e;" horiz-adv-x="1146" 
d="M1066 995l-153.002 0.00488281c0 85.333 -9.66699 144 -29 176c-21.333 34 -60 56.333 -116 67c-32.667 6 -85.667 9 -159 9c-112 0 -186.333 -3.33301 -223 -10c-41.333 -6.66699 -73 -17.667 -95 -33s-38.667 -38 -50 -68c-12 -32 -18 -73.667 -18 -125
c0 -66.667 8.66699 -118 26 -154c20 -42.667 68 -69 144 -79c21.333 -2.66699 91.333 -6.66699 210 -12c126.667 -5.33301 214 -12.666 262 -21.999c50.667 -10 90.834 -25.5 120.501 -46.5s53.834 -51.167 72.501 -90.5c22 -46.667 33 -120.334 33 -221.001
c0 -144.667 -23.333 -243.334 -70 -296.001s-116 -83.667 -208 -93c-69.333 -7.33301 -158 -11 -266 -11c-140 0 -234.667 7.66699 -284 23c-112.667 35.333 -177.334 121.666 -194.001 258.999c-4 29.333 -6.66699 80.666 -8 153.999h153v-34
c0.666992 -70.667 6.5 -123.334 17.5 -158.001s30.5 -61.334 58.5 -80.001c25.333 -17.333 65 -27 119 -29c50 -2 108.667 -3 176 -3c99.333 0 170.833 4.5 214.5 13.5s76.5 25.833 98.5 50.5c26.667 30.667 40 104 40 220c0 58 -6.66699 101.667 -20 131
c-20 42 -64.333 67.333 -133 76c-19.333 2.66699 -92.333 7.66699 -219 15c-118.667 6 -191 10.667 -217 14c-99.333 13.333 -172.333 50.333 -219 111c-40 52 -60 132.667 -60 242c0 154 33.667 257 101 309c52.667 40 122.334 63.667 209.001 71
c58.667 5.33301 124 8 196 8c144.667 0 246 -9.33301 304 -28c100.667 -32.667 160 -104.667 178 -216c5.33301 -31.333 8 -78 8 -140zM548.998 -99.9951l112 -63l-160 -224l-91 49z" />
    <glyph glyph-name="scedilla" unicode="&#x15f;" horiz-adv-x="969" 
d="M864 706l-140 0.000976562c-1.33301 51.333 -8.33301 87.333 -21 108c-14 21.333 -44.667 34.666 -92 39.999c-24.667 2.66699 -68.667 4 -132 4c-67.333 0 -116 -2.16699 -146 -6.5s-53.333 -12.833 -70 -25.5c-22.667 -16.667 -34 -53.334 -34 -110.001
c0 -54 5.66699 -92 17 -114c12.667 -24.667 42.334 -39.667 89.001 -45c11.333 -1.33301 61.333 -4.33301 150 -9c122 -5.33301 195.333 -10 220 -14c76 -12.667 128.333 -48.667 157 -108c20 -41.333 30 -94 30 -158c0 -100 -25.333 -171.667 -76 -215
c-36 -30 -84 -48.667 -144 -56c-56.667 -7.33301 -121.334 -11 -194.001 -11c-86.667 0 -153.334 4.83301 -200.001 14.5s-86.667 26.5 -120 50.5c-52.667 39.333 -79 104.666 -79 195.999c0 15.333 0.333008 34.333 1 57h145c-2 -21.333 -3 -38.333 -3 -51
c0 -28 5 -54 15 -78s23 -41 39 -51c28 -17.333 94 -26 198 -26c118.667 0 195.667 13 231 39c29.333 21.333 44 65.333 44 132c0 58 -9 98.333 -27 121c-16 20.667 -53 31.334 -111 32.001c-176 2 -298.667 11.667 -368 29c-64 15.333 -107.667 48.333 -131 99
c-16 33.333 -24 84 -24 152c0 102.667 22.667 171.334 68 206.001c38.667 28.667 90.667 46.334 156 53.001c54.667 6 112.334 9 173.001 9c80 0 143.5 -4.5 190.5 -13.5s85.833 -23.833 116.5 -44.5c48 -32.667 72 -93.334 72 -182.001v-24zM456 -99.999l97 -54l-139 -195
l-79 42z" />
    <glyph glyph-name="Scaron" unicode="&#x160;" horiz-adv-x="1146" 
d="M1066 995l-153.002 0.00488281c0 85.333 -9.66699 144 -29 176c-21.333 34 -60 56.333 -116 67c-32.667 6 -85.667 9 -159 9c-112 0 -186.333 -3.33301 -223 -10c-41.333 -6.66699 -73 -17.667 -95 -33s-38.667 -38 -50 -68c-12 -32 -18 -73.667 -18 -125
c0 -66.667 8.66699 -118 26 -154c20 -42.667 68 -69 144 -79c21.333 -2.66699 91.333 -6.66699 210 -12c126.667 -5.33301 214 -12.666 262 -21.999c50.667 -10 90.834 -25.5 120.501 -46.5s53.834 -51.167 72.501 -90.5c22 -46.667 33 -120.334 33 -221.001
c0 -144.667 -23.333 -243.334 -70 -296.001s-116 -83.667 -208 -93c-69.333 -7.33301 -158 -11 -266 -11c-140 0 -234.667 7.66699 -284 23c-112.667 35.333 -177.334 121.666 -194.001 258.999c-4 29.333 -6.66699 80.666 -8 153.999h153v-34
c0.666992 -70.667 6.5 -123.334 17.5 -158.001s30.5 -61.334 58.5 -80.001c25.333 -17.333 65 -27 119 -29c50 -2 108.667 -3 176 -3c99.333 0 170.833 4.5 214.5 13.5s76.5 25.833 98.5 50.5c26.667 30.667 40 104 40 220c0 58 -6.66699 101.667 -20 131
c-20 42 -64.333 67.333 -133 76c-19.333 2.66699 -92.333 7.66699 -219 15c-118.667 6 -191 10.667 -217 14c-99.333 13.333 -172.333 50.333 -219 111c-40 52 -60 132.667 -60 242c0 154 33.667 257 101 309c52.667 40 122.334 63.667 209.001 71
c58.667 5.33301 124 8 196 8c144.667 0 246 -9.33301 304 -28c100.667 -32.667 160 -104.667 178 -216c5.33301 -31.333 8 -78 8 -140zM576.998 1476l-321 182l38 77l283 -124l271 124l42 -77z" />
    <glyph glyph-name="scaron" unicode="&#x161;" horiz-adv-x="969" 
d="M864 706l-140 0.000976562c-1.33301 51.333 -8.33301 87.333 -21 108c-14 21.333 -44.667 34.666 -92 39.999c-24.667 2.66699 -68.667 4 -132 4c-67.333 0 -116 -2.16699 -146 -6.5s-53.333 -12.833 -70 -25.5c-22.667 -16.667 -34 -53.334 -34 -110.001
c0 -54 5.66699 -92 17 -114c12.667 -24.667 42.334 -39.667 89.001 -45c11.333 -1.33301 61.333 -4.33301 150 -9c122 -5.33301 195.333 -10 220 -14c76 -12.667 128.333 -48.667 157 -108c20 -41.333 30 -94 30 -158c0 -100 -25.333 -171.667 -76 -215
c-36 -30 -84 -48.667 -144 -56c-56.667 -7.33301 -121.334 -11 -194.001 -11c-86.667 0 -153.334 4.83301 -200.001 14.5s-86.667 26.5 -120 50.5c-52.667 39.333 -79 104.666 -79 195.999c0 15.333 0.333008 34.333 1 57h145c-2 -21.333 -3 -38.333 -3 -51
c0 -28 5 -54 15 -78s23 -41 39 -51c28 -17.333 94 -26 198 -26c118.667 0 195.667 13 231 39c29.333 21.333 44 65.333 44 132c0 58 -9 98.333 -27 121c-16 20.667 -53 31.334 -111 32.001c-176 2 -298.667 11.667 -368 29c-64 15.333 -107.667 48.333 -131 99
c-16 33.333 -24 84 -24 152c0 102.667 22.667 171.334 68 206.001c38.667 28.667 90.667 46.334 156 53.001c54.667 6 112.334 9 173.001 9c80 0 143.5 -4.5 190.5 -13.5s85.833 -23.833 116.5 -44.5c48 -32.667 72 -93.334 72 -182.001v-24zM486 1073l-263 209l57 71
l206 -152l206 152l56 -71z" />
    <glyph glyph-name="Tcedilla" unicode="&#x162;" horiz-adv-x="1054" 
d="M605 1221v-1221h-153v1222h-445v143h1040v-144h-442zM603 -109l0.000976562 -137.998c0 -56.667 -6.66699 -95.334 -20 -116.001c-20.667 -31.333 -55.334 -47 -104.001 -47c-9.33301 0 -22.666 0.666992 -39.999 2v63c39.333 1.33301 63.666 12.666 72.999 33.999
c4.66699 12 7 33 7 63h-62v139h146z" />
    <glyph glyph-name="tcedilla" unicode="&#x163;" horiz-adv-x="667" 
d="M630 956v-116.001h-369v-585c0 -44 4.66699 -77 14 -99s25.666 -36.667 48.999 -44c16.667 -4.66699 41.667 -7 75 -7c60.667 0 99 14 115 42c15.333 26.667 23 74.667 23 144c0 12.667 -0.666992 28.667 -2 48h131c0.666992 -32 1 -57 1 -75
c0 -82.667 -16.667 -146.667 -50 -192c-42.667 -57.333 -117 -86 -223 -86c-91.333 0 -157.666 14.667 -198.999 44c-42 30.667 -65.667 79.334 -71 146.001c-1.33301 14.667 -2 41 -2 79v585h-132v116h132v230h139v-230h369zM419 -96.001l0.000976562 -119
c0 -48.667 -5.66699 -81.667 -17 -99c-18 -27.333 -48 -41 -90 -41c-8.66699 0 -20.334 0.666992 -35.001 2v54c34 1.33301 55 11 63 29c4.66699 10.667 6.66699 28.667 6 54h-53v120h126z" />
    <glyph glyph-name="Tcaron" unicode="&#x164;" horiz-adv-x="1054" 
d="M605 1221v-1221h-153v1222h-445v143h1040v-144h-442zM531 1476l-321 182l38 77l283 -124l271 124l42 -77z" />
    <glyph glyph-name="tcaron" unicode="&#x165;" horiz-adv-x="667" 
d="M630 956v-116.001h-369v-585c0 -44 4.66699 -77 14 -99s25.666 -36.667 48.999 -44c16.667 -4.66699 41.667 -7 75 -7c60.667 0 99 14 115 42c15.333 26.667 23 74.667 23 144c0 12.667 -0.666992 28.667 -2 48h131c0.666992 -32 1 -57 1 -75
c0 -82.667 -16.667 -146.667 -50 -192c-42.667 -57.333 -117 -86 -223 -86c-91.333 0 -157.666 14.667 -198.999 44c-42 30.667 -65.667 79.334 -71 146.001c-1.33301 14.667 -2 41 -2 79v585h-132v116h132v230h139v-230h369zM527 1324l0.000976562 -119
c0 -48.667 -5.66699 -81.667 -17 -99c-18 -27.333 -47.667 -41 -89 -41c-8.66699 0 -20.334 0.666992 -35.001 2v54c33.333 1.33301 54 11 62 29c4.66699 10.667 6.66699 28.667 6 54h-53v120h126z" />
    <glyph glyph-name="Tbar" unicode="&#x166;" horiz-adv-x="1054" 
d="M605 894h333v-116h-333v-778h-153v778h-336v116h336v328h-445v143h1040v-144h-442v-327z" />
    <glyph glyph-name="tbar" unicode="&#x167;" horiz-adv-x="667" 
d="M261 614l328 -0.000976562v-96h-328v-263c0 -44 4.66699 -77 14 -99s25.666 -36.667 48.999 -44c16.667 -4.66699 41.667 -7 75 -7c60.667 0 99 14 115 42c15.333 26.667 23 74.667 23 144c0 12.667 -0.666992 28.667 -2 48h131c0.666992 -32 1 -57 1 -75
c0 -82.667 -16.667 -146.667 -50 -192c-42.667 -57.333 -117 -86 -223 -86c-91.333 0 -157.666 14.667 -198.999 44c-42 30.667 -65.667 79.334 -71 146.001c-1.33301 14.667 -2 41 -2 79v263h-118v96h118v226h-132v116h132v230h139v-230h369v-116h-369v-226z" />
    <glyph glyph-name="utilde" unicode="&#x169;" horiz-adv-x="1039" 
d="M903 956v-956h-139l10 125l-3 3c-48.667 -94.667 -155.334 -142 -320.001 -142c-152 0 -251 48 -297 144c-20.667 43.333 -31 106.666 -31 189.999v636h139v-636c0 -68 8 -116.333 24 -145c16 -30 43.333 -50 82 -60c24 -6.66699 59.667 -10 107 -10
c90.667 0 155.334 13 194.001 39c47.333 30.667 77 83.334 89 158.001c4 28 6 63.333 6 106v548h139zM716 1276l80 -50.001c-47.333 -84 -100 -126 -158 -126c-31.333 0 -73.666 13 -126.999 39c-52 24.667 -88 37 -108 37c-20.667 0 -37.334 -7.66699 -50.001 -23
c-8 -9.33301 -18 -25.666 -30 -48.999l-80 51c19.333 32.667 36 56.667 50 72c31.333 34.667 68.666 52 111.999 52c28 0 69.667 -12.667 125 -38c58 -26.667 94.333 -40 109 -40c26.667 0 52.334 25 77.001 75z" />
    <glyph glyph-name="Umacron" unicode="&#x16a;" horiz-adv-x="1342" 
d="M1059 1365l153.001 0.000976562v-956c0 -114.667 -12.333 -197.667 -37 -249c-36.667 -76 -103.334 -127 -200.001 -153c-54 -14 -152 -21 -294 -21c-101.333 0 -175.833 2.33301 -223.5 7s-89.167 13.667 -124.5 27c-79.333 29.333 -134 75.333 -164 138
c-25.333 53.333 -38 137 -38 251v956h153v-956c0 -101.333 9.66699 -168 29 -200c24 -40.667 69.667 -67.334 137 -80.001c38 -7.33301 106 -11 204 -11c146.667 0 245.667 8.66699 297 26c48.667 16.667 80.667 55.667 96 117c8 32.667 12 82 12 148v956zM413.001 1657h517
v-115h-517v115z" />
    <glyph glyph-name="umacron" unicode="&#x16b;" horiz-adv-x="1039" 
d="M903 956v-956h-139l10 125l-3 3c-48.667 -94.667 -155.334 -142 -320.001 -142c-152 0 -251 48 -297 144c-20.667 43.333 -31 106.666 -31 189.999v636h139v-636c0 -68 8 -116.333 24 -145c16 -30 43.333 -50 82 -60c24 -6.66699 59.667 -10 107 -10
c90.667 0 155.334 13 194.001 39c47.333 30.667 77 83.334 89 158.001c4 28 6 63.333 6 106v548h139zM261 1246h503v-114h-503v114z" />
    <glyph glyph-name="ubreve" unicode="&#x16d;" horiz-adv-x="1039" 
d="M903 956v-956h-139l10 125l-3 3c-48.667 -94.667 -155.334 -142 -320.001 -142c-152 0 -251 48 -297 144c-20.667 43.333 -31 106.666 -31 189.999v636h139v-636c0 -68 8 -116.333 24 -145c16 -30 43.333 -50 82 -60c24 -6.66699 59.667 -10 107 -10
c90.667 0 155.334 13 194.001 39c47.333 30.667 77 83.334 89 158.001c4 28 6 63.333 6 106v548h139zM247 1328l98.001 0.00195312c7.33301 -35.333 21.333 -64.333 42 -87c34.667 -39.333 76.667 -59 126 -59s91.333 19.667 126 59c20.667 22.667 34.667 51.667 42 87h97
c-9.33301 -58.667 -28 -106.334 -56 -143.001c-29.333 -38.667 -66.333 -67.334 -111 -86.001c-32.667 -14 -65.334 -21 -98.001 -21c-52.667 0 -102 16 -148 48c-64 44.667 -103.333 112 -118 202z" />
    <glyph glyph-name="Uring" unicode="&#x16e;" horiz-adv-x="1342" 
d="M1059 1365l153.001 0.000976562v-956c0 -114.667 -12.333 -197.667 -37 -249c-36.667 -76 -103.334 -127 -200.001 -153c-54 -14 -152 -21 -294 -21c-101.333 0 -175.833 2.33301 -223.5 7s-89.167 13.667 -124.5 27c-79.333 29.333 -134 75.333 -164 138
c-25.333 53.333 -38 137 -38 251v956h153v-956c0 -101.333 9.66699 -168 29 -200c24 -40.667 69.667 -67.334 137 -80.001c38 -7.33301 106 -11 204 -11c146.667 0 245.667 8.66699 297 26c48.667 16.667 80.667 55.667 96 117c8 32.667 12 82 12 148v956zM674.001 1775
c44.667 0 82.667 -17.333 114 -52c26.667 -30 40 -65 40 -105c0 -46.667 -17.333 -85.667 -52 -117c-30 -26.667 -65 -40 -105 -40c-46.667 0 -85.667 17.333 -117 52c-26.667 30 -40 65.333 -40 106c0 45.333 17.333 84 52 116c29.333 26.667 65.333 40 108 40z
M670.001 1707c-25.333 0 -47.001 -9.66602 -65.001 -28.999c-15.333 -17.333 -23 -37.333 -23 -60c0 -26.667 9.66699 -48.667 29 -66c17.333 -15.333 37.333 -23 60 -23c26.667 0 48.667 9.66699 66 29c15.333 17.333 23 37.666 23 60.999c0 25.333 -9.66699 47 -29 65
c-17.333 15.333 -37.666 23 -60.999 23z" />
    <glyph glyph-name="uring" unicode="&#x16f;" horiz-adv-x="1039" 
d="M903 956v-956h-139l10 125l-3 3c-48.667 -94.667 -155.334 -142 -320.001 -142c-152 0 -251 48 -297 144c-20.667 43.333 -31 106.666 -31 189.999v636h139v-636c0 -68 8 -116.333 24 -145c16 -30 43.333 -50 82 -60c24 -6.66699 59.667 -10 107 -10
c90.667 0 155.334 13 194.001 39c47.333 30.667 77 83.334 89 158.001c4 28 6 63.333 6 106v548h139zM523 1365c44.667 0 82.667 -17.333 114 -52c26.667 -30 40 -65 40 -105c0 -46.667 -17.333 -85.667 -52 -117c-30 -26.667 -65 -40 -105 -40
c-46.667 0 -85.667 17.333 -117 52c-26.667 30 -40 65.333 -40 106c0 45.333 17.333 84 52 116c29.333 26.667 65.333 40 108 40zM519 1297c-25.333 0 -47.001 -9.66602 -65.001 -28.999c-15.333 -17.333 -23 -37.333 -23 -60c0 -26.667 9.66699 -48.667 29 -66
c17.333 -15.333 37.333 -23 60 -23c26.667 0 48.667 9.66699 66 29c15.333 17.333 23 37.666 23 60.999c0 25.333 -9.66699 47 -29 65c-17.333 15.333 -37.666 23 -60.999 23z" />
    <glyph glyph-name="Udblacute" unicode="&#x170;" horiz-adv-x="1342" 
d="M1059 1365l153.001 0.000976562v-956c0 -114.667 -12.333 -197.667 -37 -249c-36.667 -76 -103.334 -127 -200.001 -153c-54 -14 -152 -21 -294 -21c-101.333 0 -175.833 2.33301 -223.5 7s-89.167 13.667 -124.5 27c-79.333 29.333 -134 75.333 -164 138
c-25.333 53.333 -38 137 -38 251v956h153v-956c0 -101.333 9.66699 -168 29 -200c24 -40.667 69.667 -67.334 137 -80.001c38 -7.33301 106 -11 204 -11c146.667 0 245.667 8.66699 297 26c48.667 16.667 80.667 55.667 96 117c8 32.667 12 82 12 148v956zM684.001 1741
l69 -93l-280 -172l-46 71zM1010 1741l68 -93l-279 -172l-46 71z" />
    <glyph glyph-name="udblacute" unicode="&#x171;" horiz-adv-x="1039" 
d="M903 956v-956h-139l10 125l-3 3c-48.667 -94.667 -155.334 -142 -320.001 -142c-152 0 -251 48 -297 144c-20.667 43.333 -31 106.666 -31 189.999v636h139v-636c0 -68 8 -116.333 24 -145c16 -30 43.333 -50 82 -60c24 -6.66699 59.667 -10 107 -10
c90.667 0 155.334 13 194.001 39c47.333 30.667 77 83.334 89 158.001c4 28 6 63.333 6 106v548h139zM545 1349l76 -84l-255 -196l-52 64zM813 1349l76 -84l-255 -196l-52 64z" />
    <glyph glyph-name="Uogonek" unicode="&#x172;" horiz-adv-x="1342" 
d="M852 -11c-143.333 -2 -221.336 -3 -234.003 -3c-126 0 -221 11.667 -285 35c-79.333 28.667 -134 74.334 -164 137.001c-25.333 53.333 -38 137 -38 251v956h153v-956c0 -100.667 9.66699 -167.334 29 -200.001c24 -40 70 -66.333 138 -79
c37.333 -7.33301 105 -11 203 -11c146.667 0 245.667 8.66699 297 26c49.333 16 81.333 55 96 117c8 32 12 81 12 147v956h153v-956c0.666992 -114 -12 -196.667 -38 -248c-33.333 -66 -90.666 -115 -171.999 -147c-47.333 -18.667 -85.333 -42 -114 -70
c-40 -38.667 -60 -76.334 -60 -113.001c0 -32 13 -56 39 -72c20 -12.667 46.333 -19 79 -19c24.667 0 49 5 73 15v-90c-34 -11.333 -65.333 -17 -94 -17c-33.333 0 -63.666 4.66699 -90.999 14c-31.333 10.667 -56.666 28.667 -75.999 54c-22.667 28 -34 59.333 -34 94
c0 72.667 42.667 132.334 128 179.001z" />
    <glyph glyph-name="uogonek" unicode="&#x173;" horiz-adv-x="1039" 
d="M816 0h-52l10 125l-3 3c-48.667 -94.667 -155.334 -142 -320.001 -142c-152 0 -251 48 -297 144c-20.667 43.333 -31 106.666 -31 189.999v636h139v-636c0 -68 8 -116.333 24 -145c16 -30 43.333 -50 82 -60c24 -6.66699 59.667 -10 107 -10
c90.667 0 155.334 13 194.001 39c47.333 30.667 77 83.334 89 158.001c4 28 6 63.333 6 106v548h139v-956c-86.667 -62.667 -130 -117.667 -130 -165c0 -30.667 13 -55.667 39 -75c18 -13.333 44 -20 78 -20c24.667 0 49 5 73 15v-90c-34 -11.333 -65 -17 -93 -17
c-32 0 -61 4.66699 -87 14c-30 10.667 -54.667 28.667 -74 54c-21.333 28 -32 59.667 -32 95c0 73.333 46.333 136.333 139 189z" />
    <glyph glyph-name="Wcircymflex" unicode="&#x174;" horiz-adv-x="2045" 
d="M2041 1365l-430 -1365h-234l-287 983l-71 246h-3l-17 -62l-18 -62l-37 -124l-292 -981h-230l-419 1365h158l294 -981l79 -266h3l19 67l19 66l39 132l290 982h228l288 -983l39 -131l18 -67l19 -66h3l20 67l20 67l41 134l300 979h161zM1026 1735l313 -182l-42 -77l-271 124
l-283 -124l-38 77z" />
    <glyph glyph-name="Ycircymflex" unicode="&#x176;" horiz-adv-x="1151" 
d="M1162 1365l-516 -795v-570h-153v570l-503 795h179l293 -461l111 -178h3l55 89l56 89l292 461h183zM580 1735l313 -182l-43 -77l-270 124l-283 -124l-38 77z" />
    <glyph glyph-name="ycircymflex" unicode="&#x177;" horiz-adv-x="796" 
d="M802 956l-271 -1011c-30.667 -114.667 -62.334 -200 -95.001 -256c-29.333 -49.333 -75 -83.666 -137 -102.999c-31.333 -10 -62.333 -15 -93 -15c-17.333 0 -39.666 2.33301 -66.999 7v116c19.333 -2 35.333 -3 48 -3c40.667 0 74.667 13.333 102 40
c30.667 30 65 119.667 103 269h-53l-346 956h149l147 -426l74 -212l36 -107l37 -106h4l26 106l25 107l54 212l108 426h149zM398 1353l263 -209l-57 -71l-206 152l-206 -152l-57 71z" />
    <glyph glyph-name="Ydieresis" unicode="&#x178;" horiz-adv-x="1151" 
d="M1162 1365l-516 -795v-570h-153v570l-503 795h179l293 -461l111 -178h3l55 89l56 89l292 461h183zM475 1660v-135h-161v135h161zM838 1660v-135h-161v135h161z" />
    <glyph glyph-name="Zacute" unicode="&#x179;" horiz-adv-x="1161" 
d="M1095 1365v-132l-859 -1098v-3h877v-132h-1065v135l857 1095v3h-832v132h1022zM767 1741l61 -111l-308 -154l-50 79z" />
    <glyph glyph-name="zacute" unicode="&#x17a;" horiz-adv-x="826" 
d="M92 956h689v-136l-570 -704h570v-116h-737v133l572 707h-524v116zM594 1351l72 -98l-295 -181l-48 74z" />
    <glyph glyph-name="Zdot" unicode="&#x17b;" horiz-adv-x="1161" 
d="M1095 1365v-132l-859 -1098v-3h877v-132h-1065v135l857 1095v3h-832v132h1022zM661 1660v-135h-161v135h161z" />
    <glyph glyph-name="zdot" unicode="&#x17c;" horiz-adv-x="826" 
d="M92 956h689v-136l-570 -704h570v-116h-737v133l572 707h-524v116zM521 1256v-135h-161v135h161z" />
    <glyph glyph-name="Zcaron" unicode="&#x17d;" horiz-adv-x="1161" 
d="M1095 1365v-132l-859 -1098v-3h877v-132h-1065v135l857 1095v3h-832v132h1022zM584 1476l-321 182l38 77l283 -124l271 124l42 -77z" />
    <glyph glyph-name="zcaron" unicode="&#x17e;" horiz-adv-x="826" 
d="M92 956h689v-136l-570 -704h570v-116h-737v133l572 707h-524v116zM440 1073l-263 209l57 71l206 -152l206 152l56 -71z" />
    <glyph glyph-name="florin" unicode="&#x192;" horiz-adv-x="1256" 
d="M752 908l-159.003 -899.999c-10 -56.667 -21.667 -103.334 -35 -140.001c-20.667 -60 -60.667 -99.667 -120 -119c-52.667 -16.667 -114 -25 -184 -25c-30 0 -66 2.33301 -108 7l21 118c44 -4 80.333 -6 109 -6c67.333 0 112.333 16 135 48
c14.667 20.667 26.334 55.667 35.001 105l161 912h-188l21 116h187l37 210c16.667 93.333 39.334 159 68.001 197c43.333 58 134 87 272 87c22 0 57.667 -1.33301 107 -4l-21 -118c-46 2 -81.333 3 -106 3c-70 0 -116.333 -15.667 -139 -47
c-13.333 -19.333 -24.666 -54.333 -33.999 -105l-39 -223h253l-21 -116h-252z" />
    <glyph glyph-name="uni01CD" unicode="&#x1cd;" horiz-adv-x="1246" 
d="M969 289h-691l-105 -289h-163l500 1365h216l510 -1365h-161zM924 412l-303 828l-299 -828h602zM627 1476l-321 182l38 77l283 -124l270 124l43 -77z" />
    <glyph glyph-name="uni01CE" unicode="&#x1ce;" horiz-adv-x="1043" 
d="M269 688h-139.001c1.33301 86 13.333 147.333 36 184c25.333 40 71.333 67.333 138 82c50 10.667 118.333 16 205 16c119.333 0 206 -12 260 -36c76.667 -34.667 120.334 -101 131.001 -199c4.66699 -42 7 -76.667 7 -104v-631h-139l11 103l-3 1
c-22.667 -33.333 -48.667 -58 -78 -74c-53.333 -29.333 -135.333 -44 -246 -44c-76 0 -136.333 5.66699 -181 17s-82 30.333 -112 57c-46.667 42 -70 113.333 -70 214c0 57.333 7.83301 108.5 23.5 153.5s37.167 77.167 64.5 96.5c52.667 38.667 145.667 58 279 58
c104 0 184.667 -11.333 242 -34c28 -11.333 50.333 -33 67 -65l3 1v116c0 84.667 -8.66699 147 -26 187c-14 31.333 -43.667 52.333 -89 63c-34 8 -78.333 12 -133 12c-108 0 -178.667 -12.333 -212 -37c-26.667 -19.333 -40 -54 -40 -104c0 -8 0.333008 -19 1 -33z
M499.999 470c-119.333 0 -196 -14.333 -230 -43c-23.333 -20 -35 -65 -35 -135c0 -77.333 15.667 -127.333 47 -150c34 -24.667 99.667 -37 197 -37c126.667 0 212 18.333 256 55c26.667 22.667 40 63 40 121c0 69.333 -14.667 116.333 -44 141c-38 32 -115 48 -231 48z
M507.999 1073l-263 209l57 71l206 -152l206 152l57 -71z" />
    <glyph glyph-name="Ucaron" unicode="&#x1d3;" horiz-adv-x="1342" 
d="M1059 1365l153.001 0.000976562v-956c0 -114.667 -12.333 -197.667 -37 -249c-36.667 -76 -103.334 -127 -200.001 -153c-54 -14 -152 -21 -294 -21c-101.333 0 -175.833 2.33301 -223.5 7s-89.167 13.667 -124.5 27c-79.333 29.333 -134 75.333 -164 138
c-25.333 53.333 -38 137 -38 251v956h153v-956c0 -101.333 9.66699 -168 29 -200c24 -40.667 69.667 -67.334 137 -80.001c38 -7.33301 106 -11 204 -11c146.667 0 245.667 8.66699 297 26c48.667 16.667 80.667 55.667 96 117c8 32.667 12 82 12 148v956zM675.001 1476
l-321 182l38 77l283 -124l271 124l42 -77z" />
    <glyph glyph-name="Gcaron" unicode="&#x1e6;" horiz-adv-x="1267" 
d="M617 679h584.997c2.66699 -36 4 -77.333 4 -124c0 -106.667 -1.33301 -183 -4 -229c-4.66699 -81.333 -21.5 -146.666 -50.5 -195.999s-71.833 -85.333 -128.5 -108c-60 -24 -185.333 -36 -376 -36c-133.333 0 -231.833 7.16699 -295.5 21.5
s-117.167 41.166 -160.5 80.499c-66.667 60.667 -103.667 152.334 -111 275.001c-3.33301 49.333 -4.66602 112.333 -3.99902 189c0 12 -0.333008 61.667 -1 149v55c0 102.667 3 180.667 9 234c20 186.667 86.667 303.334 200 350.001c49.333 20 113 32 191 36
c46.667 2 108.667 3 186 3c110.667 0 188.5 -1.83301 233.5 -5.5s84.167 -11.167 117.5 -22.5c115.333 -38.667 178 -123.334 188 -254.001c1.33301 -24 2 -66.667 2 -128h-151c-0.666992 60 -2.66699 102.167 -6 126.5s-10.666 47.833 -21.999 70.5
c-20 40 -69 64.333 -147 73c-50 5.33301 -138.333 8 -265 8c-112.667 0 -195 -7.66699 -247 -23c-61.333 -18.667 -101 -69.334 -119 -152.001c-9.33301 -42 -15 -170 -17 -384c0.666992 -168.667 2 -267.667 4 -297c3.33301 -75.333 15.833 -132.5 37.5 -171.5
s55.167 -64.833 100.5 -77.5c56.667 -16 167.334 -24 332.001 -24c92 0 161.333 5.16699 208 15.5s79.667 27.5 99 51.5c29.333 37.333 44 129 44 275c0 19.333 -0.666992 48.333 -2 87h-434v132zM664.997 1476l-321 182l38 77l283 -124l271 124l42 -77z" />
    <glyph glyph-name="gcaron" unicode="&#x1e7;" horiz-adv-x="1044" 
d="M922 956l0.00292969 -1018c0 -107.333 -15.333 -185 -46 -233c-28.667 -45.333 -72.334 -78.5 -131.001 -99.5s-136.334 -31.5 -233.001 -31.5c-104.667 0 -184 10.333 -238 31c-76 30 -121 88.667 -135 176c-3.33301 24 -5.33301 59.333 -6 106h135
c1.33301 -69.333 10.666 -116 27.999 -140c18.667 -24.667 53.667 -40.667 105 -48c28 -4 68.667 -6 122 -6c73.333 0 129 8 167 24c49.333 21.333 78.333 64 87 128c4 28.667 6 55.667 6 81v192l-3 1c-11.333 -27.333 -23.5 -47.833 -36.5 -61.5
s-32.167 -25.834 -57.5 -36.501c-54 -23.333 -124.667 -35 -212 -35c-126.667 0 -219.667 28.667 -279 86c-46.667 45.333 -75 102.333 -85 171c-9.33301 62.667 -14 134.334 -14 215.001c0 152 10.333 256.667 31 314c30.667 85.333 86 142.333 166 171
c50 18 115 27 195 27c90 0 161.333 -15.667 214 -47c34.667 -21.333 63 -53.666 85 -96.999l3 1l-7 129h139zM505.003 850.999c-102.667 0 -171.667 -20 -207 -60c-28 -31.333 -44.667 -79 -50 -143c-4 -48 -6 -99.333 -6 -154c0 -124.667 7 -211.667 21 -261
c11.333 -40 29 -68.667 53 -86c37.333 -28 101.333 -42 192 -42c107.333 0 179.333 24.667 216 74c24.667 33.333 40 78.333 46 135c6 56 9 117.333 9 184c0 98.667 -5.66699 168.667 -17 210c-18 64 -54 105.333 -108 124c-37.333 12.667 -87 19 -149 19zM523.003 1073
l-263 209l57 71l206 -152l206 152l56 -71z" />
    <glyph glyph-name="circumflex" unicode="&#x2c6;" 
d="M512 1353l262 -209l-56 -71l-206 152l-206 -152l-57 71z" />
    <glyph glyph-name="caron" unicode="&#x2c7;" 
d="M512 1073l-263 209l57 71l206 -152l206 152l56 -71z" />
    <glyph glyph-name="macron" unicode="&#x2c9;" 
d="M261 1246h503v-114h-503v114z" />
    <glyph glyph-name="breve" unicode="&#x2d8;" 
d="M247 1328l96.999 0.00195312c7.33301 -35.333 21.333 -64.333 42 -87c34.667 -39.333 76.667 -59 126 -59c50 0 92.333 19.667 127 59c20 22.667 33.667 51.667 41 87h98c-9.33301 -58.667 -28 -106.334 -56 -143.001c-29.333 -38.667 -66.666 -67.334 -111.999 -86.001
c-32 -14 -64.667 -21 -98 -21c-52.667 0 -101.667 16 -147 48c-64 44.667 -103.333 112 -118 202z" />
    <glyph glyph-name="dotaccent" unicode="&#x2d9;" 
d="M593 1256v-135h-161v135h161z" />
    <glyph glyph-name="ring" unicode="&#x2da;" 
d="M515 1365c44.667 0 82.667 -17.333 114 -52c26.667 -30 40 -65 40 -105c0 -46.667 -17.333 -85.667 -52 -117c-30 -26.667 -65 -40 -105 -40c-46.667 0 -85.667 17.333 -117 52c-26.667 30 -40 65.333 -40 106c0 45.333 17.333 84 52 116c29.333 26.667 65.333 40 108 40
zM511 1297c-25.333 0 -47.001 -9.66602 -65.001 -28.999c-15.333 -17.333 -23 -37.333 -23 -60c0 -26.667 9.66699 -48.667 29 -66c17.333 -15.333 37.333 -23 60 -23c26.667 0 48.667 9.66699 66 29c15.333 17.333 23 37.666 23 60.999c0 25.333 -9.66699 47 -29 65
c-17.333 15.333 -37.666 23 -60.999 23z" />
    <glyph glyph-name="ogonek" unicode="&#x2db;" 
d="M671 0h103.999c-98 -59.333 -147 -114.333 -147 -165c0 -30.667 13 -55.667 39 -75c18 -13.333 44 -20 78 -20c25.333 0 50 5 74 15v-90c-34 -11.333 -65 -17 -93 -17c-32.667 0 -62 4.66699 -88 14c-29.333 10.667 -53.666 28.667 -72.999 54
c-21.333 28 -32 59.667 -32 95c0 73.333 46 136.333 138 189z" />
    <glyph glyph-name="tilde" unicode="&#x2dc;" 
d="M708 1276l80 -50.001c-47.333 -84 -100 -126 -158 -126c-31.333 0 -73.666 13 -126.999 39c-52 24.667 -88 37 -108 37c-20.667 0 -37.334 -7.66699 -50.001 -23c-8 -9.33301 -18 -25.666 -30 -48.999l-80 51c19.333 32.667 36 56.667 50 72
c31.333 34.667 68.666 52 111.999 52c28 0 69.667 -12.667 125 -38c58 -26.667 94.333 -40 109 -40c26.667 0 52.334 25 77.001 75z" />
    <glyph glyph-name="hungarumlaut" unicode="&#x2dd;" 
d="M524 1349l76 -84l-255 -196l-52 64zM792 1349l76 -84l-255 -196l-52 64z" />
    <glyph glyph-name="semicolon" unicode="&#x37e;" horiz-adv-x="373" 
d="M250 185v-199c0 -64.667 -7.33301 -109 -22 -133c-22.667 -36 -62 -54 -118 -54c-10.667 0 -24.667 0.666992 -42 2v76c31.333 2 53.333 7.66699 66 17c16 12.667 24 35 24 67c0 8.66699 -0.666992 21.667 -2 39h-68v185h162zM240 956v-186h-162v186h162z" />
    <glyph glyph-name="anoteleia" unicode="&#x387;" horiz-adv-x="408" 
d="M285 568v-186h-162v186h162z" />
    <glyph glyph-name="phi" unicode="&#x3c6;" horiz-adv-x="1141" 
d="M508 1007l0.000976562 368h125v-368c87.333 -5.33301 163.666 -27.666 228.999 -66.999c68 -40.667 121.667 -98.334 161 -173.001c44 -84 66 -177.333 66 -280c0 -137.333 -36.667 -253.333 -110 -348c-81.333 -105.333 -196.666 -162.333 -345.999 -171v-340h-125v340
c-87.333 5.33301 -163.666 27.666 -228.999 66.999c-68.667 40.667 -122.334 98.334 -161.001 173.001c-44 83.333 -66 176.333 -66 279c0 138 36.667 254.333 110 349c81.333 104.667 196.666 161.667 345.999 171zM508.001 907
c-66 -4.66699 -123.668 -25.3311 -173.001 -61.998c-48 -36 -85 -85.667 -111 -149c-26 -62.667 -39 -132.334 -39 -209.001c0 -106.667 24 -197.334 72 -272.001c58.667 -90.667 142.334 -139.667 251.001 -147v839zM633 907.003v-839.001
c66.667 4.66699 124.334 25.334 173.001 62.001c48 36 85 85.667 111 149c26 62.667 39 132 39 208c0 107.333 -24 198.333 -72 273c-58.667 90 -142.334 139 -251.001 147z" />
    <glyph glyph-name="Wdieresis" unicode="&#x1e84;" horiz-adv-x="2045" 
d="M2041 1365l-430 -1365h-234l-287 983l-71 246h-3l-17 -62l-18 -62l-37 -124l-292 -981h-230l-419 1365h158l294 -981l79 -266h3l19 67l19 66l39 132l290 982h228l288 -983l39 -131l18 -67l19 -66h3l20 67l20 67l41 134l300 979h161zM921 1660v-135h-161v135h161z
M1284 1660v-135h-161v135h161z" />
    <glyph glyph-name="enspace" unicode="&#x2002;" 
 />
    <glyph glyph-name="emspace" unicode="&#x2003;" horiz-adv-x="2048" 
 />
    <glyph glyph-name="hairspace" unicode="&#x200a;" horiz-adv-x="256" 
 />
    <glyph glyph-name="hyphen" unicode="&#x2010;" horiz-adv-x="425" 
d="M3 565h422v-133h-425z" />
    </font>
</defs>
</svg>
