<svg xmlns="http://www.w3.org/2000/svg" width="90" height="89" viewBox="0 0 90 89">
    <g fill="none" fill-rule="evenodd">
        <g stroke="#CD2727" stroke-width="2">
            <path d="M71.18 70.38c-.488.488-.986.96-1.494 1.414"/>
            <path stroke-dasharray="0.921,0" d="M66.739 74.17c-.171.124-.343.247-.516.367"/>
            <path stroke-dasharray="5.527,5.527,0.921,0" d="M66.223 74.537c-13.808 9.644-32.792 8.688-45.668-2.845"/>
            <path d="M20.552 71.69c-.51-.456-1.01-.929-1.5-1.419M71.18 70.38c14.366-14.366 14.317-37.709-.11-52.136s-37.77-14.476-52.136-.11c-14.366 14.367-14.317 37.71.11 52.137"/>
        </g>
        <g stroke="#000" opacity=".501">
            <path d="M76.21 75.247c-.488.489-.987.964-1.492 1.424"/>
            <path stroke-dasharray="0.9570000000000001,0" d="M71.684 79.194c-.176.133-.352.264-.53.394"/>
            <path stroke-dasharray="5.74,5.74,0.9570000000000001,0" d="M71.155 79.588C54.6 91.742 31.38 90.725 15.842 76.563"/>
            <path d="M15.846 76.568a44.922 44.922 0 0 1-1.497-1.43M76.21 75.247c17.055-17.055 17.006-44.756-.108-61.87C58.987-3.74 31.285-3.789 14.23 13.266c-17.055 17.054-17.005 44.757.11 61.871"/>
        </g>
        <g fill="#6A4AB2" fill-rule="nonzero" stroke="#6A4AB2" stroke-width=".5">
            <path d="M62.747 48.904c-.508 0-.92.41-.92.915v8.126a2.755 2.755 0 0 1-2.758 2.745H33.265a2.755 2.755 0 0 1-2.76-2.745V34.097a2.755 2.755 0 0 1 2.76-2.746h8.165c.508 0 .92-.41.92-.915a.918.918 0 0 0-.92-.915h-8.165c-2.539.003-4.595 2.05-4.598 4.576v23.848c.003 2.526 2.06 4.573 4.598 4.576h25.804c2.538-.003 4.595-2.05 4.598-4.576V49.82a.917.917 0 0 0-.92-.915z"/>
            <path d="M63.375 27.734a4.142 4.142 0 0 0-5.858 0l-16.421 16.42a.92.92 0 0 0-.236.405l-2.16 7.796a.92.92 0 0 0 1.133 1.133l7.796-2.16a.92.92 0 0 0 .405-.236l16.421-16.42a4.146 4.146 0 0 0 0-5.858l-1.08-1.08zM43.102 44.752l13.44-13.439 4.334 4.334-13.44 13.44-4.334-4.335zm-.866 1.737l3.463 3.463-4.79 1.327 1.327-4.79zm20.918-13.12l-.976.977-4.335-4.334.976-.977a2.301 2.301 0 0 1 3.254 0l1.08 1.08c.898.9.898 2.356 0 3.255z"/>
        </g>
    </g>
</svg>
