<svg xmlns="http://www.w3.org/2000/svg" width="16" height="16" viewBox="0 0 16 16">
    <path fill="#C7C7C7" fill-rule="nonzero" d="M12.063 0c.345 0 .624.28.624.625v.625h.813c1.379 0 2.5 1.122 2.5 2.5v3.563a.625.625 0 1 1-1.25 0V3.75c0-.69-.56-1.25-1.25-1.25h-.813v.625a.625.625 0 1 1-1.25 0V2.5H8.595v.625a.625.625 0 1 1-1.25 0V2.5H4.53v.625a.625.625 0 1 1-1.25 0V2.5H2.5c-.69 0-1.25.56-1.25 1.25v9.75c0 .69.56 1.25 1.25 1.25h4.781a.625.625 0 1 1 0 1.25H2.5A2.503 2.503 0 0 1 0 13.5V3.75c0-1.378 1.121-2.5 2.5-2.5h.781V.625a.625.625 0 1 1 1.25 0v.625h2.813V.625a.625.625 0 1 1 1.25 0v.625h2.844V.625c0-.345.28-.625.624-.625zm.156 8.438A3.786 3.786 0 0 1 16 12.217 3.786 3.786 0 0 1 12.219 16a3.786 3.786 0 0 1-3.781-3.781 3.786 3.786 0 0 1 3.78-3.781zm0 1.25a2.534 2.534 0 0 0-2.531 2.53 2.534 2.534 0 0 0 2.53 2.532 2.534 2.534 0 0 0 2.532-2.531 2.534 2.534 0 0 0-2.531-2.531zm0 .624c.345 0 .625.28.625.626v.656h.281a.625.625 0 1 1 0 1.25h-.906a.625.625 0 0 1-.625-.625v-1.281c0-.346.28-.626.625-.626zm-8.313 1.063a.625.625 0 1 1 0 1.25.625.625 0 0 1 0-1.25zm2.719 0a.625.625 0 1 1 0 1.25.625.625 0 0 1 0-1.25zm0-2.719a.625.625 0 1 1 0 1.25.625.625 0 0 1 0-1.25zm-2.719 0a.625.625 0 1 1 0 1.25.625.625 0 0 1 0-1.25zm8.156-2.719a.625.625 0 1 1 0 1.25.625.625 0 0 1 0-1.25zm-2.718 0a.625.625 0 1 1 0 1.25.625.625 0 0 1 0-1.25zm-5.438 0a.625.625 0 1 1 0 1.25.625.625 0 0 1 0-1.25zm2.719 0a.625.625 0 1 1 0 1.25.625.625 0 0 1 0-1.25z"/>
</svg>
