<svg xmlns="http://www.w3.org/2000/svg" width="21" height="20" viewBox="0 0 21 20">
    <path fill="#297DB2" fill-rule="nonzero" d="M9.02.03a5.843 5.843 0 0 1-.049 11.687h-4.06a2.951 2.951 0 0 0-2.946 2.947v3.34h10.61a.982.982 0 1 1 0 1.965H.982A.982.982 0 0 1 0 18.987v-4.323a4.916 4.916 0 0 1 4.625-4.912A5.843 5.843 0 0 1 9.02.031zm7.288 10.705c.542 0 .982.44.982.982v1.965h1.965a.982.982 0 1 1 0 1.965H17.29v1.965a.982.982 0 1 1-1.965 0v-1.965H13.36a.982.982 0 1 1 0-1.965h1.965v-1.965c0-.542.44-.982.983-.982zM8.97 2.05a3.855 3.855 0 0 0-.196 7.701h.306a3.855 3.855 0 0 0-.11-7.701z"/>
</svg>
