<svg xmlns="http://www.w3.org/2000/svg" width="90" height="89" viewBox="0 0 90 89">
    <g fill="none" fill-rule="evenodd">
        <g stroke="#CD2727" stroke-width="2">
            <path d="M71.18 70.38c-.488.488-.986.96-1.494 1.414"/>
            <path stroke-dasharray="0.921,0" d="M66.739 74.17c-.171.124-.343.247-.516.367"/>
            <path stroke-dasharray="5.527,5.527,0.921,0" d="M66.223 74.537c-13.808 9.644-32.792 8.688-45.668-2.845"/>
            <path d="M20.552 71.69c-.51-.456-1.01-.929-1.5-1.419M71.18 70.38c14.366-14.366 14.317-37.709-.11-52.136s-37.77-14.476-52.136-.11c-14.366 14.367-14.317 37.71.11 52.137"/>
        </g>
        <g stroke="#000" opacity=".501">
            <path d="M76.21 75.247c-.488.489-.987.964-1.492 1.424"/>
            <path stroke-dasharray="0.9570000000000001,0" d="M71.684 79.194c-.176.133-.352.264-.53.394"/>
            <path stroke-dasharray="5.74,5.74,0.9570000000000001,0" d="M71.155 79.588C54.6 91.742 31.38 90.725 15.842 76.563"/>
            <path d="M15.846 76.568a44.922 44.922 0 0 1-1.497-1.43M76.21 75.247c17.055-17.055 17.006-44.756-.108-61.87C58.987-3.74 31.285-3.789 14.23 13.266c-17.055 17.054-17.005 44.757.11 61.871"/>
        </g>
        <g fill="#FC7C7C" fill-rule="nonzero" stroke="#FC7C7C" stroke-width=".3">
            <path d="M55.675 26h-26.35C28.041 26 27 27.03 27 28.3v18.4c0 1.27 1.04 2.3 2.325 2.3H39.4v-1.533H29.325a.77.77 0 0 1-.775-.767V28.3a.77.77 0 0 1 .775-.767h26.35a.77.77 0 0 1 .775.767v13.8H58V28.3c0-1.27-1.04-2.3-2.325-2.3z"/>
            <path d="M36 48h2v5h-2zM32.4 44.4a.8.8 0 0 1-.8-.8V42H30v1.6a2.4 2.4 0 0 0 2.4 2.4H34v-1.6h-1.6zM30 39h2v2h-2zM55.511 42.49a8.5 8.5 0 1 0-12.022 12.02A8.5 8.5 0 0 0 55.51 42.49zm-6.015 12.946a6.935 6.935 0 0 1 .004-13.87 6.885 6.885 0 0 1 4.905 2.033 6.936 6.936 0 0 1-4.91 11.837zM63.762 59.34l-5.105-5.102a.813.813 0 0 0-1.15 0l-2.269 2.269a.813.813 0 0 0 0 1.15l5.105 5.105a.813.813 0 0 0 1.15-.002l2.269-2.27a.813.813 0 0 0 0-1.15zm-2.844 1.697l-3.955-3.955 1.119-1.12 3.955 3.956-1.12 1.12z"/>
            <path d="M54.082 54.171l1.09-1.09 2.688 2.688-1.09 1.09zM50 43v1.429A3.576 3.576 0 0 1 53.571 48H55a5.006 5.006 0 0 0-5-5zM35 52h6v2h-6zM38.5 29a2.5 2.5 0 1 0 0 5 2.5 2.5 0 0 0 0-5zm0 3.333a.833.833 0 1 1 0-1.666.833.833 0 0 1 0 1.666zM43.5 34a2.5 2.5 0 1 0 0 5 2.5 2.5 0 0 0 0-5zm0 3.333a.833.833 0 1 1 0-1.666.833.833 0 0 1 0 1.666z"/>
            <path d="M33.392 35.476l3.855-3.854 1.09 1.09-3.854 3.854zM38.785 32.714l1.09-1.09 3.854 3.854-1.09 1.09zM49.5 29a2.5 2.5 0 1 0 0 5 2.5 2.5 0 0 0 0-5zm0 3.333a.833.833 0 1 1 0-1.666.833.833 0 0 1 0 1.666z"/>
            <path d="M44.184 35.479l3.854-3.854 1.09 1.09-3.854 3.854z"/>
        </g>
    </g>
</svg>
