<svg xmlns="http://www.w3.org/2000/svg" width="37" height="37" viewBox="0 0 37 37">
    <g fill="none" fill-rule="evenodd" transform="translate(1 1)">
        <circle cx="17.5" cy="17.5" r="17.5" fill="#D8D8D8" stroke="#979797"/>
        <path fill="#000" fill-rule="nonzero" d="M22.803 19.697a7.471 7.471 0 0 0-2.85-1.788A4.334 4.334 0 0 0 17.5 10a4.334 4.334 0 1 0-2.453 7.909 7.471 7.471 0 0 0-2.85 1.788A7.451 7.451 0 0 0 10 25h1.172a6.335 6.335 0 0 1 6.328-6.328A6.335 6.335 0 0 1 23.828 25H25c0-2.003-.78-3.887-2.197-5.303zM17.5 17.5a3.168 3.168 0 0 1-3.164-3.164 3.168 3.168 0 0 1 3.164-3.164 3.168 3.168 0 0 1 3.164 3.164A3.168 3.168 0 0 1 17.5 17.5z"/>
    </g>
</svg>
