<svg xmlns="http://www.w3.org/2000/svg" width="15" height="15" viewBox="0 0 15 15">
    <path fill="#6B6B6B" fill-rule="nonzero" d="M10.032 8.035a.166.166 0 0 1 .18-.015l2.634 1.408c.17.09.306.24.384.42l1.697 3.927a.89.89 0 0 1-.065.828.84.84 0 0 1-.71.397H.848a.84.84 0 0 1-.711-.396.89.89 0 0 1-.065-.83L1.77 9.849a.865.865 0 0 1 .384-.42L4.787 8.02a.166.166 0 0 1 .18.015A4.1 4.1 0 0 0 7.5 8.92a4.1 4.1 0 0 0 2.532-.885zM7.5 0C9.433 0 11 .937 11 4c0 2.21-1.567 4-3.5 4S4 6.21 4 4C4 .937 5.567 0 7.5 0z"/>
</svg>
