<svg xmlns="http://www.w3.org/2000/svg" width="15" height="13" viewBox="0 0 15 13">
    <path fill="#6B6B6B" fill-rule="nonzero" d="M15 4.5v6.658c0 .37-.131.685-.393.948a1.288 1.288 0 0 1-.946.394H1.339c-.368 0-.683-.131-.946-.394A1.293 1.293 0 0 1 0 11.158V4.5c.246.274.527.517.846.73 2.02 1.375 3.406 2.34 4.16 2.893.318.234.576.418.774.549.198.131.462.265.79.402.33.137.637.206.922.206h.017c.284 0 .591-.069.92-.206.33-.137.593-.27.791-.402.198-.131.456-.315.774-.55.949-.687 2.339-1.651 4.169-2.892.318-.218.597-.462.837-.73zm-1.34-4c.363 0 .677.14.942.42.265.28.398.616.398 1.009 0 .47-.137.92-.41 1.348a4.123 4.123 0 0 1-1.021 1.098A7412.002 7412.002 0 0 0 9.65 7.277c-.055.042-.174.132-.355.272-.182.14-.332.253-.452.34-.12.086-.266.183-.436.29-.17.107-.33.187-.481.24-.15.054-.29.081-.419.081h-.016c-.129 0-.268-.027-.419-.08a2.456 2.456 0 0 1-.481-.241 8.619 8.619 0 0 1-.436-.29c-.12-.087-.27-.2-.452-.34-.18-.14-.3-.23-.355-.272-.508-.381-1.24-.924-2.193-1.63C2.2 4.943 1.629 4.519 1.44 4.376c-.346-.25-.673-.594-.98-1.031C.154 2.906 0 2.5 0 2.125c0-.464.116-.851.347-1.16C.58.654.91.5 1.34.5z"/>
</svg>
