<svg xmlns="http://www.w3.org/2000/svg" width="42" height="42" viewBox="0 0 42 42">
    <g fill="none" fill-rule="nonzero">
        <path fill="#FFD100" d="M42 21c0 1.82-1.571 3.408-2.02 5.087-.464 1.736.089 3.895-.79 5.415-.893 1.542-3.047 2.138-4.299 3.39-1.251 1.25-1.847 3.405-3.39 4.297-1.52.88-3.678.327-5.414.791C24.408 40.43 22.82 42 21 42c-1.82 0-3.408-1.571-5.087-2.02-1.736-.464-3.895.089-5.415-.79-1.542-.893-2.138-3.047-3.39-4.299-1.25-1.251-3.405-1.847-4.297-3.39-.88-1.52-.327-3.678-.791-5.414C1.57 24.408 0 22.82 0 21c0-1.82 1.571-3.408 2.02-5.087.464-1.736-.089-3.895.79-5.415.893-1.542 3.047-2.138 4.299-3.39 1.251-1.25 1.847-3.405 3.39-4.297 1.52-.88 3.678-.327 5.414-.791C17.592 1.57 19.18 0 21 0c1.82 0 3.408 1.571 5.087 2.02 1.736.464 3.895-.089 5.415.79 1.542.893 2.138 3.047 3.39 4.299 1.25 1.251 3.405 1.847 4.297 3.39.88 1.52.327 3.678.791 5.414C40.43 17.592 42 19.18 42 21z"/>
        <path fill="#FF9500" d="M7.076 7.27c-1.246 1.245-3.39 1.838-4.278 3.373-.876 1.513-.326 3.662-.788 5.39C1.564 17.703 0 19.285 0 21.097c0 1.81 1.564 3.392 2.01 5.063.462 1.728-.088 3.877.788 5.39.888 1.535 3.032 2.128 4.278 3.374 1.246 1.245 1.839 3.39 3.374 4.278 1.513.876 3.662.326 5.39.788 1.67.446 3.252 2.01 5.063 2.01 1.812 0 3.393-1.564 5.064-2.01 1.728-.462 3.877.088 5.39-.788 1.535-.888 2.128-3.032 3.374-4.278L7.076 7.269z"/>
        <circle cx="20.596" cy="20.596" r="14.942" fill="#FFF"/>
        <path fill="#FFD100" d="M21.129 35.538c4.05 0 7.717-1.641 10.371-4.295L10.757 10.5a14.622 14.622 0 0 0-4.295 10.371c0 8.1 6.566 14.667 14.667 14.667z"/>
        <circle cx="21" cy="21" r="12.923" fill="#FF4F19"/>
        <path fill="#E7001E" d="M11.819 12.115a12.735 12.735 0 0 0-3.742 9.033c0 7.056 5.72 12.775 12.775 12.775 3.527 0 6.72-1.43 9.033-3.742L11.819 12.115z"/>
        <path fill="#FFF" d="M14.77 28.27a1.038 1.038 0 0 1-.734-1.773l12.46-12.462a1.038 1.038 0 1 1 1.469 1.468L15.503 27.965a1.035 1.035 0 0 1-.734.304zM16.558 20.192a3.639 3.639 0 0 1-3.635-3.634 3.639 3.639 0 0 1 3.635-3.635 3.639 3.639 0 0 1 3.634 3.635 3.639 3.639 0 0 1-3.634 3.634zm0-5.286c-.912 0-1.652.74-1.652 1.652 0 .91.74 1.652 1.652 1.652.91 0 1.652-.741 1.652-1.652 0-.911-.741-1.652-1.652-1.652zM25.442 29.077a3.639 3.639 0 0 1-3.634-3.635 3.639 3.639 0 0 1 3.634-3.634 3.639 3.639 0 0 1 3.635 3.634 3.639 3.639 0 0 1-3.635 3.635zm0-5.287c-.91 0-1.652.741-1.652 1.652 0 .911.741 1.652 1.652 1.652.912 0 1.652-.74 1.652-1.652 0-.91-.74-1.652-1.652-1.652z"/>
    </g>
</svg>
