<svg xmlns="http://www.w3.org/2000/svg" width="19" height="19" viewBox="0 0 19 19">
    <path fill="#000" fill-rule="nonzero" d="M17.79 7.19l-1.036 1.036-2.883-2.884 1.035-1.035c.326-.326.816-.367 1.093-.09l1.88 1.88c.277.277.237.767-.09 1.094zm-4.4-1.367l2.884 2.883-6.877 6.877c-.031.031-.119.119-.242.15a.33.33 0 0 1-.043.018l-3.589 1.143a.26.26 0 0 1-.267-.054.261.261 0 0 1-.054-.267l1.144-3.588a.393.393 0 0 1 .017-.043.545.545 0 0 1 .15-.243l1.293-1.292H3.44a.319.319 0 0 1 0-.637h5.002l4.947-4.947zM8.51 15.36l-1.775-1.775-.476 1.495.756.757 1.495-.477zm4.77-8.392a.261.261 0 0 0-.37 0l-5.361 5.36a.262.262 0 0 0 .37.37l5.36-5.36a.262.262 0 0 0 0-.37zm-.325 10.205a.348.348 0 0 1-.347.348H6.282l-.571.182a1.155 1.155 0 0 1-.35.055c-.252 0-.486-.086-.677-.237H1.4a.348.348 0 0 1-.348-.348V2.578c0-.192.156-.348.348-.348h1.303v.55a.348.348 0 0 0 .696 0v-.55h1.998v.55a.347.347 0 0 0 .695 0v-.55H7.83v.55a.348.348 0 0 0 .695 0v-.55h1.911v.55a.347.347 0 1 0 .696 0v-.55h1.477c.19 0 .347.156.347.348v2.407l.364-.364.679-.679V2.578c0-.767-.624-1.39-1.39-1.39h-1.477v-.84a.348.348 0 0 0-.696 0v.84H8.524v-.84a.348.348 0 1 0-.695 0v.84H6.092v-.84a.348.348 0 1 0-.696 0v.84H3.398v-.84a.348.348 0 1 0-.695 0v.84H1.4c-.767 0-1.39.623-1.39 1.39v14.596c0 .767.623 1.39 1.39 1.39h11.208c.766 0 1.39-.623 1.39-1.39v-5.06l-1.043 1.042v4.018zM10.241 5.351h-6.8a.319.319 0 1 0 0 .638h6.8a.319.319 0 1 0 0-.638zm0 2.57h-6.8a.319.319 0 0 0 0 .638h6.8a.319.319 0 1 0 0-.638z" opacity=".7"/>
</svg>
