<svg xmlns="http://www.w3.org/2000/svg" width="61" height="60" viewBox="0 0 61 60">
    <path fill="#E9D397" fill-rule="nonzero" d="M52.138 8.779C40.425-2.926 21.368-2.926 9.656 8.776-2.058 20.478-2.056 39.52 9.657 51.224c11.71 11.702 30.768 11.702 42.48-.002 11.712-11.702 11.712-30.743.001-42.443zm-2.22 40.227c-10.488 10.479-27.554 10.48-38.043 0-10.49-10.48-10.489-27.533 0-38.013C22.363.515 39.428.513 49.92 10.995c10.488 10.479 10.486 27.532-.001 38.01zM19.692 21.877a3.51 3.51 0 0 1 3.51-3.508 3.51 3.51 0 1 1-3.51 3.508zm15.92 0a3.511 3.511 0 0 1 7.022 0 3.51 3.51 0 1 1-7.023 0zm-18.61 17.526H44.79a1.791 1.791 0 1 1 0 3.582H17.003a1.791 1.791 0 1 1 0-3.582z"/>
</svg>
