<svg xmlns="http://www.w3.org/2000/svg" width="61" height="60" viewBox="0 0 61 60">
    <path fill="#AAD9A5" fill-rule="nonzero" d="M51.267 8.779C39.553-2.926 20.496-2.926 8.785 8.776c-11.714 11.702-11.713 30.744 0 42.448 11.71 11.702 30.768 11.702 42.48-.002 11.713-11.702 11.712-30.743.002-42.443zm-2.22 40.227c-10.489 10.479-27.554 10.48-38.043 0-10.49-10.48-10.49-27.533 0-38.013C21.492.515 38.557.513 49.047 10.995c10.488 10.479 10.487 27.532 0 38.01zM18.82 21.877a3.51 3.51 0 0 1 3.511-3.508 3.51 3.51 0 1 1-3.51 3.508zm15.92 0a3.511 3.511 0 0 1 7.023 0 3.51 3.51 0 1 1-7.023 0zm8.3 14.368c-2.175 5.027-7.271 8.275-12.98 8.275-5.833 0-10.959-3.264-13.06-8.317a1.696 1.696 0 0 1 1.569-2.348c.666 0 1.298.393 1.569 1.047 1.572 3.782 5.467 6.225 9.921 6.225 4.354 0 8.226-2.445 9.863-6.23a1.698 1.698 0 0 1 3.118 1.348z"/>
</svg>
