<svg xmlns="http://www.w3.org/2000/svg" width="61" height="60" viewBox="0 0 61 60">
    <path fill="#D79595" fill-rule="nonzero" d="M52.217 8.779C40.504-2.926 21.446-2.926 9.735 8.776c-11.714 11.702-11.713 30.744 0 42.448 11.71 11.702 30.769 11.702 42.48-.002 11.713-11.702 11.713-30.743.002-42.443zm-2.22 40.227c-10.489 10.479-27.554 10.48-38.043 0-10.49-10.48-10.489-27.533 0-38.013C22.442.515 39.507.513 49.998 10.995c10.487 10.479 10.486 27.532-.002 38.01zM19.77 21.877a3.51 3.51 0 0 1 3.51-3.508 3.51 3.51 0 1 1-3.51 3.508zm15.92 0a3.511 3.511 0 0 1 7.022 0 3.51 3.51 0 1 1-7.023 0zm8.3 20.254c-2.176-5.028-7.272-8.276-12.981-8.276-5.833 0-10.959 3.265-13.06 8.318a1.696 1.696 0 0 0 1.57 2.347c.665 0 1.297-.393 1.568-1.046 1.572-3.782 5.467-6.225 9.922-6.225 4.354 0 8.225 2.444 9.863 6.229a1.698 1.698 0 0 0 3.118-1.347z"/>
</svg>
