<svg xmlns="http://www.w3.org/2000/svg" width="90" height="89" viewBox="0 0 90 89">
    <defs>
        <linearGradient id="a" x1="73.569%" x2="12.776%" y1="0%" y2="100%">
            <stop offset="0%" stop-color="#58C2FF"/>
            <stop offset="100%" stop-color="#376C99"/>
        </linearGradient>
    </defs>
    <g fill="none" fill-rule="evenodd">
        <g stroke="#CD2727" stroke-width="2">
            <path d="M71.18 70.38c-.488.488-.986.96-1.494 1.414"/>
            <path stroke-dasharray="0.921,0" d="M66.739 74.17c-.171.124-.343.247-.516.367"/>
            <path stroke-dasharray="5.527,5.527,0.921,0" d="M66.223 74.537c-13.808 9.644-32.792 8.688-45.668-2.845"/>
            <path d="M20.552 71.69c-.51-.456-1.01-.929-1.5-1.419M71.18 70.38c14.366-14.366 14.317-37.709-.11-52.136s-37.77-14.476-52.136-.11c-14.366 14.367-14.317 37.71.11 52.137"/>
        </g>
        <g stroke="#000" opacity=".501">
            <path d="M76.21 75.247c-.488.489-.987.964-1.492 1.424"/>
            <path stroke-dasharray="0.9570000000000001,0" d="M71.684 79.194c-.176.133-.352.264-.53.394"/>
            <path stroke-dasharray="5.74,5.74,0.9570000000000001,0" d="M71.155 79.588C54.6 91.742 31.38 90.725 15.842 76.563"/>
            <path d="M15.846 76.568a44.922 44.922 0 0 1-1.497-1.43M76.21 75.247c17.055-17.055 17.006-44.756-.108-61.87C58.987-3.74 31.285-3.789 14.23 13.266c-17.055 17.054-17.005 44.757.11 61.871"/>
        </g>
        <path fill="url(#a)" fill-rule="nonzero" d="M26.352 0c.91 0 1.647.732 1.647 1.636V4.07l-2.974 5.545V2.923H2.955v30.144h22.07v-4.48l1.408-1.067c.318-.208.588-.492.78-.822L28 25.345v9.019c0 .903-.738 1.636-1.648 1.636H1.647C.737 36 0 35.268 0 34.364V1.636C0 .733.737 0 1.647 0zM10.547 25c.19.008.425.101.509.284.271.6.004 1.343-.41 2.045.146.03.275.104.368.251.033.055.056.11.08.164.353-.056.706.074.983.535.093.153.125.266.125.35 1.484-.238 2.73.129 4.228.129.76 0 .76 1.143 0 1.143-1.284 0-2.909-.665-4.108-.1-.195.093-.476.275-.712.179-.243-.099-.607-.193-.659-.5a1.66 1.66 0 0 1-.014-.353 3.58 3.58 0 0 1-.25.396c-.357.493-1.341.2-1.078-.44.019-.043.042-.089.064-.135a.01.01 0 0 0-.004-.001l.087-.211a1.306 1.306 0 0 0-.38.359c-.435.586-1.436.051-1.016-.577.293-.396.572-.806.834-1.224a41.097 41.097 0 0 0-3.059 3.467c-.456.574-1.48.006-1.017-.578 1.079-1.36 2.194-2.725 3.46-3.929.506-.48 1.181-1.282 1.969-1.253zm19.5-20.914c.145-.045 1.446-.41 3.503.802 2.057 1.212 2.398 2.545 2.431 2.693a.842.842 0 0 1-.09.592l-10.103 17.86a.807.807 0 0 1-.255.275l-5.28 3.556a.799.799 0 0 1-.85.026.831.831 0 0 1-.402-.764l.379-6.443a.847.847 0 0 1 .107-.365L29.591 4.461a.813.813 0 0 1 .457-.375zM20.52 23.968l-.113 1.932c.323.128.653.291.982.485.327.194.632.403.901.625l1.583-1.067c-.26-.344-.72-.81-1.513-1.278-.793-.466-1.418-.64-1.84-.697zM13.435 19C14.3 19 15 19.672 15 20.5s-.7 1.5-1.565 1.5h-5.87C6.702 22 6 21.329 6 20.5c0-.828.701-1.5 1.566-1.5zm6.88-6c.932 0 1.685.671 1.685 1.5 0 .828-.753 1.5-1.684 1.5H7.685C6.755 16 6 15.328 6 14.5S6.754 13 7.685 13zm0-6C21.246 7 22 7.672 22 8.5c0 .828-.753 1.5-1.685 1.5H7.685C6.755 10 6 9.328 6 8.5S6.754 7 7.685 7z" transform="translate(30 27)"/>
    </g>
</svg>
