<svg xmlns="http://www.w3.org/2000/svg" width="20" height="16" viewBox="0 0 20 16">
    <path fill="#626262" fill-rule="nonzero" d="M.714 11.452h18.558c.193 0 .36.07.502.212a.69.69 0 0 1 .203.39l.009.112v2.855c0 .193-.071.36-.212.502a.691.691 0 0 1-.39.203l-.112.009H.714a.687.687 0 0 1-.502-.212.69.69 0 0 1-.204-.39L0 15.022v-2.855c0-.193.07-.36.212-.502a.69.69 0 0 1 .389-.203l.113-.009h18.558zm17.844 1.428h-7.137v1.427h7.137V12.88zM.714 5.742h18.558c.193 0 .36.07.502.212a.69.69 0 0 1 .203.39l.009.112V9.31c0 .193-.071.36-.212.502a.691.691 0 0 1-.39.203l-.112.009H.714a.687.687 0 0 1-.502-.212.69.69 0 0 1-.204-.39L0 9.312V6.456c0-.193.07-.36.212-.502A.69.69 0 0 1 .6 5.751l.113-.009h18.558zM18.558 7.17H7.138v1.427h11.42V7.17zm.714-7.138c.193 0 .36.07.502.212a.687.687 0 0 1 .212.502V3.6c0 .193-.071.36-.212.502a.686.686 0 0 1-.502.212H.714a.687.687 0 0 1-.502-.212A.686.686 0 0 1 0 3.6V.746C0 .553.07.386.212.244A.687.687 0 0 1 .714.032zm-.714 1.428h-4.283v1.427h4.283V1.46z"/>
</svg>
