<svg xmlns="http://www.w3.org/2000/svg" width="90" height="89" viewBox="0 0 90 89">
    <g fill="none" fill-rule="evenodd">
        <g stroke="#CD2727" stroke-width="2">
            <path d="M71.18 70.38c-.488.488-.986.96-1.494 1.414"/>
            <path stroke-dasharray="0.921,0" d="M66.739 74.17c-.171.124-.343.247-.516.367"/>
            <path stroke-dasharray="5.527,5.527,0.921,0" d="M66.223 74.537c-13.808 9.644-32.792 8.688-45.668-2.845"/>
            <path d="M20.552 71.69c-.51-.456-1.01-.929-1.5-1.419M71.18 70.38c14.366-14.366 14.317-37.709-.11-52.136s-37.77-14.476-52.136-.11c-14.366 14.367-14.317 37.71.11 52.137"/>
        </g>
        <g stroke="#000" opacity=".252">
            <path d="M76.21 75.247c-.488.489-.987.964-1.492 1.424"/>
            <path stroke-dasharray="0.9570000000000001,0" d="M71.684 79.194c-.176.133-.352.264-.53.394"/>
            <path stroke-dasharray="5.74,5.74,0.9570000000000001,0" d="M71.155 79.588C54.6 91.742 31.38 90.725 15.842 76.563"/>
            <path d="M15.846 76.568a44.922 44.922 0 0 1-1.497-1.43M76.21 75.247c17.055-17.055 17.006-44.756-.108-61.87C58.987-3.74 31.285-3.789 14.23 13.266c-17.055 17.054-17.005 44.757.11 61.871"/>
        </g>
        <g fill="#1DC5CF" fill-rule="nonzero" stroke="#00C5D0">
            <path d="M62.37 39.79H48.5a12.173 12.173 0 0 0-3.526-5.697c-2.572-2.332-5.894-3.403-9.355-3.015-5.551.621-9.99 5.158-10.556 10.786-.309 3.073.521 6.11 2.337 8.553a11.956 11.956 0 0 0 7.047 4.573l2.957 2.994a1.282 1.282 0 0 0 1.41.284c.486-.204.8-.68.8-1.211V54.96c.485-.11.959-.25 1.419-.415v.083c0 1.468 1.18 2.663 2.63 2.663h4.418l2.353 2.382a1.087 1.087 0 0 0 1.195.24c.412-.172.678-.575.678-1.025v-1.597h10.062c1.45 0 2.631-1.195 2.631-2.663V42.454c0-1.468-1.18-2.663-2.63-2.663zM38.876 53.819a.632.632 0 0 0-.516.624v2.615c0 .015 0 .028-.026.04-.026.01-.035 0-.046-.01L35.2 53.96a.623.623 0 0 0-.32-.174 10.702 10.702 0 0 1-6.48-4.13c-1.625-2.188-2.367-4.91-2.09-7.664a10.897 10.897 0 0 1 3.055-6.5c1.728-1.766 3.997-2.886 6.391-3.154.417-.046.83-.07 1.241-.07 2.648 0 5.148.962 7.141 2.77a10.942 10.942 0 0 1 3.576 8.095c0 5.267-3.717 9.76-8.837 10.685zm24.87.81c0 .77-.618 1.396-1.378 1.396H51.68a.63.63 0 0 0-.626.634v1.85l-2.271-2.299a.622.622 0 0 0-.443-.185h-4.677c-.76 0-1.377-.626-1.377-1.395v-.619c4.009-1.995 6.68-6.158 6.68-10.876 0-.7-.06-1.394-.178-2.075H62.37c.76 0 1.378.626 1.378 1.395V54.63z"/>
            <path d="M59.821 45.185a.597.597 0 0 0-.864 0l-6.088 6.29-2.826-2.92a.597.597 0 0 0-.864 0 .646.646 0 0 0 0 .893l3.258 3.367a.6.6 0 0 0 .865 0l6.519-6.737a.646.646 0 0 0 0-.893zM36.5 48a.5.5 0 0 0 0 1 .5.5 0 0 0 0-1zM39.813 38.142A4.042 4.042 0 0 0 37 37c-2.206 0-4 1.728-4 3.851a.62.62 0 0 0 .632.608.62.62 0 0 0 .631-.608c0-1.453 1.228-2.635 2.737-2.635.712 0 1.394.28 1.92.786.527.507.817 1.164.817 1.85 0 1.155-.802 2.193-1.95 2.524-.848.245-1.419.977-1.419 1.822v.194A.62.62 0 0 0 37 46a.62.62 0 0 0 .632-.608v-.194c0-.303.208-.568.519-.657C39.828 44.056 41 42.539 41 40.85c0-1.01-.421-1.972-1.187-2.709z"/>
        </g>
    </g>
</svg>
