<svg xmlns="http://www.w3.org/2000/svg" width="28" height="30" viewBox="0 0 28 30">
    <g fill="none" fill-rule="nonzero">
        <path fill="#19481C" d="M7.25 15.5h5v3h-5z"/>
        <path fill="#424A60" d="M.75 0a.5.5 0 0 0-.5.5v29a.5.5 0 1 0 1 0V.5a.5.5 0 0 0-.5-.5z"/>
        <path fill="#73D579" d="M1.25 2h11v14.5h-11z"/>
        <path fill="#4F9F54" d="M12.25 4.5v12h-3a2 2 0 0 0 0 4h18.5l-5.5-8 5.5-8h-15.5z"/>
        <path fill="#36763A" d="M7.25 18.5a2 2 0 0 0 2 2h3v-4h-3a2 2 0 0 0-2 2z"/>
    </g>
</svg>
