<svg xmlns="http://www.w3.org/2000/svg" width="44" height="44" viewBox="0 0 44 44">
    <g fill="none" fill-rule="evenodd" transform="translate(1 1)">
        <circle cx="21" cy="21" r="21" stroke="#EEE"/>
        <g fill-rule="nonzero">
            <path fill="#69B2DE" d="M16.537 21.527l1.026.37-1.14 1.008a1.483 1.483 0 0 1-1.514 2.085 1.483 1.483 0 0 1-1.306-1.638 1.483 1.483 0 0 1 2.165-1.143l.769-.682zm8.968-.398l1.273.858c.283-.192.632-.288.997-.247a1.483 1.483 0 0 1 1.306 1.638 1.484 1.484 0 0 1-1.638 1.306A1.483 1.483 0 0 1 26.2 22.75l-1.517-1.022.82-.6zm1.8-4.127l.143.009a1.483 1.483 0 0 1 1.306 1.638 1.483 1.483 0 0 1-2.2 1.124l-3.39 2.472a1.483 1.483 0 0 1-1.647 1.478 1.484 1.484 0 0 1-1.312-1.385l-4.015-1.443a1.48 1.48 0 0 1-2.513-1.218 1.483 1.483 0 0 1 1.638-1.307 1.483 1.483 0 0 1 1.306 1.639l-.004.024 3.844 1.381a1.482 1.482 0 0 1 2.365-.105l3.09-2.255a1.483 1.483 0 0 1 1.532-2.044zm-5.563 4.726a.526.526 0 1 0-.116 1.046.526.526 0 0 0 .116-1.046zm-.81-4.68l.143.01a1.483 1.483 0 0 1 1.244 1.926l1.5 1.01-.822.599-1.25-.843a1.474 1.474 0 0 1-1.723-.034l-.83.735-1.026-.368 1.312-1.163a1.483 1.483 0 0 1 1.594-1.863zm-5.725 2.272a.526.526 0 1 0-.116 1.047.526.526 0 0 0 .116-1.047zm12.134-1.36a.526.526 0 1 0-.116 1.047.526.526 0 0 0 .116-1.046z"/>
            <path fill="#A3DCFF" d="M11.767 21.039c0-2.436.915-4.662 2.419-6.354l-1.914-2.016A12.253 12.253 0 0 0 9 21.04c0 3.297 1.284 6.396 3.615 8.727a12.248 12.248 0 0 0 7.343 3.538v-2.79c-4.626-.673-8.19-4.665-8.19-9.475z"/>
            <path fill="#2F8EC8" d="M32.82 16.487l-2.474 1.296a9.533 9.533 0 0 1 .57 3.256c0 4.81-3.564 8.802-8.19 9.475v2.79a12.248 12.248 0 0 0 7.343-3.538 12.261 12.261 0 0 0 3.615-8.727 12.33 12.33 0 0 0-.864-4.552z"/>
            <path fill="#37597E" d="M21.342 11.464a9.567 9.567 0 0 1 7.693 3.882l2.48-1.3a12.48 12.48 0 0 0-1.446-1.734 12.261 12.261 0 0 0-8.727-3.615c-2.527 0-4.938.755-6.976 2.158l1.94 2.044a9.517 9.517 0 0 1 5.036-1.435z"/>
        </g>
    </g>
</svg>
