<svg xmlns="http://www.w3.org/2000/svg" width="44" height="44" viewBox="0 0 44 44">
    <g fill="none" fill-rule="evenodd" transform="translate(1 1)">
        <path fill="#FFD612" fill-rule="nonzero" d="M21.526 12.947c3.628 0 6.58 2.916 6.58 6.499 0 2.353-1.096 4.098-2.156 5.785-1.006 1.602-1.957 3.116-1.957 5.092a.56.56 0 0 1-.013.122c.15.111.248.288.248.488 0 .537-3.486.53-3.486.53l.056.001c.473.004 3.782.055 3.782.687 0 .504-2 .64-3.037.676h.136c.97 0 2.549.078 2.549.564 0 .336-.276.609-.617.609h-4.17a.613.613 0 0 1-.617-.61c0-.243.355-.316.355-.55 0-.235-.708-.309-.708-.69 0-.37.66-.483.668-.686.008-.204-.315-.303-.315-.531 0-.2.098-.377.248-.488a.564.564 0 0 1-.013-.122c0-1.964-.949-3.477-1.953-5.079-1.061-1.692-2.159-3.442-2.159-5.798 0-3.583 2.952-6.499 6.58-6.499zm.017 19.879h-.02c-.25.002-.442.008-.532.012l-.056.002s.18 0 .46-.009l.148-.005zm1.965-13.05l-.083.008-1.896.36-1.899-.36a.435.435 0 0 0-.382.112.423.423 0 0 0-.128.373l1.477 9.35a.43.43 0 0 0 .427.36h1.014a.43.43 0 0 0 .427-.36l1.467-9.35a.424.424 0 0 0-.127-.372.436.436 0 0 0-.38-.113zm-.666 1.066l-1.188 8.553h-.247l-1.196-8.548 1.237.263c.048.01.098.01.147 0l1.247-.268zm6.066.658a.83.83 0 0 1 .458.137l1.687 1.116c.362.24.45.713.197 1.055a.818.818 0 0 1-.657.324.83.83 0 0 1-.46-.137l-1.686-1.116a.733.733 0 0 1-.197-1.055.818.818 0 0 1 .658-.324zm-15.42 0c.261 0 .507.121.657.323a.733.733 0 0 1-.197 1.056l-1.687 1.116a.83.83 0 0 1-.46.137.817.817 0 0 1-.656-.324.733.733 0 0 1 .197-1.055l1.686-1.116a.83.83 0 0 1 .46-.137zm17.105-7.237c.261 0 .507.12.657.323a.733.733 0 0 1-.197 1.056l-1.687 1.116a.83.83 0 0 1-.459.137.819.819 0 0 1-.657-.323.733.733 0 0 1 .197-1.056l1.686-1.116a.83.83 0 0 1 .46-.137zm-18.791 0a.83.83 0 0 1 .46.137l1.686 1.116c.362.24.45.713.197 1.055a.818.818 0 0 1-.658.324.829.829 0 0 1-.459-.138l-1.686-1.115a.733.733 0 0 1-.197-1.056.818.818 0 0 1 .657-.323zM21.526 9c.363 0 .658.347.658.773v1.744c0 .426-.295.772-.658.772-.362 0-.658-.346-.658-.772V9.773c0-.426.296-.773.658-.773z"/>
        <circle cx="21" cy="21" r="21" stroke="#EEE"/>
    </g>
</svg>
