<svg xmlns="http://www.w3.org/2000/svg" width="90" height="89" viewBox="0 0 90 89">
    <g fill="none" fill-rule="evenodd">
        <g stroke="#CD2727" stroke-width="2">
            <path d="M71.18 70.38c-.488.488-.986.96-1.494 1.414"/>
            <path stroke-dasharray="0.921,0" d="M66.739 74.17c-.171.124-.343.247-.516.367"/>
            <path stroke-dasharray="5.527,5.527,0.921,0" d="M66.223 74.537c-13.808 9.644-32.792 8.688-45.668-2.845"/>
            <path d="M20.552 71.69c-.51-.456-1.01-.929-1.5-1.419M71.18 70.38c14.366-14.366 14.317-37.709-.11-52.136s-37.77-14.476-52.136-.11c-14.366 14.367-14.317 37.71.11 52.137"/>
        </g>
        <g stroke="#000" opacity=".501">
            <path d="M76.21 75.247c-.488.489-.987.964-1.492 1.424"/>
            <path stroke-dasharray="0.9570000000000001,0" d="M71.684 79.194c-.176.133-.352.264-.53.394"/>
            <path stroke-dasharray="5.74,5.74,0.9570000000000001,0" d="M71.155 79.588C54.6 91.742 31.38 90.725 15.842 76.563"/>
            <path d="M15.846 76.568a44.922 44.922 0 0 1-1.497-1.43M76.21 75.247c17.055-17.055 17.006-44.756-.108-61.87C58.987-3.74 31.285-3.789 14.23 13.266c-17.055 17.054-17.005 44.757.11 61.871"/>
        </g>
        <path fill="#FFAB54" fill-rule="nonzero" d="M32.003 50.37c0 .386.148 2.001 1.227 3.918.914 1.624 2.648 3.522 5.84 3.941v5.42c0 .746.597 1.351 1.335 1.351.737 0 1.335-.605 1.335-1.35v-6.687c0-.746-.598-1.35-1.335-1.35-2.196 0-3.815-.871-4.812-2.588-.735-1.267-.922-2.337-.922-2.808V39.134c0-.24 0-.878 1.097-.878s1.097.638 1.097.878v4.653c0 .368.149.72.412.976.264.254.618.39.982.373.003-.001.781.003 1.764.565 1.51.862 2.727 2.592 3.522 5.003.234.708.99 1.09 1.69.855.7-.236 1.078-1.001.844-1.709-1.728-5.243-4.766-6.784-6.542-7.232V30.123c0-.292 0-.782 1.096-.782 1.097 0 1.097.49 1.097.782v7.37c0 .747.598 1.352 1.336 1.352.737 0 1.335-.605 1.335-1.351v-9.011c0-.292 0-.782 1.097-.782s1.097.49 1.097.782v9.01c0 .747.598 1.352 1.336 1.352.737 0 1.335-.605 1.335-1.351v-7.371c0-.292 0-.782 1.097-.782s1.097.49 1.097.782v9.6c0 .745.598 1.35 1.336 1.35.737 0 1.335-.605 1.335-1.35v-5.046c0-.24 0-.878 1.097-.878s1.098.637 1.098.878v15.677c.002.024.096 2.436-1.32 3.951-.811.868-2.016 1.308-3.583 1.308-.737 0-1.335.604-1.335 1.35v6.686c0 .746.598 1.351 1.335 1.351.738 0 1.336-.605 1.336-1.35v-5.422c1.714-.23 3.118-.923 4.188-2.067 2.107-2.256 2.066-5.466 2.05-5.913V34.677c0-2.108-1.55-3.58-3.769-3.58-.388 0-.755.046-1.097.132v-1.106c0-2.083-1.514-3.483-3.768-3.483-.531 0-1.02.079-1.459.225C48.328 25.707 47.1 25 45.499 25c-1.602 0-2.83.707-3.407 1.865a4.612 4.612 0 0 0-1.458-.225c-2.254 0-3.769 1.4-3.769 3.483v5.563a4.517 4.517 0 0 0-1.097-.131c-2.218 0-3.768 1.472-3.768 3.579l.003 11.237z"/>
    </g>
</svg>
