<svg xmlns="http://www.w3.org/2000/svg" width="90" height="89" viewBox="0 0 90 89">
    <g fill="none" fill-rule="evenodd">
        <g stroke="#CD2727" stroke-width="2">
            <path d="M71.18 70.38c-.488.488-.986.96-1.494 1.414"/>
            <path stroke-dasharray="0.921,0" d="M66.739 74.17c-.171.124-.343.247-.516.367"/>
            <path stroke-dasharray="5.527,5.527,0.921,0" d="M66.223 74.537c-13.808 9.644-32.792 8.688-45.668-2.845"/>
            <path d="M20.552 71.69c-.51-.456-1.01-.929-1.5-1.419M71.18 70.38c14.366-14.366 14.317-37.709-.11-52.136s-37.77-14.476-52.136-.11c-14.366 14.367-14.317 37.71.11 52.137"/>
        </g>
        <g stroke="#000" opacity=".501">
            <path d="M76.21 75.247c-.488.489-.987.964-1.492 1.424"/>
            <path stroke-dasharray="0.9570000000000001,0" d="M71.684 79.194c-.176.133-.352.264-.53.394"/>
            <path stroke-dasharray="5.74,5.74,0.9570000000000001,0" d="M71.155 79.588C54.6 91.742 31.38 90.725 15.842 76.563"/>
            <path d="M15.846 76.568a44.922 44.922 0 0 1-1.497-1.43M76.21 75.247c17.055-17.055 17.006-44.756-.108-61.87C58.987-3.74 31.285-3.789 14.23 13.266c-17.055 17.054-17.005 44.757.11 61.871"/>
        </g>
        <path d="M45 36c.551 0 1-.53 1-1.18V32.92 29.18C46 28.53 45.551 28 45 28c-.551 0-1 .53-1 1.18v5.64c0 .65.449 1.18 1 1.18zM27 60.478A2.518 2.518 0 0 0 29.508 63h29.984A2.518 2.518 0 0 0 62 60.478V41H27v19.478zm3.591-15.886h27.817c.674 0 1.22.55 1.22 1.226 0 .678-.546 1.227-1.22 1.227H30.591c-.673 0-1.22-.55-1.22-1.227s.547-1.226 1.22-1.226zm0 5.685h27.817c.674 0 1.22.55 1.22 1.227s-.546 1.226-1.22 1.226H30.591c-.673 0-1.22-.55-1.22-1.226 0-.678.547-1.227 1.22-1.227zm0 5.686h27.817c.674 0 1.22.549 1.22 1.226 0 .677-.546 1.226-1.22 1.226H30.591c-.673 0-1.22-.549-1.22-1.226 0-.677.547-1.226 1.22-1.226zM34 36c.551 0 1-.53 1-1.18v-1.898-.002-3.739C35 28.53 34.551 28 34 28c-.551 0-1 .53-1 1.18v5.64c0 .65.448 1.18 1 1.18z"/>
        <path fill="#3D6889" fill-rule="nonzero" d="M63.777 30.916h-3.603v-2.373c0-1.954-1.611-3.543-3.592-3.543-1.98 0-3.592 1.59-3.592 3.543v2.373h-4.398v-2.373C48.592 26.589 46.981 25 45 25c-1.98 0-3.592 1.59-3.592 3.543v2.373H37.01v-2.373C37.01 26.589 35.4 25 33.418 25c-1.98 0-3.592 1.59-3.592 3.543v2.373h-3.603c-.675 0-1.223.54-1.223 1.206v27.984C25 62.805 27.226 65 29.962 65h30.076C62.774 65 65 62.805 65 60.106V32.122c0-.666-.548-1.206-1.223-1.206zm-1.223 7.615H27.446v-5.203h2.38v.611c0 1.954 1.611 3.543 3.592 3.543 1.98 0 3.592-1.59 3.592-3.543v-.61h4.398v.61c0 1.954 1.611 3.543 3.592 3.543 1.98 0 3.592-1.59 3.592-3.543v-.61h4.398v.61c0 1.954 1.611 3.543 3.592 3.543 1.98 0 3.592-1.59 3.592-3.543v-.61h2.38v5.202zm-7.118-9.988c0-.623.514-1.13 1.146-1.13a1.14 1.14 0 0 1 1.146 1.13v5.396a1.14 1.14 0 0 1-1.146 1.13 1.14 1.14 0 0 1-1.146-1.13v-5.396zm-11.582 0c0-.623.514-1.13 1.146-1.13a1.14 1.14 0 0 1 1.146 1.13v5.396A1.14 1.14 0 0 1 45 35.07a1.14 1.14 0 0 1-1.146-1.13v-5.396zm-11.582 0c0-.623.514-1.13 1.146-1.13a1.14 1.14 0 0 1 1.146 1.13V33.939a1.14 1.14 0 0 1-1.146 1.13 1.14 1.14 0 0 1-1.146-1.13v-5.396zm30.281 31.563c0 1.368-1.128 2.481-2.516 2.481H29.962c-1.387 0-2.516-1.113-2.516-2.481V40.944h35.107v19.162z"/>
        <path fill="#3D6889" fill-rule="nonzero" d="M31.21 47h27.58c.669 0 1.21-.672 1.21-1.5s-.541-1.5-1.21-1.5H31.21c-.669 0-1.21.672-1.21 1.5s.541 1.5 1.21 1.5zM31.21 53h27.58c.669 0 1.21-.672 1.21-1.5s-.541-1.5-1.21-1.5H31.21c-.669 0-1.21.672-1.21 1.5s.541 1.5 1.21 1.5zM31.21 59h27.58c.669 0 1.21-.672 1.21-1.5s-.541-1.5-1.21-1.5H31.21c-.669 0-1.21.672-1.21 1.5s.541 1.5 1.21 1.5z"/>
    </g>
</svg>
