<svg xmlns="http://www.w3.org/2000/svg" width="90" height="89" viewBox="0 0 90 89">
    <g fill="none" fill-rule="evenodd">
        <g stroke="#CD2727" stroke-width="2">
            <path d="M71.18 70.38c-.488.488-.986.96-1.494 1.414"/>
            <path stroke-dasharray="0.921,0" d="M66.739 74.17c-.171.124-.343.247-.516.367"/>
            <path stroke-dasharray="5.527,5.527,0.921,0" d="M66.223 74.537c-13.808 9.644-32.792 8.688-45.668-2.845"/>
            <path d="M20.552 71.69c-.51-.456-1.01-.929-1.5-1.419M71.18 70.38c14.366-14.366 14.317-37.709-.11-52.136s-37.77-14.476-52.136-.11c-14.366 14.367-14.317 37.71.11 52.137"/>
        </g>
        <g stroke="#000" opacity=".501">
            <path d="M76.21 75.247c-.488.489-.987.964-1.492 1.424"/>
            <path stroke-dasharray="0.9570000000000001,0" d="M71.684 79.194c-.176.133-.352.264-.53.394"/>
            <path stroke-dasharray="5.74,5.74,0.9570000000000001,0" d="M71.155 79.588C54.6 91.742 31.38 90.725 15.842 76.563"/>
            <path d="M15.846 76.568a44.922 44.922 0 0 1-1.497-1.43M76.21 75.247c17.055-17.055 17.006-44.756-.108-61.87C58.987-3.74 31.285-3.789 14.23 13.266c-17.055 17.054-17.005 44.757.11 61.871"/>
        </g>
        <g fill="#3665C7" fill-rule="nonzero" stroke="#3665C7" stroke-width=".5">
            <path d="M58.387 29H40.613c-.339 0-.613.298-.613.667v6.666c0 .369.274.667.613.667h17.774c.339 0 .613-.298.613-.667v-6.666c0-.369-.274-.667-.613-.667zm-.613 6.667H41.226v-5.334h16.548v5.334z"/>
            <path d="M63.05 39.3A1.95 1.95 0 0 0 65 37.352v-3.899a1.95 1.95 0 0 0-1.95-1.95h-.65v-4.549a2.095 2.095 0 0 0-2.21-1.95H33.67c-2.08 0-3.77 1.458-3.77 3.25v1.95h-1.3a2.6 2.6 0 1 0 0 5.199h1.3v2.6h-1.3a2.6 2.6 0 1 0 0 5.198h1.3v2.6h-1.3a2.6 2.6 0 1 0 0 5.199h1.3v2.6h-1.3a2.6 2.6 0 1 0 0 5.198h1.3v1.95c0 1.792 1.69 3.25 3.77 3.25h26.52a2.095 2.095 0 0 0 2.21-1.95v-4.55h.65A1.95 1.95 0 0 0 65 55.549v-3.9a1.95 1.95 0 0 0-1.95-1.949h-.65v-1.3h.65A1.95 1.95 0 0 0 65 46.45V42.55a1.95 1.95 0 0 0-1.95-1.95h-.65v-1.3h.65zm0-6.498a.65.65 0 0 1 .65.65v3.9a.65.65 0 0 1-.65.65h-.65v-5.2h.65zm-35.75 0a1.3 1.3 0 0 1 1.3-1.3h3.9a1.3 1.3 0 1 1 0 2.6h-3.9a1.3 1.3 0 0 1-1.3-1.3zm0 7.799a1.3 1.3 0 0 1 1.3-1.3h3.9a1.3 1.3 0 1 1 0 2.6h-3.9a1.3 1.3 0 0 1-1.3-1.3zm0 7.798a1.3 1.3 0 0 1 1.3-1.3h3.9a1.3 1.3 0 1 1 0 2.6h-3.9a1.3 1.3 0 0 1-1.3-1.3zm0 7.799a1.3 1.3 0 0 1 1.3-1.3h3.9a1.3 1.3 0 1 1 0 2.6h-3.9a1.3 1.3 0 0 1-1.3-1.3zm3.9 4.55v-1.95h1.3a2.6 2.6 0 1 0 0-5.2h-1.3v-2.6h1.3a2.6 2.6 0 1 0 0-5.198h-1.3v-2.6h1.3a2.6 2.6 0 1 0 0-5.199h-1.3v-2.6h1.3a2.6 2.6 0 1 0 0-5.198h-1.3v-1.95c0-1.075 1.108-1.95 2.47-1.95h2.73v36.394h-2.73c-1.362 0-2.47-.875-2.47-1.95zm29.9 1.299c0 .352-.417.65-.91.65H37.7V26.303h22.49c.493 0 .91.298.91.65v35.094zm1.95-11.048a.65.65 0 0 1 .65.65v3.899a.65.65 0 0 1-.65.65h-.65v-5.2h.65zm0-9.099a.65.65 0 0 1 .65.65v3.9a.65.65 0 0 1-.65.65h-.65v-5.2h.65z"/>
        </g>
    </g>
</svg>
