<svg xmlns="http://www.w3.org/2000/svg" width="15" height="14" viewBox="0 0 15 14">
    <g fill="#000" fill-rule="nonzero" opacity=".498">
        <path d="M14.73 6.306l-2.27-2.27V1.411a.859.859 0 0 0-1.718 0v.906L9.052.628c-.836-.836-2.29-.835-3.123 0L.25 6.307A.86.86 0 0 0 1.466 7.52l5.677-5.677a.507.507 0 0 1 .695 0l5.677 5.677a.857.857 0 0 0 1.215 0 .859.859 0 0 0 0-1.214z"/>
        <path d="M7.79 3.473a.422.422 0 0 0-.597 0L2.199 8.465a.423.423 0 0 0-.124.299v3.641c0 .854.693 1.547 1.548 1.547h2.472v-3.829h2.791v3.83h2.473c.854 0 1.547-.694 1.547-1.548V8.764a.421.421 0 0 0-.124-.299L7.79 3.473z"/>
    </g>
</svg>
