<svg xmlns="http://www.w3.org/2000/svg" width="34" height="14" viewBox="0 0 34 14">
    <g fill="#989898" fill-rule="nonzero">
        <path d="M13.825 6.83a.705.705 0 0 0-.055-.986L7.513.189A.761.761 0 0 0 6.496.2L.218 6.145a.701.701 0 0 0-.03.986l.157.17c.261.28.683.313.942.074l.47-.434v6.354c0 .39.305.705.682.705h2.447a.694.694 0 0 0 .683-.705V8.849h3.122v4.446c-.006.39.264.705.641.705h2.594a.694.694 0 0 0 .683-.706V7.03l.29.262c.159.145.494.03.748-.26l.178-.201zM33.82 7.946l-3.771 3.87a.603.603 0 0 1-.87 0 .642.642 0 0 1 0-.892L32.518 7.5 29.18 4.076a.642.642 0 0 1 0-.891.603.603 0 0 1 .869 0l3.771 3.87a.637.637 0 0 1 0 .891z"/>
    </g>
</svg>
