<svg xmlns="http://www.w3.org/2000/svg" width="18" height="15" viewBox="0 0 18 15">
    <path fill="#626262" fill-rule="nonzero" d="M17.707 7.16L14.917.691A1.047 1.047 0 0 0 14.49.2 1.133 1.133 0 0 0 13.875 0h-9.75c-.203 0-.408.066-.615.2-.207.132-.35.296-.428.491l-2.79 6.47A3.772 3.772 0 0 0 0 8.6v5.649a.72.72 0 0 0 .223.527A.722.722 0 0 0 .75 15h16.5a.721.721 0 0 0 .527-.223.721.721 0 0 0 .223-.527V8.601c0-.484-.097-.964-.293-1.44zm-5.453 1.173l-1.212 2.5H6.959l-1.213-2.5H1.714a.604.604 0 0 0 .032-.104.62.62 0 0 1 .032-.104l2.705-6.458h9.034l2.705 6.458c.008.026.02.06.032.104.012.043.023.078.032.104h-4.032z"/>
</svg>
