<svg xmlns="http://www.w3.org/2000/svg" width="90" height="90" viewBox="0 0 90 90">
    <g fill="none" fill-rule="nonzero">
        <g fill="#CD2727">
            <path d="M70.215 70.278c-.476.477-.966.94-1.466 1.387l1.344 1.502a38.387 38.387 0 0 0 1.547-1.464l-1.425-1.425zM65.856 73.998a31.21 31.21 0 0 1-.504.359l1.152 1.654c.179-.125.358-.252.536-.382L65.856 74z"/>
            <path d="M65.351 74.357a35.736 35.736 0 0 1-4.666 2.76l.89 1.808a37.754 37.754 0 0 0 4.93-2.915l-1.154-1.653zm-9.727 4.791a35.96 35.96 0 0 1-.94.283l.553 1.938c.332-.095.663-.194.992-.298l-.605-1.923zm-.911.275a36.131 36.131 0 0 1-5.31 1.098l.258 2a38.149 38.149 0 0 0 5.606-1.16l-.554-1.938zm-10.796 1.39a36.395 36.395 0 0 1-.98-.035l-.1 2.014c.344.017.688.03 1.033.037l.047-2.016zm-.912-.032a36.362 36.362 0 0 1-5.38-.66l-.396 1.978c1.873.373 3.771.606 5.678.696l.098-2.014zm-10.645-2.13a36.084 36.084 0 0 1-.917-.346l-.74 1.876c.32.127.644.249.968.367l.689-1.896zm-.924-.348a36.024 36.024 0 0 1-4.878-2.36l-1.013 1.745a38.039 38.039 0 0 0 5.15 2.49l.741-1.875zm-9.366-5.437a36.512 36.512 0 0 1-.757-.624L20.01 73.78c.263.224.53.443.798.659l1.263-1.573zm-.732-.603a36.663 36.663 0 0 1-.778-.678l-1.346 1.503c.27.242.544.48.821.715l1.303-1.54zM20.557 71.583c-.503-.45-.993-.914-1.471-1.392l-1.427 1.426c.505.505 1.022.994 1.552 1.469l1.346-1.503z"/>
            <path d="M71.64 71.703c14.885-14.885 14.845-39.057-.087-53.989C56.622 2.782 32.45 2.742 17.564 17.628 2.68 32.513 2.72 56.685 17.651 71.617l1.426-1.427C4.931 56.045 4.893 33.15 18.99 19.053c14.096-14.096 36.992-14.058 51.138.088 14.146 14.145 14.184 37.041.088 51.137l1.425 1.425z"/>
        </g>
        <g fill="#000" opacity=".501">
            <path d="M75.64 75.54a44.39 44.39 0 0 1-1.488 1.42l.679.745a45.4 45.4 0 0 0 1.522-1.453l-.712-.713zM71.127 79.475c-.173.132-.348.262-.526.392l.595.814c.182-.134.362-.268.54-.403l-.61-.803z"/>
            <path d="M70.6 79.868a43.185 43.185 0 0 1-4.825 3.074l.483.884a44.194 44.194 0 0 0 4.939-3.146l-.596-.812zM60.56 85.36c-.31.12-.621.235-.934.347l.34.95c.32-.116.639-.234.956-.357l-.361-.94zm-.945.351a43.427 43.427 0 0 1-5.5 1.572l.211.985c1.91-.412 3.79-.949 5.629-1.608l-.34-.949zm-11.186 2.41c-.332.028-.663.05-.995.07l.058 1.007c.339-.02.678-.044 1.017-.071l-.08-1.005zm-1.002.07c-1.906.11-3.817.097-5.72-.042l-.075 1.006c1.948.142 3.903.156 5.852.043l-.057-1.007zm-11.36-.822c-.326-.067-.651-.138-.975-.212l-.226.983c.331.076.663.148.996.216l.204-.987zm-.98-.213a43.594 43.594 0 0 1-5.479-1.642l-.353.945a44.601 44.601 0 0 0 5.606 1.68l.226-.983zM24.32 83.129a43.404 43.404 0 0 1-.873-.48l-.496.879c.296.167.594.33.894.49l.475-.89zm-.879-.483a43.525 43.525 0 0 1-4.785-3.131l-.606.806a44.532 44.532 0 0 0 4.895 3.203l.496-.878zM15.478 76.881a44.724 44.724 0 0 1-1.493-1.424l-.713.713c.495.495 1.003.98 1.526 1.457l.68-.746z"/>
            <path d="M76.353 76.252c17.4-17.4 17.363-45.647-.08-63.091C58.827-4.283 30.58-4.321 13.18 13.079c-17.4 17.399-17.361 45.647.083 63.091l.713-.713C-3.075 58.406-3.112 30.796 13.893 13.79c17.005-17.005 44.615-16.968 61.666.083 17.05 17.05 17.087 44.66.082 61.665l.712.713z"/>
        </g>
        <path fill="#009DB3" d="M43.72 33.757H37.9c-1.548 0-3.065.262-4.516.781l-.433.164-9.493 3.765c-1.979.786-3.283 2.618-3.374 4.71l-.005.234v6.764c0 .52.398.948.908 1.003l.111.006h4.647c.219.98.72 1.878 1.464 2.594a5.254 5.254 0 0 0 3.663 1.473 5.25 5.25 0 0 0 5.06-3.802l.066-.265h18.263a5.164 5.164 0 0 0 1.464 2.594 5.258 5.258 0 0 0 3.663 1.473 5.258 5.258 0 0 0 3.664-1.473 5.168 5.168 0 0 0 1.396-2.329l.067-.265h4.371c.525 0 .958-.394 1.013-.899l.006-.11v-3.604a6.194 6.194 0 0 0-1.532-4.074 6.31 6.31 0 0 0-3.574-2.044l-.279-.047-6.17-.89-8.602-4.33a13.472 13.472 0 0 0-5.612-1.422l-.417-.007H37.9zm15.669 13.116c1.775 0 3.214 1.424 3.214 3.18 0 1.757-1.44 3.18-3.214 3.18-1.775 0-3.214-1.423-3.214-3.18 0-1.756 1.439-3.18 3.214-3.18zm-28.518 0c1.775 0 3.214 1.424 3.214 3.18 0 1.757-1.44 3.18-3.214 3.18-1.775 0-3.214-1.423-3.214-3.18 0-1.756 1.439-3.18 3.214-3.18zm28.518 1.843c-.747 0-1.351.599-1.351 1.337s.604 1.337 1.35 1.337c.747 0 1.35-.599 1.35-1.337s-.603-1.337-1.35-1.337zm-28.518 0c-.746 0-1.35.599-1.35 1.337s.604 1.337 1.35 1.337c.747 0 1.35-.599 1.35-1.337s-.603-1.337-1.35-1.337zm-4.907-7.218h31.994l4.285.618c.346 2.692 2.607 4.8 5.385 4.938l.24.007v2.106h-3.306c-.427-2.445-2.583-4.311-5.174-4.311-2.512 0-4.616 1.755-5.13 4.09l-.044.22h-18.17c-.426-2.444-2.582-4.31-5.172-4.31-2.513 0-4.616 1.755-5.13 4.09l-.044.22h-3.581v-3.008h.466c1.801 0 3.28-1.403 3.376-3.164l.005-.183v-1.313zm15.507 3.006c-.512 0-.928.4-.928.895s.416.896.928.896h6.153c.512 0 .927-.401.927-.896 0-.494-.415-.895-.927-.895zm23.096-1.791c1.636.276 2.965 1.324 3.559 2.686-1.693-.148-3.091-1.236-3.56-2.686zM22.73 41.498h1.196v1.313c0 .69-.535 1.26-1.214 1.324l-.13.006h-.465v-.73c0-.705.223-1.367.613-1.913zm11.615-5.154l-2.434 3.137h-5.53l7.329-2.907c.21-.083.422-.16.635-.23zm3.555-.57h4.864v3.707H34.48l2.866-3.694c.183-.01.368-.013.553-.013zm6.902 3.707v-3.654c1.258.121 2.495.452 3.643.976l.38.182 4.959 2.496h-8.982v-3.654z"/>
    </g>
</svg>
