<svg xmlns="http://www.w3.org/2000/svg" width="147" height="43" viewBox="0 0 147 43">
    <g fill="none" fill-rule="evenodd">
        <path fill="#FEFEFE" d="M146.357 21.332c.076-8.055-1.69-12.566-3.223-14.78a61.41 61.41 0 0 1 .87-1.137c.153-.155.417-.398.964-.475.151-1.064.546-2.325.546-2.325s-1.059.766-2.048 1.194c.075.535-.063.861-.197 1.056-.02.03-.266.36-.674.898A9.539 9.539 0 0 0 140 3.603a11.025 11.025 0 0 0-.884-.45c.02-.434-.128-.84-.413-1.132-.012-.249-.222-.564-.474-.657-.264-.072-.658.051-.85.234a1.92 1.92 0 0 0-1.145.625c-.936-.2-2.003-.348-3.224-.424a1.893 1.893 0 0 0-1.006-1.263c-.123-.259-.48-.519-.788-.536h-.004c-.306.017-.665.277-.787.536A1.89 1.89 0 0 0 129.42 1.8a21.973 21.973 0 0 0-3.226.424 1.915 1.915 0 0 0-1.144-.625c-.193-.183-.585-.306-.848-.235l-.002.001c-.253.094-.46.408-.473.657a1.493 1.493 0 0 0-.413 1.131c-.318.144-.612.294-.886.45-1.14.662-1.864 1.28-2.546 2.131-.368-.49-.59-.786-.609-.814-.135-.194-.272-.52-.198-1.055-.989-.429-2.05-1.194-2.05-1.194s.397 1.26.548 2.325c.547.076.812.32.966.474.022.021.303.392.767 1.004-1.538 2.198-3.33 6.748-3.255 14.856.01.751-.312 7.773 1.972 12.507.258.48.942 1.753 2.192 2.928a8.35 8.35 0 0 0 3.642 2.033c.042.011.127.032.168.044 1.718.468 3.196.2 3.79-.146l-.086.214a3.611 3.611 0 0 0-.076.192c-.32.871-.106 1.773 1.067 1.908.311.034.658.048 1.064.24.285.132.603.35.95.711.147.153.452.543.602.848l.001.002v-.002c.15-.305.454-.695.6-.848.35-.362.667-.579.951-.712.406-.19.753-.205 1.062-.239 1.176-.135 1.394-1.035 1.071-1.905a3.838 3.838 0 0 0-.079-.196c-.02-.053-.086-.213-.086-.213.815.474 3.317.841 5.72-.687 1.645-1.045 2.847-2.23 3.812-4.134 2.284-4.735 1.98-11.898 1.97-12.542m-10.61-6.496c-.035.047-.058.09-.169.158a.656.656 0 0 1-.392.092c-.184-.009-.286-.063-.379-.193-.272-.382-.445-.76-.73-1.44-.249-.595-.204-.498-.572-1.395-.174-.429-.487-1.104-.668-1.343-.275-.362-.774-.73-.945-.802a2.754 2.754 0 0 0-.854-.183c-.58-.032-1.163.05-1.408.114-.192.052-.534.17-.704.375-.025.03-.106.134-.214.183-.25.12-.31.111-.637.351-.53.39-.448.996-.17 1.228.002.004.01.005.014.007-.008-.155.007-.29.033-.284.03.01.29.183.692.128.293-.04.478.407.478.407l.048-.13s.093.28.173.343c.013-.018.04-.048.044-.065.088.111.232.182.244.364-.006.162-.074.315-.282.51-.079.071-.543.455-1.038.962-.256.261-.385.421-.644.705-.133.146-.256.235-.388.241l-.059.001a.439.439 0 0 1-.325-.147c-.052-.066-2.563-3.393-3.767-4.987 2.181-2.132 5.795-2.484 6.698-2.418.211.015.45.184.184.53.195.088.928.022 1.203-.234.273.256 1.007.322 1.202.234-.266-.346-.027-.515.185-.53.895-.066 4.33.097 6.731 2.471-1.174 1.554-2.742 3.522-3.585 4.747"/>
        <path fill="#FF271C" d="M145.87 19.128c-.671.544-1.308 1.094-3.4 2.3l-.546.297.004-.394c0-.043.15-5.366-2.431-9.953-.164.217-.707.91-1.265 1.62.329-.037.664.05.967.348.535.523 1.406 1.789 1.91 3.097.276.82.49 1.942.434 2.9v-.002s-.312 5.42-.93 10.612c-.561 4.718-.87 5.335-.87 5.335-.36-.433-.508-.988-.595-1.303l-.051.046s-.33-.471-.525-1.4c-.224-1.058-.263-2.948-.24-3.862l-.002.005s.015-.268-.207-.726a3.318 3.318 0 0 1-.244-.67c-.338-1.45-1-1.858-1.363-2.31a6.721 6.721 0 0 1-.958-1.572l-.035.029c-.242.232-.422.467-.43.598.083.846.16 1.45.035 1.88-.052-.026-.132-.111-.178-.144.058.56-.207 1.208-.04 1.724l-.33-.045c.015.038.026.068.036.08.047.064.09.102.169.145.014.009.08.04.108.052.029.012.11.044.34.119.19-.422.043-.827-.145-1.056-.16-.19.032-.471.357-.327.423.186.879.452 1.36.91.692.659.895 1.293.748 1.418-.114.097-.2.076-.336.029a.264.264 0 0 1-.011.073c-.038.126-.142.215-.297.257l-.015.026c-.074.103-.192.14-.402.136a1.047 1.047 0 0 1-.404-.12.556.556 0 0 1-.135-.1 2.591 2.591 0 0 0-.124.1c.546.737 1.594 1.955 2.342 3.29.535.956.783 1.755.783 1.755s-.286.092-.66.007c.132.383.202.718.176.978a1.996 1.996 0 0 1-1.061-.248c.01.06.023.124.032.186.336.242.71.52.876.636-1.64.77-4.017.417-4.062.412l-.306-.044c-.016.042-.036.096-.058.15.16.38.533 1.269.616 1.446 1.042.477 2.01.79 3.505.542 0 0 .254-.025.89-.24.652-.22 1.879-.94 2.818-1.824 1.17-1.101 1.88-2.26 2.113-2.714 1.815-3.552 2.114-8.823 2.114-10.953v-1.106c-.01-.715-.05-1.885-.076-2.425M128.18 37.801c.07-.195.398-.983.567-1.383a2.87 2.87 0 0 1-.065-.206c-.226.038-.455.071-.682.095-.152.015-2.412.363-4.053-.407.201-.14.574-.45 1.081-.776l.018-.102a1.983 1.983 0 0 1-1.06.248c-.025-.26.044-.596.176-.978-.373.085-.66-.007-.66-.007s.248-.797.782-1.753c.5-.892 1.198-1.794 1.795-2.541.062-.294.29-.543.316-.569l.1-.108a4.453 4.453 0 0 0-.195-.16.54.54 0 0 1-.16.127c-.19.085-.305.116-.404.12-.21.008-.329-.034-.402-.137l-.014-.026c-.155-.043-.26-.133-.298-.255a.306.306 0 0 1-.01-.079c-.116.038-.197.047-.3-.04-.146-.127.056-.762.747-1.416.481-.46.94-.727 1.36-.913.326-.143.516.137.358.328-.19.23-.336.634-.144 1.059.2-.067.276-.1.306-.111.077-.03.17-.056.272-.192a.281.281 0 0 0 .033-.07l-.288.032c.148-.363-.08-1.253.07-1.828a1.11 1.11 0 0 1-.197.114c-.106-.524-.09-1.355-.05-1.762-.007-.105-.154-.288-.356-.495-.162.413-.444.916-.917 1.503-.366.45-1.028.858-1.366 2.309l-.004.008c-.056.23-.136.445-.24.662-.222.457-.207.726-.207.726l-.002-.007c.024.915-.016 2.806-.24 3.864-.197.928-.525 1.399-.525 1.399l-.052-.045c-.084.315-.233.868-.592 1.302 0 0-.31-.619-.872-5.335-.619-5.191-.93-10.611-.93-10.611h.002c-.059-.959.156-2.08.431-2.9.505-1.308 1.376-2.573 1.911-3.098.333-.325.706-.4 1.064-.33l-.21-.287c-.357-.473-.768-.992-1.119-1.457-2.53 4.466-2.468 9.796-2.468 9.84l.004.569-.444-.237c-1.992-1.133-2.855-1.816-3.503-2.355-.027.542-.082 2.378-.082 2.378-.003.032 0 .418 0 1.116 0 2.129.381 7.359 2.115 10.951.242.448.89 1.65 2.061 2.75a7.995 7.995 0 0 0 3.074 1.803c.066.022.2.068.266.087 1.326.422 2.768.334 4.185-.376l.016-.038zM129.255 39.152c.031-.627.131-1.563.268-2.389-.208.201-.378.298-.394.298-.03-.003-.066-.036-.107-.088l-.957 2.348c.264-.223.675-.384 1.19-.169"/>
        <path fill="#FF271C" d="M133.103 39.78c.029-.659-.238-2.434-.402-3.443l-.054-.082a2.12 2.12 0 0 1-.096-.139 4.725 4.725 0 0 1-.227.627c-.113.249-.292.509-.326.506-.03-.004-.504-.34-.808-.999-.305.648-.772.978-.801.982-.035.005-.212-.257-.326-.506a4.92 4.92 0 0 1-.133-.338c-.157 1.061-.39 2.765-.36 3.392-.983-.65-1.58-.001-1.377.452.02.04.042.076.067.109a.629.629 0 0 0 .488.258c.316.021.734.054 1.209.277.434.204.903.542 1.379 1.136.475-.594.945-.932 1.378-1.136.475-.223.894-.256 1.21-.277a.683.683 0 0 0 .49-.258.747.747 0 0 0 .065-.109c.203-.453-.393-1.102-1.376-.452"/>
        <path fill="#FF271C" d="M133.451 37.06c-.015 0-.152-.077-.328-.236.136.73.261 1.642.294 2.328.514-.215.926-.054 1.19.168l-.962-2.473c-.089.121-.173.214-.194.213"/>
        <path fill="#0A0204" d="M129.723 17.385c-.003-.001 0 0 0 0M129.178 17.62c-.002 0 0 0 0 0"/>
        <path fill="#231E20" d="M138.06 20.234c-.07.35-.196.5-.51.723-.163-.524-.262-.94.475-2.476-.506 1.509-.286 2.009-.286 2.009s.202-.084.32-.256m-.812-1.053s-.175-.34.276-1.652c-.827 1.248-.465 2.119-.465 2.119s.434-.216.545-.687c-.124.159-.356.22-.356.22m2.956-2.232c-.135 1.322-.243 1.594-.383 1.824-.115-.081-.215-.351-.215-.351-.04.239.015.606.222.8.275-.343.47-1.077.376-2.273m-.26-.883c-.21 1.479-.444 1.817-.609 2.069-.118-.091-.228-.455-.228-.455-.056.267-.01.68.21.908.322-.376.676-1.176.627-2.522m-1.11 1.43c-.14-.404-.107-.8-.107-.8-.2.577-.14 1.054.065 1.296.342-.353.834-1.453.77-2.477-.203 1.225-.55 1.742-.728 1.982m-.53-.843c-.099-.416-.047-1.038-.047-1.038-.255.557-.22 1.317-.04 1.576.374-.323.89-1.277.925-2.302-.322 1.204-.637 1.54-.838 1.764m1.798 2.5c-.02.309.247.5.247.5s.43-.617.262-1.686c-.088.996-.309 1.34-.309 1.34s-.17-.081-.2-.153m.502.457c-.009.27.234.432.234.432s.357-.556.173-1.492c-.044.88-.253 1.206-.253 1.206s-.128-.083-.154-.146m-18.005-.796c-.139-.23-.247-.502-.382-1.825-.094 1.197.101 1.93.377 2.275.206-.195.261-.562.22-.802 0 0-.098.272-.215.352m.486-.638c-.164-.252-.399-.59-.607-2.07-.05 1.347.305 2.148.627 2.522.22-.226.266-.64.208-.906 0 0-.109.363-.228.454m.503-.638c-.179-.24-.526-.757-.728-1.983-.066 1.025.427 2.127.77 2.479.203-.243.263-.72.064-1.296 0 0 .033.395-.106.8m.53-.843c-.2-.224-.517-.56-.839-1.764.036 1.026.551 1.979.927 2.302.18-.26.212-1.018-.042-1.576 0 0 .052.622-.047 1.038m-1.998 2.655s-.22-.345-.309-1.341c-.168 1.069.262 1.686.262 1.686s.268-.192.246-.5c-.028.074-.199.155-.199.155m-.455.449s-.21-.326-.253-1.206c-.185.936.171 1.492.171 1.492s.243-.161.236-.432c-.028.063-.154.146-.154.146m3.018.732s-.203-.084-.32-.256c.068.35.194.5.508.723.163-.524.262-.94-.475-2.476.505 1.509.287 2.009.287 2.009m.491-1.31s-.232-.06-.356-.22c.112.472.544.688.544.688s.363-.87-.464-2.118c.452 1.312.276 1.65.276 1.65m3.703 6.37c.085-.681-.285-1.27-.345-1.547-.074.08-.077.307-.077.307-.244-.26-.305-.717-.355-.875-.057.468-.222.699-.278.924a.63.63 0 0 0 .297-.108c.122.566.592.69.758 1.3m4.94-1.2s-.003-.225-.078-.306c-.059.278-.428.866-.345 1.549.167-.61.637-.735.76-1.3a.605.605 0 0 0 .297.106c-.057-.225-.223-.454-.278-.921-.052.156-.112.615-.356.873m-3.653-.676c-.072-.23-.195-1.001-.489-1.334-.117.562.247 1.098.49 1.334m1.863.752c.131-.32.411-.627.401-1.64-.303.303-.43 1.254-.4 1.64m-.596.392c.156-.408.145-.92-.027-1.137-.136.436-.142.823.027 1.137m-.455-1.22c.153-.466.117-1.034-.083-1.28-.132.475-.125.913.083 1.28m3.248-4.156c-.28.38-.36 1.239-.448 1.526.1-.09.614-1.311.448-1.526m.023-1.382c-.005-.014.467-.823.201-1.273-.307.069-.194 1.277-.2 1.273m-1.348 1.984c.003-.008.73-.703.705-1.584a1.56 1.56 0 0 1-.705.84s-.276-.171-.4-.554c-.096.892.408 1.303.4 1.298m1.435-1.004c.197-.31.466-.757.243-1.047-.104.289-.155.623-.243 1.047m-2.273 3.446c.126-.294.451-.84.382-1.476-.277.24-.407 1.099-.382 1.476m1.052-.937c.432-.535.66-1.151.471-1.781-.385.603-.395 1.216-.47 1.78m-.94-1.872c-.12.426-.308.706-.625 1.026-.132-.125-.266-.271-.448-.636-.07.708.332 1.12.563 1.275.144-.12.616-.79.51-1.665m-1.889 1.798c-.089-.024-.518-.424-.646-.674.065.4.613 1.189.876 1.35.085-.144.406-.78.125-1.794-.119.614-.243.922-.355 1.118m-2.549-4.828c-.054-.352.38-.674.23-1.24-.432.49-.348.95-.23 1.24m.876 4.16c.245.413.433.6.627.796-.304-.462-.546-1.317-.848-1.548-.026.128.082.52.221.753m-.213-1.91c-.166.713.544 1.398.548 1.409.002.01.002-.846-.548-1.408m.504-1.34c-.01.303-.005.582-.077.914-.202-.05-.297-.187-.444-.313.121.405.62.869.698.987.071-.55.093-1.216-.177-1.587m-.312-1.843c.197-.712.598-1.12.736-1.535-.714.508-.862 1.286-.736 1.535m-.613 3.13c-.095-.604-.056-1.01-.353-1.544-.095.639.288 1.45.353 1.545m1.781-2.358c-.482.598.26 1.346.255 1.356-.002-.006.061-1.134-.255-1.356m.355-1.636c-.713.536-.374 1.036-.248 1.312.146-.522.205-.664.248-1.312m.415 4.81c.123-.266.468-.775.288-1.624-.062.638-.468.922-.467.92 0 .002-.229-.125-.41-.511.06.778.35 1.003.59 1.216m3.628-4.724c-.053.4.413 1.316.431 1.389.011-.067.268-.83-.43-1.39m-.964-1.596c-.063.345.49.864.487.867 0 0 .075-.658-.487-.867m.807 2.623c-.163.758-.492 1.047-.492 1.045 0 0-.26-.212-.485-.505-.014.613.51 1.206.501 1.204-.004-.005.64-.518.476-1.744m-1.52-1.413c-.287.31-.02.928.145 1.482.152-.272.334-1.188-.146-1.482m.247-.87c-.004-.273-.087-.747-.702-.84-.039.32.503.516.702.84m-.676-1.161c.14.144.593.25.846.487-.036-.388-.43-.631-.846-.487m-.62 1.765c-.434.47-.168.865-.168.863 0-.007.53-.572.168-.863m.652 4.513c-.002.002.55-.512.6-1.567-.31.52-.649.813-.649.813s-.294-.2-.535-.495c.002.669.59 1.252.584 1.249m-.81-2.9c-.488.729 0 1.489-.004 1.487-.002-.005.335-1.015.003-1.486m.166-5.215c.133.134.557.315.794.536-.032-.365-.35-.56-.794-.536m.221.423a1.283 1.283 0 0 0-.75-.428c.2.245.406.45.75.428m.878.746c-.017-.08-.219-.362-.646-.454.117.11.188.308.23.379-.084.044-.308.068-.384.08.154.11.444.135.8-.005m-3.835-1.06c-.038.025-.072.145.065.15.117.004.14-.125.14-.125s-.147-.06-.205-.025m3.712-7.288c-.134-.1-.223-.171-.363-.268-.124.084-.264.2-.356.274.124.093.216.165.35.263.144-.105.21-.157.37-.27m-2.274 6.979s.05.085.028.233c-.02.148-.086.285-.304.337-.229.055-.47-.09-.479-.334a.427.427 0 0 1 .043-.2c-.078.009-.08.064-.155.159-.046.056-.12.05-.226.122 0-.142.155-.364.33-.443.258-.115 1.15-.156 1.784.175-.22-.041-.417-.026-.626-.037-.257-.015-.395-.012-.395-.012m-.115.005c-.028-.016-.227-.015-.249.026-.024.04.12.105.167.12.03.012.07-.004.092-.045.021-.042.018-.087-.01-.101m2.96-5.226c-1.75-.097-5.168.086-6.849.549 0 0-.176-.436-.327-.595-.448-.481-.63.04-.633.102.563.032.661.322.661.322-.133.246-.234.325-.544.54-.1.07-.46.295-.958.336-1.059.05-.77-1.051-.13-1.502-.083.099-.46.676-.226.972.265.33 1.24.06 1.477-.235-.13-.125-.368-.158-.715-.127.015-.175.095-.625.604-1.055.183.042.698.32.878.762 1.545-.416 4.375-.534 4.512-.54a76.633 76.633 0 0 1-.132-1.343c-.012-.166.097-.241.204-.308.118.206.228.298.49.396-.102.12-.199.173-.316.266.016.202.035.573.041.722.25-.11.603-.258 1.03-.36.154-.035.345-.057.467-.042.15.019.327.096.412.173.073.067.165.18.167.326.003.248-.049.468-.113.64m-.36-.66c-.219-.358-1.03-.035-1.545.179.3-.004.553-.012.872-.007.127.003.463.006.69.013.018-.065.027-.111-.018-.184m-7.293 1.896a5.307 5.307 0 0 0-.314-.095c-.08.116-.164.269-.218.368.153.048.267.086.432.136.066-.103.104-.167.16-.253l.306.097c.092-.143.133-.213.237-.366-.167-.052-.277-.091-.449-.138a3.37 3.37 0 0 0-.154.25m12.922-1.306c.346-.03.665.056.814-.104-.217-.064-.436-.121-.51-.23.093-.075.224.03.292.086.048-.046.073-.066.13-.118-.225-.185-.576-.075-.653.115.063.033.162.069.196.112a1.314 1.314 0 0 0-.269.139m-.2.645c-.14.327-.263.657-.425.954.097.039.228-.044.32-.101.428-.263.737-.987.904-1.42.004-.014-.25.053-.383.112-.254.114-.299.18-.417.455m-3.243.155c.108.106.186.189.302.303.161-.087.235-.13.411-.22-.116-.116-.192-.198-.316-.311a5.23 5.23 0 0 0-.397.228m2.897-.34c-.07.24-.245.384-.355.529-.596-.232-1.917-.568-2.644-.641-.195.215-.49.506-.798.579-.453-.054-.743-.174-1.057-.306.176.01.228.01.351.008a2.3 2.3 0 0 0 1.13-.333c-.632-.095-.78-.268-.476-.673.14-.182.371-.514.707-.427.262.067.327.44.297.723.738.09 1.682.344 2.4.592.047-.207-.086-.31-.17-.46.11-.113.27-.247.396-.33.184.102.288.51.22.74m-3.487-.941a.453.453 0 0 0-.188.2c.056.088.168.124.337.148.022.004.065.006.091.009.08-.184-.088-.411-.24-.357m-7.878 1.499c.145.064.254.115.411.183.111-.135.16-.197.285-.34-.158-.07-.263-.12-.427-.183-.097.106-.2.249-.269.34m18.043 27.617c-.966 1.904-2.167 3.09-3.812 4.134-2.403 1.528-4.906 1.162-5.72.687 0 0 .064.16.087.213.024.057.06.148.078.197.323.87.104 1.77-1.07 1.905-.31.035-.657.048-1.063.238-.285.134-.602.35-.952.713-.146.152-.45.544-.6.849a4.178 4.178 0 0 0-.602-.85c-.348-.361-.666-.578-.95-.712-.406-.19-.753-.203-1.064-.238-1.173-.135-1.389-1.037-1.068-1.91l.076-.191.087-.214c-.595.347-2.073.616-3.79.147-.04-.013-.126-.033-.168-.044a8.364 8.364 0 0 1-3.642-2.033c-1.25-1.175-1.935-2.448-2.192-2.928-2.284-4.734-1.964-11.757-1.973-12.508-.076-8.107 1.717-12.657 3.256-14.856a61.777 61.777 0 0 0-.768-1.003c-.154-.155-.418-.398-.966-.475-.15-1.065-.547-2.324-.547-2.324s1.061.765 2.05 1.193c-.075.535.062.86.197 1.057l.61.813c.68-.852 1.405-1.47 2.546-2.131.274-.156.568-.306.884-.45a1.498 1.498 0 0 1 .414-1.13c.012-.25.221-.563.474-.658l.001-.002c.263-.07.655.053.848.236a1.9 1.9 0 0 1 1.144.625 21.857 21.857 0 0 1 3.226-.424 1.886 1.886 0 0 1 1.005-1.263c.123-.26.481-.52.787-.536h.004c.306.016.664.277.787.536.476.234.86.668 1.006 1.263 1.222.076 2.29.223 3.225.424.302-.34.715-.565 1.144-.625.193-.183.587-.305.85-.236v.002c.252.093.462.408.474.658.285.289.434.696.414 1.13a11 11 0 0 1 .883.45 9.545 9.545 0 0 1 2.597 2.16c.407-.54.653-.868.673-.897.135-.195.272-.521.197-1.057.99-.428 2.05-1.193 2.05-1.193s-.396 1.26-.547 2.326c-.547.076-.812.319-.967.474-.022.022-.344.446-.867 1.137 1.531 2.214 3.3 6.724 3.223 14.78.01.644.314 7.806-1.969 12.54m-.72-25.463a7.504 7.504 0 0 1-1.939.182c-.248.526-.443 1.02-.427 1.922-.395-.118-.599-.238-.808-.457-.276.369-.43.573-.72.957 2.541 4.543 2.537 8.737 2.584 9.919 1.977-1.127 3.227-2.19 3.477-2.4-.237-4.203-.884-7.376-2.167-10.123m-4.028 12.664c-.06.484-.06.896.062 1.34.231-.3.381-.581.551-1.107.001.42.126.888.215 1.077.304-.442.477-2.22.477-2.22s.01.044.166.098c.162-.635.072-1.94-.062-2.552-.235-1.081-.657-2.391-1.976-3.948-.678-.801-1.25-.44-1.824.187-.923 1.007-1.12 1.452-2.227 1.656-.012.002-.015.003-.004 0-.11.02-.028.075.19.07 1.331-.021 1.748-.905 2.146-1.35.266-.293.607-.558.891-.392.107.063.47.487.095 1.53 0-.24-.09-.445-.138-.5a6.43 6.43 0 0 1-.684 1.722 2.438 2.438 0 0 1-.084-.37c-.132.846-.888 1.724-.995 2.93-.079-.13-.147-.217-.152-.527-.569 1.054-1.16 2.943-.793 3.89-.017-.961.574-2.347.88-2.786-.39 1.237-.845 2.77-.453 3.69.027-.788.478-2.076.805-2.611-.54 2.033-.764 3.07-.163 3.854-.104-.76.206-1.917.627-2.862-.278 1.589-.68 2.973.061 3.672-.109-1.04.287-2.421.503-2.911-.243 1.533-.454 3.012.04 3.75 0-.53.094-1.077.201-1.594.13-.672.328-1.314.328-1.314s-.157 1.072-.24 2.376a7.96 7.96 0 0 0-.014.656c.005.267.026.537.08.799.043.224.11.458.23.657.135-1.731.335-3.226.566-3.92 0 0-.198 1.62-.328 4.1l-.014.263c-.16 3.563.32 4.703.47 5.044 0 0-.033-.067-.048-.525-.01-.384-.014-.356.03-.795.013-.126-.317-.782-.269-1.663a51.072 51.072 0 0 1 .239-2.932c.055-.4.093-.782.15-1.188.078-.575.19-1.147.293-1.717.083-.454.037-.057.03.053-.042.512-.135 1.635-.226 2.789-.06.862-.253 2.568-.213 3.392.035.716.24 1.029.237 1.137-.04 1.389.097 1.95.34 2.472 0 0 .141-.494.252-1.118-.024.037-.07.104-.14.125-.174-.452-.263-1.242-.148-2.056.02-.145-.194-.328-.178-.982.026-1.024.16-2.043.288-3.06.044-.338.09-.67.138-.981.031-.201.061-.401.094-.603.044-.321.103-.643.172-.961l.03-.146c0 .003-.009.234-.033.544-.112 1.372-.42 4.874-.426 5.15-.012.687.174.893.163 1.017-.045.495-.028 1.41.043 1.636.065-.203.105-.577.105-.577s.194-1.42.42-3.442l.1-.933.092-.901c.033-.361.07-.721.101-1.082.015-.155.03-.311.042-.468.084-.952.18-2.025.26-2.973 0-.002.127-1.54.155-2.004-.042-.032-.076-.055-.076-.055s-.174 1.9-.68 2.57c-.137-.125-.3-.836-.29-1.074-.113.376-.574.885-.574.885s-.159-.376-.139-1c-.156.226-.289.398-.522.52-.095-.211-.208-.457-.199-1.048a1.513 1.513 0 0 1-.428.37c-.06-.146-.4-.683.212-2.671-.244 1.836-.099 2.049-.05 2.198.102-.045.205-.121.281-.184.024-.335.082-.76.19-1.31-.093 1.46.022 1.918.134 2.202.145-.102.347-.373.615-1.008m-4.472.624c.143-1.887.47-3.027.726-4.003-.996 1.086-.852 3.61-.726 4.003m.186-4.12c.316-.95.05-1.427-.132-1.526-.008.435.11.64.132 1.526m.808.785c.245-.871.387-1.396.387-2.111-.224.25-.416 1.19-.387 2.11m.861-1.863c.077-.312.086-.726.034-1.056-.139.324-.307 1.02-.273 1.66.081-.188.185-.39.24-.604m-2.286 7.132c-.002-.016-.002-.035.01-.047l.013-.008.016-.006c.027 0 .06.02.123.06l.131.079c-.076-.165-.09-.413-.107-.692-.017-.283-.027-.576-.113-.862 0 .004-.017-.028-.022-.037-.046.14-.145.269-.247.404-.145.19-.294.388-.336.65l-.008.052-.039-.037c.074.07-.208-.254-.21-.26-.11.415-.82 1.312-.985 1.498-.023.032-.294.435-.399 1.439-.1.948 0 1.532 0 1.532l.252-.273s.011.263-.02.568c-.025.236-.1.42-.1.42s.495.083.881-.382l.07.183c.062.18.11.396-.034.509-.022.017-.26.228-.23.435.01.072.051.14.14.203l.008.006.002.01c.008.116.095.179.152.207a.355.355 0 0 1 .006-.195c.052-.135.148-.17.22-.176.057-.004.114.015.114.015s.062.577.11.813a7.129 7.129 0 0 1 .152.975c.021.197.135.215.237.23.055.01.187 0 .244-.003l.01.003-.013.005c-.15.042-.139.1-.136.12.018.089.07.197.014.38l.023.02c.225-.123.224-.331.2-.515l-.003-.015.013-.01c.172-.1.13-.442-.115-.967-.116-.246-.163-.656-.088-.695.005-.001.01-.005.013-.005.038-.007.087-.002.204.169.08.117.161.218.262.346.098.12.165.232.162.332 0 .037-.01.064-.03.08a.133.133 0 0 1-.074.022.755.755 0 0 1-.159-.01c.055.056.262.296.324.222.156-.181.016.11.29.14.174.009.303-.11.31-.325 0-.075-.01-.125-.02-.191-.039-.202-.194-.404-.272-.483l-.06-.065c-.458-.507-.419-.62-.39-.668.043-.08.085-.103.205-.106.18-.003.374.023.385.025.187.036.491.084.482.182a.087.087 0 0 1-.049.053c-.063.028-.169.066-.185.04a.483.483 0 0 0 .173.123c.078.035.392.125.49-.023l.032-.066c.055 0 .21-.025.241-.13.03-.098-.098-.235-.232-.301a5.464 5.464 0 0 0-.68-.258c-.103-.031-.233-.054-.329-.083l-.553-.145c-.012-.004-.3-.096-.409-.145-.054-.025-.096-.043-.119-.055a.67.67 0 0 1-.234-.202c-.062-.084-.12-.311-.186-.555.066.037.232.149.437.179a2.577 2.577 0 0 1-.017-.5c.086-.911.103-1.436.103-1.436s.16.162.185.19c.028-.156-.026-.541-.057-.923v-.008a9.322 9.322 0 0 0-.179-1.056m.657 4.348l.427.112c.064.019.133.036.206.05.072-.203.11-.415.1-.623-.009-.238.534.263.893.627.152.152.181.085.093-.033-.36-.497-1.074-.965-1.276-1.091-.344-.214-.518-.162-.4.028.135.216.104.564-.043.93m.64 3.552c.406.51 1.05 1.468 1.297 1.727.532.558.76.619 1.166.644-.13-.38-.27-.75-.89-1.738-.328-.523-.875-1.358-1.434-1.991a.909.909 0 0 1-.038.286l-.03.06a.49.49 0 0 1-.147.164.495.495 0 0 1-.313.083.42.42 0 0 1-.272-.127.32.32 0 0 1-.196-.05c.022.193-.012.34-.103.44a.767.767 0 0 1-.212.544.247.247 0 0 0 .03.042c.133.239.074.356.012.432-.057.065-.702.784-.846.913-.17.155-.354-.02-.354-.02l-.106-.09s-.164.168-.297.3c.013.01.024.022.035.032v.002c.21.19.464.334.723.444.233.1.92.356 1.38.545a48.085 48.085 0 0 0-.37-1.112c.116.163.448.75.733 1.27-.019-.01.036.017.018.008.367.167.861.414 1.23.64-.03-.13-.055-.216-.055-.216s-.343-.354-.574-.685a7.128 7.128 0 0 1-.923-1.853c.532.805.67 1.03.88 1.313.671.904 1.386 1.297 1.661 1.304-.097-.503-.274-.615-.274-.615s-.33-.28-.687-.76a23.074 23.074 0 0 1-.029-.041c-.309-.426-.676-1.06-1.016-1.895m-1.837 4.435c.91.114 2.857.088 3.557-.185-.263-.214-1.375-.924-3.074-1.608-.35-.151-.804-.314-1.109-.535a4.704 4.704 0 0 1-.505-.408c-.56-.517-2.03-2.054-2.293-2.338l-.977.903s2.59 2.53 3.242 2.887c.833.453 3.22.995 3.22.995s-1.83-.14-3.222-.702c-.836-.34-3.486-2.955-3.486-2.955l-.64.593c.328.363 1.038 1.162 2.191 2.102.804.655 1.778 1.086 3.096 1.25m-2.805-.581c.004.497.406 1 .508 1.084 0 0 .153-.19.225-.677a4.012 4.012 0 0 1-.733-.407m-4.419-3.198a7.109 7.109 0 0 1-.923 1.852c-.23.334-.579.682-.579.682s-.017.06-.038.158l-.07.04.385-.215.191-.095c.254-.137.537-.267.82-.387.276-.5.605-1.093.71-1.25-.033.123-.097.459-.395 1.118l.212-.084c.44-.174.82-.312 1.004-.4.305-.137.444-.255.564-.343.025-.017.068-.058.123-.111l-.312-.315-.106.088s-.183.175-.354.02c-.142-.13-.789-.847-.845-.914-.063-.074-.136-.201.013-.431l.01-.011a.749.749 0 0 1-.229-.56c-.092-.1-.127-.246-.106-.44a.316.316 0 0 1-.195.05.41.41 0 0 1-.268.128h-.04a.435.435 0 0 1-.289-.092c-.089-.074-.09-.066-.158-.202l-.01-.027c-.373.392-.72.893-1.219 1.69-.619.988-.766 1.347-.896 1.728.408-.024.636-.087 1.168-.644.245-.26.891-1.215 1.297-1.727-.342.846-.715 1.484-1.026 1.91-.364.499-.729.8-.729.8s-.155.099-.25.6c.275-.005.99-.398 1.661-1.303.211-.284.347-.51.88-1.313m-.37-2.687c-.196.208-.35.442-.352.739.006.216.136.334.311.325.273-.03.134-.321.288-.14.064.074.27-.166.325-.222-.118.016-.288.037-.26-.135.021-.13.116-.238.195-.336.073-.09.297-.516.443-.463.068.05.026.449-.088.695-.246.525-.286.868-.116.968l.014.009-.003.015c-.025.184-.026.392.201.516l.021-.021c-.055-.183-.004-.291.014-.38.002-.02.014-.078-.135-.12l-.014-.005.01-.003c.058.004.19.013.244.004.101-.016.216-.034.238-.231a8.004 8.004 0 0 1 .15-.975c.051-.236.111-.813.111-.813s.058-.02.115-.015c.071.006.167.04.22.176a.336.336 0 0 1 .005.195c.06-.028.144-.091.153-.206l.002-.011.008-.006c.088-.062.13-.131.138-.203.033-.207-.207-.418-.228-.435-.144-.113-.096-.328-.034-.51l.083-.22c.073.089.168.179.28.242.333.235.665.179.665.179s-.076-.185-.099-.421c-.032-.305-.022-.568-.022-.568l.252.273s.15-.502.053-1.448c-.112-1.095-.343-1.524-.392-1.678-.079-.246-.217-.49-.217-.49s-.02.13-.2.285c-.21-.263-.583-.784-.678-1.138-.055.103-.14.196-.209.26l-.04.037-.008-.052c-.04-.262-.192-.46-.337-.65-.102-.135-.2-.264-.248-.404-.087.284-.106.6-.12.882-.019.279-.035.528-.109.692l.131-.077c.062-.04.094-.06.121-.06l.021.005.01.008c.011.013.011.03.01.047a8.956 8.956 0 0 0-.179 1.064 3.55 3.55 0 0 0 .028.873c.024-.027.285-.163.285-.163s-.168.548-.082 1.46c.014.145 0 .416-.018.499.173-.025.318-.11.4-.157-.067.242-.124.465-.186.549-.225.308-.702.387-1.054.479-.433.113-.867.205-1.269.409-.135.066-.262.203-.232.302.032.104.185.129.241.129l.032.066c.1.148.413.058.491.023a.48.48 0 0 0 .171-.122c-.016.025-.119-.013-.185-.041-.024-.01-.045-.036-.046-.053-.02-.184.752-.21.865-.207.12.003.16.026.205.106.028.049.068.16-.39.668m.223-2.466c.117-.19-.056-.242-.4-.028-.203.127-.916.594-1.277 1.09-.087.12-.058.187.093.034.36-.363.903-.865.893-.626-.009.21.028.424.104.63.058-.012.113-.025.163-.04l.47-.125c-.15-.367-.183-.717-.046-.935m-.782-7.168c.306.439.897 1.824.881 2.787.367-.948-.224-2.837-.794-3.89-.005.309-.073.396-.152.527-.108-1.207-.862-2.086-.995-2.93a2.612 2.612 0 0 1-.084.37 6.413 6.413 0 0 1-.683-1.723c-.048.055-.138.262-.139.499-.375-1.042-.012-1.466.095-1.53.285-.165.626.1.89.394.398.444.816 1.327 2.148 1.349.217.004.3-.05.188-.07.013.003.01.002-.003 0-1.107-.204-1.304-.65-2.227-1.656-.573-.626-1.145-.988-1.824-.187-1.319 1.557-1.74 2.867-1.976 3.948-.134.613-.225 1.917-.062 2.552.156-.055.166-.097.166-.097s.173 1.776.477 2.219c.09-.19.214-.657.214-1.076.17.525.322.806.552 1.107.122-.445.123-.857.063-1.34.267.635.468.905.613 1.007.114-.282.228-.742.137-2.202.106.55.164.975.188 1.31.076.063.178.139.281.184.05-.15.194-.362-.05-2.198.613 1.987.273 2.527.212 2.67a1.505 1.505 0 0 1-.429-.37c.01.59-.103.838-.198 1.05-.233-.123-.367-.296-.522-.52.02.622-.137.998-.137.998s-.463-.508-.575-.885c.01.239-.154.95-.29 1.076-.507-.67-.68-2.571-.68-2.571s-.036.024-.077.055c.028.463.086 1.182.155 1.996l.001.009c.08.947.175 2.02.26 2.972.197 2.28.452 4.556.754 6.826 0 0 .041.375.105.577.07-.226.088-1.141.045-1.636-.01-.124.173-.331.16-1.016-.003-.278-.319-3.78-.424-5.151-.013-.17-.034-.541-.034-.544a28.843 28.843 0 0 1 .297 1.71c.047.31.092.644.138.98.141 1.013.263 2.04.287 3.06.016.656-.198.838-.178.983.115.814.026 1.604-.148 2.056-.07-.021-.116-.088-.14-.125.11.623.254 1.118.254 1.118.24-.522.378-1.084.34-2.472-.005-.108.2-.421.235-1.137.01-.213-.028-.883-.087-1.718-.106-1.49-.233-2.976-.35-4.462l-.02-.262.048.207c.418 1.91.582 3.899.683 5.838.047.88-.283 1.536-.27 1.663.046.439.041.412.03.795-.015.458-.046.526-.046.526.148-.341.63-1.483.467-5.045l-.013-.263c-.13-2.48-.326-4.098-.326-4.098.23.692.43 2.187.563 3.917a.766.766 0 0 0 .05-.088c.247-.662.29-1.324.246-2.023-.083-1.304-.237-2.372-.236-2.37l.034.107c.047.145.162.53.291 1.2.093.463.156.93.192 1.4.005.066.007.13.01.195.494-.737.282-2.217.04-3.75.216.489.61 1.87.503 2.91.742-.696.34-2.082.06-3.67.421.944.731 2.102.626 2.86.602-.782.378-1.82-.162-3.853.326.537.778 1.823.804 2.612.393-.921-.062-2.453-.452-3.691m6.673 4.502c0-.005.318-.303.434-1.305.062.077.175.149.208.29.203-.246.605-1.592.65-2.05.131.059.014.03.166.106.108-.195.34-.961.44-2.021.051.015.136.015.172.058.07-.484.141-1.262.162-1.806.02-.468.005-1.435-.195-1.987-.199-.551-.292-.848-.612-1.354 0 0-.114.054-.17.134a11.388 11.388 0 0 0-.453-1.15c-.303-.592-.447-.975-.762-1.174.144.008.2.04.38.03-.206-.193-.285-.325-.517-.505.077-.052.21-.046.43-.008-.312-.286-.418-.72-1.22-1.024.143-.026.252.024.444.017a1.376 1.376 0 0 0-.746-.537c-.822-.162-1.956-.188-2.486.44-.037.045-.18.073-.308.12a.51.51 0 0 0-.152.078c-.092.067-.109.16.066.412-.232-.033-.29-.255-.33-.232a.815.815 0 0 0-.245.249c-.075.115-.144.359-.126.463.027.022.22.109.258-.118.014-.078.374-.112.498-.112.181-.001.347.043.573.032-.08.03-.334.104-.426.13-.102.028-.11.137-.015.144.103.012.15-.034.251-.057.047.028 0 .14.037.206.662-.152.711.56 1.416.42-.332-.26-.614-.694-.875-.825.695.109 1.073.736 1.826.767-.027-.071-.027-.071-.092-.201.257 0 .44.198.516.19-.097.105-.312.189-.6.228.051.095.331.116.427.133-.153.137-.328.204-.667.137-.11.102-.262.339-.752.637.007-.121.007-.121.026-.234-.324.188-.536.532-.778.624.071-.12.132-.33.184-.437-.847.77-1.657 1.509-1.963 2.065-.34.62-.448 1.263-.405 2.32.032.566.274 2.17.317 2.487.067-.03.116-.055.173-.076.204 1.176.813 2.83 1.13 3.369.06-.131.094-.186.186-.251.051.315.217.672.477.9-.009-.211.083-.335.107-.41.07.229.03.936.435 1.329-.024-.196.046-.36.102-.622.068.225.084.513.193.74.128.27.287.538.433.608-.017-.56.068-.531.09-.76.008.049.218.249.32.954.412-.317.572-1.358.57-1.357 0 0 .118.105.206.392.36-.374.47-.87.575-1.245.038.264.048.52.017.649m.413 5.503c.498-.007.625.002.82-.033a1.819 1.819 0 0 1-.048-.275.104.104 0 0 1-.012.003c-.17.04-.496.139-.937.06-.21-.042-.22-.048-.384-.096-.149-.044-.387.204-.573.4-.158.17-.367.408-.459.506-.017.017-.014.036.003.052.17.152 2.212 2.024 2.338 2.139.033.03.055.033.096-.008.092-.093.227-.238.358-.37l-2.05-1.933c-.032-.031-.036-.07-.022-.088.015-.017.103-.106.118-.125.015-.017.063-.021.092.012.03.033.662.623.662.623l.87.777.547.487c.077-.081.068-.064.09-.088.08-.092.061-.151-.217-.42a469.83 469.83 0 0 1-1.413-1.413c-.139-.158-.038-.21.121-.21m-3.149.43l-2.049 1.933c.13.132.265.275.357.369.04.04.062.038.095.009.127-.116 2.167-1.986 2.338-2.14.02-.016.021-.034.004-.05-.093-.1-.302-.338-.46-.507-.186-.196-.423-.445-.572-.401-.164.049-.174.054-.385.096-.442.079-.765-.02-.939-.061-.014-.002-.028-.007-.043-.012a1.88 1.88 0 0 1-.019.142c-.006.042-.016.087-.025.137.212.043.325.033.85.039.16 0 .26.053.121.21 0 0-1.337 1.337-1.413 1.415-.28.264-.298.328-.217.418.022.024.012.008.09.088l.547-.487.871-.775s.632-.591.66-.624c.03-.033.077-.03.093-.011.014.016.103.106.117.123.014.018.01.057-.02.089m.197-4.778s.002-.122-.073-.275c-.042-.083-.175-.186-.239-.264a.27.27 0 0 1-.062-.103c-.017.075.018.259.04.333a.413.413 0 0 0 .176.23.6.6 0 0 0 .158.079m-.02 3.886c.002 0 .15.145.178.175.031-.21.133-.903.092-.972-.233.449-.266.755-.27.797m-.813-.05c.077-.027.27-.113.374-.14l.078-.016c.06-.207.156-.53.223-.676-.059-.018-.573.693-.675.833m1.501.748a9.018 9.018 0 0 0-.04-.708 1.414 1.414 0 0 0-.18.477c.021.024.2.209.22.23m.135-1.83s-.05-.351-.313-.466c.013.255.313.467.313.467m.207-.584s.002-.003.003-.01v.01s.04-.094.185-.203c.095-.07.667-.412.777-.566.11-.15.156-.357.156-.357s-.102.164-.33.295c-.19.11-.64.39-.722.529a.441.441 0 0 0-.06.175.425.425 0 0 0-.039-.132c-.139-.29-.552-.408-.8-.695-.163-.186-.169-.262-.169-.262-.007.192.032.337.11.443.07.096.277.276.552.456.28.183.337.317.337.317m-.269-1.034c.002-.456-.496-.508-.612-.96-.056.635.383.645.612.96m.231 1.81s.063-.026.207-.113c.128-.078.237-.163.3-.283a.486.486 0 0 0 .045-.316s-.028.118-.195.273a2.046 2.046 0 0 0-.225.233c-.087.107-.132.206-.132.206m.435.269c.046.27.081.907.092 1.112l.001-.002.227-.23c-.015-.096-.103-.6-.32-.88m-.406 1.655c.011-.013.164-.197.242-.28a.083.083 0 0 0 .014-.012c-.047-.35-.128-.788-.244-.953-.024.165-.019.78-.012 1.245m.003.189c.001.15.005.27.006.329l.16-.171s-.125-.111-.166-.158m.104.542c.285.298.665.697.917.942l.263-.257-.977-.901c-.04.045-.11.118-.203.216m1.156 1.173c.214.208.448.447.635.633l.275-.3-.64-.595-.27.262m.191-3.031c-.1-.137-.373-.496-.607-.71.158.38.231.62.255.71l.04-.021a.265.265 0 0 1 .124-.028c.04.002.083.014.134.028 0 .002.036.014.054.02m-.236-3.692c-.127.204-.232.32-.393.46a1.37 1.37 0 0 0 .066-.315 2.283 2.283 0 0 1-.378.496c-.292.292-.347.575-.347.575s.08-.105.431-.312c.37-.22.505-.556.621-.904m-4.566-3.964c-.003.356.25.849.586 1.043-.199-.542-.357-.721-.586-1.043m7.353-6.522a.676.676 0 0 0 .393-.092c.11-.068.134-.111.167-.157.843-1.226 2.411-3.194 3.585-4.748-2.4-2.375-5.836-2.538-6.73-2.472-.212.016-.45.184-.185.53-.195.089-.929.023-1.202-.234-.275.257-1.009.323-1.204.235.266-.347.028-.515-.183-.531-.903-.066-4.518.286-6.698 2.418l3.766 4.989a.444.444 0 0 0 .325.145l.06-.001c.132-.006.255-.094.388-.241.26-.284.388-.443.644-.705.494-.507.96-.89 1.038-.963.208-.193.275-.346.282-.508-.012-.183-.156-.253-.244-.364-.005.016-.03.047-.045.065-.08-.064-.173-.344-.173-.344l-.048.13s-.185-.446-.478-.407c-.402.056-.662-.117-.69-.128-.027-.007-.043.13-.035.284a.046.046 0 0 1-.014-.005c-.278-.234-.36-.84.17-1.228.327-.241.387-.232.638-.352.108-.05.188-.152.213-.183.17-.206.511-.323.704-.375.245-.065.827-.146 1.408-.114.326.018.634.093.854.183.172.07.671.439.945.802.182.238.493.914.67 1.343.365.897.322.8.571 1.395.284.679.457 1.058.73 1.44.092.13.194.183.378.193m4.324-5.234l.244-.324c-1.099-.972-2.726-1.956-4.514-2.342a12.174 12.174 0 0 0-2.777-.277c-.498.008-.817.2-.817.51-.31-.055-.394-.446-.434-.52-.029.165-.18.482-.43.52 0-.31-.32-.502-.819-.51a12.199 12.199 0 0 0-2.779.277 10.013 10.013 0 0 0-4.486 2.279c.08.106.161.214.243.32.985-.927 2.297-1.662 3.697-2.072 1.16-.34 2.586-.461 3.242-.432.583.028.667.359.598.54.261.027.65-.2.734-.353.062.116.418.378.736.354-.069-.182.015-.513.6-.541.655-.03 2.081.093 3.242.432 1.365.399 2.736 1.23 3.72 2.139m.656-1.187c.123.426.255.905.615 1.194.05.039.104.075.164.107l.007.005c-.007-.821.27-1.264.484-1.744h.001v-.005c.306.044.704.157 1.52.01-.773-.522-.606-1.107-1.179-1.746a2.61 2.61 0 0 0-.21-.208c-.206-.145-.357-.196-.468-.2a.319.319 0 0 0-.265.117c-.075.082-.88.948-1.407 1.542.472-.011.598.426.738.928m.53-2.865c-.54-.532-1.397-1.123-2.424-1.574-2.68-1.18-6.084-1.184-7.056-1.184l-.002-.002-.004.002c-.972 0-4.375.005-7.056 1.184-1.027.45-1.884 1.042-2.423 1.574 0 0 1.215 1.365 1.53 1.734.165.195.217.357.121.648 1.864-1.252 3.982-1.878 7.757-1.901l.17-.003c3.71.036 5.89.664 7.735 1.904-.096-.291-.043-.453.122-.648.315-.37 1.53-1.734 1.53-1.734m-19.1.397l-.003-.002c-.075-.083-.266-.25-.732.083-.832.722-.563 1.376-1.42 1.954.306.055.553.073.757.073.138 0 .257-.01.363-.021.158-.018.285-.044.398-.06h.004c.214.482.487.922.48 1.742 1-.531.592-2.245 1.522-2.226l-1.37-1.543m.648 3.454c.732.978 1.287 1.717 1.395 1.867.257.35 1.135 1.407 1.128 1.272-.005-.081-.54-.83-.88-1.293a323.28 323.28 0 0 0-1.516-2.037c-.048.069-.09.135-.127.19m3.627 6.644c0 .715.142 1.24.387 2.11.03-.92-.163-1.86-.387-2.11m-.507-.81c-.053.33-.044.745.033 1.057.054.215.158.416.24.605.032-.642-.136-1.337-.273-1.661m1.887 6.255c.127-.393.271-2.917-.725-4.002.256.974.582 2.115.725 4.002m-2.739 14.057c.7.27 2.647.298 3.556.185 1.161-.147 2.054-.498 2.801-1.027a21.654 21.654 0 0 1-.68-.621c-.39.317-.739.566-.96.654-1.389.564-3.22.704-3.22.704s2.386-.542 3.218-.996c.158-.085.428-.296.746-.57a68.6 68.6 0 0 1-.838-.82 5.634 5.634 0 0 1-.44.347c-.306.22-.76.383-1.109.535-1.7.683-2.812 1.394-3.074 1.609m5.687-.003c.071.228.197.522.281.668 0 0 .45-.364.583-1.2-.085.069-.225.184-.342.257a7.184 7.184 0 0 1-.522.275m8.704-24.33c.103-.144.611-.822 1.295-1.733a1.686 1.686 0 0 1-.136-.182c-.469.628-.949 1.272-1.406 1.894-.34.463-.876 1.212-.88 1.29-.008.137.87-.92 1.127-1.27m3.943-4.528l-.247.327c.213.384.44.785 1.043 1.1-.24-.49-.506-.965-.796-1.427m-.559-.332l.112.195 2.663-3.545s-.537.382-1.314.743c.078.418-.183.94-.285 1.069-.042.052-.502.65-1.176 1.538m-22.147-.531l.208.277c1.035-1.332 2.417-2.281 4.087-2.91-.132-.196-.318-.634.168-1.11l.002-.002c.723.09.903.528.948.753 1.3-.353 2.84-.57 4.563-.632.06-1.19.902-1.476.902-1.476s.014-.223.194-.301h.004c.18.078.196.3.196.3s.841.288.902 1.477c1.721.062 3.261.279 4.563.632.043-.225.224-.662.945-.753l.003.002c.486.476.301.914.17 1.11 1.668.629 3.095 1.616 4.133 2.946.073-.1.145-.193.212-.284-.967-1.2-2.324-2.17-3.772-2.77.157-.471.002-.87-.276-1.153a.491.491 0 0 0-.23-.42l-.003-.001a.634.634 0 0 0-.488.192c-.419.063-.829.28-1.055.726-1.076-.26-2.289-.433-3.838-.514-.037-.714-.45-1.156-.959-1.407a.749.749 0 0 0-.504-.434.739.739 0 0 0-.504.434c-.509.25-.923.693-.959 1.407-1.55.08-2.764.254-3.84.514-.224-.446-.635-.663-1.055-.726a.632.632 0 0 0-.486-.194h-.002a.499.499 0 0 0-.23.423c-.28.284-.436.682-.277 1.153-1.459.603-2.755 1.532-3.722 2.74m-.084.664c.042-.077.084-.137.12-.183a196.54 196.54 0 0 0-1.097-1.433c-.102-.128-.363-.651-.285-1.07-.777-.36-1.314-.742-1.314-.742s1.221 1.623 2.576 3.428m-1.298 1.649c.12-.07.518-.32.764-.668.124-.175.217-.343.296-.501l-.264-.34c-.288.489-.553.992-.796 1.509m-2.177 10.148c.25.21 1.5 1.273 3.476 2.4.047-1.182.08-5.44 2.62-9.984l-.694-.925c-.21.219-.475.372-.869.49.016-.902-.18-1.396-.428-1.922-.36.01-.974.025-1.938-.182-1.282 2.747-1.93 5.92-2.167 10.123m11.584 19.307l.015-.038c.071-.194.401-.983.568-1.382a4.462 4.462 0 0 1-.065-.207c-.226.038-.455.07-.682.095-.15.014-2.412.363-4.053-.408.201-.14.574-.45 1.081-.776.007-.035.013-.067.018-.101a1.992 1.992 0 0 1-1.06.248c-.025-.26.044-.596.177-.978a1.368 1.368 0 0 1-.66-.007s.247-.798.782-1.754c.5-.893 1.197-1.795 1.795-2.54.061-.295.29-.543.315-.57a3.28 3.28 0 0 0 .1-.108 3.827 3.827 0 0 0-.195-.16.506.506 0 0 1-.16.126c-.189.086-.305.117-.404.12-.21.009-.329-.033-.402-.136l-.014-.026c-.155-.042-.26-.132-.298-.255a.306.306 0 0 1-.01-.078c-.116.037-.197.047-.3-.042-.146-.125.056-.76.747-1.416a4.608 4.608 0 0 1 1.36-.911c.326-.144.516.135.358.326-.19.23-.336.636-.143 1.06.2-.066.275-.1.305-.111.077-.031.17-.056.272-.191a.275.275 0 0 0 .033-.072l-.288.034c.148-.365-.08-1.253.07-1.828a1.11 1.11 0 0 1-.197.114c-.106-.525-.09-1.356-.049-1.763-.008-.105-.155-.288-.357-.495-.16.414-.443.916-.917 1.502-.366.452-1.028.859-1.366 2.309l-.004.01c-.056.23-.136.444-.24.66-.222.459-.207.726-.207.726v-.005c.022.914-.017 2.806-.242 3.863-.196.928-.525 1.399-.525 1.399l-.05-.046c-.086.317-.234.87-.594 1.304 0 0-.309-.618-.87-5.335-.62-5.192-.933-10.612-.933-10.612h.003c-.059-.958.157-2.08.432-2.9.505-1.307 1.375-2.573 1.91-3.097.334-.326.706-.4 1.065-.331a49.409 49.409 0 0 1-.212-.286c-.356-.473-.767-.993-1.118-1.458-2.53 4.467-2.467 9.796-2.467 9.84l.003.569-.444-.237c-1.99-1.132-2.855-1.816-3.502-2.355-.028.54-.083 2.377-.083 2.377-.002.033 0 .418 0 1.117 0 2.129.382 7.359 2.117 10.952.24.448.888 1.649 2.06 2.75a7.991 7.991 0 0 0 3.073 1.803c.066.02.2.066.267.087 1.326.422 2.767.335 4.185-.376m-.099 1.48c.264-.221.675-.382 1.19-.168.031-.626.131-1.563.267-2.388-.207.2-.377.298-.393.297-.03-.002-.067-.035-.107-.087-.397.969-.952 2.333-.957 2.347m5.037.46c.03-.66-.237-2.433-.4-3.444a.976.976 0 0 1-.056-.082 1.489 1.489 0 0 1-.095-.14 4.749 4.749 0 0 1-.227.629c-.113.248-.292.509-.327.505-.029-.004-.503-.34-.808-1-.304.65-.77.98-.8.985-.035.002-.213-.258-.325-.507a4.015 4.015 0 0 1-.134-.338c-.158 1.06-.39 2.763-.36 3.392-.983-.65-1.579-.002-1.377.453a.636.636 0 0 0 .554.366c.316.02.735.053 1.21.275.434.205.903.543 1.38 1.138.474-.595.944-.933 1.376-1.138.475-.222.895-.255 1.211-.275a.69.69 0 0 0 .49-.26.621.621 0 0 0 .064-.106c.204-.455-.393-1.103-1.376-.453m1.504-.46c-.005-.014-.599-1.544-.962-2.473-.088.12-.172.214-.193.213-.015 0-.152-.077-.328-.236.136.73.26 1.642.293 2.327.516-.214.926-.053 1.19.169m11.342-17.77a90.862 90.862 0 0 0-.077-2.423c-.672.545-1.309 1.094-3.4 2.3l-.547.297.004-.393c0-.045.15-5.366-2.432-9.954-.163.217-.706.91-1.264 1.62.328-.037.663.049.967.347.534.524 1.404 1.789 1.91 3.097.275.82.491 1.942.433 2.9h.001s-.313 5.42-.93 10.61c-.562 4.718-.87 5.337-.87 5.337-.36-.434-.509-.988-.595-1.304l-.05.046s-.33-.471-.526-1.4c-.225-1.058-.264-2.948-.24-3.862l-.002.005s.015-.267-.207-.726a3.247 3.247 0 0 1-.24-.66l-.004-.01c-.339-1.45-1-1.858-1.364-2.31a6.728 6.728 0 0 1-.957-1.572l-.036.03c-.24.23-.42.465-.429.597.083.847.16 1.45.035 1.88-.053-.027-.133-.11-.178-.144.057.56-.207 1.209-.04 1.724l-.33-.044a.414.414 0 0 0 .036.08c.047.063.09.1.168.145l.108.05c.03.013.112.045.34.12a1.006 1.006 0 0 0-.145-1.055c-.158-.191.032-.471.358-.328.422.186.878.453 1.36.91.692.658.895 1.293.748 1.418-.114.097-.2.077-.337.028 0 .025-.003.05-.01.074-.038.125-.143.215-.297.257l-.016.026c-.073.103-.192.14-.4.137-.18-.004-.378-.108-.405-.121a.597.597 0 0 1-.136-.1 3.338 3.338 0 0 0-.123.1c.546.738 1.593 1.955 2.342 3.29.534.956.782 1.754.782 1.754s-.286.093-.66.009c.132.382.203.717.177.976a1.973 1.973 0 0 1-1.06-.247c.01.06.022.124.031.186.336.242.711.52.875.636-1.639.77-4.016.418-4.062.41-.113-.014-.216-.03-.305-.042a4.5 4.5 0 0 1-.059.149c.16.382.533 1.27.617 1.446 1.041.478 2.011.79 3.504.542 0 0 .254-.024.891-.24.652-.22 1.88-.938 2.817-1.823 1.171-1.101 1.882-2.26 2.113-2.714 1.815-3.551 2.115-8.823 2.115-10.953l.001-1.107M68.137 27.922v3.486c0 1.193.362 1.495 1.017 1.495.655 0 1.017-.302 1.017-1.495v-3.486h.693v3.456c0 1.51-.558 2.106-1.71 2.106s-1.71-.596-1.71-2.106v-3.456h.693zm42.38-.114c.994 0 1.551.484 1.506 1.592h-.723c.007-.596-.182-.988-.837-.988-.414 0-.835.21-.835.8 0 1.2 2.44 1.027 2.44 2.754 0 1.147-.79 1.517-1.687 1.517-1.605.016-1.605-1.215-1.59-1.735h.686v.158c0 .74.467.974.91.974.55 0 .972-.235.972-.883 0-1.208-2.44-1.071-2.44-2.71 0-.966.686-1.479 1.597-1.479zm-29.644 0c1.077 0 1.491.56 1.423 1.616h-.715c.007-.31-.015-.62-.159-.793-.142-.174-.466-.234-.61-.234-.524 0-.758.292-.81.399l-.01.024c-.022.06-.158.196-.158 1.131v1.458c0 1.335.436 1.494.97 1.494.212 0 .853-.076.86-1.14h.716c.027 1.588-1.004 1.71-1.441 1.72h-.096c-.678 0-1.717-.044-1.717-2.158v-1.54c0-1.539.677-1.977 1.747-1.977zm-33.468.114l1.77 5.449H48.4l-.391-1.3h-2.102l-.406 1.3h-.7l1.724-5.45h.88zm54.963 0v.603h-1.43v4.846h-.693v-4.846h-1.432v-.603h3.555zm-10.98 0l1.77 5.449h-.776l-.392-1.3H89.89l-.407 1.3h-.7l1.725-5.45h.88zm-40.474 0l2.117 4.664h.015v-4.664h.617v5.449h-.948l-2.147-4.725h-.015v4.725h-.617v-5.45h.978zm5.694 0c.693 0 1.19.249 1.461.83.219.46.241 1.547.241 1.72 0 1.162-.106 1.835-.33 2.196-.295.468-.845.703-1.793.703h-1.25v-5.45h1.67zm16.478 0l2.116 4.664h.015v-4.664h.617v5.449h-.948l-2.147-4.725h-.015v4.725h-.617v-5.45h.979zm30.781 0v5.448h-.693v-5.449h.693zm-25.991 0v5.448h-.693v-5.449h.693zm6.281 0v5.448h-.694v-5.449h.694zm23.822 0v.603h-2.109v1.751h1.958v.604h-1.958v1.886h2.154v.605h-2.847v-5.45h2.802zm-45.656 0l1.371 4.573h.015l1.386-4.574h1.145v5.45h-.693v-4.846h-.015l-1.522 4.846h-.655l-1.491-4.846h-.015v4.846h-.648v-5.45h1.122zm35.684 0v5.448h-.693v-5.449h.693zm-3.434 0v4.844h1.996v.605H93.88v-5.45h.693zm-7.404 0c.73 0 1.514.272 1.514 1.554 0 1.237-.964 1.495-1.522 1.495h-.91v2.4h-.694v-5.45h1.612zm-30.628.603h-.912v4.242h.656c.964 0 1.317-.363 1.317-1.63v-1.102c0-1.102-.34-1.51-1.061-1.51zm-9.595.038h-.016l-.85 2.906h1.739l-.873-2.906zm43.982 0h-.015l-.85 2.906h1.74l-.875-2.906zm-3.722-.038h-.956v1.842h.76c.287 0 .965-.075.965-.929 0-.83-.618-.913-.769-.913zm-31.7-9.798v3.487c0 1.192.362 1.494 1.017 1.494.655 0 1.017-.302 1.017-1.494v-3.487h.693v3.456c0 1.51-.558 2.107-1.71 2.107s-1.71-.596-1.71-2.107v-3.456h.693zm54.954-.113c1.174 0 1.732.43 1.687 1.57h-.723c0-.641-.264-.988-.964-.988-.219 0-1.002.037-1.002 1.176v1.842c0 1.192.347 1.494 1.002 1.494.497 0 .828-.135.971-.241v-1.63h-1.002v-.604h1.695v2.65a3.352 3.352 0 0 1-1.664.407c-1.152 0-1.71-.597-1.71-2.106v-1.79c0-1.086.558-1.78 1.71-1.78zm-63.555 0c1.152 0 1.71.694 1.71 1.781v1.789c0 1.51-.558 2.105-1.71 2.105s-1.71-.596-1.71-2.105v-1.789c0-1.087.558-1.78 1.71-1.78zm-28.279.113c.964 0 1.303.68 1.303 1.359 0 .642-.354 1.132-.994 1.245v.015c.625.099.85.31.888 1.404.008.234.084 1.087.189 1.426h-.723c-.196-.377-.15-1.086-.211-1.81-.049-.621-.518-.688-.77-.695h-.864v2.505h-.694v-5.449h1.876zm-4.353 0l1.77 5.45h-.776l-.392-1.299h-2.1l-.408 1.298h-.7l1.725-5.449h.881zm47.023 0c.965 0 1.304.68 1.304 1.359 0 .642-.354 1.132-.994 1.245v.015c.625.099.85.31.888 1.404.008.234.084 1.087.189 1.426h-.723c-.196-.377-.151-1.086-.211-1.81-.05-.621-.518-.688-.77-.695h-.864v2.505h-.694v-5.449h1.875zm23.106 0v4.846h1.997v.603h-2.69v-5.449h.693zm8.27 0l2.115 4.664h.015v-4.664h.618v5.45h-.949l-2.146-4.725h-.016v4.724h-.617v-5.449h.98zm-58.878 0v.604h-2.108v1.751h1.958v.604h-1.958v1.887h2.152v.603h-2.846v-5.449h2.802zm9.037 0v.604h-1.43v4.845h-.694v-4.845h-1.43v-.604h3.554zm22.63 0c.754 0 1.01.257 1.213.558.189.295.219.62.219.725 0 .68-.234 1.132-.935 1.29v.039c.776.09 1.115.558 1.115 1.305 0 1.396-1.016 1.532-1.634 1.532h-1.747v-5.449h1.77zm32.233 0l2.117 4.664h.015v-4.664h.617v5.45h-.949l-2.146-4.725h-.015v4.724h-.618v-5.449h.98zm7.117 0l2.116 4.664h.015v-4.664h.618v5.45h-.949l-2.147-4.725h-.015v4.724h-.617v-5.449h.98zm-94.756 0c.73 0 1.513.272 1.513 1.555 0 1.238-.964 1.494-1.521 1.494h-.911v2.4h-.693v-5.449h1.612zm42.408 0v.604H50.46v1.751h1.897v.604H50.46v2.49h-.693v-5.449h2.696zm-16.689 0l2.116 4.664h.015v-4.664h.618v5.45h-.949l-2.147-4.725h-.015v4.724h-.617v-5.449h.98zm34.56 0l1.77 5.45h-.775l-.391-1.299h-2.102l-.406 1.298h-.7l1.724-5.449h.88zm-46.33 0v.604h-1.431v4.845h-.694v-4.845h-1.43v-.604h3.555zm78.48 0v5.45h-.693v-5.45h.693zm-100.812 0c.693 0 1.19.25 1.461.83.219.461.241 1.548.241 1.721 0 1.163-.105 1.834-.331 2.196-.294.468-.844.702-1.792.702H0v-5.449h1.671zm5.716 0v.604H5.28v1.751h1.959v.604H5.279v1.887h2.154v.603H4.587v-5.449h2.801zm81.774 0l1.77 5.45h-.777l-.39-1.299h-2.102l-.406 1.298h-.702l1.725-5.449h.882zm-15.318 0l2.116 4.664h.015v-4.664h.618v5.45h-.95l-2.146-4.725h-.015v4.724h-.617v-5.449h.979zm-47.996 0l1.37 4.574h.016l1.385-4.574h1.145v5.45h-.692V19.33h-.015l-1.522 4.845h-.655l-1.491-4.845h-.015v4.845h-.648v-5.449h1.122zm55.376 0c.73 0 1.514.272 1.514 1.555 0 1.238-.964 1.494-1.522 1.494h-.91v2.4h-.694v-5.449h1.612zm-34.319.468c-.218 0-1.002.038-1.002 1.177v1.842c0 1.193.347 1.494 1.002 1.494s1.002-.301 1.002-1.494v-1.842c0-1.14-.783-1.177-1.002-1.177zm-45.3.136H.692v4.242h.655c.964 0 1.318-.363 1.318-1.63V20.84c0-1.103-.339-1.51-1.062-1.51zm63.518 2.294h-.738v1.948h.979c.738 0 1.001-.529 1.001-.93 0-.867-.534-1.018-1.242-1.018zm-51.31-2.256H13.8l-.852 2.905h1.74l-.874-2.905zm56.063 0h-.016l-.85 2.905h1.739l-.873-2.905zm18.827 0h-.016l-.85 2.905h1.739l-.873-2.905zm-78.61-.038h-.957v1.841h.76c.286 0 .964-.075.964-.928 0-.83-.617-.913-.767-.913zm71.169 0h-.957v1.841h.76c.287 0 .965-.075.965-.928 0-.83-.618-.913-.768-.913zm-20.1 0h-1.047v1.736h1.039c.497 0 .738-.43.738-.905 0-.393-.196-.831-.73-.831zm-42.672 0h-1.046v1.736h1.039c.497 0 .738-.43.738-.905 0-.393-.196-.831-.73-.831zm46.874 0h-.98v1.69h1.01c.542-.007.805-.339.805-.867 0-.453-.256-.823-.835-.823zm-32.167-3.418c.12 0 .22.043.306.128a.418.418 0 0 1 .127.306c0 .12-.042.221-.127.306a.417.417 0 0 1-.306.129.418.418 0 0 1-.306-.129.416.416 0 0 1-.127-.306c0-.119.042-.221.127-.306a.418.418 0 0 1 .306-.128zm1.44 0c.12 0 .221.043.306.128a.418.418 0 0 1 .128.306c0 .12-.043.221-.128.306a.417.417 0 0 1-.306.129.418.418 0 0 1-.306-.129.416.416 0 0 1-.127-.306c0-.119.042-.221.127-.306a.418.418 0 0 1 .306-.128zm-5.352-7.076v4.752c0 .306-.02.604-.063.894a2.338 2.338 0 0 1-.244.773c-.12.224-.293.409-.517.548-.187.117-.425.186-.716.205l-.18.006v-.664c.263 0 .466-.053.611-.16a.94.94 0 0 0 .319-.43c.068-.181.108-.389.12-.624.01-.157.015-.319.018-.485l.002-.254v-.141h-.357c-.688 0-1.223-.153-1.606-.46-.383-.307-.573-.715-.573-1.227 0-.356.078-.693.234-1.008.157-.315.377-.594.66-.837.284-.242.62-.44 1.01-.594.389-.153.816-.25 1.282-.294zm27.146-2.324v6.743h-9.247l-.007-.001v.001h-4.701v.294c0 .281-.018.567-.051.856-.034.29-.11.554-.23.792-.12.239-.293.432-.522.581-.192.125-.439.197-.742.218l-.19.006v-.665c.248 0 .443-.05.588-.153a.948.948 0 0 0 .324-.402c.073-.166.118-.356.135-.568.01-.142.018-.288.022-.437l.003-.228V9.323h.663v3.27h1.47a1.764 1.764 0 0 1-.306-.518c-.08-.2-.12-.449-.12-.747 0-.442.125-.815.375-1.117.25-.302.543-.547.882-.735a4.035 4.035 0 0 1 1.021-.402c.275-.064.502-.109.681-.133l.126-.014v3.666H51.894a2.445 2.445 0 0 0-.434-.668 5.371 5.371 0 0 0-1.16-.968 9.9 9.9 0 0 0-.446-.261c.077-.33.2-.617.369-.86a2.483 2.483 0 0 1 1.333-.968c.267-.079.537-.119.81-.119.348 0 .66.05.935.152.277.102.517.237.72.408.205.169.379.37.524.604.144.234.254.478.33.732-.144.077-.314.18-.509.313a6.046 6.046 0 0 0-.586.45c-.196.17-.38.357-.555.56-.13.154-.238.309-.323.466l-.078.158h2.944v-6.08h.663zm42.375 2.81v3.27h6.437v-3.27h.662v3.934h-7.099v.293c0 .281-.017.566-.051.856-.034.29-.11.554-.23.792-.119.239-.293.432-.522.582-.191.123-.438.196-.741.216l-.19.007v-.665c.248 0 .443-.05.587-.153a.946.946 0 0 0 .325-.402c.072-.167.117-.356.134-.569.011-.142.019-.287.023-.437l.003-.227V9.322h.662zm-62.614-.69l1.237 3.96h.892V9.336h.662v3.92h-2.039l-1.198-3.818c-.17.06-.319.145-.446.256-.127.11-.235.236-.325.376-.089.141-.155.29-.198.447a1.789 1.789 0 0 0-.063.466c0 .358.115.673.344.946.23.272.492.514.79.727.077.052.138.096.185.134l.062.06.046.062.166.268c0 .195-.042.413-.128.651a2.144 2.144 0 0 1-1.121 1.214c-.298.144-.663.217-1.096.217a2.14 2.14 0 0 1-1.268-.433 1.732 1.732 0 0 1-.471-.557c-.1-.18-.158-.39-.178-.628l-.007-.184v-.855h.662v.855a1.038 1.038 0 0 0 .434.869c.127.094.265.162.414.205.148.042.286.064.414.064.331 0 .601-.05.81-.149.208-.1.373-.217.496-.354.124-.138.209-.279.255-.42.035-.106.062-.197.08-.272l.015-.07-.038-.05a20.013 20.013 0 0 1-.44-.326 3.31 3.31 0 0 1-.503-.48 2.806 2.806 0 0 1-.414-.65 1.944 1.944 0 0 1-.172-.83c0-.29.044-.567.134-.83.09-.265.223-.504.401-.716.179-.213.402-.39.67-.53.267-.14.58-.237.936-.287zm-14.809 5.582c.12 0 .221.042.306.127a.417.417 0 0 1 .128.307c0 .119-.043.22-.128.306a.417.417 0 0 1-.306.128.418.418 0 0 1-.306-.128.417.417 0 0 1-.127-.306c0-.12.042-.222.127-.307a.418.418 0 0 1 .306-.127zM10.937 14.2c.119 0 .22.043.306.128a.422.422 0 0 1 .127.306c0 .12-.043.222-.127.307a.418.418 0 0 1-.306.128.416.416 0 0 1-.306-.128.418.418 0 0 1-.128-.307.42.42 0 0 1 .128-.306.416.416 0 0 1 .306-.128zm-1.3 0c.119 0 .221.043.306.128a.422.422 0 0 1 .127.306.42.42 0 0 1-.127.307.418.418 0 0 1-.306.128.415.415 0 0 1-.306-.128.418.418 0 0 1-.127-.307.42.42 0 0 1 .127-.306.415.415 0 0 1 .306-.128zm60.915 0c.118 0 .22.043.305.128a.422.422 0 0 1 .128.306c0 .12-.043.222-.128.307a.418.418 0 0 1-.305.128.416.416 0 0 1-.306-.128.418.418 0 0 1-.128-.307.42.42 0 0 1 .128-.306.416.416 0 0 1 .306-.128zm-1.3 0c.119 0 .22.043.306.128a.422.422 0 0 1 .127.306.42.42 0 0 1-.127.307.418.418 0 0 1-.307.128.415.415 0 0 1-.305-.128.418.418 0 0 1-.127-.307.42.42 0 0 1 .127-.306.415.415 0 0 1 .305-.128zm-6.066-7.713v4.636A4.32 4.32 0 0 1 64.71 9.68c.356-.203.77-.376 1.24-.517a6.334 6.334 0 0 1 1.321-.231l.3-.018.355-.012v3.69h2.306V9.337h.663v3.257h1.223v-6.08h.663v4.611a4.88 4.88 0 0 1 .619-.773c.25-.26.554-.494.91-.702a5.423 5.423 0 0 1 1.25-.518c.396-.113.84-.179 1.33-.198l.3-.005h.345v3.665h3.913a2.434 2.434 0 0 1-.198-.671 10.301 10.301 0 0 1-.108-1.066c-.026-.315-.077-.562-.153-.741a1.023 1.023 0 0 0-.28-.402.822.822 0 0 0-.358-.173 1.585 1.585 0 0 0-1.143.174l-.156.094-.409-.523c.162-.12.358-.223.587-.313.23-.09.48-.135.752-.135 1.122 0 1.729.657 1.822 1.968.026.324.052.585.077.785.025.2.055.363.09.486.033.123.067.212.101.268a.363.363 0 0 0 .115.121c.05.043.108.075.172.096a.617.617 0 0 0 .147.028l.09.004h4.23v-3.27h.662v3.27h1.147v-6.08h.663v6.744H71.482l-.006-.001-.007-.001v.002h-2.957l-.006-.001-.005-.001v.002h-6.31c-.178 0-.343-.026-.496-.077a1.921 1.921 0 0 1-.414-.192 2.157 2.157 0 0 1-.49-.407l-.065-.078.535-.396a1.184 1.184 0 0 0 .287.275c.08.056.176.104.287.147.074.028.151.047.232.057l.125.007h.331V6.488h.663zM6.642 9.323v3.934H2.844c-.875 0-1.565-.232-2.07-.696-.506-.464-.76-1.147-.76-2.05 0-.17.008-.34.02-.511.009-.114.024-.233.045-.357l.038-.192.65.115c-.034.17-.058.332-.07.485-.013.153-.02.303-.02.447 0 .673.18 1.19.536 1.552.321.326.784.505 1.387.537l.206.006H5.98v-3.27h.662zm13.085-2.81v6.08h1.338V9.336h.662v3.257h1.16v-6.08h.663v6.744h-1.236l-.007-.001-.006-.001v.002h-10.05v-.664h2.74a5.25 5.25 0 0 0 .165-.512c.06-.213.09-.472.09-.778 0-.238-.033-.467-.096-.684a1.903 1.903 0 0 0-.268-.568 1.318 1.318 0 0 0-.433-.39 1.164 1.164 0 0 0-.58-.146c-.179 0-.361.031-.549.095-.149.05-.315.137-.497.257l-.14.096-.395-.512c.17-.145.387-.28.65-.408.264-.129.578-.193.943-.193a1.822 1.822 0 0 1 1.526.768c.167.228.292.49.376.784.083.294.125.594.125.9 0 .248-.02.482-.063.703-.028.148-.059.284-.094.409l-.056.179h3.37v-6.08h.662zm38.386.038v6.705h-.663V6.551h.663zm38.884 2.12v4.586h-.7c-.222 0-.47-.03-.747-.09a2.752 2.752 0 0 1-.777-.294 1.913 1.913 0 0 1-.612-.542c-.166-.226-.249-.505-.249-.837 0-.306.06-.585.179-.836.119-.25.272-.477.458-.677.188-.2.397-.377.632-.53a5.6 5.6 0 0 1 1.816-.78zm-56.332-2.12v6.705h-.662V6.551h.662zm66.935 0v6.705h-.663V6.551h.663zm-99.276 0v6.041h2.294V9.336h.663v3.92h-3.62V6.553h.663zm16.908 0v6.705h-.662V6.551h.662zm65.75 0v6.705h-.663V6.551h.662zm19.078 2.3c.34 0 .637.07.892.21.254.14.466.326.633.556.168.23.292.491.376.785.083.294.125.594.125.9 0 .23-.018.452-.057.665a4.33 4.33 0 0 1-.137.574 3.545 3.545 0 0 1-.306.715h-3.158v-.663h2.74c.051-.128.106-.298.166-.512.06-.212.09-.472.09-.779 0-.238-.032-.465-.096-.683a1.926 1.926 0 0 0-.268-.568 1.316 1.316 0 0 0-.433-.39 1.165 1.165 0 0 0-.58-.147c-.178 0-.361.032-.548.096-.187.064-.4.182-.638.352l-.394-.511a3.03 3.03 0 0 1 .65-.409c.263-.128.577-.192.943-.192zm-42.796.766c-.756.068-1.382.226-1.88.472-.496.247-.898.526-1.204.838-.306.31-.529.62-.669.932a7.041 7.041 0 0 0-.251.618l-.036.116h4.04V9.617zm9.61.013c-.766.068-1.396.225-1.893.473-.497.246-.897.523-1.198.83a3.37 3.37 0 0 0-.67.926 6.54 6.54 0 0 0-.256.618l-.036.116h4.052V9.63zm-48.252 0c-.564.153-1.016.397-1.354.734-.338.336-.506.73-.506 1.181 0 .324.128.58.385.766.223.164.563.257 1.017.277l.201.005h.257V9.63zm17.32.102a4.497 4.497 0 0 0-.532.191 3.203 3.203 0 0 0-.579.32 1.827 1.827 0 0 0-.462.46c-.124.178-.186.387-.186.625 0 .477.154.798.462.964.265.143.62.23 1.066.263l.231.012V9.732zm50.392-.128a7.914 7.914 0 0 0-.535.268c-.204.11-.395.245-.574.403-.179.157-.33.338-.458.542a1.276 1.276 0 0 0-.192.69.76.76 0 0 0 .166.498c.11.136.25.247.421.332.17.085.352.145.548.179.13.023.254.038.373.045l.174.005h.077V9.604zm-43.969-.192c-.365 0-.699.085-1 .256-.303.17-.53.4-.682.69a7.112 7.112 0 0 1 .816.645c.152.14.303.298.452.472.149.174.282.364.401.568.11-.195.243-.38.395-.555.153-.174.305-.332.46-.473.152-.14.3-.263.445-.37.145-.107.268-.193.37-.262a5.5 5.5 0 0 0-.23-.3 1.797 1.797 0 0 0-.343-.32 2.086 2.086 0 0 0-.472-.248 1.71 1.71 0 0 0-.612-.103zm53.12-2.132c.172 0 .343.027.516.08l.172.062-.128.323a1.371 1.371 0 0 0-.547-.13.49.49 0 0 0-.268.066c-.068.043-.102.12-.102.231 0 .164.063.284.191.357a.842.842 0 0 0 .337.102l.134.007h.319v.332H104.4v-.332h.548c-.033-.017-.068-.073-.101-.167a.869.869 0 0 1-.052-.299c0-.231.073-.395.217-.49a.844.844 0 0 1 .471-.142zM2.971 7.752c.119 0 .22.043.306.128a.418.418 0 0 1 .127.306c0 .12-.042.222-.127.307a.418.418 0 0 1-.306.128.416.416 0 0 1-.306-.128.418.418 0 0 1-.128-.307c0-.119.043-.221.128-.306a.416.416 0 0 1 .306-.128zm1.44 0c.12 0 .221.043.306.128a.418.418 0 0 1 .128.306c0 .12-.043.222-.128.307a.416.416 0 0 1-.306.128.418.418 0 0 1-.306-.128.418.418 0 0 1-.127-.307c0-.119.042-.221.127-.306a.418.418 0 0 1 .306-.128zm34.24-.178c.12 0 .221.04.306.121.085.08.128.18.128.3s-.043.222-.128.306a.414.414 0 0 1-.306.128.415.415 0 0 1-.306-.128.415.415 0 0 1-.127-.307.427.427 0 0 1 .433-.42zm47.194-.026c.118 0 .22.042.305.127a.423.423 0 0 1 .128.307c0 .12-.043.222-.128.307a.418.418 0 0 1-.305.127.416.416 0 0 1-.306-.127.418.418 0 0 1-.128-.307.42.42 0 0 1 .128-.307.416.416 0 0 1 .306-.127zm1.312 0c.119 0 .221.042.306.127a.42.42 0 0 1 .128.307c0 .12-.043.222-.128.307a.418.418 0 0 1-.306.127.416.416 0 0 1-.306-.127.418.418 0 0 1-.127-.307.42.42 0 0 1 .127-.307.416.416 0 0 1 .306-.127zm-7.418-.384c.12 0 .221.043.306.128a.42.42 0 0 1 .128.306c0 .12-.043.223-.128.307a.416.416 0 0 1-.306.128.415.415 0 0 1-.305-.128.414.414 0 0 1-.128-.307c0-.118.042-.22.128-.306a.415.415 0 0 1 .305-.128zm15.473-.025c.118 0 .22.043.306.128a.423.423 0 0 1 .127.306.42.42 0 0 1-.127.307.418.418 0 0 1-.306.128.415.415 0 0 1-.306-.128.417.417 0 0 1-.128-.307.42.42 0 0 1 .128-.306.415.415 0 0 1 .306-.128zm1.44 0c.118 0 .22.043.306.128a.423.423 0 0 1 .126.306.42.42 0 0 1-.126.307.418.418 0 0 1-.306.128.415.415 0 0 1-.306-.128.417.417 0 0 1-.128-.307.42.42 0 0 1 .128-.306.415.415 0 0 1 .306-.128z"/>
    </g>
</svg>
