<svg xmlns="http://www.w3.org/2000/svg" width="16" height="18" viewBox="0 0 16 18">
    <path fill="#626262" fill-rule="evenodd" d="M16 9.898C16 14.365 12.411 18 8 18s-8-3.635-8-8.102a8.128 8.128 0 0 1 3.526-6.719.97.97 0 0 1 1.358.267.998.998 0 0 1-.263 1.375 6.142 6.142 0 0 0-2.665 5.077c0 3.375 2.711 6.121 6.044 6.121 3.333 0 6.044-2.746 6.044-6.121 0-2.043-1-3.944-2.677-5.085a.998.998 0 0 1-.267-1.375.97.97 0 0 1 1.358-.27A8.125 8.125 0 0 1 16 9.898zM9 9a1 1 0 1 1-2 0V1a1 1 0 1 1 2 0v8z"/>
</svg>
