<?xml version="1.0" encoding="utf-8"?>
<!-- Generator: Adobe Illustrator 23.0.1, SVG Export Plug-In . SVG Version: 6.00 Build 0)  -->
<svg version="1.1" id="Layer_1" xmlns="http://www.w3.org/2000/svg" xmlns:xlink="http://www.w3.org/1999/xlink" x="0px" y="0px"
	 viewBox="0 0 255.8 213.1" style="enable-background:new 0 0 255.8 213.1;" xml:space="preserve">
<style type="text/css">
	.st0{fill:#65AFD2;}
	.st1{fill:#5B90CC;}
	.st2{fill:#B3CDC0;}
</style>
<path id="XMLID_53_" class="st0" d="M247.9,78.6c-0.9-0.7-4.2-3.1-8.6,0.8c-9.5,8.2-16.8,8.1-19.3,7.7c16-27.9,14.1-29.7,11.4-32
	c-0.8-0.7-4.2-3-8.6,0.8c-8.8,7.7-15.5,5-17.8,3.5l19.7-32.9c1.4-2.2,0.8-5-1-6.8c-2-1.7-4.8-1.8-6.9-0.2c-2.2,1.7-8.3,4.6-24.6,4.6
	c-36.4,0-92.7-14-93.2-14.1c-2.2-0.5-4.5,0.2-5.7,2.1C13.4,126.5,6.9,141.8,7.7,146.3c-0.5,2.2,0.2,4.4,1.9,5.6
	c-0.5,2.5,0.8,5.1,3.3,6c102.7,37.4,140,45.1,154.1,45.1c7.2,0,8.3-2,9.1-3.1C254.5,84.4,252.2,82.5,247.9,78.6L247.9,78.6z
	 M216.6,71.1c-11.3,20.1-35.9,60.1-59.3,96.7c-3.3,1-24.7,5-126.5-21c3.9-0.4,7.9-0.7,12.4-0.7c40.8,0,94.1,17.3,94.7,17.5
	c0.5,0.2,1.1,0.3,1.7,0.3c1.9,0,3.6-1,4.6-2.6l55.2-92.4C203.3,71.1,209.3,72.8,216.6,71.1L216.6,71.1z M99.8,21.4
	c13.3,3.1,59.6,13.5,92.3,13.5c6,0,11.3-0.3,15.7-1L137.2,152c-13.5-4.2-57.6-16.8-93.9-16.8c-7.6,0-14.6,0.6-20.6,1.8
	C35.5,115.1,73.6,59.1,99.8,21.4L99.8,21.4z M168.3,192.4c-0.1,0-0.2,0-0.2,0c-2,0.1-6.8,0-17.3-2.2c-13-2.6-35.9-8.6-75.5-21.9
	c28.9,6.4,55.3,10.8,72.3,10.8c9.6,0,16-1.4,18.2-4.8c23-35.9,38.5-60.7,48.8-77.9c0.3,0.2,0.6,0.5,1,0.6s6.7,2.2,15.6-0.7
	C217.5,119,188.6,162.4,168.3,192.4L168.3,192.4z"/>
<path id="XMLID_49_" class="st1" d="M146.8,74.2c-0.3-0.4-2.3-3-8.3-5.3l-2.9-1.3c-4.8-1.9-8-2.7-8.1-2.7c-0.2-0.1-0.5-0.1-0.7-0.1
	s-0.8,0-1.4-0.1c-1.3-0.4-3.3-0.4-3.8-0.4c-0.4,0-12.1,0.2-18.2,4.6c-0.5,0.4-3.1,2.3-4.6,7.8c-0.2,0.1-0.5,0.1-0.8,0.2
	c-1.9,0.6-2.4,2.7-2.5,4c-0.2,1,0.1,1.9,0.5,2.4c-1.9,6.4,4.4,13.8,13.1,15.5c10.3,2,23.4-2.3,28.5-7.6c1-0.2,2.1-0.7,3-1.7
	c1.4-1,3.2-2.8,2.5-4.1c-0.1-0.1-0.1-0.1-0.1-0.2C145.9,83.2,150.4,78.6,146.8,74.2L146.8,74.2z M138.9,84.8c-0.4,0.3-0.5,0.7-0.2,1
	c0.2,0.2,0.4,0.3,0.7,0.4c-0.2,0.5-1,1.4-2,2l-0.1,0.1c-0.4,0.5-1,0.8-1.7,0.9c-0.5,0.1-0.9,0.2-1.1,0.5c-4.1,4.5-15.7,8.4-24.2,6.9
	c-7-1.4-12.3-8.1-10.3-13.4c0.1-0.2-0.1-0.5-0.4-0.8c-0.3-0.2-0.4-0.7-0.3-1.4c0.1,0,0.1-0.1,0.1-0.1c0.1-0.7,0.2-1.7,0.5-2.2
	c0.4,0.1,0.7,0.1,1.1,0c0.7-0.1,1.1-0.4,1.3-0.8c1.4-6,4-7.8,4-7.8c0.1,0,0.1-0.1,0.1-0.1c5.1-3.6,15.2-3.9,15.3-3.9
	c0.4,0,1.4,0.1,1.8,0.1c0.8,0.2,2,0.4,2.5,0.4c0.9,0.2,3.5,1,7.2,2.4l2.8,1.1c5.4,2.1,7,4.3,7,4.4c0.1,0,0.1,0.1,0.1,0.1
	C146.5,79,140.8,83.5,138.9,84.8L138.9,84.8z"/>
<path id="XMLID_46_" class="st1" d="M47.7,117.1c14.6,7.2,40.6,12.9,40.6,12.9c1.4,0.2,2.8,0.5,4.1,0.7v0.1c0,0,27,4.4,46.3,3.5
	c0,0,2.6,0.2,4.4-2.7c0,0,6.9-12.8,3-20c0,0-1.3-1.9-5.5-3.9c0,0-0.4-0.1-0.9-0.4c-3.8-1.9-7.6-3.4-7.6-3.4
	c-0.7-0.3-1.5-0.6-2.1-0.9c-2.5-1.4-4.5-3.6-4.5-3.6c-21.7,8.8-29.2-5.5-29.2-5.5c-2.8,2-21.1,1.5-21.1,1.5
	c-5.5,0.1-8.5,1.3-8.5,1.3c-10.8,4.4-19.4,16.9-19.4,16.9C45.5,116.3,47.7,117.1,47.7,117.1L47.7,117.1z"/>
<path id="XMLID_37_" class="st2" d="M93.9,45.2c1,0.2,1.9,0.1,2.8-0.1c0.9-0.2,1.6-0.7,2.1-1.3l3.4-4.1c1-1.3,2.2-2.2,3.3-2.8
	c1.1-0.5,2.9-0.7,4.9-0.4c1,0.1,1.7,0.3,2,0.7c0.3,0.3,0.3,0.7,0,1.1c-0.2,0.4-0.7,1-1.4,1.8l-4,4.8c-0.5,0.6-0.5,1.1-0.2,1.6
	c0.3,0.4,0.9,0.6,2,0.7c0.9,0.2,1.9,0.1,2.8-0.1c0.8-0.2,1.5-0.6,2.1-1.3l3.3-4c1-1.3,2.1-2.2,2.9-2.6c0.7-0.3,1.6-0.5,2.5-0.6
	c0.9-0.2,1.9-0.2,2.7,0c1,0.2,1.7,0.4,2,0.7c0.3,0.3,0.4,0.7,0.1,1c-0.2,0.4-0.5,0.9-1,1.6l-4.2,5c-0.5,0.6-0.6,1.1-0.3,1.6
	c0.4,0.4,1,0.6,2,0.8c1,0.1,1.9,0.1,2.8-0.2c0.8-0.2,1.6-0.6,2.1-1.3l4.9-5.8c0.9-1.1,1.4-2,1.3-2.6c-0.1-0.7-0.6-1.3-1.7-1.8
	c-1-0.5-2.4-0.9-4.1-1.1c-1.5-0.2-3-0.2-4.5-0.1c-1.5,0.1-3,0.4-4.6,0.8c-0.2-0.7-0.8-1.3-1.7-1.8c-0.9-0.4-2.2-0.7-3.8-1
	c-1.6-0.2-3-0.2-4.6-0.1c-1.5,0.1-3,0.4-4.7,0.8l0.2-0.2c0.4-0.5,0.4-0.9,0.1-1.3c-0.3-0.4-0.9-0.6-1.9-0.7
	c-0.8-0.1-1.7-0.1-2.5,0.1s-1.5,0.5-1.9,1.1l-7.2,8.5c-0.5,0.6-0.6,1.1-0.2,1.6C92.2,44.8,92.9,45,93.9,45.2L93.9,45.2z"/>
<path id="XMLID_33_" class="st2" d="M151.3,45c-1.3,0-2.8-0.1-4.5-0.1c-1.7-0.1-2.8-0.1-3.3-0.1c-2-0.1-4,0.1-5.5,0.5
	s-2.7,1-3.4,1.9c-0.5,0.6-0.6,1.3-0.4,1.9c0.2,0.6,0.8,1.1,1.9,1.7c1,0.5,2.3,0.8,4,1c1.8,0.2,3.5,0.3,5.2,0.2s3.5-0.2,5.5-0.6
	c0.2,0.6,0.5,1.1,0.9,1.5c0.4,0.4,0.9,0.6,1.6,0.7c0.7,0.1,1.6,0.1,2.4-0.1c0.8-0.1,1.4-0.4,1.7-0.7c0.1-0.2,0.2-0.6,0.4-1.3
	c0.1-0.6,0.4-1.3,0.8-1.9c0.5-0.5,1-1.1,1.4-1.7c0.4-0.4,0.9-1,1.6-1.8c0.9-1,1.4-2,1.3-2.8c-0.1-0.7-0.8-1.4-2.2-2
	c-1.4-0.5-3.4-1-6.3-1.4c-2.5-0.3-4.7-0.4-6.7-0.4c-2,0.1-3.4,0.3-4.8,0.7c-1.1,0.4-2,0.8-2.4,1.4c-0.3,0.3-0.2,0.6,0.1,0.9
	c0.4,0.2,0.9,0.4,1.6,0.6c0.8,0.1,1.4,0.1,1.8,0c0.3-0.1,0.9-0.3,1.9-0.6c0.9-0.4,1.9-0.6,2.9-0.7c1-0.1,2.3,0,4,0.2
	c1.9,0.2,3,0.5,3.2,1c0.3,0.4,0.2,1-0.4,1.9C153.9,45.1,152.6,45.1,151.3,45L151.3,45z M153.6,47.3c-0.8,1-1.8,1.8-2.7,2.2
	c-0.8,0.3-1.9,0.6-3.1,0.6c-1.3,0.1-2.5,0.1-3.8,0c-1.1-0.2-2-0.5-2.5-0.9c-0.4-0.4-0.4-0.9-0.1-1.4c0.3-0.4,0.9-0.7,1.7-0.9
	c0.9-0.1,1.7-0.2,2.4-0.2c0.7,0,2.1,0.1,4.1,0.1c2,0.1,3.4,0.1,4.5,0.1L153.6,47.3z"/>
<path id="XMLID_29_" class="st2" d="M176.4,58.1c-0.7,0.3-1.6,0.5-2.6,0.6c-1,0.1-2.5,0-4.1-0.2c-0.8-0.1-1.6-0.2-2-0.4
	c-0.6-0.2-1-0.4-1.4-0.6c-0.2-0.2-0.5-0.4-0.7-0.7c-0.2-0.2-0.4-0.5-0.5-0.7c-0.4-0.4-1-0.7-2-0.9c-0.7-0.1-1.5-0.1-2.2,0.1
	c-0.7,0.2-1.3,0.4-1.6,0.7c-0.4,0.5-0.3,1,0.2,1.7c0.5,0.5,1.6,1.1,3.1,1.7c1.5,0.5,3.3,0.9,5.5,1.3c2.4,0.4,4.5,0.5,6.3,0.5
	c1.9,0,3.4-0.1,4.8-0.5c1.4-0.3,2.6-0.8,3.6-1.5c1-0.6,2-1.5,2.8-2.5l7.3-8.6c0.6-0.7,0.8-1.3,0.7-1.7c-0.1-0.4-0.7-0.7-2-0.9
	c-0.9-0.1-1.7,0-2.5,0.1c-0.8,0.2-1.4,0.5-1.9,1l-0.4,0.4c-0.5-0.8-1.4-1.6-2.4-2c-1-0.5-2.5-0.9-4.3-1.1c-1.5-0.2-3-0.3-4.4-0.2
	c-1.6,0.1-2.9,0.2-4.3,0.6c-1.4,0.4-2.6,0.9-3.8,1.6c-1.1,0.6-2.1,1.4-2.8,2.3c-1,1.3-1.5,2.3-1.4,3.4c0.1,1,0.7,1.9,1.9,2.7
	c1.1,0.7,2.8,1.3,4.9,1.5c1.8,0.3,3.4,0.3,5,0.2c1.6-0.2,3.1-0.5,4.6-1c-0.8,0.9-1.5,1.7-1.9,2.1C177.7,57.3,177,57.7,176.4,58.1
	L176.4,58.1z M177.5,53.8c-1.1,0.1-2.3,0.1-3.3,0c-1.8-0.2-3-0.8-3.6-1.6c-0.5-0.7-0.4-1.8,0.6-2.9c0.9-1.1,2.3-2,4-2.5
	c1.6-0.5,3.3-0.6,5.1-0.4c1.9,0.2,3.1,0.8,3.6,1.7c0.5,0.8,0.4,1.9-0.6,3.1c-0.6,0.7-1.5,1.4-2.5,1.9
	C179.8,53.3,178.6,53.6,177.5,53.8L177.5,53.8z"/>
</svg>
