<svg xmlns="http://www.w3.org/2000/svg" width="50" height="50" viewBox="0 0 50 50">
    <g fill="none" fill-rule="nonzero">
        <circle cx="25" cy="25" r="25" fill="#7A9E5B"/>
        <path fill="#FFF" d="M28.376 25.876a.224.224 0 0 1 .241-.02l3.511 1.845c.227.119.408.314.512.55l2.262 5.144c.156.354.124.76-.085 1.086-.21.325-.564.519-.949.519H16.132c-.385 0-.74-.194-.949-.52a1.147 1.147 0 0 1-.085-1.085l2.262-5.145c.104-.235.285-.43.512-.55l3.51-1.844a.225.225 0 0 1 .242.02A5.528 5.528 0 0 0 25 27.036c1.216 0 2.383-.402 3.376-1.16zM25 15c2.477 0 4.484 1.24 4.484 5.298 0 2.926-2.008 5.298-4.484 5.298-2.477 0-4.484-2.372-4.484-5.298C20.516 16.24 22.523 15 25 15z"/>
    </g>
</svg>
