<svg xmlns="http://www.w3.org/2000/svg" width="64" height="82" viewBox="0 0 64 82">
    <g fill="none" fill-rule="nonzero">
        <path fill="#E9E9E0" d="M45.07 0H2.854C1.68 0 .727.953.727 2.801V80c0 .502.953 1.455 2.128 1.455h58.29c1.175 0 2.128-.953 2.128-1.455V18.877c0-1.012-.136-1.338-.374-1.578L45.974.374A1.285 1.285 0 0 0 45.069 0z"/>
        <path fill="#D9D7CA" d="M45.818.22v17.235h17.235z"/>
        <path fill="#CC4B4C" d="M19.657 48.471c-.506 0-.992-.164-1.407-.474-1.514-1.136-1.718-2.4-1.622-3.261.265-2.368 3.193-4.847 8.706-7.372 2.187-4.794 4.269-10.7 5.51-15.636-1.452-3.16-2.863-7.258-1.835-9.663.361-.842.81-1.488 1.65-1.767.332-.11 1.17-.25 1.478-.25.733 0 1.377.944 1.834 1.526.429.547 1.402 1.706-.543 9.894 1.961 4.05 4.74 8.174 7.401 10.999 1.907-.345 3.548-.52 4.884-.52 2.278 0 3.659.53 4.222 1.624.465.905.274 1.962-.568 3.142-.81 1.133-1.927 1.732-3.229 1.732-1.769 0-3.828-1.117-6.125-3.324-4.126.863-8.945 2.402-12.84 4.105-1.217 2.58-2.382 4.66-3.467 6.183-1.49 2.088-2.777 3.062-4.05 3.062zm3.872-7.456c-3.109 1.747-4.376 3.183-4.467 3.992-.015.133-.054.485.627 1.006.216-.068 1.482-.646 3.84-4.998zm19.835-6.46c1.186.911 1.475 1.372 2.25 1.372.34 0 1.311-.014 1.76-.641.217-.304.302-.5.335-.604-.179-.094-.416-.286-1.709-.286-.735.001-1.658.033-2.636.158zM32.5 24.98a103.697 103.697 0 0 1-3.89 11.003 72.677 72.677 0 0 1 9.45-2.939c-1.964-2.28-3.927-5.128-5.56-8.064zm-.883-12.308c-.143.048-1.935 2.556.14 4.678 1.38-3.077-.077-4.698-.14-4.678zM61.145 81.455H2.855a2.128 2.128 0 0 1-2.128-2.128v-22.6h62.546v22.6a2.128 2.128 0 0 1-2.128 2.128z"/>
        <g fill="#FFF">
            <path d="M16.56 77.09h-2.387V62.436h4.215c.623 0 1.24.099 1.85.298.609.2 1.155.498 1.64.895.484.397.875.878 1.174 1.441.298.563.448 1.196.448 1.9 0 .743-.127 1.415-.379 2.019a4.22 4.22 0 0 1-1.054 1.521c-.451.41-.995.729-1.63.954-.636.226-1.34.338-2.108.338h-1.77v5.29h.001zm0-12.846v5.807h2.188c.29 0 .579-.05.865-.15a2.18 2.18 0 0 0 .786-.487c.238-.226.43-.54.576-.944.145-.405.218-.905.218-1.501a4.06 4.06 0 0 0-.1-.825 2.381 2.381 0 0 0-.406-.895 2.41 2.41 0 0 0-.866-.715c-.37-.192-.862-.288-1.472-.288H16.56v-.002zM38.137 69.356c0 1.205-.13 2.237-.389 3.092s-.586 1.57-.984 2.148c-.399.578-.845 1.032-1.343 1.363a6.734 6.734 0 0 1-1.441.746 5.955 5.955 0 0 1-1.273.319c-.384.044-.67.067-.855.067h-5.548V62.435h4.415c1.233 0 2.317.196 3.25.586.934.39 1.711.912 2.328 1.56a6.406 6.406 0 0 1 1.382 2.218 7.34 7.34 0 0 1 .458 2.557zm-7.08 5.985c1.618 0 2.784-.516 3.5-1.55.716-1.035 1.074-2.533 1.074-4.495 0-.61-.073-1.213-.219-1.81a3.871 3.871 0 0 0-.845-1.62c-.417-.484-.984-.875-1.7-1.174-.716-.298-1.644-.448-2.784-.448H28.69v11.097h2.366zM44.023 64.244v4.614h6.125v1.63h-6.125v6.603h-2.426V62.435h9.167v1.81z"/>
        </g>
    </g>
</svg>
