<svg xmlns="http://www.w3.org/2000/svg" width="40" height="32" viewBox="0 0 40 32">
    <path fill="#5798E4" fill-rule="evenodd" d="M15.632 15.09c.43 0 .78.349.78.78v12.512h6.481v-4.99a.78.78 0 0 1 1.56 0v4.99h8.45V17.44a.78.78 0 0 1 1.559 0v10.942h2.798l-.228-.228a.78.78 0 0 1 1.102-1.103l1.56 1.56a.78.78 0 0 1 0 1.102l-1.56 1.56a.778.778 0 0 1-1.103 0 .78.78 0 0 1 0-1.103l.229-.228H2.34a.78.78 0 0 1-.78-.78v-5.268a.78.78 0 0 1 1.559 0v4.488h3.913V23.51a.78.78 0 0 1 1.56 0v4.873h6.26V15.87c0-.43.35-.78.78-.78zm18.05-9.049a2.818 2.818 0 0 1 2.815 2.815 2.819 2.819 0 0 1-2.815 2.816 2.798 2.798 0 0 1-1.476-.42l-6.06 6.06a2.819 2.819 0 0 1-2.473 4.16 2.819 2.819 0 0 1-2.816-2.815c0-.498.13-.965.358-1.371l-4.04-4.041a2.798 2.798 0 0 1-2.939.09l-3.962 3.963a2.819 2.819 0 0 1-2.462 4.179 2.819 2.819 0 0 1-2.816-2.815 2.818 2.818 0 0 1 2.816-2.816c.492 0 .955.127 1.358.35l3.979-3.978a2.797 2.797 0 0 1-.333-1.326 2.819 2.819 0 0 1 2.815-2.815 2.819 2.819 0 0 1 2.562 3.98l4.13 4.13a2.799 2.799 0 0 1 2.727.016l6.106-6.105a2.818 2.818 0 0 1 2.526-4.057zM2.339 19.704a.785.785 0 0 1 .78.78.787.787 0 0 1-.229.551.785.785 0 0 1-.55.229.786.786 0 0 1-.552-.229.785.785 0 0 1-.228-.55.784.784 0 0 1 .78-.78zm5.473-2.298c-.693 0-1.256.563-1.256 1.256 0 .692.563 1.256 1.256 1.256.692 0 1.256-.564 1.256-1.256 0-.34-.137-.65-.357-.876l-.015-.013-.011-.012a1.251 1.251 0 0 0-.873-.355zm15.861-.005c-.693 0-1.256.564-1.256 1.256 0 .693.563 1.256 1.256 1.256.692 0 1.256-.563 1.256-1.256 0-.692-.564-1.256-1.256-1.256zM1.788.228a.78.78 0 0 1 1.103 0l1.559 1.56A.78.78 0 0 1 3.347 2.89l-.228-.229V17.34a.78.78 0 0 1-1.56 0V2.662l-.228.229A.78.78 0 0 1 .228 1.788zm31.894 13.183c.205 0 .406.084.551.229a.786.786 0 0 1 .229.551.786.786 0 0 1-.229.551.785.785 0 0 1-.551.229.786.786 0 0 1-.551-.229.785.785 0 0 1-.229-.551c0-.205.084-.406.229-.551a.785.785 0 0 1 .55-.229zm-18.05-3.775c-.693 0-1.256.564-1.256 1.256 0 .692.563 1.256 1.256 1.256.692 0 1.256-.564 1.256-1.256 0-.692-.564-1.256-1.256-1.256zM33.682 7.6c-.693 0-1.256.564-1.256 1.256 0 .693.563 1.256 1.256 1.256.692 0 1.256-.563 1.256-1.256 0-.692-.564-1.256-1.256-1.256z"/>
</svg>
