<svg xmlns="http://www.w3.org/2000/svg" width="40" height="40" viewBox="0 0 40 40">
    <path fill="#d970ef" fill-rule="nonzero" d="M7.143 32.794v3.565a3.568 3.568 0 0 1-3.572 3.564A3.568 3.568 0 0 1 0 36.36v-3.565h7.143zM12.213 0l.069.006a3.567 3.567 0 0 1 3.432 3.56V7.13c.001.787.64 1.425 1.429 1.426h17.143V36.36a3.574 3.574 0 0 1-3.572 3.564H7.064a4.968 4.968 0 0 0 1.507-3.564V3.566a3.564 3.564 0 0 1 3.286-3.55h.072c.027 0 .106-.01.133-.013a.76.76 0 0 1 .08-.002.743.743 0 0 1 .14.005zM24.285 21.39a2.82 2.82 0 0 0-2.2 1.054l-.124.155a1.38 1.38 0 0 1-1.235.511l-.2-.021a2.822 2.822 0 0 0-2.3.807 2.81 2.81 0 0 0-.81 2.296l.023.198a1.38 1.38 0 0 1-.511 1.233l-.158.126a2.811 2.811 0 0 0 .001 4.39l.156.125c.372.296.565.761.512 1.233l-.022.199a2.81 2.81 0 0 0 .81 2.296c.604.604 1.45.9 2.3.807l.198-.021c.473-.053.939.14 1.236.51l.126.157a2.82 2.82 0 0 0 4.399-.001l.124-.155a1.38 1.38 0 0 1 1.236-.512l.199.022a2.822 2.822 0 0 0 2.3-.807 2.81 2.81 0 0 0 .81-2.297l-.022-.197a1.38 1.38 0 0 1 .51-1.234l.158-.125a2.811 2.811 0 0 0-.001-4.39l-.155-.125a1.38 1.38 0 0 1-.512-1.233l.021-.199a2.81 2.81 0 0 0-.808-2.296 2.822 2.822 0 0 0-2.302-.808l-.198.022a1.387 1.387 0 0 1-1.235-.51l-.126-.157a2.82 2.82 0 0 0-2.2-1.053zm0 1.45c.417 0 .812.18 1.085.494l.125.157a2.81 2.81 0 0 0 2.508 1.037l.198-.022a1.391 1.391 0 0 1 1.534 1.53l-.022.199a2.8 2.8 0 0 0 1.04 2.502l.155.124a1.386 1.386 0 0 1 0 2.164l-.157.126a2.799 2.799 0 0 0-1.039 2.502l.022.199c.047.418-.1.835-.398 1.132a1.37 1.37 0 0 1-1.134.398l-.2-.022a2.806 2.806 0 0 0-2.508 1.038l-.124.155a1.434 1.434 0 0 1-2.168 0l-.126-.156a2.807 2.807 0 0 0-2.508-1.037l-.198.022a1.391 1.391 0 0 1-1.533-1.53l.022-.199a2.8 2.8 0 0 0-1.04-2.503l-.156-.124a1.386 1.386 0 0 1 0-2.164l.157-.125a2.8 2.8 0 0 0 1.039-2.503l-.022-.198a1.385 1.385 0 0 1 1.533-1.53l.2.021a2.815 2.815 0 0 0 2.507-1.037l.124-.155a1.434 1.434 0 0 1 1.084-.496zm0 2.114c-2.76 0-5 2.234-5 4.99a4.995 4.995 0 0 0 5 4.99 5 5 0 0 0 5-4.99 4.995 4.995 0 0 0-5-4.99zm0 1.425a3.568 3.568 0 0 1 3.572 3.565 3.568 3.568 0 0 1-3.571 3.564 3.568 3.568 0 0 1-3.572-3.564 3.568 3.568 0 0 1 3.572-3.565zm2.144-9.267h-10a.714.714 0 1 0 0 1.426h10a.714.714 0 1 0 0-1.426zm2.142-2.852H14.286a.714.714 0 1 0 0 1.426H28.57a.714.714 0 1 0 0-1.426zm2.143-2.851H12.143a.714.714 0 1 0 0 1.425h18.571a.714.714 0 1 0 0-1.425zM36.43 0c.176 0 .352.014.526.043A3.567 3.567 0 0 1 40 3.566V7.13H17.143V3.566A4.922 4.922 0 0 0 15.679.04l-.043-.04zM20.714 1.427h-1.428a.714.714 0 1 0 0 1.426h1.428a.714.714 0 1 0 0-1.426zm11.429 0H23.57a.714.714 0 1 0 0 1.426h8.572a.714.714 0 1 0 0-1.426z"/>
</svg>
