<svg xmlns="http://www.w3.org/2000/svg" width="40" height="40" viewBox="0 0 40 40">
    <path fill="#F6B548" fill-rule="nonzero" d="M30.323 0c.84 0 1.55.541 1.816 1.29h5.926C39.13 1.29 40 2.16 40 3.226v34.839A1.938 1.938 0 0 1 38.065 40H13.548a1.938 1.938 0 0 1-1.935-1.935v-9.678H9.559c-.894 0-1.761-.262-2.505-.758L4.32 25.806H0V14.194h3.7l3.474-1.986a4.52 4.52 0 0 1 2.242-.595h2.197V3.226c0-1.067.868-1.936 1.935-1.936h5.926C19.74.541 20.45 0 21.29 0zm7.742 2.58h-5.807v1.291h5.161v33.548H14.194V16.774h-1.29v21.29c0 .356.288.646.644.646h24.517c.355 0 .645-.29.645-.645V3.225a.646.646 0 0 0-.645-.644zM19.474 5.162h-3.99v6.452h1.29a2.583 2.583 0 0 1 2.58 2.58 2.583 2.583 0 0 1-2.58 2.581h-1.29V36.13h20.645V5.161h-3.99a1.933 1.933 0 0 1-1.816 1.29H21.29c-.84 0-1.55-.54-1.816-1.29zm6.332 14.194a4.522 4.522 0 0 1 4.517 4.516v1.29a4.51 4.51 0 0 1-1.938 3.702v.327l2.178.622a3.24 3.24 0 0 1 2.34 3.103v1.924H18.71v-1.924a3.24 3.24 0 0 1 2.339-3.103l2.177-.621v-.33a4.511 4.511 0 0 1-1.936-3.7v-1.29a4.522 4.522 0 0 1 4.516-4.516zm2.186 11.065l-2.186 2.914-2.185-2.914-2.217.633A1.945 1.945 0 0 0 20 32.915v.633h11.613v-.633c0-.86-.578-1.625-1.404-1.862l-2.217-.633zm-.918-.927a4.495 4.495 0 0 1-1.268.184c-.44 0-.865-.066-1.267-.184l1.267 1.69zm-1.268-8.848a3.23 3.23 0 0 0-3.225 3.226v1.29a3.23 3.23 0 0 0 3.225 3.226 3.23 3.23 0 0 0 3.226-3.226v-1.29a3.23 3.23 0 0 0-3.226-3.226zm-9.032-7.742H9.416c-.561 0-1.115.147-1.601.426l-3.772 2.155H1.29v9.032h3.422l3.058 2.039c.531.355 1.15.542 1.789.542h2.054V16.774h-1.336a4.523 4.523 0 0 1-4.47 3.871v-1.29a3.23 3.23 0 0 0 3.225-3.226v-.645h7.742c.712 0 1.29-.579 1.29-1.29 0-.712-.578-1.29-1.29-1.29zm18.065 2.58v1.291h-1.29v-1.29h1.29zm-2.58 0v1.291H20.644v-1.29h11.613zm2.58-2.58v1.29H20.645v-1.29H34.84zM19.355 2.581h-5.807a.646.646 0 0 0-.645.645v8.387h1.29V3.87h5.162v-1.29zm15.484 7.742v1.29H20.645v-1.29H34.84zM18.065 7.742v1.29h-1.29v-1.29h1.29zm16.774 0v1.29H19.355v-1.29h15.484zM30.323 1.29H21.29a.646.646 0 0 0-.645.645v2.581c0 .356.29.645.645.645h9.033c.356 0 .645-.289.645-.645v-2.58a.646.646 0 0 0-.645-.646zm-7.097 1.29v1.291h-1.29v-1.29h1.29zm6.451 0v1.291h-1.29v-1.29h1.29z"/>
</svg>
