<svg xmlns="http://www.w3.org/2000/svg" width="35" height="40" viewBox="0 0 35 40">
    <path fill="#F6625C" fill-rule="evenodd" d="M19.052.03c4.144-.26 8.092 1.16 11.107 3.994a14.898 14.898 0 0 1 4.68 10.815c0 4.986-2.487 9.61-6.65 12.372a6.652 6.652 0 0 0-2.214 2.467h1.767v1.29h-2.276a7.192 7.192 0 0 0-.26 1.29h1.245v1.29h-1.29v1.936a.645.645 0 0 1-.645.645h-.645A3.875 3.875 0 0 1 20 40a3.875 3.875 0 0 1-3.871-3.87h-.645a.645.645 0 0 1-.645-.646v-1.936h-1.29v-1.29h1.238a7.445 7.445 0 0 0-.275-1.29h-2.254v-1.29h1.739a6.798 6.798 0 0 0-2.232-2.498A14.769 14.769 0 0 1 5.17 14.367l1.29.04a13.488 13.488 0 0 0 6.023 11.7c1.313.878 2.31 2.127 2.93 3.57h9.15c.61-1.433 1.603-2.673 2.914-3.542a13.522 13.522 0 0 0 6.072-11.296c0-3.779-1.518-7.286-4.272-9.875-2.754-2.587-6.358-3.881-10.144-3.646zm3.528 36.1h-5.16A2.583 2.583 0 0 0 20 38.71a2.583 2.583 0 0 0 2.58-2.58zm1.29-2.582H16.13v1.29h7.742v-1.29zm.247-2.58H15.86c.105.42.175.851.218 1.29h7.84c.038-.438.098-.871.2-1.29zM16.774 3.226a2.583 2.583 0 0 1 2.58 2.58v18.065a2.583 2.583 0 0 1-2.58 2.58 2.576 2.576 0 0 1-2.316-1.463 2.568 2.568 0 0 1-.91.173 2.583 2.583 0 0 1-2.58-2.58c0-.303.062-.59.158-.86a3.223 3.223 0 0 1-2.094-3.011c0-.53.142-1.025.37-1.468a2.58 2.58 0 0 1-1.66-2.403c0-1.098.692-2.03 1.66-2.403a3.187 3.187 0 0 1-.37-1.468c0-1.379.874-2.55 2.094-3.01a2.544 2.544 0 0 1-.158-.86 2.583 2.583 0 0 1 2.58-2.581c.322 0 .626.066.91.173a2.577 2.577 0 0 1 2.316-1.464zm6.451 0c1.022 0 1.898.602 2.317 1.464.284-.107.588-.173.91-.173a2.583 2.583 0 0 1 2.58 2.58c0 .304-.062.59-.159.86a3.223 3.223 0 0 1 2.094 3.011c0 .531-.14 1.026-.37 1.468a2.578 2.578 0 0 1 1.66 2.403c0 1.098-.691 2.031-1.66 2.403.23.443.37.937.37 1.468 0 1.38-.874 2.55-2.094 3.01.097.27.159.558.159.86a2.583 2.583 0 0 1-2.58 2.581c-.322 0-.626-.066-.91-.173a2.577 2.577 0 0 1-2.317 1.464 2.583 2.583 0 0 1-2.58-2.58V5.806a2.583 2.583 0 0 1 2.58-2.58zm-6.451 1.29a1.29 1.29 0 0 0-1.24.954c.366.445.595 1.007.595 1.627h-1.29c0-.711-.58-1.29-1.29-1.29-.712 0-1.291.579-1.291 1.29 0 .712.579 1.29 1.29 1.29v1.29a2.556 2.556 0 0 1-1.645-.608 1.936 1.936 0 0 0-1.58 1.9c0 1.066.868 1.935 1.935 1.935a1.938 1.938 0 0 0 1.935-1.936h1.29a3.23 3.23 0 0 1-3.225 3.226 3.191 3.191 0 0 1-1.936-.662v.017c-.711 0-1.29.578-1.29 1.29 0 .712.579 1.29 1.29 1.29v.017a3.192 3.192 0 0 1 1.936-.662 3.23 3.23 0 0 1 3.226 3.226h-1.29a1.938 1.938 0 0 0-1.936-1.935 1.938 1.938 0 0 0-1.936 1.935c0 .946.683 1.732 1.581 1.9a2.556 2.556 0 0 1 1.645-.61v1.29c-.711 0-1.29.58-1.29 1.29 0 .713.579 1.291 1.29 1.291.712 0 1.29-.578 1.29-1.29h1.29c0 .62-.228 1.182-.594 1.628.15.547.646.952 1.24.952.712 0 1.29-.578 1.29-1.29V5.807c0-.712-.578-1.29-1.29-1.29zm6.451 0c-.711 0-1.29.58-1.29 1.29v18.065c0 .712.579 1.29 1.29 1.29.595 0 1.09-.405 1.24-.952a2.555 2.555 0 0 1-.594-1.628h1.29c0 .712.579 1.29 1.29 1.29.712 0 1.29-.578 1.29-1.29 0-.712-.578-1.29-1.29-1.29V20c.629 0 1.198.234 1.646.609a1.936 1.936 0 0 0 1.58-1.9 1.938 1.938 0 0 0-1.935-1.935 1.938 1.938 0 0 0-1.936 1.935h-1.29a3.23 3.23 0 0 1 3.226-3.226c.729 0 1.394.253 1.935.662v-.017c.712 0 1.29-.578 1.29-1.29 0-.712-.578-1.29-1.29-1.29v-.017c-.54.41-1.206.662-1.935.662a3.23 3.23 0 0 1-3.226-3.226h1.29c0 1.067.869 1.936 1.936 1.936a1.938 1.938 0 0 0 1.935-1.936c0-.946-.683-1.732-1.58-1.9a2.557 2.557 0 0 1-1.646.61v-1.29c.712 0 1.29-.58 1.29-1.29 0-.712-.578-1.291-1.29-1.291-.711 0-1.29.579-1.29 1.29h-1.29c0-.62.229-1.182.594-1.627a1.29 1.29 0 0 0-1.24-.953zM3.871 6.453c.356 0 .645.289.645.645a2.583 2.583 0 0 0 2.58 2.58.645.645 0 1 1 0 1.291 2.583 2.583 0 0 0-2.58 2.58.645.645 0 1 1-1.29 0 2.583 2.583 0 0 0-2.58-2.58.645.645 0 1 1 0-1.29 2.583 2.583 0 0 0 2.58-2.58c0-.357.289-.646.645-.646zm0 2.783c-.287.43-.658.802-1.088 1.088.43.287.802.657 1.088 1.088.287-.43.657-.801 1.088-1.088a3.913 3.913 0 0 1-1.088-1.088zM7.74 0c.357 0 .646.288.646.645a2.583 2.583 0 0 0 2.58 2.58.645.645 0 1 1 0 1.29 2.583 2.583 0 0 0-2.58 2.581.645.645 0 1 1-1.29 0 2.583 2.583 0 0 0-2.58-2.58.645.645 0 1 1 0-1.29A2.583 2.583 0 0 0 7.096.645c0-.357.289-.645.645-.645zm0 2.782a3.9 3.9 0 0 1-1.088 1.088c.431.287.802.658 1.089 1.089.286-.431.657-.802 1.088-1.089a3.904 3.904 0 0 1-1.088-1.088z"/>
</svg>
