<svg xmlns="http://www.w3.org/2000/svg" width="40" height="39" viewBox="0 0 40 39">
    <path fill="#7A9E5B" fill-rule="nonzero" d="M10.728 17.24l.27.004.273.01.133.236c2.424 4.288 11.42 10.415 12.47 11.119.402.146.846.423 1.314.912 1.711 1.772 1.434 4.469.448 6.222-.844 1.507-2.155 2.368-3.535 2.368-.24 0-.487-.026-.73-.079a2.912 2.912 0 0 1-1.602-.953c-.667-.685-4.003-4.079-7.195-6.89-.33.394-1.22 1.518-1.582 2.704-.449 1.466-.644 3.716-.644 3.716l-.73-1.592-1.06.335s.157-2.049.767-3.23c.612-1.183 1.465-2.4 1.465-2.4s-1.578.794-2.482 1.789c-.903.995-1.726 3.01-1.726 3.01l-.6-1.171-1.733-.41s2.683-2.434 3.326-2.891c.573-.408 2.154-1.43 2.589-1.875-2.518-2.01-4.834-3.586-5.034-3.7-1.11-.628-1.77-1.469-1.91-2.435-.174-1.191.432-2.513 1.8-3.933l.35-.364.353.361c.295.305.584.6.868.888.695-.625 2.319-1.832 4.406-1.747zm5.995 7.25c-.868.164-2.008.535-2.72 1.363 3.79 3.095 5.325 3.526 5.344 3.532l.453.105-.08.456c-.317 1.8-.6 6.59 1.866 7.135 1.436.318 2.596-.729 3.204-1.811.811-1.45 1.064-3.656-.297-5.073-.683-.708-1.303-.91-1.85-.602-.36.204-.658.587-.886 1.028.357.347 1.102 1.04 2.48 2.213l.218.185-.056.282c-.363 1.814-1.356 2.044-1.764 2.06-.955.018-1.862-.855-2.236-2.213-.319-1.155.294-3.567 1.762-4.4.033-.021.069-.039.107-.058a86.185 86.185 0 0 1-5.545-4.202zm-3.246 2.199a7.726 7.726 0 0 0-.712 2.372c2.147 1.862 4.414 4.053 5.956 5.578-.325-1.734-.138-3.631-.027-4.454-.713-.301-2.344-1.157-5.217-3.496zm7.914 4.94c-.116.485-.14.95-.054 1.263.27.978.838 1.495 1.244 1.495h.015c.324-.009.61-.38.78-.999a59.667 59.667 0 0 1-1.985-1.76zM22.714 0l12.125 12.711c.07-.085.197-.154.409-.195 4.075-.55 2.457 2.426 2.457 2.426l-.181.584 1.836 1.927-2.592.497-2.122 6.795 1.444.452-.967 3.105-1.59-1.847-2.163.674.97-3.104 1.336.418c.28-.892 1.178-3.773 1.96-6.274l-4.691.906.584-1.875s-5.257-5.297-11.515-7.252c-6.257-1.952-13.432-.43-13.432-.43l-.336 1.074L0 5.012 22.714 0zM5.384 19.155c-.908 1.04-1.31 1.961-1.197 2.743.097.666.577 1.248 1.427 1.73.307.173 2.414 1.62 4.724 3.437.005-.453.136-1.1.877-2.304-1.64-1.46-3.571-3.294-5.83-5.606zm5.314-.938c-1.57.037-2.839.965-3.415 1.47a104.55 104.55 0 0 0 4.49 4.26c.845-1.048 1.841-1.396 2.639-1.477-1.533-1.43-2.893-2.907-3.714-4.253zM7.69 10.489s6.434-1.365 12.045.386c5.614 1.752 10.328 6.503 10.328 6.503l-1.57 5.031s-5.533-3.085-10.787-4.726c-5.252-1.638-11.56-2.25-11.56-2.25zm28.336 5.036a.987.987 0 0 0-1.234.647.986.986 0 0 0 1.88.585.986.986 0 0 0-.646-1.232zm.88-1.423c.232-.74-.638-.583-1.15-.431l.966 1.015c.098-.303.162-.512.185-.584z"/>
</svg>
