<svg xmlns="http://www.w3.org/2000/svg" width="90" height="89" viewBox="0 0 90 89">
    <g fill="none" fill-rule="evenodd">
        <g stroke="#CD2727" stroke-width="2">
            <path d="M71.18 70.38c-.488.488-.986.96-1.494 1.414"/>
            <path stroke-dasharray="0.921,0" d="M66.739 74.17c-.171.124-.343.247-.516.367"/>
            <path stroke-dasharray="5.527,5.527,0.921,0" d="M66.223 74.537c-13.808 9.644-32.792 8.688-45.668-2.845"/>
            <path d="M20.552 71.69c-.51-.456-1.01-.929-1.5-1.419M71.18 70.38c14.366-14.366 14.317-37.709-.11-52.136s-37.77-14.476-52.136-.11c-14.366 14.367-14.317 37.71.11 52.137"/>
        </g>
        <g stroke="#000" opacity=".501">
            <path d="M76.21 75.247c-.488.489-.987.964-1.492 1.424"/>
            <path stroke-dasharray="0.9570000000000001,0" d="M71.684 79.194c-.176.133-.352.264-.53.394"/>
            <path stroke-dasharray="5.74,5.74,0.9570000000000001,0" d="M71.155 79.588C54.6 91.742 31.38 90.725 15.842 76.563"/>
            <path d="M15.846 76.568a44.922 44.922 0 0 1-1.497-1.43M76.21 75.247c17.055-17.055 17.006-44.756-.108-61.87C58.987-3.74 31.285-3.789 14.23 13.266c-17.055 17.054-17.005 44.757.11 61.871"/>
        </g>
        <g fill="#3FA5FF" fill-rule="nonzero" stroke="#3FA5FF" stroke-width=".5">
            <path d="M55.92 28.489l-10.312-4.433a.7.7 0 0 0-.55 0L34.746 28.49a.675.675 0 0 0-.413.618v10.598a7.393 7.393 0 0 0 3.135 6.013l7.128 5.047c.44.313 1.035.313 1.475 0l7.127-5.046a7.393 7.393 0 0 0 3.135-6.013v-10.6a.675.675 0 0 0-.412-.617zm-.962 11.217a6.048 6.048 0 0 1-2.564 4.918l-7.06 5-7.061-5a6.048 6.048 0 0 1-2.565-4.918V29.548l9.625-4.136 9.625 4.136v10.158z"/>
            <path d="M45.1 28.051l-6.417 2.962a.617.617 0 0 0-.35.563v8.047c.002 1.38.631 2.675 1.692 3.484l4.967 3.777a.56.56 0 0 0 .683 0l4.967-3.777c1.06-.809 1.69-2.104 1.691-3.484v-8.047a.617.617 0 0 0-.35-.563l-6.416-2.962a.556.556 0 0 0-.467 0zm6.067 3.927v7.645c-.002.985-.451 1.91-1.208 2.486l-4.626 3.518-4.626-3.518c-.756-.577-1.205-1.501-1.207-2.486v-7.645l5.833-2.692 5.834 2.692zM30.155 46.739l-1.523-3.444a2.24 2.24 0 0 0-1.812-1.282 2.277 2.277 0 0 0-2.054.877 2.114 2.114 0 0 0-.241 2.16l2.76 5.874c.371.795.89 1.519 1.528 2.135l4.34 4.2c-.245.251-.381.582-.382.927v5.451c0 .753.63 1.363 1.408 1.363h7.746c.778 0 1.408-.61 1.408-1.363v-5.45c0-.754-.63-1.364-1.408-1.364v-1.268a6.99 6.99 0 0 0-1.543-4.463 5.064 5.064 0 0 0-2.347-1.656 13.993 13.993 0 0 1-4.032-2.504 3.326 3.326 0 0 0-3.848-.193zm11.77 16.898h-7.746v-5.45h7.746v5.45zm-2.643-11.694a5.66 5.66 0 0 1 1.235 3.612v1.268h-5.823l-4.885-4.727a5.893 5.893 0 0 1-1.243-1.736l-2.76-5.874a.788.788 0 0 1 .058-.774.844.844 0 0 1 .704-.371c.335 0 .638.193.769.491l1.575 3.555a8.033 8.033 0 0 0 1.776 2.538l3.217 3.113a.72.72 0 0 0 .684.186.693.693 0 0 0 .503-.487.667.667 0 0 0-.192-.662l-3.216-3.114a6.772 6.772 0 0 1-.868-1.022 1.879 1.879 0 0 1 2.28.037 15.09 15.09 0 0 0 4.493 2.753c.674.237 1.262.66 1.693 1.214z"/>
            <path d="M39.667 60H39c-.368 0-.667.224-.667.5s.299.5.667.5h.667c.368 0 .666-.224.666-.5s-.298-.5-.666-.5zM63.37 50.943l2.757-5.866a2.11 2.11 0 0 0-.22-2.179 2.276 2.276 0 0 0-2.07-.884 2.236 2.236 0 0 0-1.813 1.311l-1.518 3.426a3.333 3.333 0 0 0-3.85.204 13.984 13.984 0 0 1-4.028 2.5 5.06 5.06 0 0 0-2.345 1.654 6.978 6.978 0 0 0-1.542 4.46v1.266c-.778 0-1.408.609-1.408 1.36v5.444c0 .752.63 1.361 1.408 1.361h7.74c.776 0 1.406-.61 1.406-1.36v-5.444a1.33 1.33 0 0 0-.38-.926l4.335-4.194a7.227 7.227 0 0 0 1.528-2.133zM56.48 63.64h-7.74v-5.443h7.74v5.443zm-.514-6.804h-5.818v-1.267a5.65 5.65 0 0 1 1.233-3.606 3.691 3.691 0 0 1 1.689-1.213 15.073 15.073 0 0 0 4.49-2.75 1.878 1.878 0 0 1 2.283-.042c-.255.37-.547.714-.872 1.027l-3.214 3.11a.665.665 0 0 0 .008.953.72.72 0 0 0 .987.008l3.214-3.108a8.021 8.021 0 0 0 1.774-2.535l1.574-3.55a.836.836 0 0 1 .769-.49c.284 0 .549.14.703.37a.786.786 0 0 1 .058.773l-2.757 5.866a5.885 5.885 0 0 1-1.242 1.733l-4.88 4.72z"/>
            <path d="M51.667 60H51c-.368 0-.667.224-.667.5s.299.5.667.5h.667c.368 0 .666-.224.666-.5s-.298-.5-.666-.5zM42.248 38.257a.571.571 0 1 0-.686.914l2.286 1.715a.571.571 0 0 0 .818-.14l4.571-6.857a.571.571 0 0 0-.95-.635L44.05 39.61l-1.802-1.352z"/>
        </g>
    </g>
</svg>
