<svg xmlns="http://www.w3.org/2000/svg" width="45" height="45" viewBox="0 0 45 45">
    <g fill="none" fill-rule="nonzero">
        <path fill="#E7ECED" d="M15.803 35.28L9.09 38.942a6.033 6.033 0 0 0-1.077.767A22.396 22.396 0 0 0 22.5 45c5.48 0 10.5-1.961 14.403-5.217a5.956 5.956 0 0 0-1.183-.793l-7.19-3.594a2.741 2.741 0 0 1-1.515-2.452v-2.82c.202-.23.433-.526.68-.875a16.542 16.542 0 0 0 2.235-4.503 2.258 2.258 0 0 0 1.601-2.148v-3.011c0-.662-.294-1.254-.752-1.669v-4.352s.894-6.773-8.278-6.773c-9.173 0-8.278 6.773-8.278 6.773v4.352a2.245 2.245 0 0 0-.753 1.669v3.01c0 .794.417 1.492 1.041 1.895.752 3.275 2.722 5.632 2.722 5.632v2.75c0 1.003-.549 1.925-1.43 2.406z"/>
        <path fill="#556080" d="M22.885.003C10.46-.209.215 9.691.003 22.115c-.12 7.045 3.02 13.376 8.019 17.587a5.978 5.978 0 0 1 1.067-.76l6.714-3.661a2.743 2.743 0 0 0 1.429-2.407v-2.751s-1.971-2.357-2.722-5.632a2.258 2.258 0 0 1-1.041-1.894v-3.011c0-.662.294-1.254.752-1.668v-4.353s-.894-6.773 8.278-6.773c9.173 0 8.278 6.773 8.278 6.773v4.353c.459.414.753 1.006.753 1.668v3.01c0 1.013-.68 1.864-1.602 2.149a16.542 16.542 0 0 1-2.234 4.503c-.247.35-.478.645-.68.875v2.82a2.74 2.74 0 0 0 1.515 2.452l7.19 3.595c.43.215.82.488 1.18.79 4.847-4.042 7.98-10.088 8.096-16.895C45.209 10.46 35.31.215 22.885.003z"/>
    </g>
</svg>
