<svg xmlns="http://www.w3.org/2000/svg" width="122" height="122" viewBox="0 0 122 122">
    <g fill="none" fill-rule="nonzero">
        <path fill="#285680" d="M100.965 86.241v31.552A4.207 4.207 0 0 1 96.76 122H4.207A4.208 4.208 0 0 1 0 117.793V4.207A4.208 4.208 0 0 1 4.207 0H96.76a4.207 4.207 0 0 1 4.206 4.207v82.034z"/>
        <path fill="#B0D3F0" d="M100.965 99.392v19.518a3 3 0 0 1-3 3H3a3 3 0 0 1-3-3V16.828h100.965v82.564z"/>
        <path fill="#4482C3" d="M46.276 27.345v31.551H8.413V27.345c0-1.162.942-2.104 2.104-2.104h33.655c1.162 0 2.104.942 2.104 2.104z"/>
        <path fill="#2C2F38" d="M90.448 93.937a2.104 2.104 0 0 1-1.493-3.576l2.078-2.103a2.104 2.104 0 0 1 2.987 2.961l-2.078 2.104a2.11 2.11 0 0 1-1.494.614z"/>
        <path fill="#90BAE1" d="M27.345 33.655l3.778 4.929 6.74 1.5-4.406 4.545.387 5.854-6.5-2.118-6.499 2.118.387-5.854-4.404-4.546 6.739-1.5z"/>
        <path fill="#285680" d="M46.276 58.896v6.311a2.104 2.104 0 0 1-2.104 2.104H10.517a2.104 2.104 0 0 1-2.104-2.104v-6.31h37.863z"/>
        <path fill="#4482C3" d="M92.552 27.345v10.518H67.31V25.24h23.137c1.162 0 2.104.942 2.104 2.104z"/>
        <path fill="#285680" d="M92.552 37.863v10.516a2.104 2.104 0 0 1-2.104 2.104H67.311v-12.62h25.24z"/>
        <path fill="#90BAE1" d="M67.31 25.241v25.242H56.794a2.104 2.104 0 0 1-2.104-2.104V27.345c0-1.162.942-2.104 2.104-2.104H67.31z"/>
        <path fill="#285680" d="M90.448 72.902H54.69a2.103 2.103 0 0 1 0-4.207h35.76a2.104 2.104 0 0 1 0 4.207zM84.137 81.316H54.69a2.102 2.102 0 1 1 0-4.206h29.448a2.103 2.103 0 1 1 0 4.206zM10.738 77.674h33.317c1.226 0 2.22 1.499 2.22 3.347v20.085c0 1.85-.994 3.348-2.22 3.348H10.738c-1.226 0-2.221-1.499-2.221-3.348V81.021c0-1.848.995-3.347 2.221-3.347z"/>
        <g fill="#285680">
            <path d="M82.035 89.73H54.689a2.103 2.103 0 0 1 0-4.207h27.346a2.103 2.103 0 0 1 0 4.207zM82.035 98.143H54.689a2.102 2.102 0 1 1 0-4.206h27.346a2.102 2.102 0 1 1 0 4.206zM92.552 106.558H54.689a2.103 2.103 0 0 1 0-4.207h37.863a2.104 2.104 0 0 1 0 4.207z"/>
        </g>
        <path fill="#5E5F62" d="M120.71 59.479a4.472 4.472 0 0 1 .123 6.154l-17.844 19.489A14.184 14.184 0 0 1 92.53 89.73v-.676c.001-3.604 1.352-7.076 3.787-9.734l18.056-19.722a4.383 4.383 0 0 1 6.338-.12z"/>
        <path fill="#2C2F38" d="M114.358 59.606a4.384 4.384 0 0 1 6.353-.127 4.472 4.472 0 0 1 .122 6.154l-3.116 3.401-6.234-6.285 2.875-3.143z"/>
    </g>
</svg>
