<svg xmlns="http://www.w3.org/2000/svg" width="30" height="30" viewBox="0 0 30 30">
    <path fill="#74A167" fill-rule="nonzero" d="M19.975 16.09a.338.338 0 0 1 .36-.031l5.243 2.73c.338.175.61.464.764.812l3.378 7.61a1.683 1.683 0 0 1-.128 1.607 1.683 1.683 0 0 1-1.416.768H1.69a1.683 1.683 0 0 1-1.416-.768 1.683 1.683 0 0 1-.128-1.606l3.378-7.61c.155-.35.426-.638.764-.814l5.243-2.729a.338.338 0 0 1 .36.03c1.483 1.122 3.226 1.715 5.042 1.715 1.816 0 3.56-.593 5.042-1.715zM14.933 0c3.698 0 6.696 1.835 6.696 7.838 0 4.328-2.998 7.838-6.696 7.838-3.698 0-6.696-3.51-6.696-7.838C8.237 1.835 11.235 0 14.933 0z"/>
</svg>
