<svg xmlns="http://www.w3.org/2000/svg" width="14" height="15" viewBox="0 0 14 15">
    <path fill="#FFF" fill-rule="nonzero" d="M9.155 12.182c.074 0 .135.023.182.071a.246.246 0 0 1 .072.182v1.523a.247.247 0 0 1-.072.183.247.247 0 0 1-.182.07h-2.03a.247.247 0 0 1-.183-.07.247.247 0 0 1-.07-.183v-1.523c0-.074.023-.134.07-.182a.247.247 0 0 1 .183-.071zM3.572 0c.074 0 .135.024.182.071a.247.247 0 0 1 .072.183v10.912h1.522c.074 0 .135.024.183.072a.249.249 0 0 1 .071.182.298.298 0 0 1-.08.19l-2.53 2.53a.265.265 0 0 1-.182.072.285.285 0 0 1-.182-.071L.09 11.603c-.079-.085-.098-.177-.055-.278.042-.106.121-.159.238-.159h1.522V.254c0-.074.024-.135.072-.183A.247.247 0 0 1 2.049 0zm7.106 8.121c.074 0 .135.024.182.071a.247.247 0 0 1 .072.183v1.523a.247.247 0 0 1-.072.182.247.247 0 0 1-.182.071H7.125a.247.247 0 0 1-.183-.071.247.247 0 0 1-.07-.182V8.375c0-.074.023-.135.07-.183a.247.247 0 0 1 .183-.07zm1.523-4.06c.073 0 .134.023.182.071a.247.247 0 0 1 .071.182v1.523a.247.247 0 0 1-.07.182.247.247 0 0 1-.183.072H7.125a.247.247 0 0 1-.183-.072.247.247 0 0 1-.07-.182V4.314c0-.074.023-.134.07-.182a.247.247 0 0 1 .183-.071zM13.723 0c.074 0 .135.024.183.071a.247.247 0 0 1 .07.183v1.522a.247.247 0 0 1-.07.183.247.247 0 0 1-.183.071H7.125a.247.247 0 0 1-.183-.071.247.247 0 0 1-.07-.183V.254c0-.074.023-.135.07-.183A.247.247 0 0 1 7.125 0z"/>
</svg>
