<svg xmlns="http://www.w3.org/2000/svg" width="40" height="40" viewBox="0 0 40 40">
    <g fill="#297DB2" fill-rule="nonzero">
        <path d="M39.25 27.9a2.175 2.175 0 0 0-1.63-.699H27.374a4.913 4.913 0 0 1-1.691 2.299c-.792.6-1.676.9-2.651.9H16.89c-.975 0-1.86-.3-2.65-.9a4.913 4.913 0 0 1-1.692-2.299H2.303c-.64 0-1.183.233-1.631.7C.224 28.367 0 28.933 0 29.6v7.996c0 .666.224 1.234.672 1.7.448.466.991.699 1.631.699H37.62c.64 0 1.183-.233 1.63-.7.449-.466.673-1.033.673-1.699V29.6c0-.667-.224-1.232-.672-1.7zm-8.996 8.422a1.45 1.45 0 0 1-1.08.475c-.416 0-.775-.158-1.08-.475a1.569 1.569 0 0 1-.455-1.125c0-.433.152-.808.455-1.124.305-.316.664-.475 1.08-.475.416 0 .776.159 1.08.475.304.316.456.691.456 1.124 0 .434-.152.809-.456 1.125zm6.142 0a1.447 1.447 0 0 1-1.08.475c-.416 0-.775-.158-1.08-.475a1.57 1.57 0 0 1-.455-1.125c0-.433.152-.808.455-1.124.304-.316.664-.475 1.08-.475.416 0 .776.159 1.08.475.304.316.456.691.456 1.124 0 .434-.152.809-.456 1.125z"/>
        <path d="M9.213 14.406h6.142v11.196c0 .433.152.808.456 1.124.303.316.663.475 1.08.475h6.142c.415 0 .775-.159 1.08-.475.303-.316.455-.691.455-1.124V14.406h6.142c.672 0 1.144-.333 1.415-1 .272-.65.16-1.224-.336-1.724L21.041.487a1.399 1.399 0 0 0-1.08-.475 1.4 1.4 0 0 0-1.08.475L8.134 11.682c-.496.5-.608 1.075-.336 1.725.272.666.744 1 1.416 1z"/>
    </g>
</svg>
