<svg xmlns="http://www.w3.org/2000/svg" width="90" height="89" viewBox="0 0 90 89">
    <g fill="none" fill-rule="evenodd">
        <g stroke="#CD2727" stroke-width="2">
            <path d="M71.18 70.38c-.488.488-.986.96-1.494 1.414"/>
            <path stroke-dasharray="0.921,0" d="M66.739 74.17c-.171.124-.343.247-.516.367"/>
            <path stroke-dasharray="5.527,5.527,0.921,0" d="M66.223 74.537c-13.808 9.644-32.792 8.688-45.668-2.845"/>
            <path d="M20.552 71.69c-.51-.456-1.01-.929-1.5-1.419M71.18 70.38c14.366-14.366 14.317-37.709-.11-52.136s-37.77-14.476-52.136-.11c-14.366 14.367-14.317 37.71.11 52.137"/>
        </g>
        <g stroke="#000" opacity=".246">
            <path d="M76.21 75.247c-.488.489-.987.964-1.492 1.424"/>
            <path stroke-dasharray="0.9570000000000001,0" d="M71.684 79.194c-.176.133-.352.264-.53.394"/>
            <path stroke-dasharray="5.74,5.74,0.9570000000000001,0" d="M71.155 79.588C54.6 91.742 31.38 90.725 15.842 76.563"/>
            <path d="M15.846 76.568a44.922 44.922 0 0 1-1.497-1.43M76.21 75.247c17.055-17.055 17.006-44.756-.108-61.87C58.987-3.74 31.285-3.789 14.23 13.266c-17.055 17.054-17.005 44.757.11 61.871"/>
        </g>
        <g fill="#278D45" fill-rule="nonzero" stroke="#278D45" stroke-width=".5">
            <path d="M46.64 50.992a2.447 2.447 0 0 0 1.792-1.003l6.438-8.899a.688.688 0 0 0-.96-.96l-8.902 6.439a2.447 2.447 0 0 0 1.632 4.423zm-1.262-2.526c.024-.314.185-.6.438-.785l5.43-3.927-3.927 5.428a1.076 1.076 0 0 1-1.94-.716z"/>
            <path d="M60.974 38.124l-.023-.031a17.876 17.876 0 0 0-2.35-3.162l-.164-.177 1.783-1.778.945.943 2.481-2.476-2.48-2.475-2.483 2.475.946.944-1.783 1.778L57.67 34a17.975 17.975 0 0 0-3.185-2.354 6.654 6.654 0 0 1-.022-.017l-.038-.017a17.696 17.696 0 0 0-6.77-2.237l-.22-.026v-1.267h1.252a1.42 1.42 0 0 0 1.42-1.416 1.42 1.42 0 0 0-1.421-1.417H42.67a1.42 1.42 0 0 0-1.42 1.417 1.42 1.42 0 0 0 1.42 1.416h1.253v1.246l-.224.024a18.17 18.17 0 0 0-2.125.351.416.416 0 1 0 .187.812c.622-.142 1.252-.25 1.894-.323l.718-.056c.21-.016.414-.028.624-.038l.262-.012v1.58c0 .23.187.416.419.416a.417.417 0 0 0 .418-.416v-1.575l.261.012c2.501.114 4.91.776 7.093 1.925l.23.121-.13.225-.659 1.138a.416.416 0 0 0 .362.625c.149 0 .287-.078.363-.209l.787-1.36.22.14a17.067 17.067 0 0 1 5.271 5.258l.14.22-.226.13-1.138.656a.415.415 0 0 0 .211.777.414.414 0 0 0 .209-.056l1.365-.787.121.23a16.763 16.763 0 0 1 1.933 7.186l.01.26h-1.58a.417.417 0 1 0 0 .833h1.58l-.01.26a16.763 16.763 0 0 1-1.933 7.186l-.12.23-.225-.13-1.141-.657a.418.418 0 0 0-.572.152.416.416 0 0 0 .153.569l1.365.786-.14.22a17.067 17.067 0 0 1-5.272 5.259l-.22.139-.13-.225-.657-1.136a.418.418 0 0 0-.725.416l.79 1.364-.23.12a16.857 16.857 0 0 1-7.093 1.926l-.262.012v-1.574a.417.417 0 0 0-.418-.416.417.417 0 0 0-.418.416v1.576l-.259-.008a17.155 17.155 0 0 1-3.241-.419.416.416 0 1 0-.185.813 17.85 17.85 0 0 0 3.993.455h.039l.01-.001.048-.002.01.001.015-.001a17.745 17.745 0 0 0 8.733-2.36l.034-.014.04-.03a17.934 17.934 0 0 0 6.452-6.435.833.833 0 0 1 .023-.03l.02-.046A17.586 17.586 0 0 0 63.363 47c0-3.138-.826-6.16-2.37-8.832l-.01-.018-.01-.026zm.19-7.976l1.3 1.295-1.3 1.297-1.3-1.297 1.3-1.295zM44.76 27.25h-2.089a.585.585 0 0 1-.584-.583c0-.322.262-.584.584-.584h6.015a.585.585 0 0 1 0 1.167h-2.09v2.024l-.26-.01c-.229-.01-.447-.014-.657-.014h-.022l-.037.001h-.035l-.015-.001c-.044 0-.087.001-.155.004h-.026l-.142.005-.092.002h-.003c-.066 0-.094.001-.131.003l-.26.01V27.25zM40.286 35h-3.572c-.395 0-.714.223-.714.5s.32.5.714.5h3.572c.395 0 .714-.223.714-.5s-.32-.5-.714-.5zM40.333 39h-6.666c-.369 0-.667.223-.667.5s.298.5.667.5h6.666c.369 0 .667-.223.667-.5s-.298-.5-.667-.5zM39.353 44h-9.706c-.358 0-.647.224-.647.5s.29.5.647.5h9.706c.358 0 .647-.224.647-.5s-.29-.5-.647-.5zM40.333 49H27.667c-.369 0-.667.224-.667.5s.298.5.667.5h12.666c.369 0 .667-.224.667-.5s-.298-.5-.667-.5zM40.333 53h-8.666c-.369 0-.667.224-.667.5s.298.5.667.5h8.666c.369 0 .667-.224.667-.5s-.298-.5-.667-.5zM40.333 58h-4.666c-.369 0-.667.224-.667.5s.298.5.667.5h4.666c.369 0 .667-.224.667-.5s-.298-.5-.667-.5z"/>
        </g>
    </g>
</svg>
