<svg xmlns="http://www.w3.org/2000/svg" width="90" height="89" viewBox="0 0 90 89">
    <g fill="none" fill-rule="evenodd">
        <g stroke="#CD2727" stroke-width="2">
            <path d="M71.18 70.38c-.488.488-.986.96-1.494 1.414"/>
            <path stroke-dasharray="0.921,0" d="M66.739 74.17c-.171.124-.343.247-.516.367"/>
            <path stroke-dasharray="5.527,5.527,0.921,0" d="M66.223 74.537c-13.808 9.644-32.792 8.688-45.668-2.845"/>
            <path d="M20.552 71.69c-.51-.456-1.01-.929-1.5-1.419M71.18 70.38c14.366-14.366 14.317-37.709-.11-52.136s-37.77-14.476-52.136-.11c-14.366 14.367-14.317 37.71.11 52.137"/>
        </g>
        <g stroke="#000" opacity=".501">
            <path d="M76.21 75.247c-.488.489-.987.964-1.492 1.424"/>
            <path stroke-dasharray="0.9570000000000001,0" d="M71.684 79.194c-.176.133-.352.264-.53.394"/>
            <path stroke-dasharray="5.74,5.74,0.9570000000000001,0" d="M71.155 79.588C54.6 91.742 31.38 90.725 15.842 76.563"/>
            <path d="M15.846 76.568a44.922 44.922 0 0 1-1.497-1.43M76.21 75.247c17.055-17.055 17.006-44.756-.108-61.87C58.987-3.74 31.285-3.789 14.23 13.266c-17.055 17.054-17.005 44.757.11 61.871"/>
        </g>
        <path fill="#2A803F" fill-rule="nonzero" stroke="#2A803F" stroke-width=".3" d="M63.383 48.2h-3.6l-3.334-1.11-1.082-2.708v-2.04a2.768 2.768 0 0 0-2.471-2.744c0-.085.004-.17.004-.254v-9.027a.617.617 0 0 0-.44-.591l-12.333-3.7a.616.616 0 0 0-.354 0l-12.333 3.7a.617.617 0 0 0-.44.59v9.028c0 .286.02.569.03.853.015.416.038.83.075 1.241l.022.206a22.778 22.778 0 0 0 12.547 18.21.617.617 0 0 0 .552 0 23.078 23.078 0 0 0 2.665-1.569c.194.267.438.492.72.664A2.467 2.467 0 0 0 45.5 63h10.483c.122 0 .241-.036.343-.104l3.542-2.363h3.515c.34 0 .617-.276.617-.616v-11.1a.617.617 0 0 0-.617-.617zm-13.346-3.03l.719 1.797h-3.583a15.989 15.989 0 0 0 2.023-7.68l2.47-.741v.798c0 .132-.004.263-.006.396a2.77 2.77 0 0 0-1.843 2.602v1.683c0 .392.074.781.22 1.145zm-8.854 4.263c0 .63.244 1.236.679 1.692-.23.166-.453.339-.69.493l-1.222.782-1.22-.784a14.744 14.744 0 0 1-5.914-7.415l15.133-4.54a14.753 14.753 0 0 1-2.214 7.306H43.65a2.467 2.467 0 0 0-2.467 2.466zm-12.615-6.328l-.015-.092 2.45-.733c.073.37.161.74.26 1.101l-2.486.747a22.85 22.85 0 0 1-.209-1.023zm-.284-2.477l2.439-.732c.017.386.045.77.09 1.151l-2.434.73c-.006-.055-.01-.11-.017-.165-.031-.318-.06-.641-.078-.984zm19.683-7.193l-16.034 4.81v-4.41l8.038-2.87 7.996 2.283v.187zm0 1.287v1.18l-15.95 4.784a15.359 15.359 0 0 1-.073-1.157l16.023-4.807zm3.7 1.357v1.179l-2.467.74v-1.18l2.467-.739zm0-1.288l-2.467.74v-1.179l2.467-.74v1.18zm-19.477 7.13l10.034-3.01 5.743-1.722v1.179l-15.523 4.657c-.098-.364-.185-.73-.254-1.103zm-3.957-11.145L39.95 27.26l11.717 3.515v1.549l-2.467.74v-.282a.616.616 0 0 0-.447-.592l-8.633-2.467a.61.61 0 0 0-.377.012l-8.633 3.083a.616.616 0 0 0-.41.581v5.215l-2.467.74v-8.58zM39.95 58.608a21.56 21.56 0 0 1-10.887-13.282l2.57-.77a15.967 15.967 0 0 0 6.43 8.098l1.553.998c.204.13.464.13.668 0l1.553-.998.016-.01a2.438 2.438 0 0 0 1.143 2.603 2.46 2.46 0 0 0-.58 1.586c.002.086.008.172.018.257a21.705 21.705 0 0 1-2.484 1.518zm15.848 3.159H45.5a1.233 1.233 0 0 1-1.233-1.234 1.222 1.222 0 0 1 1.13-1.22.63.63 0 0 0 .565-.654.616.616 0 0 0-.617-.592h-.462a1.233 1.233 0 0 1 0-2.467.617.617 0 0 0 0-1.233h-.616a1.233 1.233 0 0 1 0-2.467.617.617 0 0 0 0-1.233h-.617a1.233 1.233 0 0 1 0-2.467h8.017a.615.615 0 0 0 .573-.846l-1.058-2.642a1.836 1.836 0 0 1-.132-.687v-1.683a1.542 1.542 0 1 1 3.083 0V44.5a.63.63 0 0 0 .044.23l1.233 3.083a.622.622 0 0 0 .379.356l3.278 1.092v10.326l-3.269 2.18zm6.969-2.467H60.3v-9.867h2.467V59.3z"/>
    </g>
</svg>
