<svg xmlns="http://www.w3.org/2000/svg" width="90" height="89" viewBox="0 0 90 89">
    <g fill="none" fill-rule="evenodd">
        <g stroke="#CD2727" stroke-width="2">
            <path d="M71.18 70.38c-.488.488-.986.96-1.494 1.414"/>
            <path stroke-dasharray="0.921,0" d="M66.739 74.17c-.171.124-.343.247-.516.367"/>
            <path stroke-dasharray="5.527,5.527,0.921,0" d="M66.223 74.537c-13.808 9.644-32.792 8.688-45.668-2.845"/>
            <path d="M20.552 71.69c-.51-.456-1.01-.929-1.5-1.419M71.18 70.38c14.366-14.366 14.317-37.709-.11-52.136s-37.77-14.476-52.136-.11c-14.366 14.367-14.317 37.71.11 52.137"/>
        </g>
        <g stroke="#000" opacity=".247">
            <path d="M76.21 75.247c-.488.489-.987.964-1.492 1.424"/>
            <path stroke-dasharray="0.9570000000000001,0" d="M71.684 79.194c-.176.133-.352.264-.53.394"/>
            <path stroke-dasharray="5.74,5.74,0.9570000000000001,0" d="M71.155 79.588C54.6 91.742 31.38 90.725 15.842 76.563"/>
            <path d="M15.846 76.568a44.922 44.922 0 0 1-1.497-1.43M76.21 75.247c17.055-17.055 17.006-44.756-.108-61.87C58.987-3.74 31.285-3.789 14.23 13.266c-17.055 17.054-17.005 44.757.11 61.871"/>
        </g>
        <g transform="translate(29 27)">
            <ellipse cx="15.65" cy="8.713" stroke="#FBA100" stroke-width="2" rx="8.25" ry="8.713"/>
            <circle cx="33" cy="8" r="6" fill="#F9A021" fill-rule="nonzero"/>
            <path stroke="#FFF" stroke-linecap="square" d="M33 5.5v5.01M35.5 8h-5.01"/>
            <path stroke="#FBA100" stroke-width="2" d="M.031 35H31.27c-.516-8.177-7.312-14.65-15.619-14.65C7.343 20.35.547 26.823.031 35z"/>
        </g>
    </g>
</svg>
